M48
; DRILL file {KiCad 8.0.7-8.0.7-0~ubuntu22.04.1} date 2025-02-16T01:16:11+0530
; FORMAT={-:-/ absolute / inch / decimal}
; #@! TF.CreationDate,2025-02-16T01:16:11+05:30
; #@! TF.GenerationSoftware,Kicad,Pcbnew,8.0.7-8.0.7-0~ubuntu22.04.1
; #@! TF.FileFunction,Plated,1,4,PTH
FMAT,2
INCH
; #@! TA.AperFunction,Plated,PTH,ViaDrill
T1C0.0118
; #@! TA.AperFunction,Plated,PTH,ComponentDrill
T2C0.0236
; #@! TA.AperFunction,Plated,PTH,ComponentDrill
T3C0.0315
; #@! TA.AperFunction,Plated,PTH,ComponentDrill
T4C0.0350
; #@! TA.AperFunction,Plated,PTH,ComponentDrill
T5C0.0354
; #@! TA.AperFunction,Plated,PTH,ComponentDrill
T6C0.0374
; #@! TA.AperFunction,Plated,PTH,ComponentDrill
T7C0.0390
; #@! TA.AperFunction,Plated,PTH,ComponentDrill
T8C0.0394
; #@! TA.AperFunction,Plated,PTH,ComponentDrill
T9C0.0402
; #@! TA.AperFunction,Plated,PTH,ComponentDrill
T10C0.0512
; #@! TA.AperFunction,Plated,PTH,ComponentDrill
T11C0.0642
; #@! TA.AperFunction,Plated,PTH,ComponentDrill
T12C0.0866
%
G90
G05
T1
X4.3681Y-6.6437
X4.3681Y-6.6791
X4.3681Y-6.7146
X4.3681Y-6.75
X4.3681Y-6.7854
X4.3681Y-6.8209
X4.3681Y-6.8602
X4.3681Y-6.8957
X4.3681Y-6.935
X4.3681Y-6.9744
X4.4035Y-6.8957
X4.4035Y-6.935
X4.4035Y-6.9744
X4.4075Y-6.6437
X4.4075Y-6.6791
X4.4075Y-6.7146
X4.4075Y-6.75
X4.4075Y-6.7854
X4.4075Y-6.8209
X4.4075Y-6.8602
X4.439Y-6.8957
X4.439Y-6.935
X4.439Y-6.9744
X4.4744Y-6.8957
X4.4744Y-6.935
X4.4744Y-6.9744
X4.5098Y-6.8957
X4.5098Y-6.935
X4.5098Y-6.9744
X4.5866Y-6.0866
X4.6004Y-6.1201
X4.626Y-6.6949
X4.6437Y-6.128
X4.6673Y-6.8799
X4.6673Y-6.9193
X4.6831Y-5.5295
X4.6831Y-5.561
X4.6831Y-5.5925
X4.6831Y-5.624
X4.6831Y-6.1043
X4.6909Y-5.9547
X4.7106Y-6.8799
X4.7106Y-6.9193
X4.7185Y-5.5295
X4.7185Y-5.561
X4.7185Y-5.5925
X4.7185Y-5.624
X4.7264Y-6.1949
X4.7343Y-5.9508
X4.7416Y-5.841
X4.7453Y-6.1634
X4.7539Y-5.5295
X4.7539Y-5.561
X4.7539Y-5.5925
X4.7539Y-5.624
X4.7539Y-6.75
X4.7539Y-6.7933
X4.7539Y-6.8366
X4.7539Y-6.8799
X4.7539Y-6.9232
X4.7665Y-5.8638
X4.7854Y-7.1043
X4.7854Y-7.1476
X4.7854Y-7.1909
X4.7854Y-7.2343
X4.7854Y-7.2776
X4.7854Y-7.3209
X4.7854Y-7.3642
X4.7854Y-7.4075
X4.7854Y-7.4508
X4.7854Y-7.4941
X4.7854Y-7.5413
X4.7854Y-7.5846
X4.7854Y-7.628
X4.7854Y-7.6713
X4.7854Y-7.7146
X4.7854Y-7.7579
X4.7894Y-5.5295
X4.7894Y-5.561
X4.7894Y-5.5925
X4.7894Y-5.624
X4.7972Y-6.75
X4.7972Y-6.7972
X4.7972Y-6.8366
X4.7972Y-6.8799
X4.8012Y-5.8366
X4.8122Y-5.8681
X4.8248Y-5.5295
X4.8248Y-5.561
X4.8248Y-5.5925
X4.8248Y-5.624
X4.8287Y-7.1043
X4.8287Y-7.1476
X4.8287Y-7.1909
X4.8287Y-7.2343
X4.8287Y-7.2776
X4.8287Y-7.3209
X4.8287Y-7.3642
X4.8287Y-7.4075
X4.8287Y-7.4508
X4.8287Y-7.4941
X4.8287Y-7.5413
X4.8287Y-7.5846
X4.8287Y-7.628
X4.8287Y-7.6713
X4.8287Y-7.7146
X4.8287Y-7.7579
X4.8406Y-6.75
X4.8406Y-6.7972
X4.8406Y-6.8366
X4.8406Y-6.8799
X4.8445Y-6.1634
X4.8445Y-6.1949
X4.872Y-7.1043
X4.872Y-7.1476
X4.872Y-7.1909
X4.872Y-7.2343
X4.872Y-7.2776
X4.872Y-7.3209
X4.872Y-7.3642
X4.872Y-7.4075
X4.872Y-7.4508
X4.872Y-7.4941
X4.872Y-7.5413
X4.872Y-7.5846
X4.872Y-7.628
X4.872Y-7.6713
X4.872Y-7.7146
X4.872Y-7.7579
X4.8799Y-5.9193
X4.8839Y-6.7933
X4.8839Y-6.8366
X4.8839Y-6.8799
X4.9028Y-5.8642
X4.9146Y-5.2193
X4.915Y-5.2512
X4.9154Y-7.1043
X4.9154Y-7.1476
X4.9154Y-7.1909
X4.9154Y-7.2343
X4.9154Y-7.2776
X4.9154Y-7.3209
X4.9154Y-7.3642
X4.9154Y-7.4075
X4.9154Y-7.4508
X4.9154Y-7.4941
X4.9154Y-7.5413
X4.9154Y-7.5886
X4.9154Y-7.628
X4.9154Y-7.6713
X4.9154Y-7.7146
X4.9154Y-7.7579
X4.9193Y-6.1319
X4.9193Y-6.1752
X4.9193Y-6.2185
X4.9193Y-6.2579
X4.9193Y-6.3012
X4.9193Y-6.3445
X4.9193Y-6.3839
X4.9193Y-6.4232
X4.9193Y-6.4587
X4.9193Y-6.4941
X4.9272Y-6.8366
X4.9272Y-6.8799
X4.935Y-5.8602
X4.9386Y-5.1
X4.9626Y-5.8996
X4.966Y-5.0526
X4.9665Y-6.1319
X4.9665Y-6.1752
X4.9665Y-6.2185
X4.9665Y-6.2579
X4.9665Y-6.3012
X4.9665Y-6.3445
X4.9665Y-6.3839
X4.9665Y-6.4232
X4.9665Y-6.4587
X4.9665Y-6.4941
X4.9665Y-6.5295
X4.9705Y-6.8799
X5.0177Y-5.8051
X5.0177Y-5.8406
X5.0177Y-5.8799
X5.0177Y-5.9193
X5.0177Y-6.1319
X5.0177Y-6.1752
X5.0177Y-6.2185
X5.0177Y-6.2579
X5.0177Y-6.3012
X5.0374Y-6.9547
X5.061Y-5.8012
X5.061Y-5.8406
X5.061Y-5.8799
X5.061Y-5.9193
X5.0689Y-6.1319
X5.0728Y-6.1752
X5.0768Y-6.2185
X5.0768Y-6.2579
X5.0807Y-6.4075
X5.0807Y-6.4429
X5.0807Y-6.4783
X5.1043Y-5.8012
X5.1043Y-5.8406
X5.1043Y-5.8799
X5.1043Y-5.9193
X5.1161Y-6.372
X5.1161Y-6.4075
X5.1161Y-6.4429
X5.1161Y-6.4783
X5.1201Y-6.1319
X5.1201Y-6.1752
X5.1201Y-6.2185
X5.1201Y-6.2579
X5.1516Y-5.8012
X5.1516Y-5.8406
X5.1516Y-5.876
X5.1516Y-5.9193
X5.1516Y-6.3366
X5.1516Y-6.372
X5.1516Y-6.4075
X5.1516Y-6.4429
X5.1516Y-6.4783
X5.187Y-6.372
X5.187Y-6.4075
X5.187Y-6.4429
X5.187Y-6.4783
X5.2213Y-5.8366
X5.2224Y-6.4075
X5.2224Y-6.4429
X5.2224Y-6.4783
X5.2441Y-5.8917
X5.2802Y-6.5347
X5.2894Y-6.3327
X5.2908Y-6.2381
X5.2933Y-6.2067
X5.3209Y-6.4823
X5.3248Y-6.624
X5.3366Y-7.1555
X5.3366Y-7.1949
X5.3366Y-7.2343
X5.3445Y-6.3563
X5.3602Y-6.624
X5.3681Y-5.9193
X5.372Y-6.0965
X5.372Y-7.124
X5.372Y-7.1673
X5.376Y-6.4823
X5.376Y-7.2067
X5.3917Y-5.8878
X5.3996Y-6.624
X5.4075Y-6.1634
X5.4075Y-6.1949
X5.4114Y-6.0925
X5.4154Y-7.1673
X5.4232Y-6.8602
X5.4232Y-6.9705
X5.4232Y-6.9988
X5.435Y-6.4823
X5.4383Y-6.7654
X5.4469Y-6.1634
X5.4469Y-6.1949
X5.4469Y-6.2303
X5.4626Y-6.7854
X5.4665Y-5.8681
X5.4705Y-5.9114
X5.4705Y-6.0925
X5.4862Y-6.1634
X5.4862Y-6.1949
X5.4862Y-6.2303
X5.4862Y-6.6791
X5.4902Y-6.4823
X5.5138Y-7.1516
X5.5205Y-6.9924
X5.5217Y-5.813
X5.5217Y-6.1634
X5.5217Y-6.1949
X5.5217Y-6.2303
X5.5295Y-6.0965
X5.5295Y-6.7028
X5.5335Y-6.5335
X5.5492Y-6.7894
X5.5595Y-5.8185
X5.5635Y-6.4406
X5.5669Y-7.1949
X5.5768Y-6.0965
X5.5846Y-6.7894
X5.5965Y-6.3563
X5.6043Y-5.9587
X5.6201Y-6.3335
X5.628Y-6.1122
X5.628Y-6.4154
X5.6516Y-6.4429
X5.6673Y-6.9705
X5.6673Y-7.1555
X5.6673Y-7.2028
X5.6713Y-5.502
X5.6713Y-5.5335
X5.6713Y-5.565
X5.6713Y-5.5965
X5.6713Y-5.628
X5.6963Y-6.3903
X5.6998Y-5.8081
X5.7067Y-5.502
X5.7067Y-5.5335
X5.7067Y-5.565
X5.7067Y-5.5965
X5.7067Y-5.628
X5.7185Y-6.8484
X5.7234Y-5.7726
X5.7264Y-6.0965
X5.7343Y-6.4587
X5.7421Y-5.502
X5.7421Y-5.5335
X5.7421Y-5.565
X5.7421Y-5.5965
X5.7421Y-5.628
X5.7421Y-6.876
X5.7618Y-6.1594
X5.7618Y-6.1909
X5.7776Y-5.502
X5.7776Y-5.5335
X5.7776Y-5.565
X5.7776Y-5.5965
X5.7776Y-5.628
X5.7874Y-5.9213
X5.813Y-5.502
X5.813Y-5.5335
X5.813Y-5.565
X5.813Y-5.5965
X5.813Y-5.628
X5.8996Y-7.2003
X5.9193Y-6.6398
X5.9193Y-6.6713
X5.9193Y-6.7028
X5.9193Y-6.7343
X5.9193Y-6.7657
X5.9193Y-6.7972
X5.9193Y-6.8287
X5.9193Y-6.8602
X5.9193Y-6.8917
X5.935Y-7.2003
X5.936Y-7.2904
X5.9429Y-5.878
X5.9547Y-6.6398
X5.9547Y-6.6713
X5.9547Y-6.7028
X5.9547Y-6.7343
X5.9547Y-6.7657
X5.9547Y-6.7972
X5.9547Y-6.8287
X5.9547Y-6.8602
X5.9547Y-6.8917
X5.9657Y-5.9002
X5.9902Y-6.6713
X5.9902Y-6.7028
X5.9902Y-6.7343
X5.9902Y-6.7657
X5.9902Y-6.7972
X5.9902Y-6.8287
X5.9902Y-6.8602
X5.9902Y-6.8917
X6.0256Y-6.7028
X6.0256Y-6.7343
X6.0256Y-6.7657
X6.0256Y-6.7972
X6.0256Y-6.8287
X6.0256Y-6.8602
X6.0256Y-6.8917
X6.0276Y-7.7894
X6.0492Y-7.7657
X6.061Y-6.7343
X6.061Y-6.7657
X6.061Y-6.7972
X6.061Y-6.8287
X6.061Y-6.8602
X6.061Y-6.8917
X6.065Y-5.9075
X6.0965Y-6.7657
X6.0965Y-6.7972
X6.0965Y-6.8287
X6.0965Y-6.8602
X6.0965Y-6.8917
X6.1122Y-6.435
X6.1161Y-5.624
X6.124Y-6.1004
X6.124Y-6.1398
X6.128Y-5.9035
X6.1319Y-6.7972
X6.1319Y-6.8287
X6.1319Y-6.8602
X6.1319Y-6.8917
X6.1398Y-7.8209
X6.1437Y-6.4587
X6.1516Y-5.5886
X6.1516Y-5.624
X6.1516Y-7.2894
X6.1634Y-6.8602
X6.1634Y-6.8957
X6.1713Y-7.2003
X6.1791Y-5.9035
X6.1791Y-7.752
X6.187Y-5.5886
X6.187Y-5.624
X6.187Y-6.124
X6.187Y-6.1713
X6.1949Y-6.8602
X6.1949Y-6.8957
X6.2224Y-5.5886
X6.2224Y-5.624
X6.2303Y-5.9075
X6.2343Y-6.124
X6.2343Y-6.1673
X6.2579Y-5.5886
X6.2579Y-5.624
X6.2776Y-7.8031
X6.2795Y-7.8366
X6.2854Y-5.9035
X6.2854Y-6.124
X6.2854Y-6.1673
X6.2923Y-7.1004
X6.2933Y-5.5886
X6.2933Y-5.624
X6.3169Y-7.0776
X6.3287Y-5.5886
X6.3287Y-5.624
X6.3406Y-5.9035
X6.3445Y-6.1437
X6.3642Y-5.5886
X6.3642Y-5.624
X6.3776Y-7.3933
X6.3799Y-6.0945
X6.3957Y-5.9035
X6.3996Y-5.5886
X6.3996Y-5.624
X6.4038Y-7.1052
X6.4173Y-7.3858
X6.4177Y-7.9433
X6.4304Y-7.0884
X6.435Y-5.5886
X6.435Y-5.624
X6.4429Y-6.1398
X6.4429Y-7.8839
X6.4547Y-5.9035
X6.4626Y-7.376
X6.4626Y-7.9547
X6.4642Y-7.9209
X6.4705Y-5.5886
X6.4705Y-5.624
X6.4793Y-7.4144
X6.5059Y-5.5886
X6.5059Y-5.624
X6.5118Y-7.4142
X6.5217Y-5.9035
X6.5236Y-6.1398
X6.5413Y-5.5886
X6.5413Y-5.624
X6.5453Y-7.2815
X6.5472Y-7.3268
X6.5512Y-7.378
X6.561Y-7.437
X6.5768Y-5.5886
X6.5768Y-5.624
X6.5807Y-7.8386
X6.5827Y-7.7913
X6.5866Y-7.376
X6.5886Y-5.9035
X6.5969Y-7.4512
X6.6122Y-5.5886
X6.6122Y-5.624
X6.6165Y-7.7898
X6.624Y-6.1358
X6.6476Y-5.5886
X6.6476Y-5.624
X6.6594Y-5.9035
X6.6831Y-5.5886
X6.6831Y-5.624
X6.6969Y-7.8091
X6.7037Y-6.9163
X6.7185Y-5.5886
X6.7185Y-5.624
X6.7264Y-5.9035
X6.7362Y-7.7756
X6.7539Y-5.5886
X6.7539Y-5.624
X6.7756Y-7.3839
X6.7894Y-5.5886
X6.7894Y-5.624
X6.7933Y-5.9035
X6.7933Y-7.1043
X6.7984Y-7.409
X6.8169Y-7.0768
X6.8248Y-5.5886
X6.8248Y-5.624
X6.8268Y-7.439
X6.8386Y-7.8248
X6.8506Y-7.4595
X6.8563Y-7.1181
X6.8563Y-7.1594
X6.8563Y-7.1969
X6.8602Y-5.5886
X6.8602Y-5.624
X6.8602Y-5.9035
X6.8839Y-7.065
X6.8957Y-5.5886
X6.8957Y-5.624
X6.8957Y-7.1043
X6.9232Y-7.376
X6.9272Y-5.9035
X6.9311Y-5.5886
X6.9311Y-5.624
X6.9463Y-7.3982
X6.9665Y-5.5886
X6.9665Y-5.5886
X6.9665Y-5.624
X6.9705Y-7.4224
X6.998Y-5.9035
X7.002Y-5.5886
X7.002Y-5.624
X7.0118Y-6.9055
X7.0157Y-6.5463
X7.0276Y-6.5728
X7.0374Y-5.5886
X7.0374Y-5.624
X7.0689Y-5.9035
X7.0728Y-5.5886
X7.0728Y-5.624
X7.0945Y-7.439
X7.0965Y-6.9055
X7.1083Y-5.5886
X7.1083Y-5.624
X7.1358Y-5.9035
X7.1398Y-7.4941
X7.1437Y-5.5886
X7.1437Y-5.624
X7.1673Y-6.876
X7.1673Y-6.9193
X7.1673Y-6.9547
X7.1673Y-6.9941
X7.1673Y-7.0335
X7.1673Y-7.0728
X7.1673Y-7.1083
X7.1673Y-7.1398
X7.1732Y-6.5463
X7.1752Y-6.5719
X7.1752Y-7.2185
X7.1791Y-5.5886
X7.1791Y-5.624
X7.1988Y-7.1949
X7.2028Y-5.9035
X7.2028Y-7.5354
X7.2146Y-5.5886
X7.2146Y-5.624
X7.2303Y-7.6043
X7.2323Y-7.5689
X7.2329Y-6.9665
X7.2329Y-6.9941
X7.25Y-5.5886
X7.25Y-5.624
X7.252Y-7.1909
X7.2549Y-7.3179
X7.2579Y-5.7028
X7.2657Y-7.6043
X7.2894Y-5.7028
X7.3248Y-5.7028
X7.3406Y-3.8091
X7.3406Y-3.8445
X7.3406Y-3.8799
X7.3406Y-3.9154
X7.3406Y-3.9508
X7.3406Y-3.9862
X7.3406Y-4.0217
X7.3406Y-4.0571
X7.3406Y-4.0965
X7.3406Y-4.1358
X7.3484Y-6.8091
X7.3543Y-7.5315
X7.3563Y-7.0807
X7.3563Y-7.124
X7.3602Y-5.7028
X7.3602Y-5.8602
X7.3602Y-5.8957
X7.3602Y-5.9272
X7.3602Y-5.9626
X7.3602Y-5.9941
X7.376Y-3.8091
X7.376Y-3.8445
X7.376Y-3.8799
X7.3839Y-6.6988
X7.3858Y-7.5689
X7.3957Y-7.872
X7.3957Y-7.9035
X7.3957Y-7.935
X7.4035Y-7.0807
X7.4035Y-7.124
X7.4035Y-7.1713
X7.4065Y-6.9321
X7.4114Y-3.8091
X7.4114Y-3.8445
X7.4114Y-3.8799
X7.4114Y-7.5295
X7.4173Y-7.6043
X7.4252Y-7.5669
X7.4311Y-7.872
X7.4311Y-7.9035
X7.4311Y-7.935
X7.439Y-7.6705
X7.4547Y-7.5276
X7.4547Y-7.6024
X7.4587Y-7.563
X7.4646Y-7.3484
X7.4665Y-7.872
X7.4665Y-7.9035
X7.4665Y-7.935
X7.4949Y-3.8878
X7.4949Y-3.9626
X7.502Y-7.872
X7.502Y-7.9035
X7.502Y-7.935
X7.5056Y-3.8366
X7.5256Y-6.8091
X7.5374Y-7.872
X7.5374Y-7.9035
X7.5374Y-7.935
X7.5413Y-3.9035
X7.5492Y-7.5059
X7.5728Y-7.872
X7.5728Y-7.9035
X7.5728Y-7.935
X7.5807Y-3.9035
X7.5965Y-6.9311
X7.6083Y-7.872
X7.6083Y-7.9035
X7.6083Y-7.935
X7.6161Y-7.2776
X7.6201Y-3.9035
X7.6437Y-7.872
X7.6437Y-7.9035
X7.6437Y-7.935
X7.6791Y-7.872
X7.6791Y-7.9035
X7.6791Y-7.935
X7.6831Y-7.5197
X7.7146Y-7.872
X7.7146Y-7.9035
X7.7146Y-7.935
X7.7224Y-3.6752
X7.7362Y-7.2776
X7.7776Y-3.6791
X7.8327Y-5.8799
X7.8327Y-5.9193
X7.8327Y-5.9547
X7.8327Y-5.9902
X7.8327Y-6.0256
X7.8327Y-6.061
X7.8327Y-6.0965
X7.8327Y-6.1319
X7.8327Y-6.1673
X7.8327Y-6.2028
X7.8327Y-6.2382
X7.8366Y-3.6713
X7.8661Y-7.2776
X7.8681Y-4.0335
X7.8681Y-5.8799
X7.8681Y-5.9193
X7.8681Y-5.9547
X7.8681Y-5.9902
X7.8681Y-6.0256
X7.8681Y-6.061
X7.8681Y-6.0965
X7.8681Y-6.1319
X7.8681Y-6.1673
X7.8681Y-6.2028
X7.8681Y-6.2382
X7.8957Y-3.6752
X7.9035Y-5.8799
X7.9035Y-5.9193
X7.9035Y-5.9547
X7.9035Y-5.9902
X7.9035Y-6.0256
X7.9035Y-6.061
X7.9035Y-6.0965
X7.9035Y-6.1319
X7.9035Y-6.1673
X7.9035Y-6.2028
X7.9035Y-6.2382
X7.9075Y-4.0728
X7.939Y-5.8799
X7.939Y-5.9193
X7.939Y-5.9547
X7.939Y-5.9902
X7.939Y-6.0256
X7.939Y-6.061
X7.939Y-6.0965
X7.939Y-6.1319
X7.939Y-6.1673
X7.939Y-6.2028
X7.939Y-6.2382
X7.9547Y-3.6752
X7.9587Y-4.0768
X7.9744Y-5.8799
X7.9744Y-5.8799
X7.9744Y-5.9193
X7.9744Y-5.9193
X7.9744Y-5.9547
X7.9744Y-5.9902
X7.9744Y-6.0256
X7.9744Y-6.061
X7.9744Y-6.0965
X7.9744Y-6.1319
X7.9744Y-6.1673
X7.9744Y-6.2028
X7.9744Y-6.2382
X7.9783Y-6.4232
X8.0098Y-5.8799
X8.0098Y-5.9193
X8.0098Y-5.9547
X8.0098Y-5.9902
X8.0098Y-6.0256
X8.0098Y-6.061
X8.0098Y-6.0965
X8.0098Y-6.1319
X8.0098Y-6.1673
X8.0098Y-6.2028
X8.0098Y-6.2382
X8.0152Y-7.2848
X8.0157Y-3.6673
X8.0177Y-4.0768
X8.0453Y-5.8799
X8.0453Y-5.9193
X8.0453Y-5.9547
X8.0453Y-5.9902
X8.0453Y-6.0256
X8.0453Y-6.061
X8.0453Y-6.0965
X8.0453Y-6.1319
X8.0453Y-6.1673
X8.0453Y-6.2028
X8.0453Y-6.2382
X8.0728Y-4.0768
X8.0748Y-3.6673
X8.0807Y-5.8799
X8.0807Y-5.9193
X8.0807Y-5.9547
X8.0807Y-5.9902
X8.0807Y-6.0256
X8.0807Y-6.061
X8.0807Y-6.0965
X8.0807Y-6.1319
X8.0807Y-6.1673
X8.0807Y-6.2028
X8.0807Y-6.2382
X8.1161Y-5.8799
X8.1161Y-5.9193
X8.1161Y-5.9547
X8.1161Y-5.9902
X8.1161Y-6.0256
X8.1161Y-6.061
X8.1161Y-6.0965
X8.1161Y-6.1319
X8.1161Y-6.1673
X8.1161Y-6.2028
X8.1161Y-6.2382
X8.1319Y-4.0768
X8.1516Y-3.5374
X8.1713Y-3.7461
X8.1791Y-3.7106
X8.1831Y-3.5374
X8.1831Y-3.9902
X8.187Y-4.0768
X8.2106Y-6.7894
X8.2146Y-3.5374
X8.2224Y-4.0217
X8.2421Y-6.8642
X8.2461Y-3.5374
X8.2598Y-6.5039
X8.2598Y-7.0669
X8.2776Y-3.5374
X8.2815Y-6.8642
X8.2854Y-4.065
X8.2933Y-7.1142
X8.2953Y-7.0689
X8.3012Y-3.5492
X8.3012Y-3.5846
X8.3012Y-3.6201
X8.3012Y-3.6555
X8.311Y-6.6693
X8.314Y-6.2431
X8.3169Y-6.5605
X8.3209Y-6.8642
X8.3327Y-3.5374
X8.3327Y-3.6752
X8.3346Y-7.0669
X8.3366Y-7.1122
X8.3406Y-6.2165
X8.3602Y-6.5605
X8.3603Y-6.8602
X8.3632Y-6.1939
X8.3681Y-3.5374
X8.3681Y-3.6752
X8.3868Y-6.1703
X8.3957Y-6.8248
X8.4035Y-3.5374
X8.4035Y-3.6752
X8.4094Y-6.1476
X8.4114Y-3.998
X8.4114Y-4.0413
X8.4331Y-6.7874
X8.4341Y-6.123
X8.4429Y-6.6201
X8.4429Y-7.1358
X8.4508Y-6.8878
X8.4567Y-6.1004
X8.4587Y-3.5492
X8.4705Y-7.1083
X8.4744Y-6.7894
X8.4744Y-7.0531
X8.4813Y-6.0758
X8.4862Y-7.5295
X8.4902Y-7.3681
X8.498Y-3.5492
X8.5138Y-7.5295
X8.5177Y-7.3681
X8.5217Y-6.7894
X8.5335Y-6.6161
X8.5335Y-6.9547
X8.5335Y-6.9902
X8.5374Y-3.5492
X8.5413Y-7.5295
X8.5453Y-7.3681
X8.565Y-6.7894
X8.5728Y-3.5492
X8.6083Y-6.8878
X8.6122Y-3.5492
X8.6122Y-3.5846
X8.6122Y-3.6201
X8.6122Y-3.6555
X8.6122Y-3.6909
X8.6122Y-6.7894
X8.624Y-6.9862
X8.6272Y-6.6161
X8.6398Y-3.8524
X8.6417Y-6.8858
X8.6476Y-3.5492
X8.6476Y-3.5846
X8.6476Y-3.6201
X8.6476Y-3.6555
X8.6634Y-7.3681
X8.6673Y-7.5295
X8.6831Y-3.5492
X8.6831Y-3.5846
X8.6831Y-3.6201
X8.6909Y-6.5656
X8.6909Y-7.3681
X8.6988Y-7.5295
X8.7028Y-6.7776
X8.7185Y-3.5492
X8.7185Y-3.5846
X8.7185Y-7.3681
X8.7303Y-7.5295
X8.75Y-6.7776
X8.7579Y-3.5492
X8.7618Y-6.813
X8.7618Y-6.8524
X8.7618Y-6.8996
X8.7618Y-6.939
X8.7618Y-6.9862
X8.7618Y-7.0295
X8.7618Y-7.0768
X8.7854Y-7.1319
X8.7854Y-7.1831
X8.7854Y-7.2303
X8.7854Y-7.2815
X8.7894Y-3.9272
X8.7972Y-6.7776
X8.8051Y-6.6949
X8.8287Y-3.9252
X8.8524Y-6.7776
X8.8701Y-6.4724
X8.8878Y-3.5256
X8.8957Y-6.7776
X8.9193Y-6.4656
X8.9272Y-6.7776
X8.9311Y-6.5728
X8.935Y-6.5217
X8.937Y-5.5374
X8.9469Y-3.5256
X8.9488Y-7.4508
X8.9528Y-7.2933
X8.9862Y-6.4656
X9.0374Y-7.0689
X9.0453Y-6.5728
X9.0453Y-6.8799
X9.0461Y-7.5709
X9.0461Y-7.6142
X9.0461Y-7.6575
X9.0461Y-7.6969
X9.0461Y-7.7402
X9.0551Y-3.8543
X9.0551Y-4.0
X9.0618Y-7.7835
X9.064Y-6.188
X9.0874Y-7.8091
X9.0886Y-6.8784
X9.0896Y-6.1624
X9.0918Y-6.9382
X9.1152Y-6.1368
X9.1398Y-6.1122
X9.1457Y-7.7776
X9.1476Y-6.5138
X9.1476Y-6.6594
X9.1516Y-7.0669
X9.1516Y-7.1043
X9.1535Y-7.0295
X9.1654Y-6.0866
X9.1909Y-7.7165
X9.1949Y-7.0295
X9.1949Y-7.065
X9.1949Y-7.1063
X9.1957Y-7.7992
X9.2008Y-5.3917
X9.2008Y-7.5984
X9.2047Y-6.0866
X9.2264Y-3.7185
X9.2283Y-7.7205
X9.2293Y-7.7569
X9.2362Y-7.0295
X9.2382Y-7.065
X9.2382Y-7.1063
X9.2429Y-7.5669
X9.2461Y-6.0866
X9.2469Y-7.6063
X9.252Y-6.5709
X9.2539Y-3.7421
X9.2579Y-3.4862
X9.2579Y-3.5217
X9.2618Y-3.5571
X9.2815Y-7.0315
X9.2815Y-7.0689
X9.2823Y-7.7972
X9.2854Y-7.1063
X9.2894Y-6.0866
X9.2972Y-3.4862
X9.2972Y-3.5217
X9.2972Y-3.5571
X9.298Y-7.7638
X9.3169Y-6.4656
X9.3248Y-6.8287
X9.3307Y-6.0866
X9.3406Y-3.4862
X9.3406Y-3.5217
X9.3406Y-3.5571
X9.3622Y-5.5017
X9.378Y-6.8701
X9.3799Y-6.9094
X9.3799Y-6.9528
X9.3929Y-3.8563
X9.4213Y-6.8701
X9.4213Y-6.9094
X9.4213Y-6.9528
X9.4429Y-7.6732
X9.4547Y-3.4823
X9.4547Y-3.5177
X9.4606Y-6.8701
X9.4606Y-6.9094
X9.4606Y-6.9528
X9.4902Y-3.4823
X9.4902Y-3.5177
X9.5138Y-5.6496
X9.5236Y-5.5866
X9.5256Y-3.4823
X9.5256Y-3.5177
X9.5315Y-5.8543
X9.561Y-3.4823
X9.561Y-3.5177
X9.5709Y-6.061
X9.5965Y-3.4823
X9.5965Y-3.5177
X9.6181Y-6.0571
X9.6319Y-3.4823
X9.6319Y-3.5177
X9.6634Y-3.9232
X9.6673Y-3.4823
X9.6673Y-3.5177
X9.7028Y-3.4823
X9.7028Y-3.5177
X9.7028Y-3.9232
X9.7067Y-7.6024
X9.7382Y-3.9232
X9.7402Y-5.8228
X9.7421Y-3.4823
X9.7421Y-3.5177
X9.7421Y-5.6555
X9.7815Y-3.4823
X9.7815Y-3.5177
X9.8051Y-3.5807
X9.8169Y-7.628
X9.8209Y-3.4823
X9.8209Y-3.5177
X9.8563Y-3.4823
X9.8563Y-3.5177
X9.8563Y-3.5492
X9.8957Y-3.4823
X9.8957Y-3.5177
X9.8957Y-3.5492
X9.9035Y-5.8543
X9.9311Y-3.4823
X9.9311Y-3.5177
X9.9311Y-3.5492
X9.9331Y-5.8819
X9.9409Y-6.2889
X9.9592Y-5.9149
X9.9665Y-3.4823
X9.9665Y-3.5177
X9.9665Y-3.5492
X9.9665Y-6.3858
X10.0079Y-6.3858
X10.0492Y-6.3858
X10.0866Y-6.0177
X10.0945Y-5.9862
X10.1535Y-6.1831
X10.1634Y-5.8898
X10.2258Y-6.2073
X10.2264Y-7.4311
X10.2697Y-7.4311
X10.4193Y-7.3642
X10.4193Y-7.4154
X10.4193Y-7.4665
X10.4193Y-7.5138
X10.4469Y-7.3648
X10.4469Y-7.4148
X10.4508Y-7.4648
X10.4508Y-7.5148
X10.5276Y-5.1811
X10.628Y-8.0571
X10.6594Y-7.4648
X10.6594Y-7.5148
X10.6634Y-7.3648
X10.6634Y-7.4148
X10.6904Y-7.3648
X10.6909Y-7.4154
X10.6949Y-7.4665
X10.6949Y-7.5138
X10.9154Y-8.0551
X11.1673Y-5.4449
X11.2362Y-5.1811
X11.2402Y-8.0394
X11.3947Y-5.6063
X11.5453Y-5.3484
X11.5453Y-5.3799
X11.5453Y-5.4114
X11.5453Y-5.4429
X11.5453Y-5.4744
X11.561Y-6.6161
X11.5807Y-5.3484
X11.5807Y-5.3799
X11.5807Y-5.4114
X11.5807Y-5.4429
X11.5807Y-5.4744
X11.6161Y-5.4114
X11.6161Y-5.4429
X11.6161Y-5.4744
X11.6201Y-6.6201
X11.6516Y-5.4114
X11.6516Y-5.4429
X11.6516Y-5.4744
X11.687Y-5.4114
X11.687Y-5.4429
X11.687Y-5.4744
X11.6988Y-5.1201
X11.7224Y-5.4114
X11.7224Y-5.4429
X11.7224Y-5.4744
X11.7274Y-5.1427
X11.7323Y-6.2205
X11.7343Y-6.0965
X11.7343Y-6.1417
X11.7343Y-6.1811
X11.7697Y-6.0906
X11.7697Y-6.1358
X11.7736Y-6.1791
X11.7756Y-6.2146
X11.8091Y-6.0886
X11.811Y-6.126
X11.811Y-6.1693
T4
X5.1902Y-7.3961
X5.2406Y-7.4961
X5.2902Y-7.3961
X5.3406Y-7.4961
X5.3902Y-7.3961
X5.4406Y-7.4961
X5.4902Y-7.3961
X5.5406Y-7.4961
X5.5902Y-7.3961
X5.6406Y-7.4961
T6
X4.4823Y-6.5276
X4.4823Y-6.626
X4.4823Y-6.7244
X4.4823Y-6.8228
T7
X9.8051Y-7.8946
X9.9823Y-7.8946
X10.3209Y-7.993
X10.498Y-7.993
T8
X4.4311Y-6.2264
X4.5311Y-6.2264
X4.6311Y-6.2264
X9.4469Y-7.3169
X9.5469Y-7.3169
X9.6469Y-7.3169
X11.4004Y-5.9913
X11.5004Y-5.9913
X11.6004Y-5.9913
X11.7004Y-5.9913
T9
X5.1545Y-7.939
X5.2545Y-7.939
X5.5762Y-7.939
X5.6762Y-7.939
T10
X9.7557Y-7.7966
X10.0317Y-7.7966
X10.2715Y-7.895
X10.5474Y-7.895
T11
X5.1104Y-7.626
X5.7203Y-7.626
T12
X4.3917Y-8.065
X4.4587Y-3.3957
X11.8287Y-3.3799
X11.8406Y-8.0453
T2
G00X5.9913Y-7.8775
M15
G01X5.9913Y-7.9169
M16
G05
G00X5.9913Y-8.0787
M15
G01X5.9913Y-8.1378
M16
G05
G00X6.3315Y-7.8775
M15
G01X6.3315Y-7.9169
M16
G05
G00X6.3315Y-8.0787
M15
G01X6.3315Y-8.1378
M16
G05
G00X6.5465Y-7.8803
M15
G01X6.5465Y-7.9197
M16
G05
G00X6.5465Y-8.0815
M15
G01X6.5465Y-8.1406
M16
G05
G00X6.8866Y-7.8803
M15
G01X6.8866Y-7.9197
M16
G05
G00X6.8866Y-8.0815
M15
G01X6.8866Y-8.1406
M16
G05
G00X9.0187Y-7.8909
M15
G01X9.0187Y-7.9343
M16
G05
G00X9.0187Y-8.061
M15
G01X9.0187Y-8.0925
M16
G05
G00X9.3593Y-7.8909
M15
G01X9.3593Y-7.9343
M16
G05
G00X9.3593Y-8.061
M15
G01X9.3593Y-8.0925
M16
G05
T3
G00X8.3882Y-7.6457
M15
G01X8.4748Y-7.6457
M16
G05
G00X8.3882Y-7.8819
M15
G01X8.4748Y-7.8819
M16
G05
G00X8.6205Y-7.7972
M15
G01X8.6205Y-7.6909
M16
G05
T5
G00X7.248Y-7.7679
M15
G01X7.248Y-7.8388
M16
G05
G00X7.248Y-8.0222
M15
G01X7.248Y-8.0537
M16
G05
G00X7.8189Y-7.7679
M15
G01X7.8189Y-7.8388
M16
G05
G00X7.8189Y-8.0222
M15
G01X7.8189Y-8.0537
M16
G05
M30
