%TF.GenerationSoftware,KiCad,Pcbnew,8.0.7-8.0.7-0~ubuntu22.04.1*%
%TF.CreationDate,2025-02-16T01:16:41+05:30*%
%TF.ProjectId,RFID,52464944-2e6b-4696-9361-645f70636258,rev?*%
%TF.SameCoordinates,Original*%
%TF.FileFunction,Soldermask,Bot*%
%TF.FilePolarity,Negative*%
%FSLAX46Y46*%
G04 Gerber Fmt 4.6, Leading zero omitted, Abs format (unit mm)*
G04 Created by KiCad (PCBNEW 8.0.7-8.0.7-0~ubuntu22.04.1) date 2025-02-16 01:16:41*
%MOMM*%
%LPD*%
G01*
G04 APERTURE LIST*
G04 Aperture macros list*
%AMRoundRect*
0 Rectangle with rounded corners*
0 $1 Rounding radius*
0 $2 $3 $4 $5 $6 $7 $8 $9 X,Y pos of 4 corners*
0 Add a 4 corners polygon primitive as box body*
4,1,4,$2,$3,$4,$5,$6,$7,$8,$9,$2,$3,0*
0 Add four circle primitives for the rounded corners*
1,1,$1+$1,$2,$3*
1,1,$1+$1,$4,$5*
1,1,$1+$1,$6,$7*
1,1,$1+$1,$8,$9*
0 Add four rect primitives between the rounded corners*
20,1,$1+$1,$2,$3,$4,$5,0*
20,1,$1+$1,$4,$5,$6,$7,0*
20,1,$1+$1,$6,$7,$8,$9,0*
20,1,$1+$1,$8,$9,$2,$3,0*%
G04 Aperture macros list end*
%ADD10C,1.702000*%
%ADD11C,2.154000*%
%ADD12C,2.600000*%
%ADD13C,3.800000*%
%ADD14C,3.250000*%
%ADD15RoundRect,0.102000X0.699000X0.699000X-0.699000X0.699000X-0.699000X-0.699000X0.699000X-0.699000X0*%
%ADD16C,1.602000*%
%ADD17C,1.734000*%
%ADD18C,2.649000*%
%ADD19C,0.600000*%
%ADD20O,1.104000X2.204000*%
%ADD21O,1.104000X1.904000*%
%ADD22C,1.150000*%
%ADD23C,1.650000*%
%ADD24C,1.100000*%
%ADD25C,1.600000*%
%ADD26R,1.700000X1.700000*%
%ADD27O,1.700000X1.700000*%
%ADD28RoundRect,0.250000X0.725000X-0.600000X0.725000X0.600000X-0.725000X0.600000X-0.725000X-0.600000X0*%
%ADD29O,1.950000X1.700000*%
%ADD30O,1.188400X2.252400*%
%ADD31O,1.252400X2.752400*%
%ADD32C,1.050000*%
%ADD33C,1.300000*%
%ADD34O,2.554000X4.904000*%
%ADD35O,4.204000X2.204000*%
%ADD36O,1.500000X3.300000*%
%ADD37O,1.500000X2.300000*%
G04 APERTURE END LIST*
D10*
%TO.C,SW2*%
X249050000Y-200522500D03*
X253550000Y-200522500D03*
D11*
X247795000Y-198032500D03*
X254805000Y-198032500D03*
%TD*%
D10*
%TO.C,SW1*%
X262150000Y-203022500D03*
X266650000Y-203022500D03*
D11*
X260895000Y-200532500D03*
X267905000Y-200532500D03*
%TD*%
D12*
%TO.C,H6*%
X300750000Y-204350000D03*
D13*
X300750000Y-204350000D03*
%TD*%
D14*
%TO.C,J7*%
X143265000Y-196750000D03*
X131835000Y-196750000D03*
D15*
X131830000Y-187860000D03*
D16*
X133110000Y-190400000D03*
X134370000Y-187860000D03*
X135650000Y-190400000D03*
X136910000Y-187860000D03*
X138190000Y-190400000D03*
X139450000Y-187860000D03*
X140730000Y-190400000D03*
X141990000Y-187860000D03*
X143270000Y-190400000D03*
D17*
X130925000Y-201650000D03*
X133465000Y-201650000D03*
X141635000Y-201650000D03*
X144175000Y-201650000D03*
D18*
X129805000Y-193700000D03*
X145295000Y-193700000D03*
%TD*%
D12*
%TO.C,H3*%
X111550000Y-204850000D03*
D13*
X111550000Y-204850000D03*
%TD*%
D12*
%TO.C,H5*%
X300450000Y-85850000D03*
D13*
X300450000Y-85850000D03*
%TD*%
D19*
%TO.C,J2*%
X230510000Y-201470000D03*
X236290000Y-201470000D03*
D20*
X229075000Y-200980000D03*
X237725000Y-200980000D03*
D21*
X229075000Y-205150000D03*
X237725000Y-205150000D03*
%TD*%
D22*
%TO.C,J20*%
X286400000Y-135600000D03*
D23*
X266400000Y-135600000D03*
%TD*%
D24*
%TO.C,J18*%
X194850000Y-97025000D03*
D25*
X214850000Y-97025000D03*
%TD*%
D26*
%TO.C,J6*%
X297190000Y-152180000D03*
D27*
X294650000Y-152180000D03*
X292110000Y-152180000D03*
X289570000Y-152180000D03*
%TD*%
D24*
%TO.C,A1*%
X184725000Y-148750000D03*
D25*
X115925000Y-148750000D03*
%TD*%
D28*
%TO.C,M1*%
X113850000Y-173300000D03*
D29*
X113850000Y-170800000D03*
X113850000Y-168300000D03*
X113850000Y-165800000D03*
%TD*%
D30*
%TO.C,J1*%
X152180000Y-200589000D03*
X160820000Y-200589000D03*
D31*
X152180000Y-205949000D03*
X160820000Y-205949000D03*
%TD*%
D32*
%TO.C,BT1*%
X118750005Y-192750000D03*
D33*
X118750005Y-185300000D03*
%TD*%
D26*
%TO.C,J4*%
X112550000Y-158150000D03*
D27*
X115090000Y-158150000D03*
X117630000Y-158150000D03*
%TD*%
D12*
%TO.C,H4*%
X113250000Y-86250000D03*
D13*
X113250000Y-86250000D03*
%TD*%
D26*
%TO.C,JP1*%
X239950000Y-185850000D03*
D27*
X242490000Y-185850000D03*
X245030000Y-185850000D03*
%TD*%
D34*
%TO.C,J5*%
X218960000Y-196700000D03*
D35*
X214160000Y-200200000D03*
X214160000Y-194200000D03*
%TD*%
D22*
%TO.C,J19*%
X225000000Y-97425000D03*
D23*
X245000000Y-97425000D03*
%TD*%
D36*
%TO.C,J8*%
X198600000Y-198205000D03*
X184100000Y-198205000D03*
D37*
X198600000Y-204165000D03*
X184100000Y-204165000D03*
%TD*%
D30*
%TO.C,J3*%
X166280000Y-200660000D03*
X174920000Y-200660000D03*
D31*
X166280000Y-206020000D03*
X174920000Y-206020000D03*
%TD*%
M02*
