%TF.GenerationSoftware,KiCad,Pcbnew,7.0.9*%
%TF.CreationDate,2024-11-07T18:13:08+05:30*%
%TF.ProjectId,RFID_pico,52464944-5f70-4696-936f-2e6b69636164,rev?*%
%TF.SameCoordinates,Original*%
%TF.FileFunction,Soldermask,Top*%
%TF.FilePolarity,Negative*%
%FSLAX46Y46*%
G04 Gerber Fmt 4.6, Leading zero omitted, Abs format (unit mm)*
G04 Created by KiCad (PCBNEW 7.0.9) date 2024-11-07 18:13:08*
%MOMM*%
%LPD*%
G01*
G04 APERTURE LIST*
G04 Aperture macros list*
%AMRoundRect*
0 Rectangle with rounded corners*
0 $1 Rounding radius*
0 $2 $3 $4 $5 $6 $7 $8 $9 X,Y pos of 4 corners*
0 Add a 4 corners polygon primitive as box body*
4,1,4,$2,$3,$4,$5,$6,$7,$8,$9,$2,$3,0*
0 Add four circle primitives for the rounded corners*
1,1,$1+$1,$2,$3*
1,1,$1+$1,$4,$5*
1,1,$1+$1,$6,$7*
1,1,$1+$1,$8,$9*
0 Add four rect primitives between the rounded corners*
20,1,$1+$1,$2,$3,$4,$5,0*
20,1,$1+$1,$4,$5,$6,$7,0*
20,1,$1+$1,$6,$7,$8,$9,0*
20,1,$1+$1,$8,$9,$2,$3,0*%
%AMFreePoly0*
4,1,19,0.500000,-0.750000,0.000000,-0.750000,0.000000,-0.744911,-0.071157,-0.744911,-0.207708,-0.704816,-0.327430,-0.627875,-0.420627,-0.520320,-0.479746,-0.390866,-0.500000,-0.250000,-0.500000,0.250000,-0.479746,0.390866,-0.420627,0.520320,-0.327430,0.627875,-0.207708,0.704816,-0.071157,0.744911,0.000000,0.744911,0.000000,0.750000,0.500000,0.750000,0.500000,-0.750000,0.500000,-0.750000,
$1*%
%AMFreePoly1*
4,1,19,0.000000,0.744911,0.071157,0.744911,0.207708,0.704816,0.327430,0.627875,0.420627,0.520320,0.479746,0.390866,0.500000,0.250000,0.500000,-0.250000,0.479746,-0.390866,0.420627,-0.520320,0.327430,-0.627875,0.207708,-0.704816,0.071157,-0.744911,0.000000,-0.744911,0.000000,-0.750000,-0.500000,-0.750000,-0.500000,0.750000,0.000000,0.750000,0.000000,0.744911,0.000000,0.744911,
$1*%
G04 Aperture macros list end*
%ADD10C,0.010000*%
%ADD11RoundRect,0.140000X-0.170000X0.140000X-0.170000X-0.140000X0.170000X-0.140000X0.170000X0.140000X0*%
%ADD12RoundRect,0.102000X-0.550000X-1.400000X0.550000X-1.400000X0.550000X1.400000X-0.550000X1.400000X0*%
%ADD13RoundRect,0.147500X0.172500X-0.147500X0.172500X0.147500X-0.172500X0.147500X-0.172500X-0.147500X0*%
%ADD14R,1.000000X1.000000*%
%ADD15RoundRect,0.140000X-0.140000X-0.170000X0.140000X-0.170000X0.140000X0.170000X-0.140000X0.170000X0*%
%ADD16RoundRect,0.140000X0.170000X-0.140000X0.170000X0.140000X-0.170000X0.140000X-0.170000X-0.140000X0*%
%ADD17RoundRect,0.150750X0.146250X-0.436250X0.146250X0.436250X-0.146250X0.436250X-0.146250X-0.436250X0*%
%ADD18FreePoly0,0.000000*%
%ADD19FreePoly1,0.000000*%
%ADD20R,0.350000X1.450000*%
%ADD21RoundRect,0.147500X-0.172500X0.147500X-0.172500X-0.147500X0.172500X-0.147500X0.172500X0.147500X0*%
%ADD22R,1.200000X0.600000*%
%ADD23FreePoly0,270.000000*%
%ADD24FreePoly1,270.000000*%
%ADD25RoundRect,0.212500X-0.752500X-0.212500X0.752500X-0.212500X0.752500X0.212500X-0.752500X0.212500X0*%
%ADD26RoundRect,0.212500X-0.212500X0.752500X-0.212500X-0.752500X0.212500X-0.752500X0.212500X0.752500X0*%
%ADD27RoundRect,0.225000X-0.225000X0.225000X-0.225000X-0.225000X0.225000X-0.225000X0.225000X0.225000X0*%
%ADD28R,2.925000X5.575000*%
%ADD29R,8.120000X4.275000*%
%ADD30R,4.500000X4.500000*%
%ADD31RoundRect,0.140000X0.140000X0.170000X-0.140000X0.170000X-0.140000X-0.170000X0.140000X-0.170000X0*%
%ADD32O,1.000000X1.000000*%
%ADD33RoundRect,0.102000X0.500000X-0.525000X0.500000X0.525000X-0.500000X0.525000X-0.500000X-0.525000X0*%
%ADD34RoundRect,0.102000X0.525000X-1.100000X0.525000X1.100000X-0.525000X1.100000X-0.525000X-1.100000X0*%
%ADD35RoundRect,0.147500X-0.147500X-0.172500X0.147500X-0.172500X0.147500X0.172500X-0.147500X0.172500X0*%
%ADD36R,0.300000X0.800000*%
%ADD37R,0.800000X0.300000*%
%ADD38R,1.800000X1.800000*%
G04 APERTURE END LIST*
%TO.C,J1*%
D10*
X141627500Y-61915000D02*
X141595500Y-61934000D01*
X141564500Y-61958000D01*
X141537500Y-61986000D01*
X141513500Y-62016000D01*
X141494500Y-62050000D01*
X141479500Y-62086000D01*
X141468500Y-62123000D01*
X141463500Y-62162000D01*
X141462500Y-62201000D01*
X141466500Y-62240000D01*
X141476500Y-62277000D01*
X141489500Y-62314000D01*
X141508500Y-62348000D01*
X141531500Y-62380000D01*
X141557500Y-62408000D01*
X141587500Y-62433000D01*
X141620500Y-62454000D01*
X141655500Y-62471000D01*
X141692500Y-62483000D01*
X141730500Y-62490000D01*
X141769500Y-62492000D01*
X141808500Y-62489000D01*
X141846500Y-62482000D01*
X141883500Y-62469000D01*
X141918500Y-62453000D01*
X141951500Y-62431000D01*
X141980500Y-62406000D01*
X142006500Y-62377000D01*
X142029500Y-62345000D01*
X142047500Y-62310000D01*
X142277500Y-62310000D01*
X142277500Y-65710000D01*
X140777500Y-65710000D01*
X140777500Y-58710000D01*
X141627500Y-58710000D01*
X141627500Y-61915000D01*
G36*
X141627500Y-61915000D02*
G01*
X141595500Y-61934000D01*
X141564500Y-61958000D01*
X141537500Y-61986000D01*
X141513500Y-62016000D01*
X141494500Y-62050000D01*
X141479500Y-62086000D01*
X141468500Y-62123000D01*
X141463500Y-62162000D01*
X141462500Y-62201000D01*
X141466500Y-62240000D01*
X141476500Y-62277000D01*
X141489500Y-62314000D01*
X141508500Y-62348000D01*
X141531500Y-62380000D01*
X141557500Y-62408000D01*
X141587500Y-62433000D01*
X141620500Y-62454000D01*
X141655500Y-62471000D01*
X141692500Y-62483000D01*
X141730500Y-62490000D01*
X141769500Y-62492000D01*
X141808500Y-62489000D01*
X141846500Y-62482000D01*
X141883500Y-62469000D01*
X141918500Y-62453000D01*
X141951500Y-62431000D01*
X141980500Y-62406000D01*
X142006500Y-62377000D01*
X142029500Y-62345000D01*
X142047500Y-62310000D01*
X142277500Y-62310000D01*
X142277500Y-65710000D01*
X140777500Y-65710000D01*
X140777500Y-58710000D01*
X141627500Y-58710000D01*
X141627500Y-61915000D01*
G37*
X145877500Y-65710000D02*
X144377500Y-65710000D01*
X144377500Y-62310000D01*
X144607500Y-62310000D01*
X144625500Y-62345000D01*
X144648500Y-62377000D01*
X144674500Y-62406000D01*
X144703500Y-62431000D01*
X144736500Y-62453000D01*
X144771500Y-62469000D01*
X144808500Y-62482000D01*
X144846500Y-62489000D01*
X144885500Y-62492000D01*
X144924500Y-62490000D01*
X144962500Y-62483000D01*
X144999500Y-62471000D01*
X145034500Y-62454000D01*
X145067500Y-62433000D01*
X145097500Y-62408000D01*
X145123500Y-62380000D01*
X145146500Y-62348000D01*
X145165500Y-62314000D01*
X145178500Y-62277000D01*
X145188500Y-62240000D01*
X145192500Y-62201000D01*
X145191500Y-62162000D01*
X145186500Y-62123000D01*
X145175500Y-62086000D01*
X145160500Y-62050000D01*
X145141500Y-62016000D01*
X145117500Y-61986000D01*
X145090500Y-61958000D01*
X145059500Y-61934000D01*
X145027500Y-61915000D01*
X145027500Y-58710000D01*
X145877500Y-58710000D01*
X145877500Y-65710000D01*
G36*
X145877500Y-65710000D02*
G01*
X144377500Y-65710000D01*
X144377500Y-62310000D01*
X144607500Y-62310000D01*
X144625500Y-62345000D01*
X144648500Y-62377000D01*
X144674500Y-62406000D01*
X144703500Y-62431000D01*
X144736500Y-62453000D01*
X144771500Y-62469000D01*
X144808500Y-62482000D01*
X144846500Y-62489000D01*
X144885500Y-62492000D01*
X144924500Y-62490000D01*
X144962500Y-62483000D01*
X144999500Y-62471000D01*
X145034500Y-62454000D01*
X145067500Y-62433000D01*
X145097500Y-62408000D01*
X145123500Y-62380000D01*
X145146500Y-62348000D01*
X145165500Y-62314000D01*
X145178500Y-62277000D01*
X145188500Y-62240000D01*
X145192500Y-62201000D01*
X145191500Y-62162000D01*
X145186500Y-62123000D01*
X145175500Y-62086000D01*
X145160500Y-62050000D01*
X145141500Y-62016000D01*
X145117500Y-61986000D01*
X145090500Y-61958000D01*
X145059500Y-61934000D01*
X145027500Y-61915000D01*
X145027500Y-58710000D01*
X145877500Y-58710000D01*
X145877500Y-65710000D01*
G37*
%TO.C,J2*%
X148000000Y-61905000D02*
X147968000Y-61924000D01*
X147937000Y-61948000D01*
X147910000Y-61976000D01*
X147886000Y-62006000D01*
X147867000Y-62040000D01*
X147852000Y-62076000D01*
X147841000Y-62113000D01*
X147836000Y-62152000D01*
X147835000Y-62191000D01*
X147839000Y-62230000D01*
X147849000Y-62267000D01*
X147862000Y-62304000D01*
X147881000Y-62338000D01*
X147904000Y-62370000D01*
X147930000Y-62398000D01*
X147960000Y-62423000D01*
X147993000Y-62444000D01*
X148028000Y-62461000D01*
X148065000Y-62473000D01*
X148103000Y-62480000D01*
X148142000Y-62482000D01*
X148181000Y-62479000D01*
X148219000Y-62472000D01*
X148256000Y-62459000D01*
X148291000Y-62443000D01*
X148324000Y-62421000D01*
X148353000Y-62396000D01*
X148379000Y-62367000D01*
X148402000Y-62335000D01*
X148420000Y-62300000D01*
X148650000Y-62300000D01*
X148650000Y-65700000D01*
X147150000Y-65700000D01*
X147150000Y-58700000D01*
X148000000Y-58700000D01*
X148000000Y-61905000D01*
G36*
X148000000Y-61905000D02*
G01*
X147968000Y-61924000D01*
X147937000Y-61948000D01*
X147910000Y-61976000D01*
X147886000Y-62006000D01*
X147867000Y-62040000D01*
X147852000Y-62076000D01*
X147841000Y-62113000D01*
X147836000Y-62152000D01*
X147835000Y-62191000D01*
X147839000Y-62230000D01*
X147849000Y-62267000D01*
X147862000Y-62304000D01*
X147881000Y-62338000D01*
X147904000Y-62370000D01*
X147930000Y-62398000D01*
X147960000Y-62423000D01*
X147993000Y-62444000D01*
X148028000Y-62461000D01*
X148065000Y-62473000D01*
X148103000Y-62480000D01*
X148142000Y-62482000D01*
X148181000Y-62479000D01*
X148219000Y-62472000D01*
X148256000Y-62459000D01*
X148291000Y-62443000D01*
X148324000Y-62421000D01*
X148353000Y-62396000D01*
X148379000Y-62367000D01*
X148402000Y-62335000D01*
X148420000Y-62300000D01*
X148650000Y-62300000D01*
X148650000Y-65700000D01*
X147150000Y-65700000D01*
X147150000Y-58700000D01*
X148000000Y-58700000D01*
X148000000Y-61905000D01*
G37*
X152275000Y-65710000D02*
X150775000Y-65710000D01*
X150775000Y-62310000D01*
X151005000Y-62310000D01*
X151023000Y-62345000D01*
X151046000Y-62377000D01*
X151072000Y-62406000D01*
X151101000Y-62431000D01*
X151134000Y-62453000D01*
X151169000Y-62469000D01*
X151206000Y-62482000D01*
X151244000Y-62489000D01*
X151283000Y-62492000D01*
X151322000Y-62490000D01*
X151360000Y-62483000D01*
X151397000Y-62471000D01*
X151432000Y-62454000D01*
X151465000Y-62433000D01*
X151495000Y-62408000D01*
X151521000Y-62380000D01*
X151544000Y-62348000D01*
X151563000Y-62314000D01*
X151576000Y-62277000D01*
X151586000Y-62240000D01*
X151590000Y-62201000D01*
X151589000Y-62162000D01*
X151584000Y-62123000D01*
X151573000Y-62086000D01*
X151558000Y-62050000D01*
X151539000Y-62016000D01*
X151515000Y-61986000D01*
X151488000Y-61958000D01*
X151457000Y-61934000D01*
X151425000Y-61915000D01*
X151425000Y-58710000D01*
X152275000Y-58710000D01*
X152275000Y-65710000D01*
G36*
X152275000Y-65710000D02*
G01*
X150775000Y-65710000D01*
X150775000Y-62310000D01*
X151005000Y-62310000D01*
X151023000Y-62345000D01*
X151046000Y-62377000D01*
X151072000Y-62406000D01*
X151101000Y-62431000D01*
X151134000Y-62453000D01*
X151169000Y-62469000D01*
X151206000Y-62482000D01*
X151244000Y-62489000D01*
X151283000Y-62492000D01*
X151322000Y-62490000D01*
X151360000Y-62483000D01*
X151397000Y-62471000D01*
X151432000Y-62454000D01*
X151465000Y-62433000D01*
X151495000Y-62408000D01*
X151521000Y-62380000D01*
X151544000Y-62348000D01*
X151563000Y-62314000D01*
X151576000Y-62277000D01*
X151586000Y-62240000D01*
X151590000Y-62201000D01*
X151589000Y-62162000D01*
X151584000Y-62123000D01*
X151573000Y-62086000D01*
X151558000Y-62050000D01*
X151539000Y-62016000D01*
X151515000Y-61986000D01*
X151488000Y-61958000D01*
X151457000Y-61934000D01*
X151425000Y-61915000D01*
X151425000Y-58710000D01*
X152275000Y-58710000D01*
X152275000Y-65710000D01*
G37*
%TD*%
D11*
%TO.C,C9*%
X173870000Y-72870000D03*
X173870000Y-73830000D03*
%TD*%
D12*
%TO.C,J1*%
X143327500Y-64210000D03*
%TD*%
D13*
%TO.C,R7*%
X146500000Y-74485000D03*
X146500000Y-73515000D03*
%TD*%
D14*
%TO.C,TP3*%
X169300000Y-89800000D03*
%TD*%
D15*
%TO.C,C8*%
X171470000Y-76300000D03*
X172430000Y-76300000D03*
%TD*%
D16*
%TO.C,C4*%
X162300000Y-66800000D03*
X162300000Y-65840000D03*
%TD*%
D17*
%TO.C,IC1*%
X144150000Y-77780000D03*
X144800000Y-77780000D03*
X145450000Y-77780000D03*
X145450000Y-75820000D03*
X144150000Y-75820000D03*
%TD*%
D18*
%TO.C,JP4*%
X148240000Y-72390000D03*
D19*
X149540000Y-72390000D03*
%TD*%
D20*
%TO.C,J7*%
X166480000Y-102430000D03*
X165980000Y-102430000D03*
X165480000Y-102430000D03*
X164980000Y-102430000D03*
X164480000Y-102430000D03*
X163980000Y-102430000D03*
X163480000Y-102430000D03*
X162980000Y-102430000D03*
X162480000Y-102430000D03*
X161980000Y-102430000D03*
X161480000Y-102430000D03*
X160980000Y-102430000D03*
X158480000Y-102430000D03*
X157980000Y-102430000D03*
X157480000Y-102430000D03*
X156980000Y-102430000D03*
X156480000Y-102430000D03*
X155980000Y-102430000D03*
X155480000Y-102430000D03*
X154980000Y-102430000D03*
X154480000Y-102430000D03*
X153980000Y-102430000D03*
X153480000Y-102430000D03*
X152980000Y-102430000D03*
X152480000Y-102430000D03*
X151980000Y-102430000D03*
X151480000Y-102430000D03*
X150980000Y-102430000D03*
X150480000Y-102430000D03*
X149980000Y-102430000D03*
X149480000Y-102430000D03*
X148980000Y-102430000D03*
X148480000Y-102430000D03*
X147980000Y-102430000D03*
%TD*%
D13*
%TO.C,L8*%
X170900000Y-64585000D03*
X170900000Y-63615000D03*
%TD*%
D14*
%TO.C,TP1*%
X172400000Y-70800000D03*
%TD*%
D21*
%TO.C,R9*%
X145450000Y-73565000D03*
X145450000Y-74535000D03*
%TD*%
D22*
%TO.C,U3*%
X169950000Y-72850000D03*
X169950000Y-73800000D03*
X169950000Y-74750000D03*
X172450000Y-74750000D03*
X172450000Y-72850000D03*
%TD*%
D13*
%TO.C,L4*%
X148575000Y-68225000D03*
X148575000Y-67255000D03*
%TD*%
D23*
%TO.C,JP3*%
X142050000Y-79325000D03*
D24*
X142050000Y-80625000D03*
%TD*%
D13*
%TO.C,R6*%
X142700000Y-77710000D03*
X142700000Y-76740000D03*
%TD*%
D25*
%TO.C,U2*%
X148600000Y-78550000D03*
X148600000Y-79800000D03*
X148600000Y-81050000D03*
X148600000Y-82300000D03*
X148600000Y-83550000D03*
X148600000Y-84800000D03*
X148600000Y-86050000D03*
X148600000Y-87300000D03*
X148600000Y-88550000D03*
X148600000Y-89800000D03*
X148600000Y-91050000D03*
X148600000Y-92300000D03*
X148600000Y-93550000D03*
X148600000Y-94800000D03*
X148600000Y-96050000D03*
X166600000Y-96050000D03*
X166600000Y-94800000D03*
X166600000Y-93550000D03*
X166600000Y-92300000D03*
X166600000Y-91050000D03*
X166600000Y-89800000D03*
X166600000Y-88550000D03*
X166600000Y-87300000D03*
X166600000Y-86050000D03*
X166600000Y-84800000D03*
X166600000Y-83550000D03*
X166600000Y-82300000D03*
X166600000Y-81050000D03*
X166600000Y-79800000D03*
X166600000Y-78550000D03*
D26*
X163850000Y-76300000D03*
X162600000Y-76300000D03*
X161350000Y-76300000D03*
X160100000Y-76300000D03*
X158850000Y-76300000D03*
X157600000Y-76300000D03*
X156350000Y-76300000D03*
D27*
X155100000Y-76300000D03*
D26*
X153850000Y-76300000D03*
X152600000Y-76300000D03*
X151350000Y-76300000D03*
D28*
X152037500Y-80737500D03*
D29*
X154910000Y-80087500D03*
D30*
X160600000Y-85000000D03*
%TD*%
D31*
%TO.C,C7*%
X168590000Y-72900000D03*
X167630000Y-72900000D03*
%TD*%
D12*
%TO.C,J2*%
X149725000Y-64210000D03*
%TD*%
D14*
%TO.C,J3*%
X172350000Y-93875000D03*
D32*
X172350000Y-95145000D03*
X172350000Y-96415000D03*
X172350000Y-97685000D03*
%TD*%
D16*
%TO.C,C5*%
X169700000Y-66580000D03*
X169700000Y-65620000D03*
%TD*%
D13*
%TO.C,L3*%
X149700000Y-68200000D03*
X149700000Y-67230000D03*
%TD*%
%TO.C,L7*%
X169700000Y-64585000D03*
X169700000Y-63615000D03*
%TD*%
D33*
%TO.C,J4*%
X162300000Y-62125000D03*
D34*
X160825000Y-60600000D03*
X163775000Y-60600000D03*
%TD*%
D35*
%TO.C,R1*%
X169065000Y-76400000D03*
X170035000Y-76400000D03*
%TD*%
D13*
%TO.C,L1*%
X143300000Y-68200000D03*
X143300000Y-67230000D03*
%TD*%
%TO.C,L5*%
X162300000Y-64700000D03*
X162300000Y-63730000D03*
%TD*%
D36*
%TO.C,U1*%
X155650000Y-68100000D03*
X155150000Y-68100000D03*
X154650000Y-68100000D03*
X154150000Y-68100000D03*
D37*
X153400000Y-68850000D03*
X153400000Y-69350000D03*
X153400000Y-69850000D03*
X153400000Y-70350000D03*
D36*
X154150000Y-71100000D03*
X154650000Y-71100000D03*
X155150000Y-71100000D03*
X155650000Y-71100000D03*
D37*
X156400000Y-70350000D03*
X156400000Y-69850000D03*
X156400000Y-69350000D03*
X156400000Y-68850000D03*
D38*
X154900000Y-69600000D03*
%TD*%
D13*
%TO.C,L6*%
X161100000Y-64685000D03*
X161100000Y-63715000D03*
%TD*%
D11*
%TO.C,C13*%
X144150000Y-73620000D03*
X144150000Y-74580000D03*
%TD*%
D31*
%TO.C,C6*%
X156130000Y-66700000D03*
X155170000Y-66700000D03*
%TD*%
D16*
%TO.C,C1*%
X155100000Y-73880000D03*
X155100000Y-72920000D03*
%TD*%
D35*
%TO.C,R8*%
X141640000Y-75700000D03*
X142610000Y-75700000D03*
%TD*%
D13*
%TO.C,L2*%
X142000000Y-68200000D03*
X142000000Y-67230000D03*
%TD*%
D33*
%TO.C,J5*%
X169700000Y-62025000D03*
D34*
X168225000Y-60500000D03*
X171175000Y-60500000D03*
%TD*%
D31*
%TO.C,C14*%
X146430000Y-72400000D03*
X145470000Y-72400000D03*
%TD*%
%TO.C,C15*%
X142605000Y-74600000D03*
X141645000Y-74600000D03*
%TD*%
D16*
%TO.C,C2*%
X143300000Y-70295000D03*
X143300000Y-69335000D03*
%TD*%
D31*
%TO.C,C3*%
X150680000Y-69315000D03*
X149720000Y-69315000D03*
%TD*%
M02*
