%TF.GenerationSoftware,KiCad,Pcbnew,7.0.9*%
%TF.CreationDate,2024-11-07T18:13:08+05:30*%
%TF.ProjectId,RFID_pico,52464944-5f70-4696-936f-2e6b69636164,rev?*%
%TF.SameCoordinates,Original*%
%TF.FileFunction,Copper,L2,Bot*%
%TF.FilePolarity,Positive*%
%FSLAX46Y46*%
G04 Gerber Fmt 4.6, Leading zero omitted, Abs format (unit mm)*
G04 Created by KiCad (PCBNEW 7.0.9) date 2024-11-07 18:13:08*
%MOMM*%
%LPD*%
G01*
G04 APERTURE LIST*
%TA.AperFunction,ConnectorPad*%
%ADD10R,0.350000X1.450000*%
%TD*%
%TA.AperFunction,ComponentPad*%
%ADD11R,1.000000X1.000000*%
%TD*%
%TA.AperFunction,ComponentPad*%
%ADD12O,1.000000X1.000000*%
%TD*%
%TA.AperFunction,ViaPad*%
%ADD13C,0.400000*%
%TD*%
%TA.AperFunction,Conductor*%
%ADD14C,0.150000*%
%TD*%
%TA.AperFunction,Conductor*%
%ADD15C,0.500000*%
%TD*%
G04 APERTURE END LIST*
D10*
%TO.P,J7,2,2*%
%TO.N,unconnected-(J7-Pad2)*%
X166230000Y-102430000D03*
%TO.P,J7,4,4*%
%TO.N,unconnected-(J7-Pad4)*%
X165730000Y-102430000D03*
%TO.P,J7,6,6*%
%TO.N,unconnected-(J7-Pad6)*%
X165230000Y-102430000D03*
%TO.P,J7,8,8*%
%TO.N,unconnected-(J7-Pad8)*%
X164730000Y-102430000D03*
%TO.P,J7,10,10*%
%TO.N,unconnected-(J7-Pad10)*%
X164230000Y-102430000D03*
%TO.P,J7,12,12*%
%TO.N,unconnected-(J7-Pad12)*%
X163730000Y-102430000D03*
%TO.P,J7,14,14*%
%TO.N,unconnected-(J7-Pad14)*%
X163230000Y-102430000D03*
%TO.P,J7,16,16*%
%TO.N,unconnected-(J7-Pad16)*%
X162730000Y-102430000D03*
%TO.P,J7,18,18*%
%TO.N,unconnected-(J7-Pad18)*%
X162230000Y-102430000D03*
%TO.P,J7,20,20*%
%TO.N,unconnected-(J7-Pad20)*%
X161730000Y-102430000D03*
%TO.P,J7,22,22*%
%TO.N,unconnected-(J7-Pad22)*%
X161230000Y-102430000D03*
%TO.P,J7,32,32*%
%TO.N,unconnected-(J7-Pad32)*%
X158730000Y-102430000D03*
%TO.P,J7,34,34*%
%TO.N,unconnected-(J7-Pad34)*%
X158230000Y-102430000D03*
%TO.P,J7,36,36*%
%TO.N,unconnected-(J7-Pad36)*%
X157730000Y-102430000D03*
%TO.P,J7,38,38*%
%TO.N,unconnected-(J7-Pad38)*%
X157230000Y-102430000D03*
%TO.P,J7,40,40*%
%TO.N,unconnected-(J7-Pad40)*%
X156730000Y-102430000D03*
%TO.P,J7,42,42*%
%TO.N,unconnected-(J7-Pad42)*%
X156230000Y-102430000D03*
%TO.P,J7,44,44*%
%TO.N,unconnected-(J7-Pad44)*%
X155730000Y-102430000D03*
%TO.P,J7,46,46*%
%TO.N,unconnected-(J7-Pad46)*%
X155230000Y-102430000D03*
%TO.P,J7,48,48*%
%TO.N,unconnected-(J7-Pad48)*%
X154730000Y-102430000D03*
%TO.P,J7,50,50*%
%TO.N,unconnected-(J7-Pad50)*%
X154230000Y-102430000D03*
%TO.P,J7,52,52*%
%TO.N,unconnected-(J7-Pad52)*%
X153730000Y-102430000D03*
%TO.P,J7,54,54*%
%TO.N,unconnected-(J7-Pad54)*%
X153230000Y-102430000D03*
%TO.P,J7,56,56*%
%TO.N,unconnected-(J7-Pad56)*%
X152730000Y-102430000D03*
%TO.P,J7,58,58*%
%TO.N,unconnected-(J7-Pad58)*%
X152230000Y-102430000D03*
%TO.P,J7,60,60*%
%TO.N,unconnected-(J7-Pad60)*%
X151730000Y-102430000D03*
%TO.P,J7,62,62*%
%TO.N,unconnected-(J7-Pad62)*%
X151230000Y-102430000D03*
%TO.P,J7,64,64*%
%TO.N,unconnected-(J7-Pad64)*%
X150730000Y-102430000D03*
%TO.P,J7,66,66*%
%TO.N,unconnected-(J7-Pad66)*%
X150230000Y-102430000D03*
%TO.P,J7,68,68*%
%TO.N,unconnected-(J7-Pad68)*%
X149730000Y-102430000D03*
%TO.P,J7,70,70*%
%TO.N,unconnected-(J7-Pad70)*%
X149230000Y-102430000D03*
%TO.P,J7,72,72*%
%TO.N,unconnected-(J7-Pad72)*%
X148730000Y-102430000D03*
%TO.P,J7,74,74*%
%TO.N,unconnected-(J7-Pad74)*%
X148230000Y-102430000D03*
%TD*%
D11*
%TO.P,J3,1,Pin_1*%
%TO.N,VCC*%
X172350000Y-93875000D03*
D12*
%TO.P,J3,2,Pin_2*%
%TO.N,/TXD*%
X172350000Y-95145000D03*
%TO.P,J3,3,Pin_3*%
%TO.N,/RXD*%
X172350000Y-96415000D03*
%TO.P,J3,4,Pin_4*%
%TO.N,GND*%
X172350000Y-97685000D03*
%TD*%
D13*
%TO.N,/TXD*%
X171000000Y-95150000D03*
X164475000Y-100650000D03*
%TO.N,/RXD*%
X165275000Y-100575000D03*
X171025000Y-96425000D03*
%TO.N,GND*%
X146200000Y-68600000D03*
X157275000Y-71000000D03*
%TO.N,V2R7*%
X172380000Y-69620000D03*
X155170000Y-65850000D03*
%TO.N,/V3R3*%
X169300000Y-88600000D03*
X143450000Y-74600000D03*
%TO.N,/MXC2*%
X154300000Y-66700000D03*
X147164602Y-72308226D03*
%TO.N,/MXC1*%
X153575000Y-67025000D03*
X142675000Y-73925000D03*
%TO.N,/GPIO2*%
X145800000Y-84000000D03*
X144800000Y-78800000D03*
%TD*%
D14*
%TO.N,/MXC2*%
X154300000Y-66971752D02*
X154300000Y-66700000D01*
X148963526Y-72308226D02*
X154300000Y-66971752D01*
X147164602Y-72308226D02*
X148963526Y-72308226D01*
%TO.N,/MXC1*%
X153575000Y-67025000D02*
X149575000Y-67025000D01*
X149575000Y-67025000D02*
X142675000Y-73925000D01*
%TO.N,/RXD*%
X170100000Y-96425000D02*
X171025000Y-96425000D01*
X165950000Y-100575000D02*
X170100000Y-96425000D01*
X165275000Y-100575000D02*
X165950000Y-100575000D01*
%TO.N,/TXD*%
X169975000Y-95150000D02*
X171000000Y-95150000D01*
X164475000Y-100650000D02*
X169975000Y-95150000D01*
D15*
%TO.N,V2R7*%
X172380000Y-69620000D02*
X168610000Y-65850000D01*
X168610000Y-65850000D02*
X155170000Y-65850000D01*
%TO.N,/V3R3*%
X145125000Y-72925000D02*
X143450000Y-74600000D01*
X146811827Y-72925000D02*
X145125000Y-72925000D01*
X146851827Y-72965000D02*
X146811827Y-72925000D01*
X169300000Y-77300000D02*
X164925000Y-72925000D01*
X147328173Y-72965000D02*
X146851827Y-72965000D01*
X169300000Y-88600000D02*
X169300000Y-77300000D01*
X147368173Y-72925000D02*
X147328173Y-72965000D01*
X164925000Y-72925000D02*
X147368173Y-72925000D01*
D14*
%TO.N,/GPIO2*%
X144800000Y-78800000D02*
X144800000Y-83000000D01*
X144800000Y-83000000D02*
X145800000Y-84000000D01*
%TD*%
%TA.AperFunction,Conductor*%
%TO.N,GND*%
G36*
X141495039Y-58844685D02*
G01*
X141540794Y-58897489D01*
X141552000Y-58949000D01*
X141552000Y-61950124D01*
X141532315Y-62017163D01*
X141517701Y-62035738D01*
X141516601Y-62036890D01*
X141475363Y-62131211D01*
X141469050Y-62233966D01*
X141498432Y-62332628D01*
X141559928Y-62415182D01*
X141559930Y-62415184D01*
X141635450Y-62464636D01*
X141646053Y-62471579D01*
X141646056Y-62471580D01*
X141696182Y-62483261D01*
X141746312Y-62494943D01*
X141848493Y-62482430D01*
X141940151Y-62435565D01*
X141940153Y-62435563D01*
X141948828Y-62429002D01*
X141950637Y-62431394D01*
X141995862Y-62404454D01*
X142026854Y-62400548D01*
X144615936Y-62403112D01*
X144682953Y-62422863D01*
X144705997Y-62442010D01*
X144706220Y-62442247D01*
X144791455Y-62488581D01*
X144886919Y-62505856D01*
X144982986Y-62492331D01*
X145069969Y-62449370D01*
X145139098Y-62381303D01*
X145183401Y-62294996D01*
X145198412Y-62199150D01*
X145182617Y-62103430D01*
X145137609Y-62017487D01*
X145137608Y-62017486D01*
X145131730Y-62009602D01*
X145133661Y-62008161D01*
X145106199Y-61959439D01*
X145102999Y-61931452D01*
X145103000Y-58949000D01*
X145122685Y-58881961D01*
X145175489Y-58836206D01*
X145227000Y-58825000D01*
X147850500Y-58825000D01*
X147917539Y-58844685D01*
X147963294Y-58897489D01*
X147974500Y-58949000D01*
X147974500Y-62100698D01*
X147965388Y-62147354D01*
X147960328Y-62159811D01*
X147959262Y-62235350D01*
X147985842Y-62306064D01*
X147985844Y-62306067D01*
X148036405Y-62362201D01*
X148103967Y-62396005D01*
X148179207Y-62402816D01*
X148251741Y-62381691D01*
X148251742Y-62381689D01*
X148262045Y-62376467D01*
X148263122Y-62378592D01*
X148313447Y-62359098D01*
X148323470Y-62358663D01*
X151004345Y-62350988D01*
X151133197Y-62350620D01*
X151193972Y-62368275D01*
X151194165Y-62367884D01*
X151196398Y-62368980D01*
X151200293Y-62370112D01*
X151204012Y-62372719D01*
X151205204Y-62373303D01*
X151205206Y-62373305D01*
X151278971Y-62392815D01*
X151278972Y-62392814D01*
X151278974Y-62392815D01*
X151354522Y-62382175D01*
X151354523Y-62382174D01*
X151354527Y-62382174D01*
X151420034Y-62343050D01*
X151465229Y-62281573D01*
X151483028Y-62207377D01*
X151470643Y-62132087D01*
X151469316Y-62129964D01*
X151467637Y-62124123D01*
X151466299Y-62120576D01*
X151466587Y-62120467D01*
X151450463Y-62064360D01*
X151447452Y-58949119D01*
X151467072Y-58882061D01*
X151519832Y-58836255D01*
X151571452Y-58825000D01*
X174650924Y-58825000D01*
X174717963Y-58844685D01*
X174763718Y-58897489D01*
X174774924Y-58949076D01*
X174772815Y-62394953D01*
X174751883Y-96599008D01*
X174750076Y-99551076D01*
X174730350Y-99618103D01*
X174677518Y-99663826D01*
X174626076Y-99675000D01*
X167609688Y-99675000D01*
X167542649Y-99655315D01*
X167496894Y-99602511D01*
X167486950Y-99533353D01*
X167515975Y-99469797D01*
X167522007Y-99463319D01*
X168300670Y-98684657D01*
X168800327Y-98185000D01*
X171148762Y-98185000D01*
X171219865Y-98337482D01*
X171350342Y-98523820D01*
X171511179Y-98684657D01*
X171697518Y-98815134D01*
X171697520Y-98815135D01*
X171849999Y-98886237D01*
X171850000Y-98886236D01*
X171850000Y-98185000D01*
X172850000Y-98185000D01*
X172850000Y-98886237D01*
X173002479Y-98815135D01*
X173002481Y-98815134D01*
X173188820Y-98684657D01*
X173349657Y-98523820D01*
X173480134Y-98337482D01*
X173551237Y-98185000D01*
X172850000Y-98185000D01*
X171850000Y-98185000D01*
X171148762Y-98185000D01*
X168800327Y-98185000D01*
X169243021Y-97742306D01*
X172025000Y-97742306D01*
X172064199Y-97850007D01*
X172137871Y-97937805D01*
X172237129Y-97995112D01*
X172321564Y-98010000D01*
X172378436Y-98010000D01*
X172462871Y-97995112D01*
X172562129Y-97937805D01*
X172635801Y-97850007D01*
X172675000Y-97742306D01*
X172675000Y-97627694D01*
X172635801Y-97519993D01*
X172562129Y-97432195D01*
X172462871Y-97374888D01*
X172378436Y-97360000D01*
X172321564Y-97360000D01*
X172237129Y-97374888D01*
X172137871Y-97432195D01*
X172064199Y-97519993D01*
X172025000Y-97627694D01*
X172025000Y-97742306D01*
X169243021Y-97742306D01*
X170198508Y-96786819D01*
X170259831Y-96753334D01*
X170286189Y-96750500D01*
X170661806Y-96750500D01*
X170728844Y-96770183D01*
X170835931Y-96839004D01*
X170960225Y-96875499D01*
X170960227Y-96875500D01*
X171098444Y-96875500D01*
X171165483Y-96895185D01*
X171211238Y-96947989D01*
X171221182Y-97017147D01*
X171210826Y-97051905D01*
X171148762Y-97184999D01*
X171148762Y-97185000D01*
X173551238Y-97185000D01*
X173551237Y-97184999D01*
X173480134Y-97032517D01*
X173349657Y-96846179D01*
X173188813Y-96685335D01*
X173143471Y-96653586D01*
X173099847Y-96599008D01*
X173091376Y-96538128D01*
X173105249Y-96415002D01*
X173105249Y-96414997D01*
X173086314Y-96246943D01*
X173034639Y-96099264D01*
X173030456Y-96087310D01*
X173030455Y-96087309D01*
X173030454Y-96087305D01*
X173030452Y-96087302D01*
X172940481Y-95944115D01*
X172940476Y-95944109D01*
X172864048Y-95867681D01*
X172830563Y-95806358D01*
X172835547Y-95736666D01*
X172864048Y-95692319D01*
X172940477Y-95615890D01*
X172973079Y-95564005D01*
X173030452Y-95472697D01*
X173030454Y-95472694D01*
X173030454Y-95472692D01*
X173030456Y-95472690D01*
X173086313Y-95313059D01*
X173086313Y-95313058D01*
X173086314Y-95313056D01*
X173105249Y-95145002D01*
X173105249Y-95144997D01*
X173086314Y-94976943D01*
X173060768Y-94903937D01*
X173030456Y-94817310D01*
X173030454Y-94817307D01*
X173030454Y-94817306D01*
X172979363Y-94735996D01*
X172978827Y-94735144D01*
X172959827Y-94667908D01*
X172980194Y-94601073D01*
X173014930Y-94566071D01*
X173030601Y-94555601D01*
X173085966Y-94472740D01*
X173100500Y-94399674D01*
X173100500Y-93350326D01*
X173100500Y-93350323D01*
X173100499Y-93350321D01*
X173085967Y-93277264D01*
X173085966Y-93277260D01*
X173030601Y-93194399D01*
X172947740Y-93139034D01*
X172947739Y-93139033D01*
X172947735Y-93139032D01*
X172874677Y-93124500D01*
X172874674Y-93124500D01*
X171825326Y-93124500D01*
X171825323Y-93124500D01*
X171752264Y-93139032D01*
X171752260Y-93139033D01*
X171669399Y-93194399D01*
X171614033Y-93277260D01*
X171614032Y-93277264D01*
X171599500Y-93350321D01*
X171599500Y-94399678D01*
X171614032Y-94472735D01*
X171614033Y-94472739D01*
X171614034Y-94472740D01*
X171669399Y-94555601D01*
X171685068Y-94566070D01*
X171729872Y-94619679D01*
X171738582Y-94689004D01*
X171721172Y-94735144D01*
X171669544Y-94817309D01*
X171669542Y-94817313D01*
X171629820Y-94930831D01*
X171589098Y-94987607D01*
X171524146Y-95013354D01*
X171455584Y-94999897D01*
X171405181Y-94951510D01*
X171399993Y-94941405D01*
X171382882Y-94903937D01*
X171298049Y-94806033D01*
X171189069Y-94735996D01*
X171189065Y-94735994D01*
X171189064Y-94735994D01*
X171064774Y-94699500D01*
X171064772Y-94699500D01*
X170935228Y-94699500D01*
X170935226Y-94699500D01*
X170810935Y-94735994D01*
X170810932Y-94735995D01*
X170810931Y-94735996D01*
X170703845Y-94804816D01*
X170636806Y-94824500D01*
X169991922Y-94824500D01*
X169986518Y-94824264D01*
X169981107Y-94823790D01*
X169946192Y-94820735D01*
X169946191Y-94820735D01*
X169907091Y-94831212D01*
X169901811Y-94832383D01*
X169861959Y-94839410D01*
X169856961Y-94841229D01*
X169840117Y-94848206D01*
X169835313Y-94850446D01*
X169802166Y-94873656D01*
X169797606Y-94876562D01*
X169762548Y-94896804D01*
X169762540Y-94896810D01*
X169736523Y-94927815D01*
X169732868Y-94931804D01*
X167036980Y-97627694D01*
X165025993Y-99638681D01*
X164964670Y-99672166D01*
X164938312Y-99675000D01*
X139074000Y-99675000D01*
X139006961Y-99655315D01*
X138961206Y-99602511D01*
X138950000Y-99551000D01*
X138950000Y-78800000D01*
X144344867Y-78800000D01*
X144363302Y-78928225D01*
X144417117Y-79046061D01*
X144417118Y-79046063D01*
X144444213Y-79077333D01*
X144473238Y-79140888D01*
X144474500Y-79158535D01*
X144474500Y-82983078D01*
X144474264Y-82988485D01*
X144470735Y-83028808D01*
X144481212Y-83067910D01*
X144482383Y-83073190D01*
X144489411Y-83113043D01*
X144491235Y-83118055D01*
X144498197Y-83134861D01*
X144500445Y-83139681D01*
X144500446Y-83139684D01*
X144514452Y-83159687D01*
X144523655Y-83172831D01*
X144526561Y-83177392D01*
X144546806Y-83212455D01*
X144577815Y-83238475D01*
X144581805Y-83242131D01*
X145316555Y-83976881D01*
X145350040Y-84038204D01*
X145351612Y-84046915D01*
X145363302Y-84128225D01*
X145417117Y-84246061D01*
X145417118Y-84246063D01*
X145501951Y-84343967D01*
X145610931Y-84414004D01*
X145735225Y-84450499D01*
X145735227Y-84450500D01*
X145735228Y-84450500D01*
X145864773Y-84450500D01*
X145864773Y-84450499D01*
X145989069Y-84414004D01*
X146098049Y-84343967D01*
X146182882Y-84246063D01*
X146236697Y-84128226D01*
X146255133Y-84000000D01*
X146236697Y-83871774D01*
X146182882Y-83753937D01*
X146098049Y-83656033D01*
X145989069Y-83585996D01*
X145989065Y-83585994D01*
X145989064Y-83585994D01*
X145864774Y-83549500D01*
X145864772Y-83549500D01*
X145861188Y-83549500D01*
X145857748Y-83548490D01*
X145855995Y-83548238D01*
X145856031Y-83547985D01*
X145794149Y-83529815D01*
X145773507Y-83513181D01*
X145161819Y-82901493D01*
X145128334Y-82840170D01*
X145125500Y-82813812D01*
X145125500Y-79158535D01*
X145145185Y-79091496D01*
X145155783Y-79077336D01*
X145182882Y-79046063D01*
X145236697Y-78928226D01*
X145255133Y-78800000D01*
X145236697Y-78671774D01*
X145182882Y-78553937D01*
X145098049Y-78456033D01*
X144989069Y-78385996D01*
X144989065Y-78385994D01*
X144989064Y-78385994D01*
X144864774Y-78349500D01*
X144864772Y-78349500D01*
X144735228Y-78349500D01*
X144735226Y-78349500D01*
X144610935Y-78385994D01*
X144610932Y-78385995D01*
X144610931Y-78385996D01*
X144559677Y-78418934D01*
X144501950Y-78456033D01*
X144417118Y-78553937D01*
X144417117Y-78553938D01*
X144363302Y-78671774D01*
X144344867Y-78800000D01*
X138950000Y-78800000D01*
X138950000Y-73925000D01*
X142219867Y-73925000D01*
X142238302Y-74053225D01*
X142292117Y-74171061D01*
X142292118Y-74171063D01*
X142376951Y-74268967D01*
X142485931Y-74339004D01*
X142610225Y-74375499D01*
X142610227Y-74375500D01*
X142610228Y-74375500D01*
X142739772Y-74375500D01*
X142797735Y-74358481D01*
X142867604Y-74358481D01*
X142926382Y-74396255D01*
X142955407Y-74459811D01*
X142956353Y-74486305D01*
X142945641Y-74636068D01*
X142945641Y-74636073D01*
X142976233Y-74776702D01*
X142976234Y-74776706D01*
X143045205Y-74903018D01*
X143045211Y-74903025D01*
X143146974Y-75004788D01*
X143146981Y-75004794D01*
X143218410Y-75043797D01*
X143273294Y-75073766D01*
X143413927Y-75104359D01*
X143557483Y-75094091D01*
X143692331Y-75043796D01*
X143778593Y-74979221D01*
X145295995Y-73461819D01*
X145357318Y-73428334D01*
X145383676Y-73425500D01*
X146628387Y-73425500D01*
X146679899Y-73436705D01*
X146709370Y-73450165D01*
X146714139Y-73450850D01*
X146739829Y-73457407D01*
X146744344Y-73459091D01*
X146796085Y-73462791D01*
X146800484Y-73463264D01*
X146816028Y-73465500D01*
X146831733Y-73465500D01*
X146836155Y-73465657D01*
X146887900Y-73469359D01*
X146892612Y-73468334D01*
X146918970Y-73465500D01*
X147261030Y-73465500D01*
X147287388Y-73468334D01*
X147292100Y-73469359D01*
X147343844Y-73465657D01*
X147348267Y-73465500D01*
X147363972Y-73465500D01*
X147379515Y-73463264D01*
X147383913Y-73462791D01*
X147435656Y-73459091D01*
X147440165Y-73457408D01*
X147465858Y-73450850D01*
X147470630Y-73450165D01*
X147500100Y-73436705D01*
X147551612Y-73425500D01*
X164666324Y-73425500D01*
X164733363Y-73445185D01*
X164754005Y-73461819D01*
X168763181Y-77470994D01*
X168796666Y-77532317D01*
X168799500Y-77558675D01*
X168799500Y-88635797D01*
X168814834Y-88742456D01*
X168874622Y-88873371D01*
X168874623Y-88873373D01*
X168968872Y-88982143D01*
X169089947Y-89059953D01*
X169089950Y-89059954D01*
X169089949Y-89059954D01*
X169228036Y-89100499D01*
X169228038Y-89100500D01*
X169228039Y-89100500D01*
X169371962Y-89100500D01*
X169371962Y-89100499D01*
X169510053Y-89059953D01*
X169631128Y-88982143D01*
X169725377Y-88873373D01*
X169785165Y-88742457D01*
X169800500Y-88635799D01*
X169800500Y-77367143D01*
X169803334Y-77340785D01*
X169804359Y-77336073D01*
X169800658Y-77284329D01*
X169800500Y-77279904D01*
X169800500Y-77264201D01*
X169798264Y-77248657D01*
X169797791Y-77244254D01*
X169794091Y-77192517D01*
X169792407Y-77188002D01*
X169785850Y-77162312D01*
X169785165Y-77157543D01*
X169763612Y-77110351D01*
X169761932Y-77106295D01*
X169743796Y-77057669D01*
X169740905Y-77053807D01*
X169727379Y-77031010D01*
X169725377Y-77026627D01*
X169725375Y-77026625D01*
X169725375Y-77026624D01*
X169725374Y-77026623D01*
X169691403Y-76987418D01*
X169688625Y-76983970D01*
X169679224Y-76971412D01*
X169679222Y-76971410D01*
X169679220Y-76971407D01*
X169668117Y-76960304D01*
X169665100Y-76957063D01*
X169631128Y-76917857D01*
X169627071Y-76915250D01*
X169606427Y-76898614D01*
X165326385Y-72618571D01*
X165309750Y-72597928D01*
X165307145Y-72593874D01*
X165307142Y-72593871D01*
X165300147Y-72587810D01*
X165267932Y-72559896D01*
X165264700Y-72556886D01*
X165253596Y-72545782D01*
X165253588Y-72545775D01*
X165241013Y-72536362D01*
X165237583Y-72533598D01*
X165198373Y-72499623D01*
X165198371Y-72499622D01*
X165198367Y-72499619D01*
X165193983Y-72497617D01*
X165171194Y-72484096D01*
X165167331Y-72481204D01*
X165167329Y-72481203D01*
X165118716Y-72463071D01*
X165114642Y-72461383D01*
X165067457Y-72439835D01*
X165067455Y-72439834D01*
X165062682Y-72439148D01*
X165037000Y-72432593D01*
X165032485Y-72430909D01*
X164980740Y-72427207D01*
X164976343Y-72426734D01*
X164960799Y-72424500D01*
X164945094Y-72424500D01*
X164940671Y-72424342D01*
X164923083Y-72423084D01*
X164888929Y-72420641D01*
X164888925Y-72420641D01*
X164884215Y-72421666D01*
X164857857Y-72424500D01*
X149606940Y-72424500D01*
X149539901Y-72404815D01*
X149494146Y-72352011D01*
X149484202Y-72282853D01*
X149513227Y-72219297D01*
X149519259Y-72212819D01*
X149874352Y-71857726D01*
X154518204Y-67213872D01*
X154522166Y-67210241D01*
X154553194Y-67184207D01*
X154573438Y-67149142D01*
X154576335Y-67144593D01*
X154599554Y-67111436D01*
X154599554Y-67111433D01*
X154601819Y-67106576D01*
X154608747Y-67089851D01*
X154610587Y-67084798D01*
X154610588Y-67084797D01*
X154616877Y-67049125D01*
X154645278Y-66989459D01*
X154682882Y-66946063D01*
X154736697Y-66828226D01*
X154755133Y-66700000D01*
X154736697Y-66571774D01*
X154682882Y-66453937D01*
X154598049Y-66356033D01*
X154489069Y-66285996D01*
X154489065Y-66285994D01*
X154489064Y-66285994D01*
X154364774Y-66249500D01*
X154364772Y-66249500D01*
X154235228Y-66249500D01*
X154235226Y-66249500D01*
X154110935Y-66285994D01*
X154110932Y-66285995D01*
X154110931Y-66285996D01*
X154059677Y-66318934D01*
X154001950Y-66356033D01*
X153917118Y-66453937D01*
X153917116Y-66453938D01*
X153880410Y-66534314D01*
X153834655Y-66587118D01*
X153767615Y-66606802D01*
X153732683Y-66601780D01*
X153639772Y-66574500D01*
X153510228Y-66574500D01*
X153510226Y-66574500D01*
X153385935Y-66610994D01*
X153385932Y-66610995D01*
X153385931Y-66610996D01*
X153278845Y-66679816D01*
X153211806Y-66699500D01*
X149591922Y-66699500D01*
X149586518Y-66699264D01*
X149581107Y-66698790D01*
X149546192Y-66695735D01*
X149546191Y-66695735D01*
X149507091Y-66706212D01*
X149501811Y-66707383D01*
X149461959Y-66714410D01*
X149456961Y-66716229D01*
X149440117Y-66723206D01*
X149435313Y-66725446D01*
X149402166Y-66748656D01*
X149397606Y-66751562D01*
X149362548Y-66771804D01*
X149362540Y-66771810D01*
X149336523Y-66802815D01*
X149332868Y-66806804D01*
X146015315Y-70124359D01*
X142701493Y-73438181D01*
X142640170Y-73471666D01*
X142613812Y-73474500D01*
X142610226Y-73474500D01*
X142485935Y-73510994D01*
X142485932Y-73510995D01*
X142485931Y-73510996D01*
X142434677Y-73543934D01*
X142376950Y-73581033D01*
X142292118Y-73678937D01*
X142292117Y-73678938D01*
X142238302Y-73796774D01*
X142219867Y-73925000D01*
X138950000Y-73925000D01*
X138950000Y-65921963D01*
X154669500Y-65921963D01*
X154710045Y-66060050D01*
X154710047Y-66060053D01*
X154787857Y-66181128D01*
X154896627Y-66275377D01*
X155027543Y-66335165D01*
X155134201Y-66350500D01*
X168351324Y-66350500D01*
X168418363Y-66370185D01*
X168439005Y-66386819D01*
X172051396Y-69999211D01*
X172051402Y-69999216D01*
X172051407Y-69999221D01*
X172137668Y-70063795D01*
X172137671Y-70063797D01*
X172182618Y-70080561D01*
X172272517Y-70114091D01*
X172416073Y-70124359D01*
X172556706Y-70093766D01*
X172683023Y-70024791D01*
X172784791Y-69923023D01*
X172853766Y-69796706D01*
X172884359Y-69656073D01*
X172874091Y-69512517D01*
X172823796Y-69377669D01*
X172759221Y-69291407D01*
X172759216Y-69291402D01*
X172759211Y-69291396D01*
X169011385Y-65543571D01*
X168994750Y-65522928D01*
X168992145Y-65518874D01*
X168992142Y-65518871D01*
X168985147Y-65512810D01*
X168952932Y-65484896D01*
X168949700Y-65481886D01*
X168938596Y-65470782D01*
X168938588Y-65470775D01*
X168926013Y-65461362D01*
X168922583Y-65458598D01*
X168883373Y-65424623D01*
X168883371Y-65424622D01*
X168883367Y-65424619D01*
X168878983Y-65422617D01*
X168856194Y-65409096D01*
X168852331Y-65406204D01*
X168852329Y-65406203D01*
X168803716Y-65388071D01*
X168799642Y-65386383D01*
X168752457Y-65364835D01*
X168752455Y-65364834D01*
X168747682Y-65364148D01*
X168722000Y-65357593D01*
X168717485Y-65355909D01*
X168665740Y-65352207D01*
X168661343Y-65351734D01*
X168645799Y-65349500D01*
X168630094Y-65349500D01*
X168625671Y-65349342D01*
X168608083Y-65348084D01*
X168573929Y-65345641D01*
X168573925Y-65345641D01*
X168569215Y-65346666D01*
X168542857Y-65349500D01*
X155134201Y-65349500D01*
X155120794Y-65351427D01*
X155027543Y-65364834D01*
X154896628Y-65424622D01*
X154896626Y-65424623D01*
X154787856Y-65518873D01*
X154710045Y-65639949D01*
X154669500Y-65778036D01*
X154669500Y-65921963D01*
X138950000Y-65921963D01*
X138950000Y-58949000D01*
X138969685Y-58881961D01*
X139022489Y-58836206D01*
X139074000Y-58825000D01*
X141428000Y-58825000D01*
X141495039Y-58844685D01*
G37*
%TD.AperFunction*%
%TD*%
M02*
