%TF.GenerationSoftware,KiCad,Pcbnew,7.0.9*%
%TF.CreationDate,2024-11-07T18:13:08+05:30*%
%TF.ProjectId,RFID_pico,52464944-5f70-4696-936f-2e6b69636164,rev?*%
%TF.SameCoordinates,Original*%
%TF.FileFunction,Profile,NP*%
%FSLAX46Y46*%
G04 Gerber Fmt 4.6, Leading zero omitted, Abs format (unit mm)*
G04 Created by KiCad (PCBNEW 7.0.9) date 2024-11-07 18:13:08*
%MOMM*%
%LPD*%
G01*
G04 APERTURE LIST*
%TA.AperFunction,Profile*%
%ADD10C,0.100000*%
%TD*%
%TA.AperFunction,Profile*%
%ADD11C,0.010000*%
%TD*%
%TA.AperFunction,Profile*%
%ADD12C,0.050000*%
%TD*%
G04 APERTURE END LIST*
D10*
X152525000Y-58810000D02*
X174795000Y-58810000D01*
X138930000Y-99705000D02*
X146205000Y-99705000D01*
X146127500Y-58810000D02*
X146925000Y-58810000D01*
X138930000Y-58810000D02*
X140527500Y-58810000D01*
X138930000Y-58810000D02*
X138930000Y-99705000D01*
X174795000Y-58810000D02*
X174765000Y-99705000D01*
X174765000Y-99705000D02*
X168205000Y-99705000D01*
D11*
%TO.C,J1*%
X140527500Y-58810000D02*
X141552500Y-58810000D01*
X141552500Y-58810000D02*
X141552500Y-62000000D01*
X141977500Y-62400000D02*
X144677500Y-62402674D01*
X145102499Y-61984015D02*
X145102500Y-58810000D01*
X145102500Y-58810000D02*
X146127500Y-58810000D01*
X141552500Y-62000000D02*
G75*
G03*
X141974803Y-62397501I209588J-200411D01*
G01*
X144673296Y-62406622D02*
G75*
G03*
X145102499Y-61984015I219614J206212D01*
G01*
D10*
%TO.C,J7*%
X146205000Y-99705000D02*
X146705000Y-99705000D01*
X147305000Y-100305000D02*
X147305000Y-103705000D01*
X147305000Y-103705000D02*
X159255000Y-103705000D01*
D12*
X159255000Y-103705000D02*
X159255000Y-100805000D01*
X160455000Y-100805000D02*
X160455000Y-103705000D01*
D10*
X160455000Y-103705000D02*
X167105000Y-103705000D01*
X167105000Y-100305000D02*
X167105000Y-103705000D01*
X168205000Y-99705000D02*
X167705000Y-99705000D01*
X147305000Y-100305000D02*
G75*
G03*
X146705000Y-99705000I-600000J0D01*
G01*
D12*
X160455000Y-100805000D02*
G75*
G03*
X159255000Y-100805000I-600000J0D01*
G01*
D10*
X167705000Y-99705000D02*
G75*
G03*
X167105000Y-100305000I0J-600000D01*
G01*
D11*
%TO.C,J2*%
X146925000Y-58810000D02*
X147975000Y-58810000D01*
X147975000Y-58810000D02*
X147975000Y-62125000D01*
X148281391Y-62358284D02*
X151175000Y-62350000D01*
X151446821Y-58810000D02*
X152525000Y-58810000D01*
X151449999Y-62100001D02*
X151446821Y-58813419D01*
X147975001Y-62125001D02*
G75*
G03*
X148281390Y-62358283I184587J-75411D01*
G01*
X151175237Y-62349692D02*
G75*
G03*
X151449998Y-62100002I115173J149282D01*
G01*
%TD*%
M02*
