%TF.GenerationSoftware,KiCad,Pcbnew,7.0.9*%
%TF.CreationDate,2024-11-07T18:13:08+05:30*%
%TF.ProjectId,RFID_pico,52464944-5f70-4696-936f-2e6b69636164,rev?*%
%TF.SameCoordinates,Original*%
%TF.FileFunction,Paste,Top*%
%TF.FilePolarity,Positive*%
%FSLAX46Y46*%
G04 Gerber Fmt 4.6, Leading zero omitted, Abs format (unit mm)*
G04 Created by KiCad (PCBNEW 7.0.9) date 2024-11-07 18:13:08*
%MOMM*%
%LPD*%
G01*
G04 APERTURE LIST*
G04 Aperture macros list*
%AMRoundRect*
0 Rectangle with rounded corners*
0 $1 Rounding radius*
0 $2 $3 $4 $5 $6 $7 $8 $9 X,Y pos of 4 corners*
0 Add a 4 corners polygon primitive as box body*
4,1,4,$2,$3,$4,$5,$6,$7,$8,$9,$2,$3,0*
0 Add four circle primitives for the rounded corners*
1,1,$1+$1,$2,$3*
1,1,$1+$1,$4,$5*
1,1,$1+$1,$6,$7*
1,1,$1+$1,$8,$9*
0 Add four rect primitives between the rounded corners*
20,1,$1+$1,$2,$3,$4,$5,0*
20,1,$1+$1,$4,$5,$6,$7,0*
20,1,$1+$1,$6,$7,$8,$9,0*
20,1,$1+$1,$8,$9,$2,$3,0*%
G04 Aperture macros list end*
%ADD10C,0.010000*%
%ADD11RoundRect,0.140000X-0.170000X0.140000X-0.170000X-0.140000X0.170000X-0.140000X0.170000X0.140000X0*%
%ADD12R,1.100000X2.800000*%
%ADD13RoundRect,0.147500X0.172500X-0.147500X0.172500X0.147500X-0.172500X0.147500X-0.172500X-0.147500X0*%
%ADD14RoundRect,0.140000X-0.140000X-0.170000X0.140000X-0.170000X0.140000X0.170000X-0.140000X0.170000X0*%
%ADD15RoundRect,0.140000X0.170000X-0.140000X0.170000X0.140000X-0.170000X0.140000X-0.170000X-0.140000X0*%
%ADD16RoundRect,0.048750X0.146250X-0.436250X0.146250X0.436250X-0.146250X0.436250X-0.146250X-0.436250X0*%
%ADD17RoundRect,0.147500X-0.172500X0.147500X-0.172500X-0.147500X0.172500X-0.147500X0.172500X0.147500X0*%
%ADD18R,1.200000X0.600000*%
%ADD19RoundRect,0.212500X-0.752500X-0.212500X0.752500X-0.212500X0.752500X0.212500X-0.752500X0.212500X0*%
%ADD20RoundRect,0.212500X-0.212500X0.752500X-0.212500X-0.752500X0.212500X-0.752500X0.212500X0.752500X0*%
%ADD21RoundRect,0.225000X-0.225000X0.225000X-0.225000X-0.225000X0.225000X-0.225000X0.225000X0.225000X0*%
%ADD22R,2.925000X5.575000*%
%ADD23R,8.120000X4.275000*%
%ADD24R,4.500000X4.500000*%
%ADD25RoundRect,0.140000X0.140000X0.170000X-0.140000X0.170000X-0.140000X-0.170000X0.140000X-0.170000X0*%
%ADD26R,1.000000X1.050000*%
%ADD27R,1.050000X2.200000*%
%ADD28RoundRect,0.147500X-0.147500X-0.172500X0.147500X-0.172500X0.147500X0.172500X-0.147500X0.172500X0*%
%ADD29R,0.300000X0.800000*%
%ADD30R,0.800000X0.300000*%
%ADD31R,1.800000X1.800000*%
G04 APERTURE END LIST*
%TO.C,J1*%
D10*
X141552500Y-61865000D02*
X141515500Y-61892000D01*
X141480500Y-61924000D01*
X141449500Y-61959000D01*
X141422500Y-61999000D01*
X141401500Y-62041000D01*
X141384500Y-62085000D01*
X141373500Y-62131000D01*
X141368500Y-62178000D01*
X141368500Y-62226000D01*
X141374500Y-62273000D01*
X141386500Y-62318000D01*
X141403500Y-62363000D01*
X141425500Y-62404000D01*
X141452500Y-62443000D01*
X141483500Y-62479000D01*
X141519500Y-62510000D01*
X141558500Y-62537000D01*
X141599500Y-62559000D01*
X141644500Y-62576000D01*
X141689500Y-62588000D01*
X141736500Y-62594000D01*
X141784500Y-62594000D01*
X141831500Y-62589000D01*
X141877500Y-62578000D01*
X141921500Y-62561000D01*
X141963500Y-62540000D01*
X142003500Y-62513000D01*
X142038500Y-62482000D01*
X142070500Y-62447000D01*
X142097500Y-62410000D01*
X142177500Y-62410000D01*
X142177500Y-65610000D01*
X140877500Y-65610000D01*
X140877500Y-58810000D01*
X141552500Y-58810000D01*
X141552500Y-61865000D01*
G36*
X141552500Y-61865000D02*
G01*
X141515500Y-61892000D01*
X141480500Y-61924000D01*
X141449500Y-61959000D01*
X141422500Y-61999000D01*
X141401500Y-62041000D01*
X141384500Y-62085000D01*
X141373500Y-62131000D01*
X141368500Y-62178000D01*
X141368500Y-62226000D01*
X141374500Y-62273000D01*
X141386500Y-62318000D01*
X141403500Y-62363000D01*
X141425500Y-62404000D01*
X141452500Y-62443000D01*
X141483500Y-62479000D01*
X141519500Y-62510000D01*
X141558500Y-62537000D01*
X141599500Y-62559000D01*
X141644500Y-62576000D01*
X141689500Y-62588000D01*
X141736500Y-62594000D01*
X141784500Y-62594000D01*
X141831500Y-62589000D01*
X141877500Y-62578000D01*
X141921500Y-62561000D01*
X141963500Y-62540000D01*
X142003500Y-62513000D01*
X142038500Y-62482000D01*
X142070500Y-62447000D01*
X142097500Y-62410000D01*
X142177500Y-62410000D01*
X142177500Y-65610000D01*
X140877500Y-65610000D01*
X140877500Y-58810000D01*
X141552500Y-58810000D01*
X141552500Y-61865000D01*
G37*
X145777500Y-65610000D02*
X144477500Y-65610000D01*
X144477500Y-62410000D01*
X144557500Y-62410000D01*
X144584500Y-62447000D01*
X144616500Y-62482000D01*
X144651500Y-62513000D01*
X144691500Y-62540000D01*
X144733500Y-62561000D01*
X144777500Y-62578000D01*
X144823500Y-62589000D01*
X144870500Y-62594000D01*
X144918500Y-62594000D01*
X144965500Y-62588000D01*
X145010500Y-62576000D01*
X145055500Y-62559000D01*
X145096500Y-62537000D01*
X145135500Y-62510000D01*
X145171500Y-62479000D01*
X145202500Y-62443000D01*
X145229500Y-62404000D01*
X145251500Y-62363000D01*
X145268500Y-62318000D01*
X145280500Y-62273000D01*
X145286500Y-62226000D01*
X145286500Y-62178000D01*
X145281500Y-62131000D01*
X145270500Y-62085000D01*
X145253500Y-62041000D01*
X145232500Y-61999000D01*
X145205500Y-61959000D01*
X145174500Y-61924000D01*
X145139500Y-61892000D01*
X145102500Y-61865000D01*
X145102500Y-58810000D01*
X145777500Y-58810000D01*
X145777500Y-65610000D01*
G36*
X145777500Y-65610000D02*
G01*
X144477500Y-65610000D01*
X144477500Y-62410000D01*
X144557500Y-62410000D01*
X144584500Y-62447000D01*
X144616500Y-62482000D01*
X144651500Y-62513000D01*
X144691500Y-62540000D01*
X144733500Y-62561000D01*
X144777500Y-62578000D01*
X144823500Y-62589000D01*
X144870500Y-62594000D01*
X144918500Y-62594000D01*
X144965500Y-62588000D01*
X145010500Y-62576000D01*
X145055500Y-62559000D01*
X145096500Y-62537000D01*
X145135500Y-62510000D01*
X145171500Y-62479000D01*
X145202500Y-62443000D01*
X145229500Y-62404000D01*
X145251500Y-62363000D01*
X145268500Y-62318000D01*
X145280500Y-62273000D01*
X145286500Y-62226000D01*
X145286500Y-62178000D01*
X145281500Y-62131000D01*
X145270500Y-62085000D01*
X145253500Y-62041000D01*
X145232500Y-61999000D01*
X145205500Y-61959000D01*
X145174500Y-61924000D01*
X145139500Y-61892000D01*
X145102500Y-61865000D01*
X145102500Y-58810000D01*
X145777500Y-58810000D01*
X145777500Y-65610000D01*
G37*
%TO.C,J2*%
X147950000Y-61865000D02*
X147913000Y-61892000D01*
X147878000Y-61924000D01*
X147847000Y-61959000D01*
X147820000Y-61999000D01*
X147799000Y-62041000D01*
X147782000Y-62085000D01*
X147771000Y-62131000D01*
X147766000Y-62178000D01*
X147766000Y-62226000D01*
X147772000Y-62273000D01*
X147784000Y-62318000D01*
X147801000Y-62363000D01*
X147823000Y-62404000D01*
X147850000Y-62443000D01*
X147881000Y-62479000D01*
X147917000Y-62510000D01*
X147956000Y-62537000D01*
X147997000Y-62559000D01*
X148042000Y-62576000D01*
X148087000Y-62588000D01*
X148134000Y-62594000D01*
X148182000Y-62594000D01*
X148229000Y-62589000D01*
X148275000Y-62578000D01*
X148319000Y-62561000D01*
X148361000Y-62540000D01*
X148401000Y-62513000D01*
X148436000Y-62482000D01*
X148468000Y-62447000D01*
X148495000Y-62410000D01*
X148575000Y-62410000D01*
X148575000Y-65610000D01*
X147275000Y-65610000D01*
X147275000Y-58810000D01*
X147950000Y-58810000D01*
X147950000Y-61865000D01*
G36*
X147950000Y-61865000D02*
G01*
X147913000Y-61892000D01*
X147878000Y-61924000D01*
X147847000Y-61959000D01*
X147820000Y-61999000D01*
X147799000Y-62041000D01*
X147782000Y-62085000D01*
X147771000Y-62131000D01*
X147766000Y-62178000D01*
X147766000Y-62226000D01*
X147772000Y-62273000D01*
X147784000Y-62318000D01*
X147801000Y-62363000D01*
X147823000Y-62404000D01*
X147850000Y-62443000D01*
X147881000Y-62479000D01*
X147917000Y-62510000D01*
X147956000Y-62537000D01*
X147997000Y-62559000D01*
X148042000Y-62576000D01*
X148087000Y-62588000D01*
X148134000Y-62594000D01*
X148182000Y-62594000D01*
X148229000Y-62589000D01*
X148275000Y-62578000D01*
X148319000Y-62561000D01*
X148361000Y-62540000D01*
X148401000Y-62513000D01*
X148436000Y-62482000D01*
X148468000Y-62447000D01*
X148495000Y-62410000D01*
X148575000Y-62410000D01*
X148575000Y-65610000D01*
X147275000Y-65610000D01*
X147275000Y-58810000D01*
X147950000Y-58810000D01*
X147950000Y-61865000D01*
G37*
X152175000Y-65610000D02*
X150875000Y-65610000D01*
X150875000Y-62410000D01*
X150955000Y-62410000D01*
X150982000Y-62447000D01*
X151014000Y-62482000D01*
X151049000Y-62513000D01*
X151089000Y-62540000D01*
X151131000Y-62561000D01*
X151175000Y-62578000D01*
X151221000Y-62589000D01*
X151268000Y-62594000D01*
X151316000Y-62594000D01*
X151363000Y-62588000D01*
X151408000Y-62576000D01*
X151453000Y-62559000D01*
X151494000Y-62537000D01*
X151533000Y-62510000D01*
X151569000Y-62479000D01*
X151600000Y-62443000D01*
X151627000Y-62404000D01*
X151649000Y-62363000D01*
X151666000Y-62318000D01*
X151678000Y-62273000D01*
X151684000Y-62226000D01*
X151684000Y-62178000D01*
X151679000Y-62131000D01*
X151668000Y-62085000D01*
X151651000Y-62041000D01*
X151630000Y-61999000D01*
X151603000Y-61959000D01*
X151572000Y-61924000D01*
X151537000Y-61892000D01*
X151500000Y-61865000D01*
X151500000Y-58810000D01*
X152175000Y-58810000D01*
X152175000Y-65610000D01*
G36*
X152175000Y-65610000D02*
G01*
X150875000Y-65610000D01*
X150875000Y-62410000D01*
X150955000Y-62410000D01*
X150982000Y-62447000D01*
X151014000Y-62482000D01*
X151049000Y-62513000D01*
X151089000Y-62540000D01*
X151131000Y-62561000D01*
X151175000Y-62578000D01*
X151221000Y-62589000D01*
X151268000Y-62594000D01*
X151316000Y-62594000D01*
X151363000Y-62588000D01*
X151408000Y-62576000D01*
X151453000Y-62559000D01*
X151494000Y-62537000D01*
X151533000Y-62510000D01*
X151569000Y-62479000D01*
X151600000Y-62443000D01*
X151627000Y-62404000D01*
X151649000Y-62363000D01*
X151666000Y-62318000D01*
X151678000Y-62273000D01*
X151684000Y-62226000D01*
X151684000Y-62178000D01*
X151679000Y-62131000D01*
X151668000Y-62085000D01*
X151651000Y-62041000D01*
X151630000Y-61999000D01*
X151603000Y-61959000D01*
X151572000Y-61924000D01*
X151537000Y-61892000D01*
X151500000Y-61865000D01*
X151500000Y-58810000D01*
X152175000Y-58810000D01*
X152175000Y-65610000D01*
G37*
%TD*%
D11*
%TO.C,C9*%
X173870000Y-72870000D03*
X173870000Y-73830000D03*
%TD*%
D12*
%TO.C,J1*%
X143327500Y-64210000D03*
%TD*%
D13*
%TO.C,R7*%
X146500000Y-74485000D03*
X146500000Y-73515000D03*
%TD*%
D14*
%TO.C,C8*%
X171470000Y-76300000D03*
X172430000Y-76300000D03*
%TD*%
D15*
%TO.C,C4*%
X162300000Y-66800000D03*
X162300000Y-65840000D03*
%TD*%
D16*
%TO.C,IC1*%
X144150000Y-77780000D03*
X144800000Y-77780000D03*
X145450000Y-77780000D03*
X145450000Y-75820000D03*
X144150000Y-75820000D03*
%TD*%
D13*
%TO.C,L8*%
X170900000Y-64585000D03*
X170900000Y-63615000D03*
%TD*%
D17*
%TO.C,R9*%
X145450000Y-73565000D03*
X145450000Y-74535000D03*
%TD*%
D18*
%TO.C,U3*%
X169950000Y-72850000D03*
X169950000Y-73800000D03*
X169950000Y-74750000D03*
X172450000Y-74750000D03*
X172450000Y-72850000D03*
%TD*%
D13*
%TO.C,L4*%
X148575000Y-68225000D03*
X148575000Y-67255000D03*
%TD*%
%TO.C,R6*%
X142700000Y-77710000D03*
X142700000Y-76740000D03*
%TD*%
D19*
%TO.C,U2*%
X148600000Y-78550000D03*
X148600000Y-79800000D03*
X148600000Y-81050000D03*
X148600000Y-82300000D03*
X148600000Y-83550000D03*
X148600000Y-84800000D03*
X148600000Y-86050000D03*
X148600000Y-87300000D03*
X148600000Y-88550000D03*
X148600000Y-89800000D03*
X148600000Y-91050000D03*
X148600000Y-92300000D03*
X148600000Y-93550000D03*
X148600000Y-94800000D03*
X148600000Y-96050000D03*
X166600000Y-96050000D03*
X166600000Y-94800000D03*
X166600000Y-93550000D03*
X166600000Y-92300000D03*
X166600000Y-91050000D03*
X166600000Y-89800000D03*
X166600000Y-88550000D03*
X166600000Y-87300000D03*
X166600000Y-86050000D03*
X166600000Y-84800000D03*
X166600000Y-83550000D03*
X166600000Y-82300000D03*
X166600000Y-81050000D03*
X166600000Y-79800000D03*
X166600000Y-78550000D03*
D20*
X163850000Y-76300000D03*
X162600000Y-76300000D03*
X161350000Y-76300000D03*
X160100000Y-76300000D03*
X158850000Y-76300000D03*
X157600000Y-76300000D03*
X156350000Y-76300000D03*
D21*
X155100000Y-76300000D03*
D20*
X153850000Y-76300000D03*
X152600000Y-76300000D03*
X151350000Y-76300000D03*
D22*
X152037500Y-80737500D03*
D23*
X154910000Y-80087500D03*
D24*
X160600000Y-85000000D03*
%TD*%
D25*
%TO.C,C7*%
X168590000Y-72900000D03*
X167630000Y-72900000D03*
%TD*%
D12*
%TO.C,J2*%
X149725000Y-64210000D03*
%TD*%
D15*
%TO.C,C5*%
X169700000Y-66580000D03*
X169700000Y-65620000D03*
%TD*%
D13*
%TO.C,L3*%
X149700000Y-68200000D03*
X149700000Y-67230000D03*
%TD*%
%TO.C,L7*%
X169700000Y-64585000D03*
X169700000Y-63615000D03*
%TD*%
D26*
%TO.C,J4*%
X162300000Y-62125000D03*
D27*
X160825000Y-60600000D03*
X163775000Y-60600000D03*
%TD*%
D28*
%TO.C,R1*%
X169065000Y-76400000D03*
X170035000Y-76400000D03*
%TD*%
D13*
%TO.C,L1*%
X143300000Y-68200000D03*
X143300000Y-67230000D03*
%TD*%
%TO.C,L5*%
X162300000Y-64700000D03*
X162300000Y-63730000D03*
%TD*%
D29*
%TO.C,U1*%
X155650000Y-68100000D03*
X155150000Y-68100000D03*
X154650000Y-68100000D03*
X154150000Y-68100000D03*
D30*
X153400000Y-68850000D03*
X153400000Y-69350000D03*
X153400000Y-69850000D03*
X153400000Y-70350000D03*
D29*
X154150000Y-71100000D03*
X154650000Y-71100000D03*
X155150000Y-71100000D03*
X155650000Y-71100000D03*
D30*
X156400000Y-70350000D03*
X156400000Y-69850000D03*
X156400000Y-69350000D03*
X156400000Y-68850000D03*
D31*
X154900000Y-69600000D03*
%TD*%
D13*
%TO.C,L6*%
X161100000Y-64685000D03*
X161100000Y-63715000D03*
%TD*%
D11*
%TO.C,C13*%
X144150000Y-73620000D03*
X144150000Y-74580000D03*
%TD*%
D25*
%TO.C,C6*%
X156130000Y-66700000D03*
X155170000Y-66700000D03*
%TD*%
D15*
%TO.C,C1*%
X155100000Y-73880000D03*
X155100000Y-72920000D03*
%TD*%
D28*
%TO.C,R8*%
X141640000Y-75700000D03*
X142610000Y-75700000D03*
%TD*%
D13*
%TO.C,L2*%
X142000000Y-68200000D03*
X142000000Y-67230000D03*
%TD*%
D26*
%TO.C,J5*%
X169700000Y-62025000D03*
D27*
X168225000Y-60500000D03*
X171175000Y-60500000D03*
%TD*%
D25*
%TO.C,C14*%
X146430000Y-72400000D03*
X145470000Y-72400000D03*
%TD*%
%TO.C,C15*%
X142605000Y-74600000D03*
X141645000Y-74600000D03*
%TD*%
D15*
%TO.C,C2*%
X143300000Y-70295000D03*
X143300000Y-69335000D03*
%TD*%
D25*
%TO.C,C3*%
X150680000Y-69315000D03*
X149720000Y-69315000D03*
%TD*%
M02*
