M48
; DRILL file {KiCad 7.0.9} date Thu Nov  7 18:13:15 2024
; FORMAT={-:-/ absolute / inch / decimal}
; #@! TF.CreationDate,2024-11-07T18:13:15+05:30
; #@! TF.GenerationSoftware,Kicad,Pcbnew,7.0.9
; #@! TF.FileFunction,Plated,1,2,PTH
FMAT,2
INCH
; #@! TA.AperFunction,Plated,PTH,ViaDrill
T1C0.0118
; #@! TA.AperFunction,Plated,PTH,ComponentDrill
T2C0.0256
%
G90
G05
T1
X5.6171Y-2.9104
X5.6476Y-2.937
X5.7008Y-3.1024
X5.7402Y-3.3071
X5.7559Y-2.7008
X5.7939Y-2.8468
X6.0463Y-2.6388
X6.0748Y-2.626
X6.1091Y-2.5925
X6.1919Y-2.7953
X6.4754Y-3.9626
X6.5069Y-3.9596
X6.6654Y-3.4882
X6.7323Y-3.7461
X6.7333Y-3.7963
X6.7866Y-2.7409
T2
X6.7854Y-3.6959
X6.7854Y-3.7459
X6.7854Y-3.7959
X6.7854Y-3.8459
T0
M30
