M48
; DRILL file {KiCad 9.0.2-9.0.2-0~ubuntu22.04.1} date 2025-07-08T19:29:43+0530
; FORMAT={-:-/ absolute / metric / decimal}
; #@! TF.CreationDate,2025-07-08T19:29:43+05:30
; #@! TF.GenerationSoftware,Kicad,Pcbnew,9.0.2-9.0.2-0~ubuntu22.04.1
; #@! TF.FileFunction,Plated,1,4,PTH
FMAT,2
METRIC
; #@! TA.AperFunction,Plated,PTH,ViaDrill
T1C0.300
; #@! TA.AperFunction,Plated,PTH,ComponentDrill
T2C0.500
; #@! TA.AperFunction,Plated,PTH,ComponentDrill
T3C0.600
; #@! TA.AperFunction,Plated,PTH,ComponentDrill
T4C0.700
; #@! TA.AperFunction,Plated,PTH,ComponentDrill
T5C0.800
; #@! TA.AperFunction,Plated,PTH,ComponentDrill
T6C0.890
; #@! TA.AperFunction,Plated,PTH,ComponentDrill
T7C0.900
; #@! TA.AperFunction,Plated,PTH,ComponentDrill
T8C0.950
; #@! TA.AperFunction,Plated,PTH,ComponentDrill
T9C0.990
; #@! TA.AperFunction,Plated,PTH,ComponentDrill
T10C1.000
; #@! TA.AperFunction,Plated,PTH,ComponentDrill
T11C1.020
; #@! TA.AperFunction,Plated,PTH,ComponentDrill
T12C1.050
; #@! TA.AperFunction,Plated,PTH,ComponentDrill
T13C1.300
; #@! TA.AperFunction,Plated,PTH,ComponentDrill
T14C1.630
; #@! TA.AperFunction,Plated,PTH,ComponentDrill
T15C2.300
; #@! TA.AperFunction,Plated,PTH,ComponentDrill
T16C2.500
; #@! TA.AperFunction,Plated,PTH,ComponentDrill
T17C2.700
%
G90
G05
T1
X110.95Y-168.75
X110.95Y-169.65
X110.95Y-170.55
X110.95Y-171.45
X110.95Y-172.35
X110.95Y-173.25
X110.95Y-174.25
X110.95Y-175.15
X110.95Y-176.15
X110.95Y-177.15
X111.85Y-175.15
X111.85Y-176.15
X111.85Y-177.15
X111.95Y-168.75
X111.95Y-169.65
X111.95Y-170.55
X111.95Y-171.45
X111.95Y-172.35
X111.95Y-173.25
X111.95Y-174.25
X112.75Y-175.15
X112.75Y-176.15
X112.75Y-177.15
X113.65Y-175.15
X113.65Y-176.15
X113.65Y-177.15
X114.55Y-175.15
X114.55Y-176.15
X114.55Y-177.15
X116.5Y-154.6
X116.85Y-155.45
X117.95Y-155.65
X118.55Y-174.75
X118.55Y-175.75
X118.95Y-140.45
X118.95Y-141.25
X118.95Y-142.05
X118.95Y-142.85
X118.95Y-155.05
X119.15Y-151.25
X119.3Y-170.1
X119.65Y-174.75
X119.65Y-175.75
X119.85Y-140.45
X119.85Y-141.25
X119.85Y-142.05
X119.85Y-142.85
X120.05Y-157.35
X120.25Y-151.15
X120.436Y-148.362
X120.53Y-156.55
X120.675Y-203.375
X120.75Y-140.45
X120.75Y-141.25
X120.75Y-142.05
X120.75Y-142.85
X120.75Y-171.45
X120.75Y-172.55
X120.75Y-173.65
X120.75Y-174.75
X120.75Y-175.85
X121.07Y-148.94
X121.55Y-180.45
X121.55Y-181.55
X121.55Y-182.65
X121.55Y-183.75
X121.55Y-184.85
X121.55Y-185.95
X121.55Y-187.05
X121.55Y-188.15
X121.55Y-189.25
X121.55Y-190.35
X121.55Y-191.55
X121.55Y-192.65
X121.55Y-193.75
X121.55Y-194.85
X121.55Y-195.95
X121.55Y-197.05
X121.65Y-140.45
X121.65Y-141.25
X121.65Y-142.05
X121.65Y-142.85
X121.85Y-171.45
X121.85Y-172.65
X121.85Y-173.65
X121.85Y-174.75
X121.95Y-148.25
X122.23Y-149.05
X122.325Y-202.925
X122.55Y-140.45
X122.55Y-141.25
X122.55Y-142.05
X122.55Y-142.85
X122.65Y-180.45
X122.65Y-181.55
X122.65Y-182.65
X122.65Y-183.75
X122.65Y-184.85
X122.65Y-185.95
X122.65Y-187.05
X122.65Y-188.15
X122.65Y-189.25
X122.65Y-190.35
X122.65Y-191.55
X122.65Y-192.65
X122.65Y-193.75
X122.65Y-194.85
X122.65Y-195.95
X122.65Y-197.05
X122.95Y-171.45
X122.95Y-172.65
X122.95Y-173.65
X122.95Y-174.75
X123.05Y-156.55
X123.05Y-157.35
X123.75Y-180.45
X123.75Y-181.55
X123.75Y-182.65
X123.75Y-183.75
X123.75Y-184.85
X123.75Y-185.95
X123.75Y-187.05
X123.75Y-188.15
X123.75Y-189.25
X123.75Y-190.35
X123.75Y-191.55
X123.75Y-192.65
X123.75Y-193.75
X123.75Y-194.85
X123.75Y-195.95
X123.75Y-197.05
X123.95Y-150.35
X124.05Y-172.55
X124.05Y-173.65
X124.05Y-174.75
X124.53Y-148.95
X124.85Y-180.45
X124.85Y-181.55
X124.85Y-182.65
X124.85Y-183.75
X124.85Y-184.85
X124.85Y-185.95
X124.85Y-187.05
X124.85Y-188.15
X124.85Y-189.25
X124.85Y-190.35
X124.85Y-191.55
X124.85Y-192.75
X124.85Y-193.75
X124.85Y-194.85
X124.85Y-195.95
X124.85Y-197.05
X124.95Y-155.75
X124.95Y-156.85
X124.95Y-157.95
X124.95Y-158.95
X124.95Y-160.05
X124.95Y-161.15
X124.95Y-162.15
X124.95Y-163.15
X124.95Y-164.05
X124.95Y-164.95
X125.15Y-173.65
X125.15Y-174.75
X125.3Y-135.9
X125.35Y-136.75
X125.35Y-148.85
X125.4Y-137.65
X125.45Y-138.45
X125.492Y-140.942
X126.05Y-149.85
X126.115Y-139.615
X126.15Y-155.75
X126.15Y-156.85
X126.15Y-157.95
X126.15Y-158.95
X126.15Y-160.05
X126.15Y-161.15
X126.15Y-162.15
X126.15Y-163.15
X126.15Y-164.05
X126.15Y-164.95
X126.15Y-165.85
X126.25Y-174.75
X127.45Y-147.45
X127.45Y-148.35
X127.45Y-149.35
X127.45Y-150.35
X127.45Y-155.75
X127.45Y-156.85
X127.45Y-157.95
X127.45Y-158.95
X127.45Y-160.05
X127.95Y-176.65
X128.55Y-147.35
X128.55Y-148.35
X128.55Y-149.35
X128.55Y-150.35
X128.75Y-155.75
X128.85Y-156.85
X128.95Y-157.95
X128.95Y-158.95
X129.65Y-147.35
X129.65Y-148.35
X129.65Y-149.35
X129.65Y-150.35
X129.95Y-161.85
X130.05Y-155.75
X130.05Y-156.85
X130.05Y-157.95
X130.05Y-158.95
X130.85Y-147.35
X130.85Y-148.35
X130.85Y-149.25
X130.85Y-150.35
X130.85Y-160.95
X130.85Y-161.85
X131.75Y-161.85
X132.62Y-148.25
X133.2Y-149.65
X133.7Y-142.35
X134.118Y-165.982
X134.35Y-160.85
X134.387Y-158.448
X134.45Y-157.65
X134.7Y-142.0
X134.9Y-184.2
X135.15Y-165.3
X135.4Y-168.7
X135.5Y-181.3
X135.5Y-182.3
X135.5Y-183.3
X135.75Y-161.45
X136.3Y-168.7
X136.35Y-150.35
X136.4Y-181.6
X136.4Y-182.6
X136.45Y-154.85
X136.55Y-165.3
X136.95Y-149.55
X137.3Y-168.7
X137.35Y-156.55
X137.35Y-157.35
X137.45Y-154.75
X137.75Y-174.25
X137.75Y-177.05
X137.75Y-177.77
X138.0Y-149.9
X138.05Y-165.3
X138.133Y-171.84
X138.35Y-156.55
X138.35Y-157.35
X138.35Y-158.25
X138.75Y-172.35
X138.95Y-150.15
X138.95Y-154.75
X139.35Y-156.55
X139.35Y-157.35
X139.35Y-158.25
X139.35Y-169.65
X139.45Y-165.2
X140.05Y-181.65
X140.222Y-177.608
X140.25Y-147.65
X140.25Y-156.55
X140.25Y-157.35
X140.25Y-158.25
X140.45Y-154.85
X140.45Y-170.25
X140.55Y-165.95
X140.95Y-172.45
X141.21Y-147.79
X141.314Y-163.59
X141.4Y-182.75
X141.65Y-154.85
X141.85Y-172.45
X142.0Y-184.6
X142.15Y-161.45
X142.35Y-151.35
X142.75Y-160.87
X142.8Y-183.8
X142.95Y-155.25
X142.95Y-162.95
X143.2Y-150.4
X143.55Y-163.65
X143.6Y-183.1
X143.95Y-177.05
X144.05Y-139.75
X144.05Y-140.55
X144.05Y-141.35
X144.05Y-142.15
X144.05Y-142.95
X144.3Y-156.9
X144.62Y-147.095
X144.685Y-162.315
X144.95Y-139.75
X144.95Y-140.55
X144.95Y-141.35
X144.95Y-142.15
X144.95Y-142.95
X145.25Y-173.95
X145.45Y-147.55
X145.65Y-164.05
X145.85Y-174.65
X146.5Y-179.6
X146.5Y-180.5
X146.5Y-181.5
X148.45Y-177.03
X148.98Y-183.0
X149.0Y-183.9
X149.1Y-177.9
X149.5Y-151.1
X149.9Y-185.6
X150.35Y-168.65
X150.35Y-169.45
X150.35Y-170.25
X150.35Y-171.05
X150.35Y-171.85
X150.35Y-172.65
X150.35Y-173.45
X150.35Y-174.25
X150.35Y-175.05
X150.52Y-201.0
X151.126Y-201.58
X151.25Y-168.65
X151.25Y-169.45
X151.25Y-170.25
X151.25Y-171.05
X151.25Y-171.85
X151.25Y-172.65
X151.25Y-173.45
X151.25Y-174.25
X151.25Y-175.05
X151.3Y-185.6
X151.308Y-156.565
X151.334Y-155.766
X152.15Y-169.45
X152.15Y-170.25
X152.15Y-171.05
X152.15Y-171.85
X152.15Y-172.65
X152.15Y-173.45
X152.15Y-174.25
X152.15Y-175.05
X152.6Y-183.5
X152.6Y-185.3
X153.05Y-170.25
X153.05Y-171.05
X153.05Y-171.85
X153.05Y-172.65
X153.05Y-173.45
X153.05Y-174.25
X153.05Y-175.05
X153.3Y-155.3
X153.8Y-181.5
X153.95Y-171.05
X153.95Y-171.85
X153.95Y-172.65
X153.95Y-173.45
X153.95Y-174.25
X153.95Y-175.05
X154.05Y-150.05
X154.1Y-177.9
X154.5Y-156.3
X154.85Y-171.85
X154.85Y-172.65
X154.85Y-173.45
X154.85Y-174.25
X154.85Y-175.05
X155.35Y-142.85
X155.55Y-154.95
X155.55Y-155.95
X155.65Y-149.95
X155.75Y-172.65
X155.75Y-173.45
X155.75Y-174.25
X155.75Y-175.05
X156.25Y-141.95
X156.25Y-142.85
X156.55Y-174.25
X156.55Y-175.15
X156.95Y-149.95
X157.15Y-141.95
X157.15Y-142.85
X157.15Y-155.55
X157.15Y-156.75
X157.35Y-174.25
X157.35Y-175.15
X158.05Y-141.95
X158.05Y-142.85
X158.25Y-150.05
X158.3Y-186.9
X158.3Y-187.8
X158.3Y-188.6
X158.35Y-155.55
X158.35Y-156.65
X158.95Y-141.95
X158.95Y-142.85
X159.1Y-180.3
X159.65Y-149.95
X159.65Y-155.55
X159.65Y-156.65
X159.85Y-141.95
X159.85Y-142.85
X160.3Y-181.1
X160.75Y-141.95
X160.75Y-142.85
X160.8Y-180.1
X161.05Y-149.95
X161.15Y-156.05
X161.4Y-181.1
X161.65Y-141.95
X161.65Y-142.85
X162.05Y-154.8
X162.45Y-149.95
X162.55Y-141.95
X162.55Y-142.85
X162.8Y-184.6
X162.8Y-185.8
X162.8Y-187.0
X163.45Y-141.95
X163.45Y-142.85
X163.95Y-149.95
X164.35Y-141.95
X164.35Y-142.85
X164.85Y-180.7
X165.25Y-141.95
X165.25Y-142.85
X165.3Y-164.0
X165.65Y-149.95
X166.15Y-141.95
X166.15Y-142.85
X166.29Y-180.76
X166.3Y-167.3
X166.8Y-174.8
X167.05Y-141.95
X167.05Y-142.85
X167.05Y-186.85
X167.15Y-180.8
X167.35Y-149.95
X167.7Y-174.8
X167.95Y-141.95
X167.95Y-142.85
X168.6Y-174.8
X168.85Y-141.95
X168.85Y-142.85
X169.15Y-149.95
X169.6Y-174.8
X169.75Y-141.95
X169.75Y-142.85
X170.65Y-141.95
X170.65Y-142.85
X170.85Y-149.95
X171.55Y-141.95
X171.55Y-142.85
X172.45Y-141.95
X172.45Y-142.85
X172.55Y-149.95
X173.35Y-141.95
X173.35Y-142.85
X174.25Y-141.95
X174.25Y-142.85
X174.25Y-149.95
X175.15Y-141.95
X175.15Y-142.85
X175.85Y-187.35
X175.95Y-149.95
X176.05Y-141.95
X176.05Y-142.85
X176.436Y-187.914
X176.95Y-141.95
X176.95Y-141.95
X176.95Y-142.85
X177.05Y-188.529
X177.75Y-149.95
X177.85Y-141.95
X177.85Y-142.85
X178.75Y-141.95
X178.75Y-142.85
X179.55Y-149.95
X179.65Y-141.95
X179.65Y-142.85
X180.2Y-188.95
X180.55Y-141.95
X180.55Y-142.85
X180.9Y-202.7
X181.05Y-198.0
X181.35Y-190.35
X181.45Y-141.95
X181.45Y-142.85
X182.05Y-175.75
X182.05Y-176.65
X182.05Y-177.65
X182.05Y-178.65
X182.05Y-179.65
X182.05Y-180.55
X182.05Y-181.35
X182.1Y-164.9
X182.1Y-198.0
X182.1Y-202.9
X182.25Y-183.35
X182.35Y-141.95
X182.35Y-142.85
X182.85Y-182.75
X182.9Y-165.1
X183.25Y-141.95
X183.25Y-142.85
X183.715Y-176.95
X183.715Y-177.65
X183.8Y-110.3
X184.15Y-141.95
X184.15Y-142.85
X184.2Y-182.65
X184.275Y-185.875
X184.35Y-144.85
X185.15Y-144.85
X186.05Y-144.85
X186.65Y-172.95
X186.95Y-144.85
X186.95Y-148.85
X186.95Y-149.75
X186.95Y-150.55
X186.95Y-151.45
X187.3Y-184.0
X188.05Y-182.85
X188.125Y-176.075
X188.95Y-194.83
X189.3Y-182.9
X190.055Y-203.615
X190.65Y-204.15
X190.8Y-183.4
X191.0Y-184.85
X191.15Y-172.95
X191.45Y-191.15
X191.6Y-107.6
X191.8Y-122.4
X192.75Y-192.4
X192.9Y-193.2
X192.95Y-176.05
X193.45Y-184.85
X195.2Y-101.2
X196.25Y-101.2
X196.75Y-184.85
X197.0Y-193.15
X197.1Y-199.95
X197.1Y-200.75
X197.1Y-201.55
X197.4Y-105.3
X197.5Y-101.25
X198.0Y-199.95
X198.0Y-200.75
X198.0Y-201.55
X198.1Y-192.95
X198.8Y-147.3
X198.9Y-199.95
X198.9Y-200.75
X198.9Y-201.55
X199.8Y-199.95
X199.8Y-200.75
X199.8Y-201.55
X200.25Y-190.85
X200.55Y-184.85
X200.7Y-199.95
X200.7Y-200.75
X200.7Y-201.55
X200.9Y-97.9
X201.6Y-199.95
X201.6Y-200.75
X201.6Y-201.55
X202.5Y-199.95
X202.5Y-200.75
X202.5Y-201.55
X202.9Y-97.8
X203.4Y-199.95
X203.4Y-200.75
X203.4Y-201.55
X203.85Y-190.35
X204.1Y-97.8
X204.3Y-199.95
X204.3Y-200.75
X204.3Y-201.55
X204.35Y-185.15
X205.2Y-199.95
X205.2Y-200.75
X205.2Y-201.55
X205.5Y-97.9
X205.5Y-105.2
X205.75Y-101.95
X207.4Y-162.5
X207.4Y-185.5
X207.6Y-142.3
X207.7Y-144.9
X207.9Y-140.7
X208.6Y-143.0
X208.9Y-144.9
X209.9Y-143.0
X210.2Y-108.8
X210.2Y-144.9
X211.3Y-143.0
X211.4Y-109.4
X211.6Y-144.9
X212.65Y-185.25
X216.6Y-101.8
X218.5Y-134.8
X220.7Y-174.35
X220.7Y-175.45
X222.0Y-174.4
X222.0Y-175.45
X223.15Y-174.4
X223.2Y-175.45
X224.4Y-114.0
X224.4Y-115.0
X224.4Y-115.9
X224.9Y-101.0
X224.962Y-124.45
X225.4Y-114.0
X225.4Y-115.0
X225.4Y-115.9
X226.4Y-101.4
X226.4Y-114.0
X226.4Y-115.0
X226.4Y-115.9
X226.6Y-104.9
X226.6Y-105.9
X226.6Y-107.0
X227.2Y-144.8
X227.3Y-101.4
X227.4Y-114.0
X227.4Y-115.0
X227.4Y-115.9
X227.8Y-104.9
X227.8Y-105.9
X227.8Y-107.0
X228.2Y-101.4
X228.4Y-114.0
X228.4Y-115.0
X228.4Y-115.9
X229.1Y-101.4
X229.1Y-104.9
X229.1Y-106.0
X229.1Y-107.0
X229.4Y-114.0
X229.4Y-115.0
X229.4Y-115.9
X230.0Y-101.4
X230.6Y-195.2
X231.0Y-196.0
X231.0Y-196.9
X231.0Y-197.9
X231.0Y-199.0
X232.6Y-202.9
X232.85Y-199.4
X233.1Y-196.15
X234.8Y-203.0
X235.8Y-199.6
X235.85Y-198.55
X236.2Y-194.0
X236.2Y-194.9
X236.2Y-195.8
X236.2Y-196.7
X236.2Y-197.7
X239.2Y-136.6
X239.4Y-118.4
X240.4Y-138.2
X240.4Y-139.2
X240.85Y-190.0
X241.25Y-188.6
X241.5Y-138.3
X241.5Y-139.2
X241.6Y-130.1
X242.3Y-130.8
X243.05Y-131.55
X243.7Y-132.2
X244.4Y-187.8
X244.8Y-148.4
X244.8Y-195.201
X247.4Y-186.95
X249.35Y-187.637
X254.625Y-179.875
X256.4Y-142.7
X256.7Y-190.8
X256.8Y-193.752
X257.3Y-142.7
X258.5Y-142.7
X259.7Y-142.7
X260.4Y-179.3
X260.4Y-180.3
X260.4Y-181.3
X260.4Y-182.3
X260.4Y-183.4
X260.4Y-184.5
X260.4Y-185.6
X261.0Y-142.7
X262.4Y-142.7
X266.825Y-203.025
X275.3Y-198.2
X275.4Y-201.7
X275.7Y-189.8
X276.4Y-199.2
X278.35Y-194.25
X278.65Y-188.05
X279.8Y-143.52
X279.9Y-200.7
X280.25Y-194.4
X280.8Y-144.0
X280.975Y-196.07
X281.8Y-196.009
X282.1Y-200.05
X282.65Y-191.55
X283.4Y-201.5
X286.1Y-191.25
X287.9Y-154.8
X288.35Y-180.55
X289.1Y-197.15
X289.3Y-189.5
X289.5Y-176.1
X289.5Y-180.5
X289.95Y-196.25
X290.6Y-189.0
X291.0Y-155.4
X291.4Y-201.45
X293.0Y-162.9
X293.4Y-170.4
X293.8Y-166.3
X294.0Y-162.3
X294.8Y-165.8
X299.5Y-161.9
X299.8Y-156.5
X300.2Y-168.4
X302.7Y-174.7
T2
X110.375Y-85.6
X110.375Y-204.6
X110.968Y-84.168
X110.968Y-87.032
X110.968Y-203.168
X110.968Y-206.032
X112.4Y-83.575
X112.4Y-87.625
X112.4Y-202.575
X112.4Y-206.625
X113.832Y-84.168
X113.832Y-87.032
X113.832Y-203.168
X113.832Y-206.032
X114.425Y-85.6
X114.425Y-204.6
X170.175Y-204.6
X170.768Y-203.168
X170.768Y-206.032
X172.2Y-202.575
X172.2Y-206.625
X173.632Y-203.168
X173.632Y-206.032
X174.225Y-204.6
X223.75Y-88.75
X224.343Y-87.318
X224.343Y-90.182
X225.775Y-86.725
X225.775Y-90.775
X227.207Y-87.318
X227.207Y-90.182
X227.8Y-88.75
X230.443Y-158.518
X231.036Y-157.086
X231.036Y-159.95
X232.468Y-156.493
X232.468Y-160.543
X233.9Y-157.086
X233.9Y-159.95
X234.493Y-158.518
X298.575Y-85.6
X298.575Y-204.6
X299.168Y-84.168
X299.168Y-87.032
X299.168Y-203.168
X299.168Y-206.032
X300.6Y-83.575
X300.6Y-87.625
X300.6Y-202.575
X300.6Y-206.625
X302.032Y-84.168
X302.032Y-87.032
X302.032Y-203.168
X302.032Y-206.032
X302.625Y-85.6
X302.625Y-204.6
T4
X156.6Y-191.39
X156.6Y-194.59
X157.1Y-192.89
X157.1Y-196.09
X158.6Y-191.39
X158.6Y-194.59
X159.6Y-192.89
X159.6Y-196.09
X160.6Y-191.39
X160.6Y-194.59
X161.6Y-192.89
X161.6Y-196.09
X162.6Y-191.39
X162.6Y-194.59
X164.1Y-192.89
X164.1Y-196.09
X164.6Y-191.39
X164.6Y-194.59
X191.6Y-91.35
X191.6Y-93.35
X193.6Y-91.35
X193.6Y-93.35
X195.6Y-91.35
X195.6Y-93.35
X197.6Y-91.35
X197.6Y-93.35
X199.6Y-91.35
X199.6Y-93.35
X201.6Y-91.35
X201.6Y-93.35
T6
X131.78Y-189.24
X133.06Y-191.78
X134.32Y-189.24
X135.6Y-191.78
X136.86Y-189.24
X138.14Y-191.78
X139.4Y-189.24
X140.68Y-191.78
X141.94Y-189.24
X143.22Y-191.78
T8
X113.75Y-165.7
X113.75Y-168.2
X113.75Y-170.7
X113.75Y-173.2
T9
X246.55Y-200.623
X251.05Y-200.623
X258.85Y-202.1
X263.35Y-202.1
T10
X112.55Y-158.15
X115.09Y-158.15
X117.63Y-158.15
X279.1Y-180.36
X279.1Y-182.9
X279.1Y-185.44
X282.81Y-180.36
X282.81Y-182.9
X282.81Y-185.44
X292.9Y-182.68
X292.9Y-185.22
X292.9Y-187.76
X292.9Y-190.3
T11
X130.875Y-203.03
X133.415Y-203.03
X141.585Y-203.03
X144.125Y-203.03
T12
X207.117Y-91.425
X209.617Y-91.425
X216.15Y-91.425
X218.65Y-91.425
T13
X245.295Y-198.132
X252.305Y-198.132
X257.595Y-199.61
X264.605Y-199.61
T14
X129.755Y-195.08
X145.245Y-195.08
T15
X154.03Y-192.41
X154.03Y-198.09
X167.17Y-192.41
X167.17Y-198.09
T16
X118.6Y-92.8
X182.2Y-92.8
X202.1Y-131.3
X213.8Y-162.4
X275.7Y-95.5
T17
X112.4Y-85.6
X112.4Y-204.6
X172.2Y-204.6
X225.775Y-88.75
X232.468Y-158.518
X300.6Y-85.6
X300.6Y-204.6
T3
G00X177.18Y-200.37
M15
G01X177.18Y-201.37
M16
G05
G00X177.18Y-205.48
M15
G01X177.18Y-206.98
M16
G05
G00X185.82Y-200.37
M15
G01X185.82Y-201.37
M16
G05
G00X185.82Y-205.48
M15
G01X185.82Y-206.98
M16
G05
G00X229.075Y-201.68
M15
G01X229.075Y-202.78
M16
G05
G00X229.075Y-206.0
M15
G01X229.075Y-206.8
M16
G05
G00X237.725Y-201.68
M15
G01X237.725Y-202.78
M16
G05
G00X237.725Y-206.0
M15
G01X237.725Y-206.8
M16
G05
T5
G00X217.21Y-195.55
M15
G01X219.41Y-195.55
M16
G05
G00X217.21Y-201.55
M15
G01X219.41Y-201.55
M16
G05
G00X223.11Y-199.4
M15
G01X223.11Y-196.7
M16
G05
T7
G00X193.35Y-197.14
M15
G01X193.35Y-198.94
M16
G05
G00X193.35Y-203.6
M15
G01X193.35Y-204.4
M16
G05
G00X207.85Y-197.14
M15
G01X207.85Y-198.94
M16
G05
G00X207.85Y-203.6
M15
G01X207.85Y-204.4
M16
G05
M30
