%TF.GenerationSoftware,KiCad,Pcbnew,9.0.2-9.0.2-0~ubuntu22.04.1*%
%TF.CreationDate,2025-07-08T19:29:46+05:30*%
%TF.ProjectId,RFID,52464944-2e6b-4696-9361-645f70636258,rev?*%
%TF.SameCoordinates,Original*%
%TF.FileFunction,Copper,L2,Inr*%
%TF.FilePolarity,Positive*%
%FSLAX46Y46*%
G04 Gerber Fmt 4.6, Leading zero omitted, Abs format (unit mm)*
G04 Created by KiCad (PCBNEW 9.0.2-9.0.2-0~ubuntu22.04.1) date 2025-07-08 19:29:46*
%MOMM*%
%LPD*%
G01*
G04 APERTURE LIST*
G04 Aperture macros list*
%AMRoundRect*
0 Rectangle with rounded corners*
0 $1 Rounding radius*
0 $2 $3 $4 $5 $6 $7 $8 $9 X,Y pos of 4 corners*
0 Add a 4 corners polygon primitive as box body*
4,1,4,$2,$3,$4,$5,$6,$7,$8,$9,$2,$3,0*
0 Add four circle primitives for the rounded corners*
1,1,$1+$1,$2,$3*
1,1,$1+$1,$4,$5*
1,1,$1+$1,$6,$7*
1,1,$1+$1,$8,$9*
0 Add four rect primitives between the rounded corners*
20,1,$1+$1,$2,$3,$4,$5,0*
20,1,$1+$1,$4,$5,$6,$7,0*
20,1,$1+$1,$6,$7,$8,$9,0*
20,1,$1+$1,$8,$9,$2,$3,0*%
G04 Aperture macros list end*
%TA.AperFunction,ComponentPad*%
%ADD10C,0.800000*%
%TD*%
%TA.AperFunction,ComponentPad*%
%ADD11C,5.400000*%
%TD*%
%TA.AperFunction,ComponentPad*%
%ADD12R,1.398000X1.398000*%
%TD*%
%TA.AperFunction,ComponentPad*%
%ADD13C,1.398000*%
%TD*%
%TA.AperFunction,ComponentPad*%
%ADD14C,1.530000*%
%TD*%
%TA.AperFunction,ComponentPad*%
%ADD15C,2.445000*%
%TD*%
%TA.AperFunction,ComponentPad*%
%ADD16C,1.498000*%
%TD*%
%TA.AperFunction,ComponentPad*%
%ADD17C,1.950000*%
%TD*%
%TA.AperFunction,ComponentPad*%
%ADD18O,0.900000X2.000000*%
%TD*%
%TA.AperFunction,ComponentPad*%
%ADD19O,0.900000X1.700000*%
%TD*%
%TA.AperFunction,ComponentPad*%
%ADD20R,1.575000X1.575000*%
%TD*%
%TA.AperFunction,ComponentPad*%
%ADD21C,1.575000*%
%TD*%
%TA.AperFunction,ComponentPad*%
%ADD22C,5.000000*%
%TD*%
%TA.AperFunction,ComponentPad*%
%ADD23RoundRect,0.250000X0.725000X-0.600000X0.725000X0.600000X-0.725000X0.600000X-0.725000X-0.600000X0*%
%TD*%
%TA.AperFunction,ComponentPad*%
%ADD24O,1.950000X1.700000*%
%TD*%
%TA.AperFunction,ComponentPad*%
%ADD25R,1.200000X1.200000*%
%TD*%
%TA.AperFunction,ComponentPad*%
%ADD26C,1.200000*%
%TD*%
%TA.AperFunction,ComponentPad*%
%ADD27C,3.500000*%
%TD*%
%TA.AperFunction,ComponentPad*%
%ADD28R,1.700000X1.700000*%
%TD*%
%TA.AperFunction,ComponentPad*%
%ADD29C,1.700000*%
%TD*%
%TA.AperFunction,ComponentPad*%
%ADD30O,1.700000X1.700000*%
%TD*%
%TA.AperFunction,ComponentPad*%
%ADD31O,2.350000X4.700000*%
%TD*%
%TA.AperFunction,ComponentPad*%
%ADD32O,4.000000X2.000000*%
%TD*%
%TA.AperFunction,ComponentPad*%
%ADD33O,1.500000X3.300000*%
%TD*%
%TA.AperFunction,ComponentPad*%
%ADD34O,1.500000X2.300000*%
%TD*%
%TA.AperFunction,ComponentPad*%
%ADD35O,1.036000X2.100000*%
%TD*%
%TA.AperFunction,ComponentPad*%
%ADD36O,1.100000X2.600000*%
%TD*%
%TA.AperFunction,ViaPad*%
%ADD37C,0.600000*%
%TD*%
%TA.AperFunction,Conductor*%
%ADD38C,0.160000*%
%TD*%
%TA.AperFunction,Conductor*%
%ADD39C,2.000000*%
%TD*%
%TA.AperFunction,Conductor*%
%ADD40C,0.400000*%
%TD*%
%TA.AperFunction,Conductor*%
%ADD41C,0.300000*%
%TD*%
%TA.AperFunction,Conductor*%
%ADD42C,0.500000*%
%TD*%
G04 APERTURE END LIST*
D10*
%TO.N,GND*%
%TO.C,H6*%
X298575000Y-204600000D03*
X299168109Y-203168109D03*
X299168109Y-206031891D03*
X300600000Y-202575000D03*
D11*
X300600000Y-204600000D03*
D10*
X300600000Y-206625000D03*
X302031891Y-203168109D03*
X302031891Y-206031891D03*
X302625000Y-204600000D03*
%TD*%
%TO.N,GND*%
%TO.C,H10*%
X170175000Y-204600000D03*
X170768109Y-203168109D03*
X170768109Y-206031891D03*
X172200000Y-202575000D03*
D11*
X172200000Y-204600000D03*
D10*
X172200000Y-206625000D03*
X173631891Y-203168109D03*
X173631891Y-206031891D03*
X174225000Y-204600000D03*
%TD*%
D12*
%TO.N,Net-(J7-P1)*%
%TO.C,J7*%
X131780000Y-189240000D03*
D13*
%TO.N,/Gigabit Ethernet/MDIPO+*%
X133060000Y-191780000D03*
%TO.N,/Gigabit Ethernet/MDIPO-*%
X134320000Y-189240000D03*
%TO.N,Net-(J7-P4)*%
X135600000Y-191780000D03*
%TO.N,Net-(J7-P5)*%
X136860000Y-189240000D03*
%TO.N,Net-(J7-P6)*%
X138140000Y-191780000D03*
%TO.N,Net-(J7-P7)*%
X139400000Y-189240000D03*
%TO.N,Net-(J7-P8)*%
X140680000Y-191780000D03*
%TO.N,Net-(J7-P9)*%
X141940000Y-189240000D03*
%TO.N,GND*%
X143220000Y-191780000D03*
D14*
%TO.N,Net-(J7-Pad11)*%
X130875000Y-203030000D03*
%TO.N,LED1*%
X133415000Y-203030000D03*
%TO.N,LED2*%
X141585000Y-203030000D03*
%TO.N,Net-(J7-Pad14)*%
X144125000Y-203030000D03*
D15*
%TO.N,GND*%
X129755000Y-195080000D03*
X145245000Y-195080000D03*
%TD*%
D16*
%TO.N,Net-(D14-A2)*%
%TO.C,SW1*%
X258850000Y-202100000D03*
%TO.N,GND*%
X263350000Y-202100000D03*
D17*
%TO.N,N/C*%
X257595000Y-199610000D03*
X264605000Y-199610000D03*
%TD*%
D10*
%TO.N,GND*%
%TO.C,H3*%
X112400000Y-206625000D03*
X110968109Y-206031891D03*
X113831891Y-206031891D03*
X110375000Y-204600000D03*
D11*
X112400000Y-204600000D03*
D10*
X114425000Y-204600000D03*
X110968109Y-203168109D03*
X113831891Y-203168109D03*
X112400000Y-202575000D03*
%TD*%
%TO.N,GND*%
%TO.C,H5*%
X298575000Y-85600000D03*
X299168109Y-84168109D03*
X299168109Y-87031891D03*
X300600000Y-83575000D03*
D11*
X300600000Y-85600000D03*
D10*
X300600000Y-87625000D03*
X302031891Y-84168109D03*
X302031891Y-87031891D03*
X302625000Y-85600000D03*
%TD*%
D18*
%TO.N,GND*%
%TO.C,J2*%
X229075000Y-202230000D03*
X237725000Y-202230000D03*
D19*
X229075000Y-206400000D03*
X237725000Y-206400000D03*
%TD*%
D20*
%TO.N,+5V_FAN*%
%TO.C,J10*%
X218650000Y-91425000D03*
D21*
%TO.N,GND*%
X216150000Y-91425000D03*
%TD*%
D22*
%TO.N,GND*%
%TO.C,H9*%
X182200000Y-92800000D03*
%TD*%
D20*
%TO.N,+5V_FAN*%
%TO.C,J6*%
X209617500Y-91425000D03*
D21*
%TO.N,GND*%
X207117500Y-91425000D03*
%TD*%
D23*
%TO.N,GND*%
%TO.C,M1*%
X113750000Y-173200000D03*
D24*
%TO.N,+5V_FAN*%
X113750000Y-170700000D03*
%TO.N,Net-(D16-A)*%
X113750000Y-168200000D03*
%TO.N,Net-(M1-PWM)*%
X113750000Y-165700000D03*
%TD*%
D22*
%TO.N,GND*%
%TO.C,H1*%
X275700000Y-95500000D03*
%TD*%
D25*
%TO.N,Net-(J9A-VBUS1)*%
%TO.C,J9*%
X157099999Y-196090000D03*
D26*
%TO.N,USB_2_P2-*%
X159599999Y-196090000D03*
%TO.N,USB_2_P2+*%
X161599999Y-196090000D03*
%TO.N,GND*%
X164099999Y-196090000D03*
%TO.N,USB3_SSRX_N*%
X164599999Y-194590000D03*
%TO.N,USB3_SSRX_P*%
X162599999Y-194590000D03*
%TO.N,GND*%
X160599999Y-194590000D03*
%TO.N,Net-(J9A-SSTX1-)*%
X158599999Y-194590000D03*
%TO.N,Net-(J9A-SSTX1+)*%
X156599999Y-194590000D03*
%TO.N,Net-(J9B-VBUS2)*%
X157099999Y-192890000D03*
%TO.N,USB_2_P1-*%
X159599999Y-192890000D03*
%TO.N,USB_2_P1+*%
X161599999Y-192890000D03*
%TO.N,GND*%
X164099999Y-192890000D03*
%TO.N,USB4_SSRX_N*%
X164599999Y-191390000D03*
%TO.N,USB4_SSRX_P*%
X162599999Y-191390000D03*
%TO.N,GND*%
X160599999Y-191390000D03*
%TO.N,Net-(J9B-SSTX2-)*%
X158599999Y-191390000D03*
%TO.N,Net-(J9B-SSTX2+)*%
X156599999Y-191390000D03*
D27*
%TO.N,GND*%
X154029999Y-192410000D03*
X154029999Y-198090000D03*
X167169999Y-192410000D03*
X167169999Y-198090000D03*
%TD*%
D22*
%TO.N,GND*%
%TO.C,H8*%
X213800000Y-162400000D03*
%TD*%
D28*
%TO.N,POWER_STATUS*%
%TO.C,J13*%
X279100000Y-185440000D03*
D29*
%TO.N,BOOT1*%
X279100000Y-182900000D03*
%TO.N,GND*%
X279100000Y-180360000D03*
%TD*%
D10*
%TO.N,GND*%
%TO.C,H11*%
X230443109Y-158518109D03*
X231036218Y-157086218D03*
X231036218Y-159950000D03*
X232468109Y-156493109D03*
D11*
X232468109Y-158518109D03*
D10*
X232468109Y-160543109D03*
X233900000Y-157086218D03*
X233900000Y-159950000D03*
X234493109Y-158518109D03*
%TD*%
D28*
%TO.N,Net-(A1-SIO_UART_TX)*%
%TO.C,J4*%
X112550000Y-158150000D03*
D30*
%TO.N,Net-(A1-SIO_UART_RX)*%
X115090000Y-158150000D03*
%TO.N,GND*%
X117630000Y-158150000D03*
%TD*%
D10*
%TO.N,GND*%
%TO.C,H4*%
X110375000Y-85600000D03*
X110968109Y-84168109D03*
X110968109Y-87031891D03*
X112400000Y-83575000D03*
D11*
X112400000Y-85600000D03*
D10*
X112400000Y-87625000D03*
X113831891Y-84168109D03*
X113831891Y-87031891D03*
X114425000Y-85600000D03*
%TD*%
D28*
%TO.N,POWER_STATUS*%
%TO.C,J11*%
X292900000Y-182680000D03*
D29*
%TO.N,SWDIO*%
X292900000Y-185220000D03*
%TO.N,SWDCLK*%
X292900000Y-187760000D03*
%TO.N,GND*%
X292900000Y-190300000D03*
%TD*%
D31*
%TO.N,Net-(Q1-C)*%
%TO.C,J1*%
X223110000Y-198050000D03*
D32*
X218310000Y-201550000D03*
%TO.N,Net-(JP3-B)*%
X218310000Y-195550000D03*
%TD*%
D33*
%TO.N,GND*%
%TO.C,J8*%
X207850000Y-198040000D03*
X193350000Y-198040000D03*
D34*
X207850000Y-204000000D03*
X193350000Y-204000000D03*
%TD*%
D35*
%TO.N,unconnected-(J3-SHIELD3-PadSH1)*%
%TO.C,J3*%
X177180000Y-200870000D03*
%TO.N,unconnected-(J3-SHIELD4-PadSH2)*%
X185820000Y-200870000D03*
D36*
%TO.N,unconnected-(J3-SHIELD1-PadSH3)*%
X177180000Y-206230000D03*
%TO.N,unconnected-(J3-SHIELD2-PadSH4)*%
X185820000Y-206230000D03*
%TD*%
D22*
%TO.N,GND*%
%TO.C,H7*%
X202100000Y-131300000D03*
%TD*%
D10*
%TO.N,GND*%
%TO.C,H12*%
X223750000Y-88750000D03*
X224343109Y-87318109D03*
X224343109Y-90181891D03*
X225775000Y-86725000D03*
D11*
X225775000Y-88750000D03*
D10*
X225775000Y-90775000D03*
X227206891Y-87318109D03*
X227206891Y-90181891D03*
X227800000Y-88750000D03*
%TD*%
D28*
%TO.N,POWER_STATUS*%
%TO.C,J12*%
X282810000Y-185440000D03*
D29*
%TO.N,BOOT0*%
X282810000Y-182900000D03*
%TO.N,GND*%
X282810000Y-180360000D03*
%TD*%
D22*
%TO.N,GND*%
%TO.C,H2*%
X118600000Y-92800000D03*
%TD*%
D25*
%TO.N,PWR_SW*%
%TO.C,J5*%
X201600000Y-93350000D03*
D26*
%TO.N,Tx_LED_STATUS*%
X201600000Y-91350000D03*
%TO.N,RST_SW*%
X199600000Y-93350000D03*
%TO.N,Rx_LED_STATUS*%
X199600000Y-91350000D03*
%TO.N,CPU_STATUS*%
X197600000Y-93350000D03*
%TO.N,POWER_STATUS*%
X197600000Y-91350000D03*
%TO.N,RFID_STATUS*%
X195600000Y-93350000D03*
%TO.N,unconnected-(J5-Pad8)*%
X195600000Y-91350000D03*
%TO.N,NETWORK_STATUS*%
X193600000Y-93350000D03*
%TO.N,unconnected-(J5-Pad10)*%
X193600000Y-91350000D03*
%TO.N,POWER_STATUS*%
X191600000Y-93350000D03*
%TO.N,GND*%
X191600000Y-91350000D03*
%TD*%
D16*
%TO.N,Net-(D15-A2)*%
%TO.C,SW2*%
X246550000Y-200622500D03*
%TO.N,GND*%
X251050000Y-200622500D03*
D17*
%TO.N,N/C*%
X245295000Y-198132500D03*
X252305000Y-198132500D03*
%TD*%
D37*
%TO.N,GND*%
X197500000Y-101250000D03*
X196250000Y-101200000D03*
X164850000Y-180700000D03*
X220700000Y-175450000D03*
X220700000Y-174350000D03*
X222000000Y-174400000D03*
X222000000Y-175450000D03*
X223200000Y-175450000D03*
X223150000Y-174400000D03*
X260400000Y-179300000D03*
X119650000Y-175750000D03*
X226600000Y-105900000D03*
X199800000Y-200750000D03*
X154050000Y-150050000D03*
X121850000Y-173650000D03*
X128550000Y-150350000D03*
X198900000Y-199950000D03*
X110950000Y-171450000D03*
X160750000Y-142850000D03*
X114550000Y-177150000D03*
X260400000Y-182300000D03*
X120750000Y-142050000D03*
X139350000Y-158250000D03*
X111950000Y-170550000D03*
X126150000Y-156850000D03*
X121650000Y-142050000D03*
X176950000Y-141950000D03*
X208600000Y-143000000D03*
X121550000Y-193750000D03*
X126250000Y-174750000D03*
X174250000Y-141950000D03*
X166800000Y-174800000D03*
X191450000Y-191150000D03*
X137350000Y-157350000D03*
X179550000Y-149950000D03*
X161400000Y-181100000D03*
X160800000Y-180100000D03*
X204300000Y-200750000D03*
X140250000Y-157350000D03*
X205200000Y-201550000D03*
X128550000Y-149350000D03*
X144050000Y-142950000D03*
X127450000Y-157950000D03*
X126150000Y-163150000D03*
X200700000Y-201550000D03*
X123750000Y-187050000D03*
X182350000Y-142850000D03*
X124950000Y-161150000D03*
X119850000Y-142850000D03*
X120750000Y-175850000D03*
X179650000Y-141950000D03*
X121550000Y-194850000D03*
X137300000Y-168700000D03*
X176050000Y-142850000D03*
X130050000Y-155750000D03*
X124850000Y-194850000D03*
X226600000Y-107000000D03*
X113650000Y-175150000D03*
X204300000Y-199950000D03*
X128950000Y-158950000D03*
X171550000Y-142850000D03*
X158950000Y-142850000D03*
X112750000Y-177150000D03*
X122650000Y-183750000D03*
X178750000Y-142850000D03*
X229400000Y-115900000D03*
X122550000Y-142050000D03*
X167700000Y-174800000D03*
X123750000Y-183750000D03*
X226400000Y-101400000D03*
X227800000Y-107000000D03*
X228400000Y-114000000D03*
X110950000Y-170550000D03*
X126150000Y-160050000D03*
X126150000Y-161150000D03*
X111850000Y-176150000D03*
X227800000Y-105900000D03*
X205200000Y-199950000D03*
X130850000Y-147350000D03*
X136300000Y-168700000D03*
X124950000Y-162150000D03*
X146500000Y-181500000D03*
X159850000Y-142850000D03*
X179650000Y-142850000D03*
X169750000Y-142850000D03*
X123750000Y-181550000D03*
X197400000Y-105300000D03*
X118950000Y-140450000D03*
X123750000Y-197050000D03*
X129650000Y-147350000D03*
X124050000Y-172550000D03*
X167950000Y-142850000D03*
X121550000Y-181550000D03*
X171550000Y-141950000D03*
X140250000Y-156550000D03*
X200700000Y-199950000D03*
X120750000Y-171450000D03*
X199800000Y-199950000D03*
X124050000Y-173650000D03*
X118950000Y-142850000D03*
X170650000Y-142850000D03*
X124850000Y-190350000D03*
X113650000Y-176150000D03*
X157350000Y-175150000D03*
X158050000Y-141950000D03*
X182350000Y-141950000D03*
X120750000Y-141250000D03*
X197100000Y-200750000D03*
X111950000Y-174250000D03*
X159650000Y-156650000D03*
X110950000Y-174250000D03*
X144950000Y-141350000D03*
X118550000Y-174750000D03*
X224400000Y-114000000D03*
X129650000Y-150350000D03*
X158250000Y-150050000D03*
X160300000Y-181100000D03*
X142000000Y-184600000D03*
X124950000Y-164950000D03*
X124850000Y-181550000D03*
X125150000Y-173650000D03*
X156550000Y-175150000D03*
X152150000Y-174250000D03*
X150350000Y-168650000D03*
X153950000Y-175050000D03*
X226400000Y-115000000D03*
X126150000Y-157950000D03*
X157150000Y-141950000D03*
X129950000Y-161850000D03*
X197100000Y-199950000D03*
X144050000Y-139750000D03*
X152600000Y-185300000D03*
X182050000Y-180550000D03*
X275700000Y-189800000D03*
X172450000Y-141950000D03*
X128950000Y-157950000D03*
X154850000Y-174250000D03*
X130850000Y-150350000D03*
X128550000Y-148350000D03*
X111950000Y-169650000D03*
X260400000Y-185600000D03*
X165650000Y-149950000D03*
X124850000Y-195950000D03*
X170650000Y-141950000D03*
X227400000Y-115900000D03*
X122650000Y-191550000D03*
X111850000Y-177150000D03*
X153950000Y-171050000D03*
X143600000Y-183100000D03*
X227800000Y-104900000D03*
X183715000Y-177650000D03*
X229400000Y-114000000D03*
X127450000Y-150350000D03*
X176950000Y-141950000D03*
X119850000Y-140450000D03*
X120750000Y-174750000D03*
X122950000Y-171450000D03*
X122550000Y-142850000D03*
X122950000Y-174750000D03*
X114550000Y-175150000D03*
X159850000Y-141950000D03*
X126150000Y-158950000D03*
X124850000Y-185950000D03*
X197100000Y-201550000D03*
X162800000Y-185800000D03*
X207700000Y-144900000D03*
X201600000Y-201550000D03*
X177850000Y-142850000D03*
X156950000Y-149950000D03*
X122650000Y-192650000D03*
X226400000Y-115900000D03*
X124950000Y-155750000D03*
X130850000Y-149250000D03*
X177850000Y-141950000D03*
X110950000Y-175150000D03*
X111950000Y-172350000D03*
X122650000Y-188150000D03*
X155550000Y-155950000D03*
X199800000Y-201550000D03*
X118950000Y-142050000D03*
X139350000Y-157350000D03*
X138950000Y-154750000D03*
X144950000Y-142950000D03*
X141850000Y-172450000D03*
X151250000Y-175050000D03*
X151250000Y-169450000D03*
X124050000Y-174750000D03*
X204100000Y-97800000D03*
X158300000Y-186900000D03*
X178750000Y-141950000D03*
X136400000Y-181600000D03*
X260400000Y-181300000D03*
X170850000Y-149950000D03*
X122650000Y-197050000D03*
X278650000Y-188050000D03*
X169600000Y-174800000D03*
X121850000Y-172650000D03*
X121650000Y-141250000D03*
X204300000Y-201550000D03*
X151250000Y-174250000D03*
X168850000Y-141950000D03*
X159650000Y-149950000D03*
X225400000Y-114000000D03*
X224400000Y-115900000D03*
X124850000Y-197050000D03*
X123750000Y-194850000D03*
X110950000Y-169650000D03*
X203400000Y-199950000D03*
X152150000Y-175050000D03*
X173350000Y-141950000D03*
X183250000Y-142850000D03*
X260400000Y-180300000D03*
X124850000Y-187050000D03*
X181450000Y-142850000D03*
X121550000Y-184850000D03*
X158300000Y-188600000D03*
X168600000Y-174800000D03*
X175150000Y-141950000D03*
X121550000Y-197050000D03*
X136450000Y-154850000D03*
X123750000Y-195950000D03*
X154850000Y-175050000D03*
X183250000Y-141950000D03*
X183715000Y-176950000D03*
X124950000Y-157950000D03*
X126150000Y-164050000D03*
X119150000Y-151250000D03*
X198900000Y-200750000D03*
X167050000Y-142850000D03*
X173350000Y-142850000D03*
X241500000Y-139200000D03*
X121550000Y-192650000D03*
X176050000Y-141950000D03*
X140950000Y-172450000D03*
X167050000Y-141950000D03*
X121550000Y-187050000D03*
X152150000Y-171850000D03*
X203850000Y-190350000D03*
X172550000Y-149950000D03*
X182050000Y-175750000D03*
X228400000Y-115900000D03*
X110950000Y-173250000D03*
X123750000Y-192650000D03*
X130050000Y-158950000D03*
X122950000Y-172650000D03*
X124850000Y-192750000D03*
X260400000Y-184500000D03*
X151250000Y-170250000D03*
X163950000Y-149950000D03*
X202500000Y-199950000D03*
X144050000Y-142150000D03*
X154850000Y-171850000D03*
X124850000Y-182650000D03*
X175950000Y-149950000D03*
X203400000Y-200750000D03*
X155750000Y-172650000D03*
X167950000Y-141950000D03*
X260400000Y-183400000D03*
X153050000Y-175050000D03*
X150350000Y-173450000D03*
X226600000Y-104900000D03*
X198000000Y-200750000D03*
X122950000Y-173650000D03*
X161650000Y-141950000D03*
X184150000Y-141950000D03*
X155650000Y-149950000D03*
X198900000Y-201550000D03*
X130050000Y-156850000D03*
X121550000Y-188150000D03*
X122650000Y-181550000D03*
X124950000Y-164050000D03*
X112750000Y-175150000D03*
X121550000Y-182650000D03*
X174250000Y-149950000D03*
X120750000Y-172550000D03*
X225400000Y-115900000D03*
X211300000Y-143000000D03*
X124850000Y-180450000D03*
X169750000Y-141950000D03*
X123750000Y-185950000D03*
X123750000Y-188150000D03*
X152150000Y-170250000D03*
X123750000Y-191550000D03*
X153050000Y-171850000D03*
X180550000Y-141950000D03*
X118950000Y-141250000D03*
X162450000Y-149950000D03*
X130850000Y-160950000D03*
X127450000Y-160050000D03*
X121550000Y-185950000D03*
X153950000Y-171850000D03*
X157150000Y-156750000D03*
X184150000Y-142850000D03*
X192750000Y-192400000D03*
X225400000Y-115000000D03*
X124850000Y-193750000D03*
X205200000Y-200750000D03*
X124950000Y-158950000D03*
X154850000Y-173450000D03*
X162800000Y-184600000D03*
X126150000Y-162150000D03*
X111950000Y-171450000D03*
X123750000Y-190350000D03*
X127450000Y-156850000D03*
X111950000Y-173250000D03*
X166150000Y-141950000D03*
X127450000Y-149350000D03*
X135500000Y-181300000D03*
X160750000Y-141950000D03*
X202500000Y-201550000D03*
X176950000Y-142850000D03*
X168850000Y-142850000D03*
X156250000Y-142850000D03*
X182050000Y-179650000D03*
X153050000Y-170250000D03*
X155350000Y-142850000D03*
X211600000Y-144900000D03*
X192900000Y-193200000D03*
X165250000Y-141950000D03*
X140250000Y-158250000D03*
X119850000Y-142050000D03*
X181450000Y-141950000D03*
X152150000Y-171050000D03*
X150350000Y-175050000D03*
X122550000Y-140450000D03*
X124850000Y-183750000D03*
X121550000Y-191550000D03*
X121550000Y-183750000D03*
X224400000Y-115000000D03*
X182050000Y-177650000D03*
X114550000Y-176150000D03*
X200900000Y-97900000D03*
X153050000Y-171050000D03*
X169150000Y-149950000D03*
X205500000Y-97900000D03*
X120750000Y-140450000D03*
X111850000Y-175150000D03*
X155750000Y-175050000D03*
X137350000Y-156550000D03*
X146500000Y-179600000D03*
X163450000Y-141950000D03*
X151250000Y-173450000D03*
X208900000Y-144900000D03*
X124950000Y-156850000D03*
X120750000Y-173650000D03*
X151250000Y-172650000D03*
X164350000Y-141950000D03*
X157150000Y-155550000D03*
X130850000Y-148350000D03*
X182050000Y-176650000D03*
X159650000Y-155550000D03*
X200250000Y-190850000D03*
X123750000Y-180450000D03*
X124950000Y-160050000D03*
X118550000Y-175750000D03*
X119650000Y-174750000D03*
X207600000Y-142300000D03*
X156550000Y-174250000D03*
X203400000Y-201550000D03*
X122650000Y-180450000D03*
X227300000Y-101400000D03*
X112750000Y-176150000D03*
X122650000Y-187050000D03*
X152150000Y-169450000D03*
X154100000Y-177900000D03*
X124850000Y-191550000D03*
X156250000Y-141950000D03*
X152150000Y-172650000D03*
X182050000Y-178650000D03*
X150350000Y-171050000D03*
X210200000Y-144900000D03*
X123750000Y-182650000D03*
X124850000Y-184850000D03*
X121650000Y-142850000D03*
X122650000Y-190350000D03*
X138350000Y-156550000D03*
X138350000Y-158250000D03*
X195200000Y-101200000D03*
X229100000Y-101400000D03*
X240400000Y-138200000D03*
X121850000Y-171450000D03*
X144050000Y-141350000D03*
X241500000Y-138300000D03*
X142800000Y-183800000D03*
X123750000Y-184850000D03*
X202900000Y-97800000D03*
X162550000Y-141950000D03*
X172450000Y-142850000D03*
X154850000Y-172650000D03*
X124850000Y-188150000D03*
X240400000Y-139200000D03*
X150350000Y-171850000D03*
X177750000Y-149950000D03*
X122550000Y-141250000D03*
X130850000Y-161850000D03*
X153950000Y-173450000D03*
X122650000Y-195950000D03*
X127450000Y-148350000D03*
X121650000Y-140450000D03*
X128850000Y-156850000D03*
X188050000Y-182850000D03*
X151250000Y-171850000D03*
X124950000Y-163150000D03*
X164350000Y-142850000D03*
X128550000Y-147350000D03*
X158350000Y-155550000D03*
X153950000Y-174250000D03*
X122650000Y-185950000D03*
X227400000Y-114000000D03*
X125150000Y-174750000D03*
X227400000Y-115000000D03*
X152150000Y-173450000D03*
X110950000Y-172350000D03*
X167350000Y-149950000D03*
X127450000Y-147450000D03*
X144950000Y-139750000D03*
X144950000Y-140550000D03*
X144050000Y-140550000D03*
X158300000Y-187800000D03*
X146500000Y-180500000D03*
X229100000Y-107000000D03*
X150350000Y-174250000D03*
X126150000Y-164950000D03*
X120750000Y-142850000D03*
X198000000Y-201550000D03*
X158050000Y-142850000D03*
X230000000Y-101400000D03*
X202500000Y-200750000D03*
X122650000Y-194850000D03*
X153950000Y-172650000D03*
X150350000Y-169450000D03*
X200700000Y-200750000D03*
X136400000Y-182600000D03*
X121550000Y-180450000D03*
X119850000Y-141250000D03*
X137450000Y-154750000D03*
X290600000Y-189000000D03*
X209900000Y-143000000D03*
X153050000Y-172650000D03*
X155750000Y-173450000D03*
X134900000Y-184200000D03*
X129650000Y-149350000D03*
X162550000Y-142850000D03*
X198000000Y-199950000D03*
X122650000Y-189250000D03*
X229400000Y-115000000D03*
X158350000Y-156650000D03*
X120250000Y-151150000D03*
X122650000Y-184850000D03*
X201600000Y-199950000D03*
X161050000Y-149950000D03*
X157150000Y-142850000D03*
X161650000Y-142850000D03*
X228200000Y-101400000D03*
X163450000Y-142850000D03*
X150350000Y-170250000D03*
X166150000Y-142850000D03*
X127450000Y-155750000D03*
X110950000Y-176150000D03*
X135500000Y-183300000D03*
X182050000Y-181350000D03*
X139350000Y-156550000D03*
X228400000Y-115000000D03*
X135400000Y-168700000D03*
X123750000Y-193750000D03*
X110950000Y-168750000D03*
X122650000Y-193750000D03*
X110950000Y-177150000D03*
X150350000Y-172650000D03*
X111950000Y-168750000D03*
X124850000Y-189250000D03*
X126150000Y-165850000D03*
X130050000Y-157950000D03*
X155550000Y-154950000D03*
X153050000Y-174250000D03*
X153050000Y-173450000D03*
X128750000Y-155750000D03*
X174250000Y-142850000D03*
X229100000Y-106000000D03*
X140050000Y-181650000D03*
X138350000Y-157350000D03*
X121550000Y-190350000D03*
X166300000Y-167300000D03*
X175150000Y-142850000D03*
X157350000Y-174250000D03*
X123750000Y-189250000D03*
X229100000Y-104900000D03*
X226400000Y-114000000D03*
X131750000Y-161850000D03*
X144950000Y-142150000D03*
X140450000Y-154850000D03*
X122650000Y-182650000D03*
X121850000Y-174750000D03*
X201600000Y-200750000D03*
X127450000Y-158950000D03*
X113650000Y-177150000D03*
X129650000Y-148350000D03*
X151250000Y-168650000D03*
X158950000Y-141950000D03*
X180550000Y-142850000D03*
X141650000Y-154850000D03*
X155750000Y-174250000D03*
X189300000Y-182900000D03*
X165250000Y-142850000D03*
X126150000Y-155750000D03*
X121550000Y-195950000D03*
X162800000Y-187000000D03*
X135500000Y-182300000D03*
X121550000Y-189250000D03*
X151250000Y-171050000D03*
%TO.N,VDC*%
X184350000Y-144850000D03*
X186950000Y-148850000D03*
X186950000Y-150550000D03*
X186950000Y-151450000D03*
X186050000Y-144850000D03*
X185150000Y-144850000D03*
X186950000Y-149750000D03*
X186950000Y-144850000D03*
%TO.N,USB_2_P4-*%
X151334415Y-155765585D03*
X134700000Y-142000000D03*
%TO.N,+BATT*%
X144300000Y-156900000D03*
X127950000Y-176650000D03*
%TO.N,USB_2_P4+*%
X151308255Y-156565160D03*
X133700000Y-142350000D03*
%TO.N,+5V*%
X176435660Y-187914340D03*
X244800000Y-148400000D03*
X165300000Y-164000000D03*
X177050000Y-188528679D03*
X153800000Y-181500000D03*
X227200000Y-144800000D03*
X175850000Y-187350000D03*
X180200000Y-188950000D03*
%TO.N,+1V0*%
X137750000Y-174250000D03*
X143950000Y-177050000D03*
X140221517Y-177607843D03*
X139350000Y-169650000D03*
%TO.N,Net-(J9A-SSTX1-)*%
X152600000Y-183500000D03*
%TO.N,+5V_HDMI*%
X184275000Y-185875000D03*
X181350000Y-190350000D03*
%TO.N,EN_5V+*%
X239400000Y-118400000D03*
X191800000Y-122400000D03*
%TO.N,Net-(D1-A2)*%
X247400000Y-186950000D03*
X232600000Y-202900000D03*
%TO.N,Net-(D2-A2)*%
X254625000Y-179875000D03*
X233100000Y-196150000D03*
%TO.N,Net-(D23-A2)*%
X197000000Y-193150000D03*
%TO.N,Net-(D24-A2)*%
X198100000Y-192950000D03*
X190800000Y-183400000D03*
%TO.N,Net-(D25-K)*%
X291000000Y-155400000D03*
X299800000Y-156500000D03*
%TO.N,Net-(J9B-VBUS2)*%
X159100000Y-180300000D03*
%TO.N,~{PWR_LED}{slash}~{PSON}*%
X117950000Y-155650000D03*
X240850000Y-190000000D03*
X188950243Y-194829999D03*
X187300000Y-184000000D03*
%TO.N,HSIO_6_TX-*%
X135750000Y-161450000D03*
X142150000Y-161450000D03*
%TO.N,PCIE_TX_0+*%
X125491635Y-140941635D03*
X125350000Y-148850000D03*
%TO.N,~{PEWAKE}*%
X142350000Y-151350000D03*
X205750000Y-101950000D03*
%TO.N,PWR_SW*%
X116500000Y-154600000D03*
X256800000Y-193752500D03*
X190650000Y-204150000D03*
X120675000Y-203375000D03*
%TO.N,USB3_SSTX_N*%
X120530000Y-156550000D03*
X148980000Y-183000000D03*
%TO.N,RST_SW*%
X190055363Y-203614827D03*
X122325000Y-202925000D03*
X116850000Y-155450000D03*
X244800000Y-195200814D03*
%TO.N,SLS_S3*%
X241250000Y-188600000D03*
X118950000Y-155050000D03*
%TO.N,USB4_SSRX_N*%
X148450000Y-177030000D03*
X122230000Y-149050000D03*
%TO.N,SUSCLK_WIFI*%
X149500000Y-151100000D03*
X289500000Y-176100000D03*
X183800000Y-110300000D03*
%TO.N,HSIO_6_RX-*%
X133200000Y-149650000D03*
X142950000Y-162950000D03*
%TO.N,PCIE_RX_1-*%
X125350000Y-136750000D03*
X294000000Y-162300000D03*
%TO.N,HSIO_6_RX+*%
X143550000Y-163650000D03*
X132620000Y-148250000D03*
%TO.N,REFCLK4-*%
X141210122Y-147789878D03*
X144685320Y-162314680D03*
%TO.N,Tx_stm*%
X275300000Y-198200000D03*
X154500000Y-156300000D03*
%TO.N,HSIO_6_TX+*%
X142750000Y-160870000D03*
X134350000Y-160850000D03*
%TO.N,USB_2_P1+*%
X134450000Y-157650000D03*
%TO.N,USB_2_P2-*%
X150520000Y-201000000D03*
%TO.N,~{PLT_RST}*%
X142950000Y-155250000D03*
X216600000Y-101800000D03*
X205500000Y-105200000D03*
X141313674Y-163590000D03*
X143200000Y-150400000D03*
%TO.N,USB3_SSRX_P*%
X120435899Y-148362230D03*
X167050000Y-186850000D03*
X166289878Y-180760122D03*
%TO.N,Rx_stm*%
X153300000Y-155300000D03*
X276400000Y-199200000D03*
%TO.N,USB4_SSRX_P*%
X149100000Y-177900000D03*
X121950000Y-148250000D03*
%TO.N,REFCLKM-*%
X294800000Y-165800000D03*
X138950000Y-150150000D03*
%TO.N,USB_2_P3-*%
X279800000Y-143520000D03*
X136350000Y-150350000D03*
%TO.N,PCIE_RX_1+*%
X293000000Y-162900000D03*
X125300000Y-135900000D03*
%TO.N,PCIE_TX_1+*%
X302700000Y-174700000D03*
X124530000Y-148950000D03*
X125450000Y-138450000D03*
%TO.N,Net-(Q8-D)*%
X191000000Y-184850000D03*
X196750000Y-184850000D03*
X204350000Y-185150000D03*
X193450000Y-184850000D03*
X200550000Y-184850000D03*
%TO.N,REFCLKM+*%
X293800000Y-166300000D03*
X138000000Y-149900000D03*
%TO.N,USB4_SSTX_P*%
X123050000Y-157350000D03*
X149900000Y-185600000D03*
%TO.N,USB_2_P2+*%
X151125930Y-201580000D03*
%TO.N,PCIE_TX_1-*%
X300200000Y-168400000D03*
X125400000Y-137650000D03*
X123950000Y-150350000D03*
%TO.N,DDI_B_HPD*%
X162050000Y-154800000D03*
X161150000Y-156050000D03*
%TO.N,POWER_STATUS*%
X145250000Y-173950000D03*
X192950000Y-176050000D03*
X139450000Y-165200000D03*
X299500000Y-161900000D03*
X137750000Y-177770000D03*
X138050000Y-165300000D03*
X286100000Y-191250000D03*
X191150000Y-172950000D03*
X134117500Y-165982500D03*
X136550000Y-165300000D03*
X191600000Y-107600000D03*
X137750000Y-177050000D03*
X287900000Y-154800000D03*
X207900000Y-140700000D03*
X184200000Y-182650000D03*
X186650000Y-172950000D03*
X280250000Y-194400000D03*
X266825000Y-203025000D03*
X293400000Y-170400000D03*
X140450000Y-170250000D03*
X211400000Y-109400000D03*
X210200000Y-108800000D03*
X135150000Y-165300000D03*
X145850000Y-174650000D03*
X140550000Y-165950000D03*
X182250000Y-183350000D03*
X188125000Y-176075000D03*
X182850000Y-182750000D03*
%TO.N,+5V_FAN*%
X119300000Y-170100000D03*
X207400000Y-162500000D03*
X224900000Y-101000000D03*
X218500000Y-134800000D03*
X207400000Y-185500000D03*
%TO.N,PCIE_TX_0-*%
X126114878Y-139614878D03*
X126050000Y-149850000D03*
%TO.N,RESET*%
X289100000Y-197150000D03*
X278350000Y-194250000D03*
%TO.N,Net-(D10-A)*%
X231000000Y-199000000D03*
X231000000Y-196000000D03*
X256700000Y-190800000D03*
X231000000Y-196900000D03*
X235850000Y-198550000D03*
X236200000Y-196700000D03*
X236200000Y-194000000D03*
X230600000Y-195200000D03*
X231000000Y-197900000D03*
X236200000Y-195800000D03*
X236200000Y-197700000D03*
X236200000Y-194900000D03*
X235800000Y-199600000D03*
%TO.N,USB4_SSTX_N*%
X123050000Y-156549997D03*
X151300000Y-185600000D03*
%TO.N,CPU_STATUS*%
X289950000Y-196250000D03*
X291400000Y-201450000D03*
%TO.N,RFID_STATUS*%
X280975000Y-196070000D03*
X275400000Y-201700000D03*
%TO.N,NETWORK_STATUS*%
X281800000Y-196009000D03*
X283400000Y-201500000D03*
%TO.N,BOOT1*%
X279900000Y-200700000D03*
%TO.N,Net-(U3-EN)*%
X198800000Y-147300000D03*
X239200000Y-136600000D03*
%TO.N,Net-(U1-PB11)*%
X212650000Y-185250000D03*
X282100000Y-200050000D03*
%TO.N,PA11*%
X289300000Y-189500000D03*
X282650000Y-191550000D03*
%TO.N,USB3_SSRX_N*%
X121070000Y-148940000D03*
X167150000Y-180800000D03*
%TO.N,USB_2_P3+*%
X136950000Y-149550000D03*
X280800000Y-144000000D03*
%TO.N,USB_2_P1-*%
X134386921Y-158447512D03*
%TO.N,REFCLK4+*%
X140250000Y-147650000D03*
X145650000Y-164050000D03*
%TO.N,USB3_SSTX_P*%
X149000000Y-183900000D03*
X120050000Y-157350000D03*
%TO.N,Net-(J2-CC1)*%
X249350000Y-187637500D03*
X232850000Y-199400000D03*
%TO.N,Net-(J2-CC2)*%
X234800000Y-203000000D03*
X244400000Y-187800000D03*
%TO.N,LED2*%
X138133437Y-171840242D03*
%TO.N,Net-(J7-P7)*%
X141400000Y-182750000D03*
%TO.N,LED1*%
X138750000Y-172350000D03*
%TO.N,USB_2_P6+*%
X288350000Y-180550000D03*
X144620000Y-147095226D03*
%TO.N,USB_2_P6-*%
X289500000Y-180500000D03*
X145450000Y-147550000D03*
%TO.N,USB_P1+*%
X181050000Y-198000000D03*
X182100000Y-202900000D03*
X182100000Y-164900000D03*
%TO.N,USB_P1-*%
X182100000Y-198000000D03*
X180900000Y-202700000D03*
X182900003Y-165100000D03*
%TO.N,+5V_RFID*%
X256400000Y-142700000D03*
X261000000Y-142700000D03*
X224962500Y-124450000D03*
X241600000Y-130100000D03*
X243700000Y-132200000D03*
X257300000Y-142700000D03*
X243050000Y-131550000D03*
X259700000Y-142700000D03*
X242300000Y-130800000D03*
X262400000Y-142700000D03*
X258500000Y-142700000D03*
%TD*%
D38*
%TO.N,USB3_SSRX_P*%
X167050000Y-186850000D02*
X167050000Y-187130000D01*
X167050000Y-187130000D02*
X163718999Y-190461001D01*
X163718999Y-190461001D02*
X163718999Y-192025077D01*
X163718999Y-192025077D02*
X162599999Y-193144077D01*
X162599999Y-193144077D02*
X162599999Y-194590000D01*
D39*
%TO.N,+5V*%
X183250000Y-188750000D02*
X185650000Y-188750000D01*
X176435661Y-187914340D02*
X177050000Y-188528679D01*
X177050000Y-188750000D02*
X183250000Y-188750000D01*
D40*
X165300000Y-164000000D02*
X177600000Y-164000000D01*
D39*
X177050000Y-188528679D02*
X177050000Y-188750000D01*
X183250000Y-188750000D02*
X206950000Y-188750000D01*
X185750000Y-188850000D02*
X185650000Y-188750000D01*
D40*
X222100000Y-139700000D02*
X227200000Y-144800000D01*
D39*
X154087500Y-181787500D02*
X153800000Y-181500000D01*
X153800000Y-181500000D02*
X155187500Y-182887500D01*
X155187500Y-182887500D02*
X171408821Y-182887500D01*
X171408821Y-182887500D02*
X176435660Y-187914340D01*
X176435660Y-187914340D02*
X176435661Y-187914340D01*
D40*
X201900000Y-139700000D02*
X222100000Y-139700000D01*
X177600000Y-164000000D02*
X201900000Y-139700000D01*
D38*
%TO.N,Net-(J9A-SSTX1-)*%
X157480999Y-192025077D02*
X158599999Y-193144077D01*
X157480999Y-188380999D02*
X157480999Y-192025077D01*
X152600000Y-183500000D02*
X157480999Y-188380999D01*
X158599999Y-193144077D02*
X158599999Y-194590000D01*
%TO.N,EN_5V+*%
X191800000Y-122400000D02*
X195800000Y-118400000D01*
X195800000Y-118400000D02*
X239400000Y-118400000D01*
%TO.N,Net-(D1-A2)*%
X237950000Y-198750000D02*
X233800000Y-202900000D01*
X233800000Y-202900000D02*
X232600000Y-202900000D01*
X240500000Y-186950000D02*
X237950000Y-189500000D01*
X237950000Y-189500000D02*
X237950000Y-198750000D01*
X247400000Y-186950000D02*
X240500000Y-186950000D01*
%TO.N,Net-(D2-A2)*%
X234339000Y-192000468D02*
X240500469Y-185839000D01*
X234339000Y-192011000D02*
X234339000Y-192000468D01*
X252875000Y-179875000D02*
X254625000Y-179875000D01*
X240500469Y-185839000D02*
X240511000Y-185839000D01*
X241000000Y-185350000D02*
X247400000Y-185350000D01*
X240511000Y-185839000D02*
X241000000Y-185350000D01*
X233100000Y-196150000D02*
X233100000Y-193250000D01*
X233100000Y-193250000D02*
X234339000Y-192011000D01*
X247400000Y-185350000D02*
X252875000Y-179875000D01*
%TO.N,Net-(D25-K)*%
X299800000Y-156500000D02*
X292100000Y-156500000D01*
X292100000Y-156500000D02*
X291000000Y-155400000D01*
%TO.N,~{PWR_LED}{slash}~{PSON}*%
X240850000Y-190000000D02*
X240900000Y-189950000D01*
X126390883Y-204600000D02*
X116350000Y-194559117D01*
X188920244Y-194800000D02*
X174800000Y-194800000D01*
X238800000Y-204100000D02*
X240400000Y-202500000D01*
X188950243Y-194829999D02*
X189170242Y-194610000D01*
X211500000Y-202600000D02*
X213000000Y-204100000D01*
X213000000Y-204100000D02*
X238800000Y-204100000D01*
X116350000Y-194559117D02*
X116350000Y-157250000D01*
X211500000Y-197600000D02*
X211500000Y-202600000D01*
X189170242Y-194610000D02*
X208510000Y-194610000D01*
X240400000Y-190450000D02*
X240850000Y-190000000D01*
X116350000Y-157250000D02*
X117950000Y-155650000D01*
X174800000Y-194800000D02*
X165000000Y-204600000D01*
X165000000Y-204600000D02*
X126390883Y-204600000D01*
X208510000Y-194610000D02*
X211500000Y-197600000D01*
X240400000Y-202500000D02*
X240400000Y-190450000D01*
%TO.N,HSIO_6_TX-*%
X142150000Y-161450000D02*
X135750000Y-161450000D01*
%TO.N,PCIE_TX_0+*%
X125450000Y-148750000D02*
X125350000Y-148850000D01*
X125450000Y-140983270D02*
X125450000Y-148750000D01*
X125491635Y-140941635D02*
X125450000Y-140983270D01*
%TO.N,~{PEWAKE}*%
X142350000Y-151350000D02*
X142350000Y-151050000D01*
X205750000Y-101950000D02*
X205400000Y-102300000D01*
X205400000Y-102300000D02*
X171200000Y-102300000D01*
X171200000Y-102300000D02*
X142350000Y-131150000D01*
X142350000Y-131150000D02*
X142350000Y-151350000D01*
%TO.N,PWR_SW*%
X190750000Y-204150000D02*
X190650000Y-204150000D01*
X210700000Y-198000000D02*
X208050000Y-195350000D01*
X197334923Y-87839000D02*
X200700000Y-91204077D01*
X114400000Y-150200000D02*
X114400000Y-142400000D01*
X241200000Y-202900000D02*
X239200000Y-204900000D01*
X120675000Y-203375000D02*
X115630000Y-198330000D01*
X111250000Y-156850000D02*
X113500000Y-154600000D01*
X239200000Y-204900000D02*
X212700000Y-204900000D01*
X111250000Y-159050000D02*
X111250000Y-156850000D01*
X191550000Y-203350000D02*
X190750000Y-204150000D01*
X168961000Y-87839000D02*
X197334923Y-87839000D01*
X114400000Y-142400000D02*
X168961000Y-87839000D01*
X208050000Y-195350000D02*
X192100000Y-195350000D01*
X200700000Y-92450000D02*
X201600000Y-93350000D01*
X115630000Y-163430000D02*
X111250000Y-159050000D01*
X255100000Y-195452500D02*
X255100000Y-200700000D01*
X252900000Y-202900000D02*
X241200000Y-202900000D01*
X212700000Y-204900000D02*
X210700000Y-202900000D01*
X116500000Y-152300000D02*
X114400000Y-150200000D01*
X255100000Y-200700000D02*
X252900000Y-202900000D01*
X256800000Y-193752500D02*
X255100000Y-195452500D01*
X113500000Y-154600000D02*
X116500000Y-154600000D01*
X191550000Y-195900000D02*
X191550000Y-203350000D01*
X200700000Y-91204077D02*
X200700000Y-92450000D01*
X115630000Y-198330000D02*
X115630000Y-163430000D01*
X116500000Y-154600000D02*
X116500000Y-152300000D01*
X210700000Y-202900000D02*
X210700000Y-198000000D01*
X192100000Y-195350000D02*
X191550000Y-195900000D01*
%TO.N,USB3_SSTX_N*%
X148980000Y-183000000D02*
X147100000Y-183000000D01*
X143870000Y-179770000D02*
X133670000Y-179770000D01*
X120530000Y-166620884D02*
X120530000Y-157690244D01*
X133670000Y-179770000D02*
X126110000Y-172210000D01*
X147100000Y-183000000D02*
X143870000Y-179770000D01*
X120630000Y-156650000D02*
X120530000Y-156550000D01*
X126110000Y-172200884D02*
X120530000Y-166620884D01*
X120530000Y-157690244D02*
X120630000Y-157590244D01*
X120630000Y-157590244D02*
X120630000Y-156650000D01*
X126110000Y-172210000D02*
X126110000Y-172200884D01*
%TO.N,RST_SW*%
X122325000Y-202925000D02*
X115990000Y-196590000D01*
X240800000Y-202694734D02*
X238994734Y-204500000D01*
X242849186Y-195200814D02*
X240800000Y-197250000D01*
X191950469Y-194989000D02*
X191189000Y-195750468D01*
X211100000Y-202789468D02*
X211100000Y-197800000D01*
X191951883Y-194989000D02*
X191950469Y-194989000D01*
X117500000Y-154800000D02*
X117500000Y-139900000D01*
X113850000Y-158750000D02*
X113850000Y-157470969D01*
X208270000Y-194970000D02*
X191970883Y-194970000D01*
X191189000Y-202481190D02*
X190055363Y-203614827D01*
X113850000Y-157470969D02*
X115870969Y-155450000D01*
X211100000Y-197800000D02*
X208270000Y-194970000D01*
X244800000Y-195200814D02*
X242849186Y-195200814D01*
X196100000Y-88200000D02*
X198600000Y-90700000D01*
X198600000Y-90700000D02*
X198600000Y-92350000D01*
X169200000Y-88200000D02*
X196100000Y-88200000D01*
X191189000Y-195750468D02*
X191189000Y-202481190D01*
X115870969Y-155450000D02*
X116850000Y-155450000D01*
X198600000Y-92350000D02*
X199600000Y-93350000D01*
X191970883Y-194970000D02*
X191951883Y-194989000D01*
X117500000Y-139900000D02*
X169200000Y-88200000D01*
X212810532Y-204500000D02*
X211100000Y-202789468D01*
X238994734Y-204500000D02*
X212810532Y-204500000D01*
X115990000Y-160890000D02*
X113850000Y-158750000D01*
X116850000Y-155450000D02*
X117500000Y-154800000D01*
X115990000Y-196590000D02*
X115990000Y-160890000D01*
X240800000Y-197250000D02*
X240800000Y-202694734D01*
%TO.N,SLS_S3*%
X211900000Y-202400000D02*
X211900000Y-197440884D01*
X174800001Y-194249999D02*
X164850000Y-204200000D01*
X164850000Y-204200000D02*
X126500000Y-204200000D01*
X241250000Y-188600000D02*
X241150000Y-188600000D01*
X238600000Y-203700000D02*
X213200000Y-203700000D01*
X126500000Y-204200000D02*
X116710000Y-194410000D01*
X208709115Y-194249999D02*
X174800001Y-194249999D01*
X211900000Y-197440884D02*
X208709115Y-194249999D01*
X213200000Y-203700000D02*
X211900000Y-202400000D01*
X240000000Y-202300000D02*
X238600000Y-203700000D01*
X116710000Y-194410000D02*
X116710000Y-160990000D01*
X118950000Y-158750000D02*
X118950000Y-155050000D01*
X240000000Y-189750000D02*
X240000000Y-202300000D01*
X116710000Y-160990000D02*
X118950000Y-158750000D01*
X241150000Y-188600000D02*
X240000000Y-189750000D01*
%TO.N,USB4_SSRX_N*%
X148450000Y-177030000D02*
X148450000Y-177150000D01*
X148400000Y-177200000D02*
X148400000Y-178200000D01*
X148500000Y-177100000D02*
X148450000Y-177050000D01*
X148450000Y-177050000D02*
X148450000Y-177030000D01*
X148450000Y-177150000D02*
X148400000Y-177200000D01*
X134350000Y-178350000D02*
X122230000Y-166230000D01*
X148250000Y-178350000D02*
X134350000Y-178350000D01*
X122230000Y-166230000D02*
X122230000Y-149050000D01*
X148400000Y-178200000D02*
X148250000Y-178350000D01*
%TO.N,SUSCLK_WIFI*%
X149500000Y-143400000D02*
X182600000Y-110300000D01*
X289500000Y-176100000D02*
X287700000Y-176100000D01*
X149500000Y-151100000D02*
X149500000Y-143400000D01*
X182600000Y-110300000D02*
X183800000Y-110300000D01*
X239700000Y-110300000D02*
X183800000Y-110300000D01*
X247900000Y-118500000D02*
X239700000Y-110300000D01*
X287700000Y-176100000D02*
X247900000Y-136300000D01*
X247900000Y-136300000D02*
X247900000Y-118500000D01*
%TO.N,HSIO_6_RX-*%
X133200000Y-161500000D02*
X133200000Y-149650000D01*
X142650000Y-162650000D02*
X134350000Y-162650000D01*
X134350000Y-162650000D02*
X133200000Y-161500000D01*
X142950000Y-162950000D02*
X142650000Y-162650000D01*
%TO.N,HSIO_6_RX+*%
X132620000Y-161429116D02*
X132620000Y-148250000D01*
X143550000Y-163650000D02*
X142829756Y-163650000D01*
X142189756Y-163010000D02*
X134200884Y-163010000D01*
X142829756Y-163650000D02*
X142189756Y-163010000D01*
X134200884Y-163010000D02*
X132620000Y-161429116D01*
%TO.N,REFCLK4-*%
X144685320Y-162314680D02*
X144685320Y-159485320D01*
X144685320Y-159485320D02*
X141069000Y-155869000D01*
X141069000Y-155869000D02*
X141069000Y-147931000D01*
X141069000Y-147931000D02*
X141210122Y-147789878D01*
%TO.N,HSIO_6_TX+*%
X142730000Y-160850000D02*
X134350000Y-160850000D01*
X142750000Y-160870000D02*
X142730000Y-160850000D01*
%TO.N,USB_2_P2-*%
X150520000Y-201000000D02*
X157000000Y-201000000D01*
X157000000Y-201000000D02*
X159599999Y-198400001D01*
X159599999Y-198400001D02*
X159599999Y-196090000D01*
%TO.N,~{PLT_RST}*%
X203000000Y-102800000D02*
X205400000Y-105200000D01*
X143200000Y-150400000D02*
X143200000Y-131400000D01*
X205400000Y-105200000D02*
X205500000Y-105200000D01*
X143200000Y-131400000D02*
X171800000Y-102800000D01*
X142950000Y-150650000D02*
X142950000Y-155250000D01*
X143200000Y-150400000D02*
X142950000Y-150650000D01*
X171800000Y-102800000D02*
X203000000Y-102800000D01*
%TO.N,USB4_SSRX_P*%
X149100000Y-177900000D02*
X149100000Y-178300000D01*
X121650000Y-166159116D02*
X121650000Y-148550000D01*
X134200884Y-178710000D02*
X121650000Y-166159116D01*
X121650000Y-148550000D02*
X121950000Y-148250000D01*
X149100000Y-178300000D02*
X148690000Y-178710000D01*
X148690000Y-178710000D02*
X134200884Y-178710000D01*
%TO.N,PCIE_TX_1+*%
X125450000Y-138450000D02*
X125400000Y-138450000D01*
X125400000Y-138450000D02*
X124550000Y-139300000D01*
X124550000Y-139300000D02*
X124550000Y-148930000D01*
X124550000Y-148930000D02*
X124530000Y-148950000D01*
%TO.N,Net-(Q8-D)*%
X204050000Y-184850000D02*
X204350000Y-185150000D01*
X191000000Y-184850000D02*
X204050000Y-184850000D01*
%TO.N,USB4_SSTX_P*%
X123350000Y-165850000D02*
X133950000Y-176450000D01*
X149250000Y-176450000D02*
X149900000Y-177100000D01*
X123350000Y-157650000D02*
X123350000Y-165850000D01*
X123050000Y-157350000D02*
X123350000Y-157650000D01*
X133950000Y-176450000D02*
X149250000Y-176450000D01*
X149900000Y-177100000D02*
X149900000Y-185600000D01*
%TO.N,USB_2_P2+*%
X157300000Y-201500000D02*
X161599999Y-197200001D01*
X151205930Y-201500000D02*
X157300000Y-201500000D01*
X161599999Y-197200001D02*
X161599999Y-196090000D01*
X151125930Y-201580000D02*
X151205930Y-201500000D01*
%TO.N,PCIE_TX_1-*%
X125400000Y-137650000D02*
X123950000Y-139100000D01*
X123950000Y-139100000D02*
X123950000Y-150350000D01*
%TO.N,DDI_B_HPD*%
X161150000Y-155700000D02*
X162050000Y-154800000D01*
X161150000Y-156050000D02*
X161150000Y-155700000D01*
%TO.N,POWER_STATUS*%
X286100000Y-191250000D02*
X286100000Y-191900000D01*
X290140000Y-185440000D02*
X292900000Y-182680000D01*
X210200000Y-108800000D02*
X192800000Y-108800000D01*
X192600000Y-92350000D02*
X196600000Y-92350000D01*
X210400000Y-109400000D02*
X210200000Y-109200000D01*
X266825000Y-199275000D02*
X272431000Y-193669000D01*
D41*
X266610000Y-172950000D02*
X279100000Y-185440000D01*
D38*
X286100000Y-191900000D02*
X283600000Y-194400000D01*
X287900000Y-154800000D02*
X295000000Y-161900000D01*
X211400000Y-109400000D02*
X210400000Y-109400000D01*
X272431000Y-193669000D02*
X279519000Y-193669000D01*
X292900000Y-179000000D02*
X293400000Y-178500000D01*
X211400000Y-109400000D02*
X211400000Y-106500000D01*
X266825000Y-203025000D02*
X266825000Y-199275000D01*
X198769000Y-100519000D02*
X191600000Y-93350000D01*
D41*
X191150000Y-172950000D02*
X266610000Y-172950000D01*
X186650000Y-156650000D02*
X202600000Y-140700000D01*
D38*
X211400000Y-106500000D02*
X205419000Y-100519000D01*
X191600000Y-93350000D02*
X192600000Y-92350000D01*
X210200000Y-109200000D02*
X210200000Y-108800000D01*
X293400000Y-178500000D02*
X293400000Y-170400000D01*
X295000000Y-161900000D02*
X299500000Y-161900000D01*
X292900000Y-182680000D02*
X292900000Y-179000000D01*
X287900000Y-154800000D02*
X287900000Y-162400000D01*
X279100000Y-185440000D02*
X282810000Y-185440000D01*
X293400000Y-167900000D02*
X293400000Y-170400000D01*
D41*
X202600000Y-140700000D02*
X207900000Y-140700000D01*
D38*
X283600000Y-194400000D02*
X280250000Y-194400000D01*
X282810000Y-185440000D02*
X290140000Y-185440000D01*
D41*
X186650000Y-172950000D02*
X186650000Y-156650000D01*
D38*
X205419000Y-100519000D02*
X198769000Y-100519000D01*
X192800000Y-108800000D02*
X191600000Y-107600000D01*
X279519000Y-193669000D02*
X280250000Y-194400000D01*
X287900000Y-162400000D02*
X293400000Y-167900000D01*
X196600000Y-92350000D02*
X197600000Y-91350000D01*
D40*
%TO.N,+5V_FAN*%
X211592500Y-93400000D02*
X209617500Y-91425000D01*
X224900000Y-101000000D02*
X218650000Y-94750000D01*
X218650000Y-93400000D02*
X211592500Y-93400000D01*
X218650000Y-93400000D02*
X218650000Y-91425000D01*
X218650000Y-94750000D02*
X218650000Y-93400000D01*
D38*
%TO.N,PCIE_TX_0-*%
X126150000Y-149750000D02*
X126050000Y-149850000D01*
X126114878Y-139614878D02*
X126150000Y-139650000D01*
X126150000Y-139650000D02*
X126150000Y-149750000D01*
%TO.N,RESET*%
X278350000Y-194250000D02*
X279300000Y-195200000D01*
X279300000Y-195200000D02*
X287150000Y-195200000D01*
X287150000Y-195200000D02*
X289100000Y-197150000D01*
D42*
%TO.N,Net-(Q1-C)*%
X218310000Y-201550000D02*
X219610000Y-201550000D01*
X219610000Y-201550000D02*
X223110000Y-198050000D01*
D38*
%TO.N,USB4_SSTX_N*%
X134190000Y-176090000D02*
X149490000Y-176090000D01*
X123290244Y-156770000D02*
X123710000Y-157189756D01*
X123050000Y-156549997D02*
X123270003Y-156770000D01*
X123710000Y-165610000D02*
X134190000Y-176090000D01*
X123270003Y-156770000D02*
X123290244Y-156770000D01*
X123710000Y-157189756D02*
X123710000Y-165610000D01*
X151300000Y-177900000D02*
X151300000Y-185600000D01*
X149490000Y-176090000D02*
X151300000Y-177900000D01*
%TO.N,CPU_STATUS*%
X289950000Y-196250000D02*
X289950000Y-197550000D01*
X289950000Y-197550000D02*
X291400000Y-199000000D01*
X291400000Y-199000000D02*
X291400000Y-201450000D01*
%TO.N,RFID_STATUS*%
X280975000Y-196125000D02*
X275400000Y-201700000D01*
X280975000Y-196070000D02*
X280975000Y-196125000D01*
%TO.N,NETWORK_STATUS*%
X281800000Y-196300000D02*
X283400000Y-197900000D01*
X283400000Y-197900000D02*
X283400000Y-201500000D01*
X281800000Y-196009000D02*
X281800000Y-196300000D01*
%TO.N,Net-(U3-EN)*%
X198800000Y-147300000D02*
X230300000Y-147300000D01*
X239200000Y-138400000D02*
X239200000Y-136600000D01*
X230300000Y-147300000D02*
X239200000Y-138400000D01*
%TO.N,PA11*%
X289300000Y-189500000D02*
X289250000Y-189550000D01*
X289250000Y-189550000D02*
X283700000Y-189550000D01*
X283700000Y-189550000D02*
X282650000Y-190600000D01*
X282650000Y-190600000D02*
X282650000Y-191550000D01*
%TO.N,REFCLK4+*%
X143800000Y-162700000D02*
X143800000Y-159160829D01*
X143800000Y-159160829D02*
X139869000Y-155229829D01*
X145150000Y-164050000D02*
X143800000Y-162700000D01*
X139869000Y-155229829D02*
X139869000Y-148031000D01*
X139869000Y-148031000D02*
X140250000Y-147650000D01*
X145650000Y-164050000D02*
X145150000Y-164050000D01*
%TO.N,USB3_SSTX_P*%
X125750000Y-172350000D02*
X120050000Y-166650000D01*
X143969000Y-181169000D02*
X142930000Y-180130000D01*
X144190659Y-181169000D02*
X143969000Y-181169000D01*
X133520883Y-180130000D02*
X125750000Y-172359117D01*
X120050000Y-166650000D02*
X120050000Y-157350000D01*
X149000000Y-183900000D02*
X146700000Y-183900000D01*
X144531000Y-181509341D02*
X144190659Y-181169000D01*
X144531000Y-181731000D02*
X144531000Y-181509341D01*
X125750000Y-172359117D02*
X125750000Y-172350000D01*
X142930000Y-180130000D02*
X133520883Y-180130000D01*
X146700000Y-183900000D02*
X144531000Y-181731000D01*
%TO.N,Net-(J2-CC1)*%
X247912500Y-186200000D02*
X240650000Y-186200000D01*
X234700000Y-197550000D02*
X232850000Y-199400000D01*
X240650000Y-186200000D02*
X234700000Y-192150000D01*
X249350000Y-187637500D02*
X247912500Y-186200000D01*
X234700000Y-192150000D02*
X234700000Y-197550000D01*
%TO.N,Net-(J2-CC2)*%
X240050000Y-188050000D02*
X240300000Y-187800000D01*
X234800000Y-203000000D02*
X238600000Y-199200000D01*
X238600000Y-189500000D02*
X240050000Y-188050000D01*
X238600000Y-197700000D02*
X238600000Y-189500000D01*
X240300000Y-187800000D02*
X244400000Y-187800000D01*
X238600000Y-199200000D02*
X238600000Y-197700000D01*
%TD*%
M02*
