%TF.GenerationSoftware,KiCad,Pcbnew,9.0.2-9.0.2-0~ubuntu22.04.1*%
%TF.CreationDate,2025-07-08T19:29:46+05:30*%
%TF.ProjectId,RFID,52464944-2e6b-4696-9361-645f70636258,rev?*%
%TF.SameCoordinates,Original*%
%TF.FileFunction,Paste,Top*%
%TF.FilePolarity,Positive*%
%FSLAX46Y46*%
G04 Gerber Fmt 4.6, Leading zero omitted, Abs format (unit mm)*
G04 Created by KiCad (PCBNEW 9.0.2-9.0.2-0~ubuntu22.04.1) date 2025-07-08 19:29:46*
%MOMM*%
%LPD*%
G01*
G04 APERTURE LIST*
G04 Aperture macros list*
%AMRoundRect*
0 Rectangle with rounded corners*
0 $1 Rounding radius*
0 $2 $3 $4 $5 $6 $7 $8 $9 X,Y pos of 4 corners*
0 Add a 4 corners polygon primitive as box body*
4,1,4,$2,$3,$4,$5,$6,$7,$8,$9,$2,$3,0*
0 Add four circle primitives for the rounded corners*
1,1,$1+$1,$2,$3*
1,1,$1+$1,$4,$5*
1,1,$1+$1,$6,$7*
1,1,$1+$1,$8,$9*
0 Add four rect primitives between the rounded corners*
20,1,$1+$1,$2,$3,$4,$5,0*
20,1,$1+$1,$4,$5,$6,$7,0*
20,1,$1+$1,$6,$7,$8,$9,0*
20,1,$1+$1,$8,$9,$2,$3,0*%
%AMFreePoly0*
4,1,14,0.314644,0.085355,0.385355,0.014644,0.400000,-0.020711,0.400000,-0.050000,0.385355,-0.085355,0.350000,-0.100000,-0.350000,-0.100000,-0.385355,-0.085355,-0.400000,-0.050000,-0.400000,0.050000,-0.385355,0.085355,-0.350000,0.100000,0.279289,0.100000,0.314644,0.085355,0.314644,0.085355,$1*%
%AMFreePoly1*
4,1,14,0.385355,0.085355,0.400000,0.050000,0.400000,0.020711,0.385355,-0.014644,0.314644,-0.085355,0.279289,-0.100000,-0.350000,-0.100000,-0.385355,-0.085355,-0.400000,-0.050000,-0.400000,0.050000,-0.385355,0.085355,-0.350000,0.100000,0.350000,0.100000,0.385355,0.085355,0.385355,0.085355,$1*%
%AMFreePoly2*
4,1,14,0.085355,0.385355,0.100000,0.350000,0.100000,-0.350000,0.085355,-0.385355,0.050000,-0.400000,-0.050000,-0.400000,-0.085355,-0.385355,-0.100000,-0.350000,-0.100000,0.279289,-0.085355,0.314644,-0.014644,0.385355,0.020711,0.400000,0.050000,0.400000,0.085355,0.385355,0.085355,0.385355,$1*%
%AMFreePoly3*
4,1,14,0.014644,0.385355,0.085355,0.314644,0.100000,0.279289,0.100000,-0.350000,0.085355,-0.385355,0.050000,-0.400000,-0.050000,-0.400000,-0.085355,-0.385355,-0.100000,-0.350000,-0.100000,0.350000,-0.085355,0.385355,-0.050000,0.400000,-0.020711,0.400000,0.014644,0.385355,0.014644,0.385355,$1*%
%AMFreePoly4*
4,1,14,0.385355,0.085355,0.400000,0.050000,0.400000,-0.050000,0.385355,-0.085355,0.350000,-0.100000,-0.279289,-0.100000,-0.314644,-0.085355,-0.385355,-0.014644,-0.400000,0.020711,-0.400000,0.050000,-0.385355,0.085355,-0.350000,0.100000,0.350000,0.100000,0.385355,0.085355,0.385355,0.085355,$1*%
%AMFreePoly5*
4,1,14,0.385355,0.085355,0.400000,0.050000,0.400000,-0.050000,0.385355,-0.085355,0.350000,-0.100000,-0.350000,-0.100000,-0.385355,-0.085355,-0.400000,-0.050000,-0.400000,-0.020711,-0.385355,0.014644,-0.314644,0.085355,-0.279289,0.100000,0.350000,0.100000,0.385355,0.085355,0.385355,0.085355,$1*%
%AMFreePoly6*
4,1,14,0.085355,0.385355,0.100000,0.350000,0.100000,-0.279289,0.085355,-0.314644,0.014644,-0.385355,-0.020711,-0.400000,-0.050000,-0.400000,-0.085355,-0.385355,-0.100000,-0.350000,-0.100000,0.350000,-0.085355,0.385355,-0.050000,0.400000,0.050000,0.400000,0.085355,0.385355,0.085355,0.385355,$1*%
%AMFreePoly7*
4,1,14,0.085355,0.385355,0.100000,0.350000,0.100000,-0.350000,0.085355,-0.385355,0.050000,-0.400000,0.020711,-0.400000,-0.014644,-0.385355,-0.085355,-0.314644,-0.100000,-0.279289,-0.100000,0.350000,-0.085355,0.385355,-0.050000,0.400000,0.050000,0.400000,0.085355,0.385355,0.085355,0.385355,$1*%
G04 Aperture macros list end*
%ADD10C,0.010000*%
%ADD11R,0.647700X0.355600*%
%ADD12RoundRect,0.150000X-0.150000X0.587500X-0.150000X-0.587500X0.150000X-0.587500X0.150000X0.587500X0*%
%ADD13RoundRect,0.250000X-0.475000X0.337500X-0.475000X-0.337500X0.475000X-0.337500X0.475000X0.337500X0*%
%ADD14RoundRect,0.155000X0.155000X-0.212500X0.155000X0.212500X-0.155000X0.212500X-0.155000X-0.212500X0*%
%ADD15RoundRect,0.250000X0.475000X-0.337500X0.475000X0.337500X-0.475000X0.337500X-0.475000X-0.337500X0*%
%ADD16R,0.600000X0.700000*%
%ADD17RoundRect,0.160000X0.160000X-0.197500X0.160000X0.197500X-0.160000X0.197500X-0.160000X-0.197500X0*%
%ADD18RoundRect,0.237500X-0.287500X-0.237500X0.287500X-0.237500X0.287500X0.237500X-0.287500X0.237500X0*%
%ADD19RoundRect,0.237500X-0.300000X-0.237500X0.300000X-0.237500X0.300000X0.237500X-0.300000X0.237500X0*%
%ADD20RoundRect,0.155000X-0.155000X0.212500X-0.155000X-0.212500X0.155000X-0.212500X0.155000X0.212500X0*%
%ADD21RoundRect,0.250000X0.285000X-0.285000X0.285000X0.285000X-0.285000X0.285000X-0.285000X-0.285000X0*%
%ADD22FreePoly0,90.000000*%
%ADD23RoundRect,0.050000X0.050000X-0.350000X0.050000X0.350000X-0.050000X0.350000X-0.050000X-0.350000X0*%
%ADD24FreePoly1,90.000000*%
%ADD25FreePoly2,90.000000*%
%ADD26RoundRect,0.050000X0.350000X-0.050000X0.350000X0.050000X-0.350000X0.050000X-0.350000X-0.050000X0*%
%ADD27FreePoly3,90.000000*%
%ADD28FreePoly4,90.000000*%
%ADD29FreePoly5,90.000000*%
%ADD30FreePoly6,90.000000*%
%ADD31FreePoly7,90.000000*%
%ADD32RoundRect,0.160000X0.197500X0.160000X-0.197500X0.160000X-0.197500X-0.160000X0.197500X-0.160000X0*%
%ADD33R,0.400000X1.500000*%
%ADD34R,2.100000X5.600000*%
%ADD35R,0.600000X1.140000*%
%ADD36R,0.300000X1.140000*%
%ADD37RoundRect,0.155000X-0.212500X-0.155000X0.212500X-0.155000X0.212500X0.155000X-0.212500X0.155000X0*%
%ADD38R,2.500000X1.800000*%
%ADD39R,0.300000X1.550000*%
%ADD40R,1.200000X2.750000*%
%ADD41R,0.250000X0.625000*%
%ADD42R,0.450000X0.700000*%
%ADD43R,0.450000X0.575000*%
%ADD44R,0.300000X1.750000*%
%ADD45R,3.500000X4.600000*%
%ADD46RoundRect,0.160000X-0.197500X-0.160000X0.197500X-0.160000X0.197500X0.160000X-0.197500X0.160000X0*%
%ADD47RoundRect,0.160000X-0.160000X0.197500X-0.160000X-0.197500X0.160000X-0.197500X0.160000X0.197500X0*%
%ADD48RoundRect,0.237500X0.300000X0.237500X-0.300000X0.237500X-0.300000X-0.237500X0.300000X-0.237500X0*%
%ADD49R,1.400000X0.900000*%
%ADD50R,1.550000X0.300000*%
%ADD51R,2.750000X1.200000*%
%ADD52RoundRect,0.250000X-0.337500X-0.475000X0.337500X-0.475000X0.337500X0.475000X-0.337500X0.475000X0*%
%ADD53RoundRect,0.237500X-0.250000X-0.237500X0.250000X-0.237500X0.250000X0.237500X-0.250000X0.237500X0*%
%ADD54RoundRect,0.237500X0.287500X0.237500X-0.287500X0.237500X-0.287500X-0.237500X0.287500X-0.237500X0*%
%ADD55R,2.400000X1.500000*%
%ADD56R,0.625000X0.250000*%
%ADD57R,0.700000X0.450000*%
%ADD58R,0.575000X0.450000*%
%ADD59RoundRect,0.237500X0.237500X-0.250000X0.237500X0.250000X-0.237500X0.250000X-0.237500X-0.250000X0*%
%ADD60RoundRect,0.150000X-0.150000X0.512500X-0.150000X-0.512500X0.150000X-0.512500X0.150000X0.512500X0*%
%ADD61RoundRect,0.250000X0.337500X0.475000X-0.337500X0.475000X-0.337500X-0.475000X0.337500X-0.475000X0*%
%ADD62R,0.700000X0.600000*%
%ADD63RoundRect,0.250000X-1.080000X0.595000X-1.080000X-0.595000X1.080000X-0.595000X1.080000X0.595000X0*%
%ADD64RoundRect,0.150000X-0.150000X0.687500X-0.150000X-0.687500X0.150000X-0.687500X0.150000X0.687500X0*%
%ADD65RoundRect,0.237500X0.237500X-0.287500X0.237500X0.287500X-0.237500X0.287500X-0.237500X-0.287500X0*%
%ADD66RoundRect,0.150000X-0.587500X-0.150000X0.587500X-0.150000X0.587500X0.150000X-0.587500X0.150000X0*%
%ADD67RoundRect,0.150000X0.150000X-0.512500X0.150000X0.512500X-0.150000X0.512500X-0.150000X-0.512500X0*%
%ADD68RoundRect,0.250000X-0.450000X0.350000X-0.450000X-0.350000X0.450000X-0.350000X0.450000X0.350000X0*%
%ADD69RoundRect,0.155000X0.212500X0.155000X-0.212500X0.155000X-0.212500X-0.155000X0.212500X-0.155000X0*%
%ADD70R,2.300000X4.500000*%
%ADD71RoundRect,0.237500X0.237500X-0.300000X0.237500X0.300000X-0.237500X0.300000X-0.237500X-0.300000X0*%
%ADD72R,3.000000X1.600000*%
%ADD73RoundRect,0.237500X-0.237500X0.300000X-0.237500X-0.300000X0.237500X-0.300000X0.237500X0.300000X0*%
%ADD74R,1.700000X1.000000*%
%ADD75R,2.100000X1.800000*%
%ADD76RoundRect,0.070000X-0.710000X-0.070000X0.710000X-0.070000X0.710000X0.070000X-0.710000X0.070000X0*%
%ADD77RoundRect,0.070000X-0.070000X-0.710000X0.070000X-0.710000X0.070000X0.710000X-0.070000X0.710000X0*%
%ADD78R,0.300000X2.600000*%
%ADD79R,1.800000X2.500000*%
%ADD80RoundRect,0.237500X-0.237500X0.287500X-0.237500X-0.287500X0.237500X-0.287500X0.237500X0.287500X0*%
%ADD81R,0.298000X0.700000*%
%ADD82R,0.998000X0.700000*%
%ADD83R,0.450000X0.600000*%
%ADD84R,1.295400X1.422400*%
G04 APERTURE END LIST*
D10*
%TO.C,D5*%
X253350000Y-186550000D02*
X252750000Y-186550000D01*
X252750000Y-186250000D01*
X253350000Y-186250000D01*
X253350000Y-186550000D01*
G36*
X253350000Y-186550000D02*
G01*
X252750000Y-186550000D01*
X252750000Y-186250000D01*
X253350000Y-186250000D01*
X253350000Y-186550000D01*
G37*
X253350000Y-185850000D02*
X252750000Y-185850000D01*
X252750000Y-185550000D01*
X253350000Y-185550000D01*
X253350000Y-185850000D01*
G36*
X253350000Y-185850000D02*
G01*
X252750000Y-185850000D01*
X252750000Y-185550000D01*
X253350000Y-185550000D01*
X253350000Y-185850000D01*
G37*
%TO.C,D4*%
X251600000Y-186550000D02*
X251000000Y-186550000D01*
X251000000Y-186250000D01*
X251600000Y-186250000D01*
X251600000Y-186550000D01*
G36*
X251600000Y-186550000D02*
G01*
X251000000Y-186550000D01*
X251000000Y-186250000D01*
X251600000Y-186250000D01*
X251600000Y-186550000D01*
G37*
X251600000Y-185850000D02*
X251000000Y-185850000D01*
X251000000Y-185550000D01*
X251600000Y-185550000D01*
X251600000Y-185850000D01*
G36*
X251600000Y-185850000D02*
G01*
X251000000Y-185850000D01*
X251000000Y-185550000D01*
X251600000Y-185550000D01*
X251600000Y-185850000D01*
G37*
%TO.C,D3*%
X256450000Y-179500000D02*
X255850000Y-179500000D01*
X255850000Y-179200000D01*
X256450000Y-179200000D01*
X256450000Y-179500000D01*
G36*
X256450000Y-179500000D02*
G01*
X255850000Y-179500000D01*
X255850000Y-179200000D01*
X256450000Y-179200000D01*
X256450000Y-179500000D01*
G37*
X256450000Y-178800000D02*
X255850000Y-178800000D01*
X255850000Y-178500000D01*
X256450000Y-178500000D01*
X256450000Y-178800000D01*
G36*
X256450000Y-178800000D02*
G01*
X255850000Y-178800000D01*
X255850000Y-178500000D01*
X256450000Y-178500000D01*
X256450000Y-178800000D01*
G37*
%TO.C,VR1*%
X217895000Y-185395000D02*
X216485000Y-185395000D01*
X216485000Y-183985000D01*
X217895000Y-183985000D01*
X217895000Y-185395000D01*
G36*
X217895000Y-185395000D02*
G01*
X216485000Y-185395000D01*
X216485000Y-183985000D01*
X217895000Y-183985000D01*
X217895000Y-185395000D01*
G37*
X217895000Y-187855000D02*
X216485000Y-187855000D01*
X216485000Y-186445000D01*
X217895000Y-186445000D01*
X217895000Y-187855000D01*
G36*
X217895000Y-187855000D02*
G01*
X216485000Y-187855000D01*
X216485000Y-186445000D01*
X217895000Y-186445000D01*
X217895000Y-187855000D01*
G37*
X217895000Y-190315000D02*
X216485000Y-190315000D01*
X216485000Y-188905000D01*
X217895000Y-188905000D01*
X217895000Y-190315000D01*
G36*
X217895000Y-190315000D02*
G01*
X216485000Y-190315000D01*
X216485000Y-188905000D01*
X217895000Y-188905000D01*
X217895000Y-190315000D01*
G37*
X220355000Y-185395000D02*
X218945000Y-185395000D01*
X218945000Y-183985000D01*
X220355000Y-183985000D01*
X220355000Y-185395000D01*
G36*
X220355000Y-185395000D02*
G01*
X218945000Y-185395000D01*
X218945000Y-183985000D01*
X220355000Y-183985000D01*
X220355000Y-185395000D01*
G37*
X220355000Y-187855000D02*
X218945000Y-187855000D01*
X218945000Y-186445000D01*
X220355000Y-186445000D01*
X220355000Y-187855000D01*
G36*
X220355000Y-187855000D02*
G01*
X218945000Y-187855000D01*
X218945000Y-186445000D01*
X220355000Y-186445000D01*
X220355000Y-187855000D01*
G37*
X220355000Y-190315000D02*
X218945000Y-190315000D01*
X218945000Y-188905000D01*
X220355000Y-188905000D01*
X220355000Y-190315000D01*
G36*
X220355000Y-190315000D02*
G01*
X218945000Y-190315000D01*
X218945000Y-188905000D01*
X220355000Y-188905000D01*
X220355000Y-190315000D01*
G37*
X222815000Y-185395000D02*
X221405000Y-185395000D01*
X221405000Y-183985000D01*
X222815000Y-183985000D01*
X222815000Y-185395000D01*
G36*
X222815000Y-185395000D02*
G01*
X221405000Y-185395000D01*
X221405000Y-183985000D01*
X222815000Y-183985000D01*
X222815000Y-185395000D01*
G37*
X222815000Y-187855000D02*
X221405000Y-187855000D01*
X221405000Y-186445000D01*
X222815000Y-186445000D01*
X222815000Y-187855000D01*
G36*
X222815000Y-187855000D02*
G01*
X221405000Y-187855000D01*
X221405000Y-186445000D01*
X222815000Y-186445000D01*
X222815000Y-187855000D01*
G37*
X222815000Y-190315000D02*
X221405000Y-190315000D01*
X221405000Y-188905000D01*
X222815000Y-188905000D01*
X222815000Y-190315000D01*
G36*
X222815000Y-190315000D02*
G01*
X221405000Y-190315000D01*
X221405000Y-188905000D01*
X222815000Y-188905000D01*
X222815000Y-190315000D01*
G37*
%TD*%
D11*
%TO.C,D8*%
X225074450Y-175100000D03*
X227525550Y-175100000D03*
%TD*%
D12*
%TO.C,Q6*%
X191450000Y-176075000D03*
X189550000Y-176075000D03*
X190500000Y-177950000D03*
%TD*%
D13*
%TO.C,C14*%
X232420000Y-141045000D03*
X232420000Y-143120000D03*
%TD*%
D14*
%TO.C,C31*%
X129100000Y-167132500D03*
X129100000Y-165997500D03*
%TD*%
D15*
%TO.C,C67*%
X240000000Y-108687500D03*
X240000000Y-106612500D03*
%TD*%
D16*
%TO.C,D17*%
X150200000Y-196000000D03*
X148800000Y-196000000D03*
%TD*%
D17*
%TO.C,R3*%
X275400000Y-204197500D03*
X275400000Y-203002500D03*
%TD*%
D18*
%TO.C,D25*%
X299797500Y-159600000D03*
X301547500Y-159600000D03*
%TD*%
D17*
%TO.C,R35*%
X136850000Y-173947500D03*
X136850000Y-172752500D03*
%TD*%
D19*
%TO.C,C75*%
X299777500Y-164600000D03*
X301502500Y-164600000D03*
%TD*%
D20*
%TO.C,C24*%
X135150000Y-166515000D03*
X135150000Y-167650000D03*
%TD*%
D14*
%TO.C,C32*%
X147600000Y-167417500D03*
X147600000Y-166282500D03*
%TD*%
D21*
%TO.C,U5*%
X141240000Y-174010000D03*
X142560000Y-174010000D03*
X141240000Y-172690000D03*
X142560000Y-172690000D03*
D22*
X140500000Y-175300000D03*
D23*
X140900000Y-175300000D03*
X141300000Y-175300000D03*
X141700000Y-175300000D03*
X142100000Y-175300000D03*
X142500000Y-175300000D03*
X142900000Y-175300000D03*
D24*
X143300000Y-175300000D03*
D25*
X143850000Y-174750000D03*
D26*
X143850000Y-174350000D03*
X143850000Y-173950000D03*
X143850000Y-173550000D03*
X143850000Y-173150000D03*
X143850000Y-172750000D03*
X143850000Y-172350000D03*
D27*
X143850000Y-171950000D03*
D28*
X143300000Y-171400000D03*
D23*
X142900000Y-171400000D03*
X142500000Y-171400000D03*
X142100000Y-171400000D03*
X141700000Y-171400000D03*
X141300000Y-171400000D03*
X140900000Y-171400000D03*
D29*
X140500000Y-171400000D03*
D30*
X139950000Y-171950000D03*
D26*
X139950000Y-172350000D03*
X139950000Y-172750000D03*
X139950000Y-173150000D03*
X139950000Y-173550000D03*
X139950000Y-173950000D03*
X139950000Y-174350000D03*
D31*
X139950000Y-174750000D03*
%TD*%
D32*
%TO.C,R62*%
X237747500Y-103400000D03*
X236552500Y-103400000D03*
%TD*%
D33*
%TO.C,U18*%
X170175000Y-165625000D03*
X169525000Y-165625000D03*
X168875000Y-165625000D03*
X168225000Y-165625000D03*
X167575000Y-165625000D03*
X166925000Y-165625000D03*
X166275000Y-165625000D03*
X165625000Y-165625000D03*
X164975000Y-165625000D03*
X164325000Y-165625000D03*
X163675000Y-165625000D03*
X163025000Y-165625000D03*
X162375000Y-165625000D03*
X161725000Y-165625000D03*
X161725000Y-172875000D03*
X162375000Y-172875000D03*
X163025000Y-172875000D03*
X163675000Y-172875000D03*
X164325000Y-172875000D03*
X164975000Y-172875000D03*
X165625000Y-172875000D03*
X166275000Y-172875000D03*
X166925000Y-172875000D03*
X167575000Y-172875000D03*
X168225000Y-172875000D03*
X168875000Y-172875000D03*
X169525000Y-172875000D03*
X170175000Y-172875000D03*
%TD*%
D34*
%TO.C,Y4*%
X271600000Y-197500000D03*
X271600000Y-188000000D03*
%TD*%
D19*
%TO.C,C94*%
X268837500Y-183150000D03*
X270562500Y-183150000D03*
%TD*%
D35*
%TO.C,J2*%
X230200000Y-201650000D03*
X231000000Y-201650000D03*
D36*
X232150000Y-201650000D03*
X233150000Y-201650000D03*
X233650000Y-201650000D03*
X234650000Y-201650000D03*
D35*
X236600000Y-201650000D03*
X235800000Y-201650000D03*
D36*
X235150000Y-201650000D03*
X234150000Y-201650000D03*
X232650000Y-201650000D03*
X231650000Y-201650000D03*
%TD*%
D37*
%TO.C,C41*%
X150032500Y-184100000D03*
X151167500Y-184100000D03*
%TD*%
D38*
%TO.C,D9*%
X230350000Y-181350000D03*
X234350000Y-181350000D03*
%TD*%
D39*
%TO.C,J20*%
X285650000Y-140875000D03*
X285400000Y-133325000D03*
X285150000Y-140875000D03*
X284900000Y-133325000D03*
X284650000Y-140875000D03*
X284400000Y-133325000D03*
X284150000Y-140875000D03*
X283900000Y-133325000D03*
X283650000Y-140875000D03*
X283400000Y-133325000D03*
X283150000Y-140875000D03*
X282900000Y-133325000D03*
X282650000Y-140875000D03*
X282400000Y-133325000D03*
X282150000Y-140875000D03*
X281900000Y-133325000D03*
X281650000Y-140875000D03*
X281400000Y-133325000D03*
X281150000Y-140875000D03*
X280900000Y-133325000D03*
X280650000Y-140875000D03*
X280400000Y-133325000D03*
X280150000Y-140875000D03*
X277900000Y-133325000D03*
X277650000Y-140875000D03*
X277400000Y-133325000D03*
X277150000Y-140875000D03*
X276900000Y-133325000D03*
X276650000Y-140875000D03*
X276400000Y-133325000D03*
X276150000Y-140875000D03*
X275900000Y-133325000D03*
X275650000Y-140875000D03*
X275400000Y-133325000D03*
X275150000Y-140875000D03*
X274900000Y-133325000D03*
X274650000Y-140875000D03*
X274400000Y-133325000D03*
X274150000Y-140875000D03*
X273900000Y-133325000D03*
X273650000Y-140875000D03*
X273400000Y-133325000D03*
X273150000Y-140875000D03*
X272900000Y-133325000D03*
X272650000Y-140875000D03*
X272400000Y-133325000D03*
X272150000Y-140875000D03*
X271900000Y-133325000D03*
X271650000Y-140875000D03*
X271400000Y-133325000D03*
X271150000Y-140875000D03*
X270900000Y-133325000D03*
X270650000Y-140875000D03*
X270400000Y-133325000D03*
X270150000Y-140875000D03*
X269900000Y-133325000D03*
X269650000Y-140875000D03*
X269400000Y-133325000D03*
X269150000Y-140875000D03*
X268900000Y-133325000D03*
X268650000Y-140875000D03*
X268400000Y-133325000D03*
X268150000Y-140875000D03*
X267900000Y-133325000D03*
X267650000Y-140875000D03*
X267400000Y-133325000D03*
X267150000Y-140875000D03*
D40*
X286750000Y-140100000D03*
X266050000Y-140100000D03*
%TD*%
D20*
%TO.C,C18*%
X261050000Y-193882500D03*
X261050000Y-195017500D03*
%TD*%
%TO.C,C56*%
X232112500Y-120382500D03*
X232112500Y-121517500D03*
%TD*%
D41*
%TO.C,U8*%
X164100000Y-183200000D03*
X164600000Y-183200000D03*
D42*
X165100000Y-183162500D03*
D41*
X165600000Y-183200000D03*
X166100000Y-183200000D03*
X166100000Y-182425000D03*
X165600000Y-182425000D03*
D43*
X165100000Y-182400000D03*
D41*
X164600000Y-182425000D03*
X164100000Y-182425000D03*
%TD*%
D13*
%TO.C,C61*%
X232262500Y-123262500D03*
X232262500Y-125337500D03*
%TD*%
D19*
%TO.C,C73*%
X299777500Y-162800000D03*
X301502500Y-162800000D03*
%TD*%
D44*
%TO.C,A1*%
X116950000Y-153100000D03*
X117200000Y-144900000D03*
X117450000Y-153100000D03*
X117700000Y-144900000D03*
X117950000Y-153100000D03*
X118200000Y-144900000D03*
X118450000Y-153100000D03*
X118700000Y-144900000D03*
X118950000Y-153100000D03*
X119200000Y-144900000D03*
X119450000Y-153100000D03*
X119700000Y-144900000D03*
X119950000Y-153100000D03*
X120200000Y-144900000D03*
X120450000Y-153100000D03*
X120700000Y-144900000D03*
X120950000Y-153100000D03*
X121200000Y-144900000D03*
X121450000Y-153100000D03*
X121700000Y-144900000D03*
X121950000Y-153100000D03*
X122200000Y-144900000D03*
X122450000Y-153100000D03*
X122700000Y-144900000D03*
X122950000Y-153100000D03*
X123200000Y-144900000D03*
X123450000Y-153100000D03*
X123700000Y-144900000D03*
X123950000Y-153100000D03*
X124200000Y-144900000D03*
X124450000Y-153100000D03*
X124700000Y-144900000D03*
X124950000Y-153100000D03*
X125200000Y-144900000D03*
X125450000Y-153100000D03*
X125700000Y-144900000D03*
X125950000Y-153100000D03*
X126200000Y-144900000D03*
X126450000Y-153100000D03*
X126700000Y-144900000D03*
X126950000Y-153100000D03*
X127200000Y-144900000D03*
X127450000Y-153100000D03*
X127700000Y-144900000D03*
X127950000Y-153100000D03*
X128200000Y-144900000D03*
X128450000Y-153100000D03*
X128700000Y-144900000D03*
X128950000Y-153100000D03*
X129200000Y-144900000D03*
X129450000Y-153100000D03*
X129700000Y-144900000D03*
X129950000Y-153100000D03*
X130200000Y-144900000D03*
X130450000Y-153100000D03*
X130700000Y-144900000D03*
X130950000Y-153100000D03*
X131200000Y-144900000D03*
X131450000Y-153100000D03*
X131700000Y-144900000D03*
X131950000Y-153100000D03*
X132200000Y-144900000D03*
X132450000Y-153100000D03*
X132700000Y-144900000D03*
X132950000Y-153100000D03*
X133200000Y-144900000D03*
X133450000Y-153100000D03*
X133700000Y-144900000D03*
X133950000Y-153100000D03*
X134200000Y-144900000D03*
X134450000Y-153100000D03*
X134700000Y-144900000D03*
X134950000Y-153100000D03*
X135200000Y-144900000D03*
X135450000Y-153100000D03*
X135700000Y-144900000D03*
X135950000Y-153100000D03*
X136200000Y-144900000D03*
X136450000Y-153100000D03*
X136700000Y-144900000D03*
X136950000Y-153100000D03*
X137200000Y-144900000D03*
X137450000Y-153100000D03*
X137700000Y-144900000D03*
X137950000Y-153100000D03*
X138200000Y-144900000D03*
X138450000Y-153100000D03*
X138700000Y-144900000D03*
X138950000Y-153100000D03*
X139200000Y-144900000D03*
X139450000Y-153100000D03*
X139700000Y-144900000D03*
X139950000Y-153100000D03*
X140200000Y-144900000D03*
X140450000Y-153100000D03*
X140700000Y-144900000D03*
X140950000Y-153100000D03*
X141200000Y-144900000D03*
X141450000Y-153100000D03*
X141700000Y-144900000D03*
X141950000Y-153100000D03*
X142200000Y-144900000D03*
X142450000Y-153100000D03*
X142700000Y-144900000D03*
X142950000Y-153100000D03*
X143200000Y-144900000D03*
X143450000Y-153100000D03*
X143700000Y-144900000D03*
X143950000Y-153100000D03*
X144200000Y-144900000D03*
X144450000Y-153100000D03*
X144700000Y-144900000D03*
X144950000Y-153100000D03*
X145200000Y-144900000D03*
X145450000Y-153100000D03*
X145700000Y-144900000D03*
X145950000Y-153100000D03*
X146200000Y-144900000D03*
X146450000Y-153100000D03*
X146700000Y-144900000D03*
X146950000Y-153100000D03*
X147200000Y-144900000D03*
X147450000Y-153100000D03*
X147700000Y-144900000D03*
X147950000Y-153100000D03*
X148200000Y-144900000D03*
X148450000Y-153100000D03*
X148700000Y-144900000D03*
X148950000Y-153100000D03*
X149200000Y-144900000D03*
X149450000Y-153100000D03*
X149700000Y-144900000D03*
X149950000Y-153100000D03*
X150200000Y-144900000D03*
X150450000Y-153100000D03*
X150700000Y-144900000D03*
X150950000Y-153100000D03*
X151200000Y-144900000D03*
X151450000Y-153100000D03*
X151700000Y-144900000D03*
X151950000Y-153100000D03*
X152200000Y-144900000D03*
X152450000Y-153100000D03*
X152700000Y-144900000D03*
X154950000Y-153100000D03*
X155200000Y-144900000D03*
X155450000Y-153100000D03*
X155700000Y-144900000D03*
X155950000Y-153100000D03*
X156200000Y-144900000D03*
X156450000Y-153100000D03*
X156700000Y-144900000D03*
X156950000Y-153100000D03*
X157200000Y-144900000D03*
X157450000Y-153100000D03*
X157700000Y-144900000D03*
X157950000Y-153100000D03*
X158200000Y-144900000D03*
X158450000Y-153100000D03*
X158700000Y-144900000D03*
X158950000Y-153100000D03*
X159200000Y-144900000D03*
X159450000Y-153100000D03*
X159700000Y-144900000D03*
X159950000Y-153100000D03*
X160200000Y-144900000D03*
X160450000Y-153100000D03*
X160700000Y-144900000D03*
X160950000Y-153100000D03*
X161200000Y-144900000D03*
X161450000Y-153100000D03*
X161700000Y-144900000D03*
X161950000Y-153100000D03*
X162200000Y-144900000D03*
X162450000Y-153100000D03*
X162700000Y-144900000D03*
X162950000Y-153100000D03*
X163200000Y-144900000D03*
X163450000Y-153100000D03*
X163700000Y-144900000D03*
X163950000Y-153100000D03*
X164200000Y-144900000D03*
X164450000Y-153100000D03*
X164700000Y-144900000D03*
X164950000Y-153100000D03*
X165200000Y-144900000D03*
X165450000Y-153100000D03*
X165700000Y-144900000D03*
X165950000Y-153100000D03*
X166200000Y-144900000D03*
X166450000Y-153100000D03*
X166700000Y-144900000D03*
X166950000Y-153100000D03*
X167200000Y-144900000D03*
X167450000Y-153100000D03*
X167700000Y-144900000D03*
X167950000Y-153100000D03*
X168200000Y-144900000D03*
X168450000Y-153100000D03*
X168700000Y-144900000D03*
X168950000Y-153100000D03*
X169200000Y-144900000D03*
X169450000Y-153100000D03*
X169700000Y-144900000D03*
X169950000Y-153100000D03*
X170200000Y-144900000D03*
X170450000Y-153100000D03*
X170700000Y-144900000D03*
X170950000Y-153100000D03*
X171200000Y-144900000D03*
X171450000Y-153100000D03*
X171700000Y-144900000D03*
X171950000Y-153100000D03*
X172200000Y-144900000D03*
X172450000Y-153100000D03*
X172700000Y-144900000D03*
X172950000Y-153100000D03*
X173200000Y-144900000D03*
X173450000Y-153100000D03*
X173700000Y-144900000D03*
X173950000Y-153100000D03*
X174200000Y-144900000D03*
X174450000Y-153100000D03*
X174700000Y-144900000D03*
X174950000Y-153100000D03*
X175200000Y-144900000D03*
X175450000Y-153100000D03*
X175700000Y-144900000D03*
X175950000Y-153100000D03*
X176200000Y-144900000D03*
X176450000Y-153100000D03*
X176700000Y-144900000D03*
X176950000Y-153100000D03*
X177200000Y-144900000D03*
X177450000Y-153100000D03*
X177700000Y-144900000D03*
X177950000Y-153100000D03*
X178200000Y-144900000D03*
X178450000Y-153100000D03*
X178700000Y-144900000D03*
X178950000Y-153100000D03*
X179200000Y-144900000D03*
X179450000Y-153100000D03*
X179700000Y-144900000D03*
X179950000Y-153100000D03*
X180200000Y-144900000D03*
X180450000Y-153100000D03*
X180700000Y-144900000D03*
X180950000Y-153100000D03*
X181200000Y-144900000D03*
X181450000Y-153100000D03*
X181700000Y-144900000D03*
X181950000Y-153100000D03*
X182200000Y-144900000D03*
X182450000Y-153100000D03*
X182700000Y-144900000D03*
X182950000Y-153100000D03*
X183200000Y-144900000D03*
X183450000Y-153100000D03*
X183700000Y-144900000D03*
D45*
X116525000Y-137000000D03*
X184125000Y-137000000D03*
%TD*%
D46*
%TO.C,R49*%
X189502500Y-180175000D03*
X190697500Y-180175000D03*
%TD*%
D15*
%TO.C,C20*%
X205600000Y-142800000D03*
X205600000Y-140725000D03*
%TD*%
D20*
%TO.C,C96*%
X207700000Y-192332500D03*
X207700000Y-193467500D03*
%TD*%
D47*
%TO.C,R37*%
X145850000Y-176952500D03*
X145850000Y-178147500D03*
%TD*%
D17*
%TO.C,R45*%
X194950000Y-188047500D03*
X194950000Y-186852500D03*
%TD*%
%TO.C,R9*%
X291400000Y-204097500D03*
X291400000Y-202902500D03*
%TD*%
D48*
%TO.C,C81*%
X189812500Y-106850000D03*
X188087500Y-106850000D03*
%TD*%
D13*
%TO.C,C44*%
X151700000Y-179462500D03*
X151700000Y-181537500D03*
%TD*%
D49*
%TO.C,D13*%
X291500000Y-206988100D03*
X293900000Y-206988100D03*
%TD*%
D50*
%TO.C,J18*%
X296950000Y-153150000D03*
X289400000Y-153400000D03*
X296950000Y-153650000D03*
X289400000Y-153900000D03*
X296950000Y-154150000D03*
X289400000Y-154400000D03*
X296950000Y-154650000D03*
X289400000Y-154900000D03*
X296950000Y-155150000D03*
X289400000Y-155400000D03*
X296950000Y-155650000D03*
X289400000Y-155900000D03*
X296950000Y-156150000D03*
X289400000Y-156400000D03*
X296950000Y-156650000D03*
X289400000Y-156900000D03*
X296950000Y-157150000D03*
X289400000Y-157400000D03*
X296950000Y-157650000D03*
X289400000Y-157900000D03*
X296950000Y-158150000D03*
X289400000Y-158400000D03*
X296950000Y-158650000D03*
X289400000Y-158900000D03*
X296950000Y-159150000D03*
X289400000Y-159400000D03*
X296950000Y-159650000D03*
X289400000Y-159900000D03*
X296950000Y-160150000D03*
X289400000Y-160400000D03*
X296950000Y-160650000D03*
X289400000Y-160900000D03*
X296950000Y-161150000D03*
X289400000Y-161400000D03*
X296950000Y-161650000D03*
X289400000Y-161900000D03*
X296950000Y-162150000D03*
X289400000Y-162400000D03*
X296950000Y-162650000D03*
X289400000Y-162900000D03*
X296950000Y-163150000D03*
X289400000Y-163400000D03*
X296950000Y-163650000D03*
X289400000Y-163900000D03*
X296950000Y-164150000D03*
X289400000Y-164400000D03*
X296950000Y-164650000D03*
X289400000Y-164900000D03*
X296950000Y-165150000D03*
X289400000Y-165400000D03*
X296950000Y-165650000D03*
X289400000Y-165900000D03*
X296950000Y-166150000D03*
X289400000Y-166400000D03*
X296950000Y-166650000D03*
X289400000Y-166900000D03*
X296950000Y-167150000D03*
X289400000Y-167400000D03*
X296950000Y-169650000D03*
X289400000Y-169900000D03*
X296950000Y-170150000D03*
X289400000Y-170400000D03*
X296950000Y-170650000D03*
X289400000Y-170900000D03*
X296950000Y-171150000D03*
X289400000Y-171400000D03*
X296950000Y-171650000D03*
D51*
X296175000Y-152050000D03*
X296175000Y-172750000D03*
%TD*%
D14*
%TO.C,C38*%
X134150000Y-183050000D03*
X134150000Y-181915000D03*
%TD*%
D32*
%TO.C,R53*%
X189447500Y-184000000D03*
X188252500Y-184000000D03*
%TD*%
D17*
%TO.C,R13*%
X212650000Y-183797500D03*
X212650000Y-182602500D03*
%TD*%
D32*
%TO.C,R11*%
X243597500Y-190000000D03*
X242402500Y-190000000D03*
%TD*%
D20*
%TO.C,C52*%
X194650000Y-180350000D03*
X194650000Y-181485000D03*
%TD*%
D52*
%TO.C,C63*%
X231375000Y-116200000D03*
X233450000Y-116200000D03*
%TD*%
D38*
%TO.C,D10*%
X230400000Y-185300000D03*
X234400000Y-185300000D03*
%TD*%
D17*
%TO.C,R34*%
X131450000Y-183047500D03*
X131450000Y-181852500D03*
%TD*%
D13*
%TO.C,C59*%
X236662500Y-123225000D03*
X236662500Y-125300000D03*
%TD*%
D46*
%TO.C,R41*%
X189952500Y-174150000D03*
X191147500Y-174150000D03*
%TD*%
D17*
%TO.C,R50*%
X202500000Y-187997500D03*
X202500000Y-186802500D03*
%TD*%
D46*
%TO.C,R10*%
X241366043Y-183108140D03*
X242561043Y-183108140D03*
%TD*%
D17*
%TO.C,R44*%
X192800000Y-188097500D03*
X192800000Y-186902500D03*
%TD*%
D16*
%TO.C,D23*%
X184150000Y-181050000D03*
X185550000Y-181050000D03*
%TD*%
D13*
%TO.C,C60*%
X234462500Y-123262500D03*
X234462500Y-125337500D03*
%TD*%
%TO.C,C58*%
X238862500Y-123212500D03*
X238862500Y-125287500D03*
%TD*%
%TO.C,C12*%
X234720000Y-141045000D03*
X234720000Y-143120000D03*
%TD*%
D52*
%TO.C,C71*%
X299760000Y-172800000D03*
X301835000Y-172800000D03*
%TD*%
D49*
%TO.C,D7*%
X283347500Y-206938100D03*
X285747500Y-206938100D03*
%TD*%
D17*
%TO.C,R48*%
X200550000Y-187997500D03*
X200550000Y-186802500D03*
%TD*%
D37*
%TO.C,C76*%
X299505000Y-166200000D03*
X300640000Y-166200000D03*
%TD*%
D53*
%TO.C,R6*%
X237350000Y-121350000D03*
X239175000Y-121350000D03*
%TD*%
D12*
%TO.C,Q1*%
X210900000Y-182925000D03*
X209000000Y-182925000D03*
X209950000Y-184800000D03*
%TD*%
D17*
%TO.C,R22*%
X247124242Y-195200814D03*
X247124242Y-194005814D03*
%TD*%
D54*
%TO.C,D12*%
X188050000Y-111950000D03*
X186300000Y-111950000D03*
%TD*%
D15*
%TO.C,C16*%
X239400000Y-143237500D03*
X239400000Y-141162500D03*
%TD*%
D55*
%TO.C,L4*%
X227662500Y-118950000D03*
X227662500Y-124450000D03*
%TD*%
D56*
%TO.C,U7*%
X155787500Y-185800000D03*
X155787500Y-185300000D03*
D57*
X155750000Y-184800000D03*
D56*
X155787500Y-184300000D03*
X155787500Y-183800000D03*
X155012500Y-183800000D03*
X155012500Y-184300000D03*
D58*
X154987500Y-184800000D03*
D56*
X155012500Y-185300000D03*
X155012500Y-185800000D03*
%TD*%
D15*
%TO.C,C11*%
X195850000Y-142887500D03*
X195850000Y-140812500D03*
%TD*%
D54*
%TO.C,D28*%
X188050000Y-115350000D03*
X186300000Y-115350000D03*
%TD*%
D20*
%TO.C,C51*%
X197450000Y-180350000D03*
X197450000Y-181485000D03*
%TD*%
D15*
%TO.C,C83*%
X237900000Y-108687500D03*
X237900000Y-106612500D03*
%TD*%
D37*
%TO.C,C36*%
X132682500Y-176650000D03*
X133817500Y-176650000D03*
%TD*%
D59*
%TO.C,R66*%
X285900000Y-188412500D03*
X285900000Y-186587500D03*
%TD*%
D17*
%TO.C,R38*%
X179000000Y-185147500D03*
X179000000Y-183952500D03*
%TD*%
D59*
%TO.C,R65*%
X287640000Y-188412500D03*
X287640000Y-186587500D03*
%TD*%
D17*
%TO.C,R15*%
X267800000Y-204197500D03*
X267800000Y-203002500D03*
%TD*%
D60*
%TO.C,U4*%
X204450000Y-145087500D03*
X203500000Y-145087500D03*
X202550000Y-145087500D03*
X202550000Y-147362500D03*
X203500000Y-147362500D03*
X204450000Y-147362500D03*
%TD*%
D20*
%TO.C,C25*%
X136550000Y-166532500D03*
X136550000Y-167667500D03*
%TD*%
D37*
%TO.C,C74*%
X299505000Y-167500000D03*
X300640000Y-167500000D03*
%TD*%
D46*
%TO.C,R27*%
X166202500Y-154850000D03*
X167397500Y-154850000D03*
%TD*%
D32*
%TO.C,R14*%
X242561043Y-181858140D03*
X241366043Y-181858140D03*
%TD*%
D61*
%TO.C,C6*%
X206937500Y-149512500D03*
X204862500Y-149512500D03*
%TD*%
D62*
%TO.C,D19*%
X161300000Y-186600000D03*
X161300000Y-188000000D03*
%TD*%
D32*
%TO.C,R26*%
X164947500Y-155000000D03*
X163752500Y-155000000D03*
%TD*%
D61*
%TO.C,C5*%
X233037500Y-134300000D03*
X230962500Y-134300000D03*
%TD*%
D53*
%TO.C,R61*%
X236787500Y-104800000D03*
X238612500Y-104800000D03*
%TD*%
D15*
%TO.C,C17*%
X203300000Y-142800000D03*
X203300000Y-140725000D03*
%TD*%
D20*
%TO.C,C49*%
X201050000Y-180350000D03*
X201050000Y-181485000D03*
%TD*%
D47*
%TO.C,R31*%
X118450000Y-168852500D03*
X118450000Y-170047500D03*
%TD*%
D17*
%TO.C,R25*%
X142650000Y-141947500D03*
X142650000Y-140752500D03*
%TD*%
D54*
%TO.C,D30*%
X188050000Y-118750000D03*
X186300000Y-118750000D03*
%TD*%
D49*
%TO.C,D6*%
X275497500Y-206938100D03*
X277897500Y-206938100D03*
%TD*%
D41*
%TO.C,U9*%
X205100000Y-192262500D03*
X204600000Y-192262500D03*
D42*
X204100000Y-192300000D03*
D41*
X203600000Y-192262500D03*
X203100000Y-192262500D03*
X203100000Y-193037500D03*
X203600000Y-193037500D03*
D43*
X204100000Y-193062500D03*
D41*
X204600000Y-193037500D03*
X205100000Y-193037500D03*
%TD*%
D20*
%TO.C,C34*%
X143950000Y-178182500D03*
X143950000Y-179317500D03*
%TD*%
D59*
%TO.C,R64*%
X289300000Y-188412500D03*
X289300000Y-186587500D03*
%TD*%
D63*
%TO.C,U2*%
X257050000Y-184437500D03*
D64*
X259050000Y-181800000D03*
X258050000Y-181800000D03*
X257050000Y-181800000D03*
X256050000Y-181800000D03*
X255050000Y-181800000D03*
X255050000Y-187075000D03*
X256050000Y-187075000D03*
X257050000Y-187075000D03*
X258050000Y-187075000D03*
X259050000Y-187075000D03*
%TD*%
D14*
%TO.C,C29*%
X146500000Y-167417500D03*
X146500000Y-166282500D03*
%TD*%
D20*
%TO.C,C66*%
X231050000Y-103932500D03*
X231050000Y-105067500D03*
%TD*%
D32*
%TO.C,R42*%
X191750000Y-193750000D03*
X190555000Y-193750000D03*
%TD*%
D17*
%TO.C,R43*%
X190950000Y-188097500D03*
X190950000Y-186902500D03*
%TD*%
D47*
%TO.C,R29*%
X120450000Y-165252500D03*
X120450000Y-166447500D03*
%TD*%
D15*
%TO.C,C13*%
X198150000Y-142887500D03*
X198150000Y-140812500D03*
%TD*%
D47*
%TO.C,R30*%
X118450000Y-163652500D03*
X118450000Y-164847500D03*
%TD*%
D14*
%TO.C,C33*%
X143600000Y-167100000D03*
X143600000Y-165965000D03*
%TD*%
D62*
%TO.C,D14*%
X259350000Y-193650000D03*
X259350000Y-195050000D03*
%TD*%
D33*
%TO.C,U17*%
X172275000Y-172825000D03*
X172925000Y-172825000D03*
X173575000Y-172825000D03*
X174225000Y-172825000D03*
X174875000Y-172825000D03*
X175525000Y-172825000D03*
X176175000Y-172825000D03*
X176825000Y-172825000D03*
X177475000Y-172825000D03*
X178125000Y-172825000D03*
X178775000Y-172825000D03*
X179425000Y-172825000D03*
X180075000Y-172825000D03*
X180725000Y-172825000D03*
X180725000Y-165575000D03*
X180075000Y-165575000D03*
X179425000Y-165575000D03*
X178775000Y-165575000D03*
X178125000Y-165575000D03*
X177475000Y-165575000D03*
X176825000Y-165575000D03*
X176175000Y-165575000D03*
X175525000Y-165575000D03*
X174875000Y-165575000D03*
X174225000Y-165575000D03*
X173575000Y-165575000D03*
X172925000Y-165575000D03*
X172275000Y-165575000D03*
%TD*%
D65*
%TO.C,F3*%
X149600000Y-181475000D03*
X149600000Y-179725000D03*
%TD*%
D14*
%TO.C,C27*%
X131600000Y-167132500D03*
X131600000Y-165997500D03*
%TD*%
D37*
%TO.C,C88*%
X212232500Y-86900000D03*
X213367500Y-86900000D03*
%TD*%
D20*
%TO.C,C53*%
X193650000Y-180350000D03*
X193650000Y-181485000D03*
%TD*%
D61*
%TO.C,C55*%
X237087500Y-99750000D03*
X235012500Y-99750000D03*
%TD*%
D62*
%TO.C,D2*%
X254200000Y-177237500D03*
X254200000Y-178637500D03*
%TD*%
D18*
%TO.C,D32*%
X186350000Y-122600000D03*
X188100000Y-122600000D03*
%TD*%
D61*
%TO.C,C64*%
X179437500Y-163200000D03*
X177362500Y-163200000D03*
%TD*%
D20*
%TO.C,C54*%
X177900000Y-196932500D03*
X177900000Y-198067500D03*
%TD*%
D66*
%TO.C,Q5*%
X180712500Y-183850000D03*
X180712500Y-185750000D03*
X182587500Y-184800000D03*
%TD*%
D20*
%TO.C,C48*%
X202050000Y-180350000D03*
X202050000Y-181485000D03*
%TD*%
%TO.C,C22*%
X118450000Y-171682500D03*
X118450000Y-172817500D03*
%TD*%
D15*
%TO.C,C92*%
X285900000Y-184387500D03*
X285900000Y-182312500D03*
%TD*%
D13*
%TO.C,C2*%
X294850000Y-143312500D03*
X294850000Y-145387500D03*
%TD*%
D46*
%TO.C,R39*%
X185452500Y-174250000D03*
X186647500Y-174250000D03*
%TD*%
D19*
%TO.C,C93*%
X268837500Y-181150000D03*
X270562500Y-181150000D03*
%TD*%
D52*
%TO.C,C72*%
X299760000Y-170600000D03*
X301835000Y-170600000D03*
%TD*%
%TO.C,C87*%
X289562500Y-199500000D03*
X291637500Y-199500000D03*
%TD*%
D17*
%TO.C,R46*%
X196750000Y-188047500D03*
X196750000Y-186852500D03*
%TD*%
D62*
%TO.C,D1*%
X252350000Y-178687500D03*
X252350000Y-177287500D03*
%TD*%
D12*
%TO.C,Q8*%
X189550000Y-185762500D03*
X187650000Y-185762500D03*
X188600000Y-187637500D03*
%TD*%
D49*
%TO.C,D27*%
X267847500Y-206938100D03*
X270247500Y-206938100D03*
%TD*%
D38*
%TO.C,D11*%
X230400000Y-189250000D03*
X234400000Y-189250000D03*
%TD*%
D15*
%TO.C,C19*%
X241700000Y-143237500D03*
X241700000Y-141162500D03*
%TD*%
D52*
%TO.C,C7*%
X236062500Y-134400000D03*
X238137500Y-134400000D03*
%TD*%
D32*
%TO.C,R58*%
X189947500Y-110250000D03*
X188752500Y-110250000D03*
%TD*%
D53*
%TO.C,R8*%
X258287500Y-189287500D03*
X260112500Y-189287500D03*
%TD*%
D18*
%TO.C,D31*%
X186350000Y-120950000D03*
X188100000Y-120950000D03*
%TD*%
D52*
%TO.C,C78*%
X202612500Y-96450000D03*
X204687500Y-96450000D03*
%TD*%
D20*
%TO.C,C8*%
X231900000Y-138132500D03*
X231900000Y-139267500D03*
%TD*%
D67*
%TO.C,U6*%
X232800000Y-104387500D03*
X233750000Y-104387500D03*
X234700000Y-104387500D03*
X234700000Y-102112500D03*
X233750000Y-102112500D03*
X232800000Y-102112500D03*
%TD*%
D68*
%TO.C,R63*%
X267600000Y-191850000D03*
X267600000Y-193850000D03*
%TD*%
D69*
%TO.C,C21*%
X249517500Y-195300000D03*
X248382500Y-195300000D03*
%TD*%
D13*
%TO.C,C85*%
X233700000Y-106612500D03*
X233700000Y-108687500D03*
%TD*%
D46*
%TO.C,R51*%
X184352500Y-179650000D03*
X185547500Y-179650000D03*
%TD*%
D70*
%TO.C,BT1*%
X118750005Y-197450000D03*
X118750005Y-181050000D03*
%TD*%
D47*
%TO.C,R21*%
X257850000Y-193752500D03*
X257850000Y-194947500D03*
%TD*%
D13*
%TO.C,C86*%
X231580000Y-106612500D03*
X231580000Y-108687500D03*
%TD*%
D47*
%TO.C,R2*%
X257950000Y-178590000D03*
X257950000Y-179785000D03*
%TD*%
D17*
%TO.C,R4*%
X283400000Y-204000000D03*
X283400000Y-202805000D03*
%TD*%
D55*
%TO.C,L3*%
X226800000Y-103050000D03*
X226800000Y-108550000D03*
%TD*%
D47*
%TO.C,R55*%
X290700000Y-174902500D03*
X290700000Y-176097500D03*
%TD*%
D17*
%TO.C,R54*%
X293700000Y-175997500D03*
X293700000Y-174802500D03*
%TD*%
D46*
%TO.C,R12*%
X242452500Y-191550000D03*
X243647500Y-191550000D03*
%TD*%
D61*
%TO.C,C95*%
X225037500Y-192350000D03*
X222962500Y-192350000D03*
%TD*%
D55*
%TO.C,L2*%
X210600000Y-146512500D03*
X210600000Y-141012500D03*
%TD*%
D71*
%TO.C,C70*%
X267600000Y-199012500D03*
X267600000Y-197287500D03*
%TD*%
D47*
%TO.C,R36*%
X132850000Y-181852500D03*
X132850000Y-183047500D03*
%TD*%
D16*
%TO.C,D21*%
X190450000Y-195050000D03*
X191850000Y-195050000D03*
%TD*%
D69*
%TO.C,C82*%
X187717500Y-105400000D03*
X186582500Y-105400000D03*
%TD*%
D72*
%TO.C,VR1*%
X226300000Y-189450000D03*
X226300000Y-184850000D03*
%TD*%
D15*
%TO.C,C89*%
X155800000Y-180637500D03*
X155800000Y-178562500D03*
%TD*%
D62*
%TO.C,D20*%
X159800000Y-186600000D03*
X159800000Y-188000000D03*
%TD*%
D69*
%TO.C,C37*%
X133867500Y-170600000D03*
X132732500Y-170600000D03*
%TD*%
D55*
%TO.C,L1*%
X227600000Y-137450000D03*
X227600000Y-142950000D03*
%TD*%
D52*
%TO.C,C68*%
X287262500Y-190800000D03*
X289337500Y-190800000D03*
%TD*%
D14*
%TO.C,C26*%
X132900000Y-167132500D03*
X132900000Y-165997500D03*
%TD*%
D13*
%TO.C,C90*%
X275600000Y-185962500D03*
X275600000Y-188037500D03*
%TD*%
D73*
%TO.C,C69*%
X267600000Y-185887500D03*
X267600000Y-187612500D03*
%TD*%
D52*
%TO.C,C39*%
X230025000Y-99750000D03*
X232100000Y-99750000D03*
%TD*%
D46*
%TO.C,R60*%
X189102500Y-105400000D03*
X190297500Y-105400000D03*
%TD*%
D12*
%TO.C,Q7*%
X187000000Y-176075000D03*
X185100000Y-176075000D03*
X186050000Y-177950000D03*
%TD*%
D47*
%TO.C,R28*%
X149850000Y-156052500D03*
X149850000Y-157247500D03*
%TD*%
D13*
%TO.C,C84*%
X235800000Y-106612500D03*
X235800000Y-108687500D03*
%TD*%
D74*
%TO.C,S1*%
X287300000Y-193400000D03*
X293600000Y-193400000D03*
X287300000Y-197200000D03*
X293600000Y-197200000D03*
%TD*%
D37*
%TO.C,C40*%
X150032500Y-183000000D03*
X151167500Y-183000000D03*
%TD*%
D32*
%TO.C,R23*%
X123247500Y-176650000D03*
X122052500Y-176650000D03*
%TD*%
D13*
%TO.C,C10*%
X237000000Y-141125000D03*
X237000000Y-143200000D03*
%TD*%
D32*
%TO.C,R18*%
X200847500Y-144750000D03*
X199652500Y-144750000D03*
%TD*%
D20*
%TO.C,C46*%
X205750000Y-180350000D03*
X205750000Y-181485000D03*
%TD*%
D13*
%TO.C,C57*%
X241042500Y-123225000D03*
X241042500Y-125300000D03*
%TD*%
D53*
%TO.C,R16*%
X237187500Y-139200000D03*
X239012500Y-139200000D03*
%TD*%
D32*
%TO.C,R17*%
X238197500Y-137700000D03*
X237002500Y-137700000D03*
%TD*%
D62*
%TO.C,D18*%
X146500000Y-183300000D03*
X146500000Y-184700000D03*
%TD*%
D20*
%TO.C,C47*%
X204750000Y-180350000D03*
X204750000Y-181485000D03*
%TD*%
D75*
%TO.C,Y1*%
X134650000Y-172450000D03*
X131750000Y-172450000D03*
X131750000Y-174750000D03*
X134650000Y-174750000D03*
%TD*%
D69*
%TO.C,C80*%
X187717500Y-104150000D03*
X186582500Y-104150000D03*
%TD*%
D14*
%TO.C,C28*%
X130400000Y-167132500D03*
X130400000Y-165997500D03*
%TD*%
D18*
%TO.C,F5*%
X177925000Y-195400000D03*
X179675000Y-195400000D03*
%TD*%
D46*
%TO.C,R59*%
X189102500Y-104250000D03*
X190297500Y-104250000D03*
%TD*%
D20*
%TO.C,C23*%
X137750000Y-179582500D03*
X137750000Y-180717500D03*
%TD*%
D61*
%TO.C,C77*%
X200537500Y-96450000D03*
X198462500Y-96450000D03*
%TD*%
D14*
%TO.C,C30*%
X142400000Y-167132500D03*
X142400000Y-165997500D03*
%TD*%
D32*
%TO.C,R56*%
X300695000Y-161200000D03*
X299500000Y-161200000D03*
%TD*%
D46*
%TO.C,R19*%
X199652500Y-145950000D03*
X200847500Y-145950000D03*
%TD*%
D52*
%TO.C,C65*%
X163162500Y-174900000D03*
X165237500Y-174900000D03*
%TD*%
D76*
%TO.C,U1*%
X276227500Y-191250000D03*
X276227500Y-191750000D03*
X276227500Y-192250000D03*
X276227500Y-192750000D03*
X276227500Y-193250000D03*
X276227500Y-193750000D03*
X276227500Y-194250000D03*
X276227500Y-194750000D03*
X276227500Y-195250000D03*
X276227500Y-195750000D03*
X276227500Y-196250000D03*
X276227500Y-196750000D03*
D77*
X277657500Y-198180000D03*
X278157500Y-198180000D03*
X278657500Y-198180000D03*
X279157500Y-198180000D03*
X279657500Y-198180000D03*
X280157500Y-198180000D03*
X280657500Y-198180000D03*
X281157500Y-198180000D03*
X281657500Y-198180000D03*
X282157500Y-198180000D03*
X282657500Y-198180000D03*
X283157500Y-198180000D03*
D76*
X284587500Y-196750000D03*
X284587500Y-196250000D03*
X284587500Y-195750000D03*
X284587500Y-195250000D03*
X284587500Y-194750000D03*
X284587500Y-194250000D03*
X284587500Y-193750000D03*
X284587500Y-193250000D03*
X284587500Y-192750000D03*
X284587500Y-192250000D03*
X284587500Y-191750000D03*
X284587500Y-191250000D03*
D77*
X283157500Y-189820000D03*
X282657500Y-189820000D03*
X282157500Y-189820000D03*
X281657500Y-189820000D03*
X281157500Y-189820000D03*
X280657500Y-189820000D03*
X280157500Y-189820000D03*
X279657500Y-189820000D03*
X279157500Y-189820000D03*
X278657500Y-189820000D03*
X278157500Y-189820000D03*
X277657500Y-189820000D03*
%TD*%
D20*
%TO.C,C50*%
X198450000Y-180350000D03*
X198450000Y-181485000D03*
%TD*%
D39*
%TO.C,J19*%
X193200000Y-99350000D03*
X193450000Y-106900000D03*
X193700000Y-99350000D03*
X193950000Y-106900000D03*
X194200000Y-99350000D03*
X194450000Y-106900000D03*
X194700000Y-99350000D03*
X194950000Y-106900000D03*
X195200000Y-99350000D03*
X195450000Y-106900000D03*
X195700000Y-99350000D03*
X195950000Y-106900000D03*
X196200000Y-99350000D03*
X196450000Y-106900000D03*
X196700000Y-99350000D03*
X196950000Y-106900000D03*
X197200000Y-99350000D03*
X197450000Y-106900000D03*
X197700000Y-99350000D03*
X197950000Y-106900000D03*
X198200000Y-99350000D03*
X198450000Y-106900000D03*
X198700000Y-99350000D03*
X200950000Y-106900000D03*
X201200000Y-99350000D03*
X201450000Y-106900000D03*
X201700000Y-99350000D03*
X201950000Y-106900000D03*
X202200000Y-99350000D03*
X202450000Y-106900000D03*
X202700000Y-99350000D03*
X202950000Y-106900000D03*
X203200000Y-99350000D03*
X203450000Y-106900000D03*
X203700000Y-99350000D03*
X203950000Y-106900000D03*
X204200000Y-99350000D03*
X204450000Y-106900000D03*
X204700000Y-99350000D03*
X204950000Y-106900000D03*
X205200000Y-99350000D03*
X205450000Y-106900000D03*
X205700000Y-99350000D03*
X205950000Y-106900000D03*
X206200000Y-99350000D03*
X206450000Y-106900000D03*
X206700000Y-99350000D03*
X206950000Y-106900000D03*
X207200000Y-99350000D03*
X207450000Y-106900000D03*
X207700000Y-99350000D03*
X207950000Y-106900000D03*
X208200000Y-99350000D03*
X208450000Y-106900000D03*
X208700000Y-99350000D03*
X208950000Y-106900000D03*
X209200000Y-99350000D03*
X209450000Y-106900000D03*
X209700000Y-99350000D03*
X209950000Y-106900000D03*
X210200000Y-99350000D03*
X210450000Y-106900000D03*
X210700000Y-99350000D03*
X210950000Y-106900000D03*
X211200000Y-99350000D03*
X211450000Y-106900000D03*
X211700000Y-99350000D03*
D40*
X192100000Y-100125000D03*
X212800000Y-100125000D03*
%TD*%
D18*
%TO.C,D33*%
X186350000Y-124250000D03*
X188100000Y-124250000D03*
%TD*%
D78*
%TO.C,J8*%
X205100000Y-197280000D03*
X204600000Y-197280000D03*
X204100000Y-197280000D03*
X203600000Y-197280000D03*
X203100000Y-197280000D03*
X202600000Y-197280000D03*
X202100000Y-197280000D03*
X201600000Y-197280000D03*
X201100000Y-197280000D03*
X200600000Y-197280000D03*
X200100000Y-197280000D03*
X199600000Y-197280000D03*
X199100000Y-197280000D03*
X198600000Y-197280000D03*
X198100000Y-197280000D03*
X197600000Y-197280000D03*
X197100000Y-197280000D03*
X196600000Y-197280000D03*
X196100000Y-197280000D03*
%TD*%
D32*
%TO.C,R20*%
X287860000Y-199100000D03*
X286665000Y-199100000D03*
%TD*%
D20*
%TO.C,C42*%
X151300000Y-186532500D03*
X151300000Y-187667500D03*
%TD*%
D17*
%TO.C,R24*%
X141250000Y-141947500D03*
X141250000Y-140752500D03*
%TD*%
%TO.C,R52*%
X204350000Y-187997500D03*
X204350000Y-186802500D03*
%TD*%
D79*
%TO.C,D22*%
X178700000Y-192950000D03*
X178700000Y-188950000D03*
%TD*%
D67*
%TO.C,U3*%
X233450000Y-138875000D03*
X234400000Y-138875000D03*
X235350000Y-138875000D03*
X235350000Y-136600000D03*
X234400000Y-136600000D03*
X233450000Y-136600000D03*
%TD*%
D16*
%TO.C,D24*%
X189400000Y-181775000D03*
X190800000Y-181775000D03*
%TD*%
D80*
%TO.C,F1*%
X157700000Y-178525000D03*
X157700000Y-180275000D03*
%TD*%
D61*
%TO.C,C62*%
X237537500Y-116200000D03*
X235462500Y-116200000D03*
%TD*%
D81*
%TO.C,J3*%
X178500000Y-200460000D03*
X179000000Y-200460000D03*
X179500000Y-200460000D03*
X180000000Y-200460000D03*
X180500000Y-200460000D03*
X181000000Y-200460000D03*
X182000000Y-200460000D03*
X182500000Y-200460000D03*
X183000000Y-200460000D03*
X183500000Y-200460000D03*
X184000000Y-200460000D03*
X184500000Y-200460000D03*
D82*
X184600000Y-201760000D03*
D81*
X183750000Y-201760000D03*
X183250000Y-201760000D03*
X182750000Y-201760000D03*
X182250000Y-201760000D03*
X181750000Y-201760000D03*
X181250000Y-201760000D03*
X180750000Y-201760000D03*
X180250000Y-201760000D03*
X179750000Y-201760000D03*
X179250000Y-201760000D03*
D82*
X178400000Y-201760000D03*
%TD*%
D17*
%TO.C,R47*%
X198800000Y-187997500D03*
X198800000Y-186802500D03*
%TD*%
D14*
%TO.C,C9*%
X206100000Y-145797500D03*
X206100000Y-144662500D03*
%TD*%
D13*
%TO.C,C3*%
X291350000Y-143212500D03*
X291350000Y-145287500D03*
%TD*%
D15*
%TO.C,C91*%
X275400000Y-183337500D03*
X275400000Y-181262500D03*
%TD*%
D54*
%TO.C,D26*%
X188050000Y-113650000D03*
X186300000Y-113650000D03*
%TD*%
D32*
%TO.C,R57*%
X207647500Y-97350000D03*
X206452500Y-97350000D03*
%TD*%
D46*
%TO.C,R1*%
X255352500Y-189637500D03*
X256547500Y-189637500D03*
%TD*%
D18*
%TO.C,D34*%
X186350000Y-125900000D03*
X188100000Y-125900000D03*
%TD*%
D32*
%TO.C,R7*%
X239410000Y-119887500D03*
X238215000Y-119887500D03*
%TD*%
D16*
%TO.C,D15*%
X249850000Y-193800000D03*
X248450000Y-193800000D03*
%TD*%
D41*
%TO.C,U10*%
X201600000Y-192262500D03*
X201100000Y-192262500D03*
D42*
X200600000Y-192300000D03*
D41*
X200100000Y-192262500D03*
X199600000Y-192262500D03*
X199600000Y-193037500D03*
X200100000Y-193037500D03*
D43*
X200600000Y-193062500D03*
D41*
X201100000Y-193037500D03*
X201600000Y-193037500D03*
%TD*%
D67*
%TO.C,U11*%
X233712500Y-121187500D03*
X234662500Y-121187500D03*
X235612500Y-121187500D03*
X235612500Y-118912500D03*
X234662500Y-118912500D03*
X233712500Y-118912500D03*
%TD*%
D83*
%TO.C,D16*%
X120450000Y-170100000D03*
X120450000Y-168000000D03*
%TD*%
D47*
%TO.C,R33*%
X138050000Y-166502500D03*
X138050000Y-167697500D03*
%TD*%
D32*
%TO.C,R40*%
X191750000Y-192450000D03*
X190555000Y-192450000D03*
%TD*%
D15*
%TO.C,C15*%
X201000000Y-142800000D03*
X201000000Y-140725000D03*
%TD*%
D20*
%TO.C,C43*%
X149900000Y-186500000D03*
X149900000Y-187635000D03*
%TD*%
D73*
%TO.C,C35*%
X140150000Y-178987500D03*
X140150000Y-180712500D03*
%TD*%
D84*
%TO.C,Y2*%
X272400000Y-181157800D03*
X272400000Y-183342200D03*
%TD*%
D47*
%TO.C,R32*%
X139450000Y-166502500D03*
X139450000Y-167697500D03*
%TD*%
D66*
%TO.C,Q3*%
X245725000Y-189750000D03*
X245725000Y-191650000D03*
X247600000Y-190700000D03*
%TD*%
D52*
%TO.C,C4*%
X200112500Y-149550000D03*
X202187500Y-149550000D03*
%TD*%
D20*
%TO.C,C1*%
X259250000Y-178620000D03*
X259250000Y-179755000D03*
%TD*%
D48*
%TO.C,C79*%
X189812500Y-108650000D03*
X188087500Y-108650000D03*
%TD*%
D54*
%TO.C,D29*%
X188050000Y-117050000D03*
X186300000Y-117050000D03*
%TD*%
D17*
%TO.C,R5*%
X227750000Y-178397500D03*
X227750000Y-177202500D03*
%TD*%
M02*
