%TF.GenerationSoftware,KiCad,Pcbnew,9.0.2-9.0.2-0~ubuntu22.04.1*%
%TF.CreationDate,2025-07-08T19:29:47+05:30*%
%TF.ProjectId,RFID,52464944-2e6b-4696-9361-645f70636258,rev?*%
%TF.SameCoordinates,Original*%
%TF.FileFunction,Soldermask,Bot*%
%TF.FilePolarity,Negative*%
%FSLAX46Y46*%
G04 Gerber Fmt 4.6, Leading zero omitted, Abs format (unit mm)*
G04 Created by KiCad (PCBNEW 9.0.2-9.0.2-0~ubuntu22.04.1) date 2025-07-08 19:29:47*
%MOMM*%
%LPD*%
G01*
G04 APERTURE LIST*
G04 Aperture macros list*
%AMRoundRect*
0 Rectangle with rounded corners*
0 $1 Rounding radius*
0 $2 $3 $4 $5 $6 $7 $8 $9 X,Y pos of 4 corners*
0 Add a 4 corners polygon primitive as box body*
4,1,4,$2,$3,$4,$5,$6,$7,$8,$9,$2,$3,0*
0 Add four circle primitives for the rounded corners*
1,1,$1+$1,$2,$3*
1,1,$1+$1,$4,$5*
1,1,$1+$1,$6,$7*
1,1,$1+$1,$8,$9*
0 Add four rect primitives between the rounded corners*
20,1,$1+$1,$2,$3,$4,$5,0*
20,1,$1+$1,$4,$5,$6,$7,0*
20,1,$1+$1,$6,$7,$8,$9,0*
20,1,$1+$1,$8,$9,$2,$3,0*%
G04 Aperture macros list end*
%ADD10C,0.800000*%
%ADD11C,5.400000*%
%ADD12C,3.250000*%
%ADD13RoundRect,0.102000X0.699000X0.699000X-0.699000X0.699000X-0.699000X-0.699000X0.699000X-0.699000X0*%
%ADD14C,1.602000*%
%ADD15C,1.734000*%
%ADD16C,2.649000*%
%ADD17C,1.702000*%
%ADD18C,2.154000*%
%ADD19C,0.600000*%
%ADD20O,1.104000X2.204000*%
%ADD21O,1.104000X1.904000*%
%ADD22C,1.150000*%
%ADD23C,1.650000*%
%ADD24RoundRect,0.102000X-0.787500X-0.787500X0.787500X-0.787500X0.787500X0.787500X-0.787500X0.787500X0*%
%ADD25C,1.779000*%
%ADD26C,1.100000*%
%ADD27C,1.600000*%
%ADD28C,5.000000*%
%ADD29RoundRect,0.250000X0.725000X-0.600000X0.725000X0.600000X-0.725000X0.600000X-0.725000X-0.600000X0*%
%ADD30O,1.950000X1.700000*%
%ADD31R,1.200000X1.200000*%
%ADD32C,1.200000*%
%ADD33C,3.500000*%
%ADD34R,1.700000X1.700000*%
%ADD35C,1.700000*%
%ADD36C,1.050000*%
%ADD37C,1.300000*%
%ADD38O,1.700000X1.700000*%
%ADD39O,2.554000X4.904000*%
%ADD40O,4.204000X2.204000*%
%ADD41O,1.500000X3.300000*%
%ADD42O,1.500000X2.300000*%
%ADD43O,1.188400X2.252400*%
%ADD44O,1.252400X2.752400*%
G04 APERTURE END LIST*
D10*
%TO.C,H6*%
X298575000Y-204600000D03*
X299168109Y-203168109D03*
X299168109Y-206031891D03*
X300600000Y-202575000D03*
D11*
X300600000Y-204600000D03*
D10*
X300600000Y-206625000D03*
X302031891Y-203168109D03*
X302031891Y-206031891D03*
X302625000Y-204600000D03*
%TD*%
%TO.C,H10*%
X170175000Y-204600000D03*
X170768109Y-203168109D03*
X170768109Y-206031891D03*
X172200000Y-202575000D03*
D11*
X172200000Y-204600000D03*
D10*
X172200000Y-206625000D03*
X173631891Y-203168109D03*
X173631891Y-206031891D03*
X174225000Y-204600000D03*
%TD*%
D12*
%TO.C,J7*%
X143215000Y-198130000D03*
X131785000Y-198130000D03*
D13*
X131780000Y-189240000D03*
D14*
X133060000Y-191780000D03*
X134320000Y-189240000D03*
X135600000Y-191780000D03*
X136860000Y-189240000D03*
X138140000Y-191780000D03*
X139400000Y-189240000D03*
X140680000Y-191780000D03*
X141940000Y-189240000D03*
X143220000Y-191780000D03*
D15*
X130875000Y-203030000D03*
X133415000Y-203030000D03*
X141585000Y-203030000D03*
X144125000Y-203030000D03*
D16*
X129755000Y-195080000D03*
X145245000Y-195080000D03*
%TD*%
D17*
%TO.C,SW1*%
X258850000Y-202100000D03*
X263350000Y-202100000D03*
D18*
X257595000Y-199610000D03*
X264605000Y-199610000D03*
%TD*%
D10*
%TO.C,H3*%
X112400000Y-206625000D03*
X110968109Y-206031891D03*
X113831891Y-206031891D03*
X110375000Y-204600000D03*
D11*
X112400000Y-204600000D03*
D10*
X114425000Y-204600000D03*
X110968109Y-203168109D03*
X113831891Y-203168109D03*
X112400000Y-202575000D03*
%TD*%
%TO.C,H5*%
X298575000Y-85600000D03*
X299168109Y-84168109D03*
X299168109Y-87031891D03*
X300600000Y-83575000D03*
D11*
X300600000Y-85600000D03*
D10*
X300600000Y-87625000D03*
X302031891Y-84168109D03*
X302031891Y-87031891D03*
X302625000Y-85600000D03*
%TD*%
D19*
%TO.C,J2*%
X230510000Y-202720000D03*
X236290000Y-202720000D03*
D20*
X229075000Y-202230000D03*
X237725000Y-202230000D03*
D21*
X229075000Y-206400000D03*
X237725000Y-206400000D03*
%TD*%
D22*
%TO.C,J20*%
X286400000Y-135600000D03*
D23*
X266400000Y-135600000D03*
%TD*%
D24*
%TO.C,J10*%
X218650000Y-91425000D03*
D25*
X216150000Y-91425000D03*
%TD*%
D26*
%TO.C,A1*%
X184725000Y-149000000D03*
D27*
X115925000Y-149000000D03*
%TD*%
D26*
%TO.C,J18*%
X291675000Y-152400000D03*
D27*
X291675000Y-172400000D03*
%TD*%
D28*
%TO.C,H9*%
X182200000Y-92800000D03*
%TD*%
D24*
%TO.C,J6*%
X209617500Y-91425000D03*
D25*
X207117500Y-91425000D03*
%TD*%
D29*
%TO.C,M1*%
X113750000Y-173200000D03*
D30*
X113750000Y-170700000D03*
X113750000Y-168200000D03*
X113750000Y-165700000D03*
%TD*%
D28*
%TO.C,H1*%
X275700000Y-95500000D03*
%TD*%
D31*
%TO.C,J9*%
X157099999Y-196090000D03*
D32*
X159599999Y-196090000D03*
X161599999Y-196090000D03*
X164099999Y-196090000D03*
X164599999Y-194590000D03*
X162599999Y-194590000D03*
X160599999Y-194590000D03*
X158599999Y-194590000D03*
X156599999Y-194590000D03*
X157099999Y-192890000D03*
X159599999Y-192890000D03*
X161599999Y-192890000D03*
X164099999Y-192890000D03*
X164599999Y-191390000D03*
X162599999Y-191390000D03*
X160599999Y-191390000D03*
X158599999Y-191390000D03*
X156599999Y-191390000D03*
D33*
X154029999Y-192410000D03*
X154029999Y-198090000D03*
X167169999Y-192410000D03*
X167169999Y-198090000D03*
%TD*%
D28*
%TO.C,H8*%
X213800000Y-162400000D03*
%TD*%
D34*
%TO.C,J13*%
X279100000Y-185440000D03*
D35*
X279100000Y-182900000D03*
X279100000Y-180360000D03*
%TD*%
D36*
%TO.C,BT1*%
X118750005Y-192750000D03*
D37*
X118750005Y-185300000D03*
%TD*%
D10*
%TO.C,H11*%
X230443109Y-158518109D03*
X231036218Y-157086218D03*
X231036218Y-159950000D03*
X232468109Y-156493109D03*
D11*
X232468109Y-158518109D03*
D10*
X232468109Y-160543109D03*
X233900000Y-157086218D03*
X233900000Y-159950000D03*
X234493109Y-158518109D03*
%TD*%
D34*
%TO.C,J4*%
X112550000Y-158150000D03*
D38*
X115090000Y-158150000D03*
X117630000Y-158150000D03*
%TD*%
D10*
%TO.C,H4*%
X110375000Y-85600000D03*
X110968109Y-84168109D03*
X110968109Y-87031891D03*
X112400000Y-83575000D03*
D11*
X112400000Y-85600000D03*
D10*
X112400000Y-87625000D03*
X113831891Y-84168109D03*
X113831891Y-87031891D03*
X114425000Y-85600000D03*
%TD*%
D34*
%TO.C,J11*%
X292900000Y-182680000D03*
D35*
X292900000Y-185220000D03*
X292900000Y-187760000D03*
X292900000Y-190300000D03*
%TD*%
D39*
%TO.C,J1*%
X223110000Y-198050000D03*
D40*
X218310000Y-201550000D03*
X218310000Y-195550000D03*
%TD*%
D22*
%TO.C,J19*%
X192450000Y-104625000D03*
D23*
X212450000Y-104625000D03*
%TD*%
D41*
%TO.C,J8*%
X207850000Y-198040000D03*
X193350000Y-198040000D03*
D42*
X207850000Y-204000000D03*
X193350000Y-204000000D03*
%TD*%
D43*
%TO.C,J3*%
X177180000Y-200870000D03*
X185820000Y-200870000D03*
D44*
X177180000Y-206230000D03*
X185820000Y-206230000D03*
%TD*%
D28*
%TO.C,H7*%
X202100000Y-131300000D03*
%TD*%
D10*
%TO.C,H12*%
X223750000Y-88750000D03*
X224343109Y-87318109D03*
X224343109Y-90181891D03*
X225775000Y-86725000D03*
D11*
X225775000Y-88750000D03*
D10*
X225775000Y-90775000D03*
X227206891Y-87318109D03*
X227206891Y-90181891D03*
X227800000Y-88750000D03*
%TD*%
D34*
%TO.C,J12*%
X282810000Y-185440000D03*
D35*
X282810000Y-182900000D03*
X282810000Y-180360000D03*
%TD*%
D28*
%TO.C,H2*%
X118600000Y-92800000D03*
%TD*%
D27*
%TO.C,J5*%
X190700000Y-83650000D03*
X202500000Y-83650000D03*
%TD*%
D17*
%TO.C,SW2*%
X246550000Y-200622500D03*
X251050000Y-200622500D03*
D18*
X245295000Y-198132500D03*
X252305000Y-198132500D03*
%TD*%
M02*
