%TF.GenerationSoftware,KiCad,Pcbnew,8.0.7-8.0.7-0~ubuntu22.04.1*%
%TF.CreationDate,2025-02-17T13:04:05+05:30*%
%TF.ProjectId,RFID_pico,52464944-5f70-4696-936f-2e6b69636164,rev?*%
%TF.SameCoordinates,Original*%
%TF.FileFunction,Soldermask,Top*%
%TF.FilePolarity,Negative*%
%FSLAX46Y46*%
G04 Gerber Fmt 4.6, Leading zero omitted, Abs format (unit mm)*
G04 Created by KiCad (PCBNEW 8.0.7-8.0.7-0~ubuntu22.04.1) date 2025-02-17 13:04:05*
%MOMM*%
%LPD*%
G01*
G04 APERTURE LIST*
G04 Aperture macros list*
%AMRoundRect*
0 Rectangle with rounded corners*
0 $1 Rounding radius*
0 $2 $3 $4 $5 $6 $7 $8 $9 X,Y pos of 4 corners*
0 Add a 4 corners polygon primitive as box body*
4,1,4,$2,$3,$4,$5,$6,$7,$8,$9,$2,$3,0*
0 Add four circle primitives for the rounded corners*
1,1,$1+$1,$2,$3*
1,1,$1+$1,$4,$5*
1,1,$1+$1,$6,$7*
1,1,$1+$1,$8,$9*
0 Add four rect primitives between the rounded corners*
20,1,$1+$1,$2,$3,$4,$5,0*
20,1,$1+$1,$4,$5,$6,$7,0*
20,1,$1+$1,$6,$7,$8,$9,0*
20,1,$1+$1,$8,$9,$2,$3,0*%
%AMFreePoly0*
4,1,19,0.500000,-0.750000,0.000000,-0.750000,0.000000,-0.744911,-0.071157,-0.744911,-0.207708,-0.704816,-0.327430,-0.627875,-0.420627,-0.520320,-0.479746,-0.390866,-0.500000,-0.250000,-0.500000,0.250000,-0.479746,0.390866,-0.420627,0.520320,-0.327430,0.627875,-0.207708,0.704816,-0.071157,0.744911,0.000000,0.744911,0.000000,0.750000,0.500000,0.750000,0.500000,-0.750000,0.500000,-0.750000,
$1*%
%AMFreePoly1*
4,1,19,0.000000,0.744911,0.071157,0.744911,0.207708,0.704816,0.327430,0.627875,0.420627,0.520320,0.479746,0.390866,0.500000,0.250000,0.500000,-0.250000,0.479746,-0.390866,0.420627,-0.520320,0.327430,-0.627875,0.207708,-0.704816,0.071157,-0.744911,0.000000,-0.744911,0.000000,-0.750000,-0.500000,-0.750000,-0.500000,0.750000,0.000000,0.750000,0.000000,0.744911,0.000000,0.744911,
$1*%
G04 Aperture macros list end*
%ADD10RoundRect,0.100000X-0.225000X-0.100000X0.225000X-0.100000X0.225000X0.100000X-0.225000X0.100000X0*%
%ADD11R,0.254000X0.711200*%
%ADD12R,0.711200X0.254000*%
%ADD13R,1.803400X1.803400*%
%ADD14RoundRect,0.102000X0.500000X-0.525000X0.500000X0.525000X-0.500000X0.525000X-0.500000X-0.525000X0*%
%ADD15RoundRect,0.102000X0.525000X-1.100000X0.525000X1.100000X-0.525000X1.100000X-0.525000X-1.100000X0*%
%ADD16RoundRect,0.100000X0.100000X-0.225000X0.100000X0.225000X-0.100000X0.225000X-0.100000X-0.225000X0*%
%ADD17RoundRect,0.140000X-0.170000X0.140000X-0.170000X-0.140000X0.170000X-0.140000X0.170000X0.140000X0*%
%ADD18RoundRect,0.147500X0.172500X-0.147500X0.172500X0.147500X-0.172500X0.147500X-0.172500X-0.147500X0*%
%ADD19R,1.000000X1.000000*%
%ADD20RoundRect,0.140000X-0.140000X-0.170000X0.140000X-0.170000X0.140000X0.170000X-0.140000X0.170000X0*%
%ADD21RoundRect,0.140000X0.170000X-0.140000X0.170000X0.140000X-0.170000X0.140000X-0.170000X-0.140000X0*%
%ADD22FreePoly0,0.000000*%
%ADD23FreePoly1,0.000000*%
%ADD24R,0.350000X1.450000*%
%ADD25RoundRect,0.147500X-0.172500X0.147500X-0.172500X-0.147500X0.172500X-0.147500X0.172500X0.147500X0*%
%ADD26FreePoly0,270.000000*%
%ADD27FreePoly1,270.000000*%
%ADD28RoundRect,0.212500X-0.752500X-0.212500X0.752500X-0.212500X0.752500X0.212500X-0.752500X0.212500X0*%
%ADD29RoundRect,0.212500X-0.212500X0.752500X-0.212500X-0.752500X0.212500X-0.752500X0.212500X0.752500X0*%
%ADD30RoundRect,0.225000X-0.225000X0.225000X-0.225000X-0.225000X0.225000X-0.225000X0.225000X0.225000X0*%
%ADD31R,2.925000X5.575000*%
%ADD32R,8.120000X4.275000*%
%ADD33R,4.500000X4.500000*%
%ADD34RoundRect,0.140000X0.140000X0.170000X-0.140000X0.170000X-0.140000X-0.170000X0.140000X-0.170000X0*%
%ADD35O,1.000000X1.000000*%
%ADD36RoundRect,0.147500X-0.147500X-0.172500X0.147500X-0.172500X0.147500X0.172500X-0.147500X0.172500X0*%
G04 APERTURE END LIST*
D10*
%TO.C,U3*%
X170250000Y-73150000D03*
X170250000Y-73800000D03*
X170250000Y-74450000D03*
X172150000Y-74450000D03*
X172150000Y-73150000D03*
%TD*%
D11*
%TO.C,U1*%
X155650189Y-68152200D03*
X155150063Y-68152200D03*
X154649937Y-68152200D03*
X154149811Y-68152200D03*
D12*
X153452200Y-68849811D03*
X153452200Y-69349937D03*
X153452200Y-69850063D03*
X153452200Y-70350189D03*
D11*
X154149811Y-71047800D03*
X154649937Y-71047800D03*
X155150063Y-71047800D03*
X155650189Y-71047800D03*
D12*
X156347800Y-70350189D03*
X156347800Y-69850063D03*
X156347800Y-69349937D03*
X156347800Y-68849811D03*
D13*
X154900000Y-69600000D03*
%TD*%
D14*
%TO.C,J8*%
X143300000Y-62125000D03*
D15*
X141825000Y-60600000D03*
X144775000Y-60600000D03*
%TD*%
D14*
%TO.C,J6*%
X149650000Y-62125000D03*
D15*
X148175000Y-60600000D03*
X151125000Y-60600000D03*
%TD*%
D16*
%TO.C,IC1*%
X144150000Y-77750000D03*
X144800000Y-77750000D03*
X145450000Y-77750000D03*
X145450000Y-75850000D03*
X144150000Y-75850000D03*
%TD*%
D17*
%TO.C,C9*%
X173870000Y-72870000D03*
X173870000Y-73830000D03*
%TD*%
D18*
%TO.C,R7*%
X146500000Y-74485000D03*
X146500000Y-73515000D03*
%TD*%
D19*
%TO.C,TP3*%
X169300000Y-89800000D03*
%TD*%
D20*
%TO.C,C8*%
X171470000Y-76300000D03*
X172430000Y-76300000D03*
%TD*%
D21*
%TO.C,C4*%
X162300000Y-66800000D03*
X162300000Y-65840000D03*
%TD*%
D22*
%TO.C,JP4*%
X148240000Y-72390000D03*
D23*
X149540000Y-72390000D03*
%TD*%
D24*
%TO.C,J7*%
X166480000Y-102430000D03*
X165980000Y-102430000D03*
X165480000Y-102430000D03*
X164980000Y-102430000D03*
X164480000Y-102430000D03*
X163980000Y-102430000D03*
X163480000Y-102430000D03*
X162980000Y-102430000D03*
X162480000Y-102430000D03*
X161980000Y-102430000D03*
X161480000Y-102430000D03*
X160980000Y-102430000D03*
X158480000Y-102430000D03*
X157980000Y-102430000D03*
X157480000Y-102430000D03*
X156980000Y-102430000D03*
X156480000Y-102430000D03*
X155980000Y-102430000D03*
X155480000Y-102430000D03*
X154980000Y-102430000D03*
X154480000Y-102430000D03*
X153980000Y-102430000D03*
X153480000Y-102430000D03*
X152980000Y-102430000D03*
X152480000Y-102430000D03*
X151980000Y-102430000D03*
X151480000Y-102430000D03*
X150980000Y-102430000D03*
X150480000Y-102430000D03*
X149980000Y-102430000D03*
X149480000Y-102430000D03*
X148980000Y-102430000D03*
X148480000Y-102430000D03*
X147980000Y-102430000D03*
%TD*%
D18*
%TO.C,L8*%
X170900000Y-64585000D03*
X170900000Y-63615000D03*
%TD*%
D19*
%TO.C,TP1*%
X172400000Y-70800000D03*
%TD*%
D25*
%TO.C,R9*%
X145450000Y-73565000D03*
X145450000Y-74535000D03*
%TD*%
D18*
%TO.C,L4*%
X148575000Y-68225000D03*
X148575000Y-67255000D03*
%TD*%
D26*
%TO.C,JP3*%
X142050000Y-79325000D03*
D27*
X142050000Y-80625000D03*
%TD*%
D18*
%TO.C,R6*%
X142700000Y-77710000D03*
X142700000Y-76740000D03*
%TD*%
D28*
%TO.C,U2*%
X148600000Y-78550000D03*
X148600000Y-79800000D03*
X148600000Y-81050000D03*
X148600000Y-82300000D03*
X148600000Y-83550000D03*
X148600000Y-84800000D03*
X148600000Y-86050000D03*
X148600000Y-87300000D03*
X148600000Y-88550000D03*
X148600000Y-89800000D03*
X148600000Y-91050000D03*
X148600000Y-92300000D03*
X148600000Y-93550000D03*
X148600000Y-94800000D03*
X148600000Y-96050000D03*
X166600000Y-96050000D03*
X166600000Y-94800000D03*
X166600000Y-93550000D03*
X166600000Y-92300000D03*
X166600000Y-91050000D03*
X166600000Y-89800000D03*
X166600000Y-88550000D03*
X166600000Y-87300000D03*
X166600000Y-86050000D03*
X166600000Y-84800000D03*
X166600000Y-83550000D03*
X166600000Y-82300000D03*
X166600000Y-81050000D03*
X166600000Y-79800000D03*
X166600000Y-78550000D03*
D29*
X163850000Y-76300000D03*
X162600000Y-76300000D03*
X161350000Y-76300000D03*
X160100000Y-76300000D03*
X158850000Y-76300000D03*
X157600000Y-76300000D03*
X156350000Y-76300000D03*
D30*
X155100000Y-76300000D03*
D29*
X153850000Y-76300000D03*
X152600000Y-76300000D03*
X151350000Y-76300000D03*
D31*
X152037500Y-80737500D03*
D32*
X154910000Y-80087500D03*
D33*
X160600000Y-85000000D03*
%TD*%
D34*
%TO.C,C7*%
X168590000Y-72900000D03*
X167630000Y-72900000D03*
%TD*%
D19*
%TO.C,J3*%
X172350000Y-93875000D03*
D35*
X172350000Y-95145000D03*
X172350000Y-96415000D03*
X172350000Y-97685000D03*
%TD*%
D21*
%TO.C,C5*%
X169700000Y-66580000D03*
X169700000Y-65620000D03*
%TD*%
D18*
%TO.C,L3*%
X149700000Y-68200000D03*
X149700000Y-67230000D03*
%TD*%
%TO.C,L7*%
X169700000Y-64585000D03*
X169700000Y-63615000D03*
%TD*%
D14*
%TO.C,J4*%
X162300000Y-62125000D03*
D15*
X160825000Y-60600000D03*
X163775000Y-60600000D03*
%TD*%
D36*
%TO.C,R1*%
X169065000Y-76400000D03*
X170035000Y-76400000D03*
%TD*%
D18*
%TO.C,L1*%
X143300000Y-68200000D03*
X143300000Y-67230000D03*
%TD*%
%TO.C,L5*%
X162300000Y-64700000D03*
X162300000Y-63730000D03*
%TD*%
%TO.C,L6*%
X161100000Y-64685000D03*
X161100000Y-63715000D03*
%TD*%
D17*
%TO.C,C13*%
X144150000Y-73620000D03*
X144150000Y-74580000D03*
%TD*%
D34*
%TO.C,C6*%
X156130000Y-66700000D03*
X155170000Y-66700000D03*
%TD*%
D21*
%TO.C,C1*%
X155100000Y-73880000D03*
X155100000Y-72920000D03*
%TD*%
D36*
%TO.C,R8*%
X141640000Y-75700000D03*
X142610000Y-75700000D03*
%TD*%
D18*
%TO.C,L2*%
X142000000Y-68200000D03*
X142000000Y-67230000D03*
%TD*%
D14*
%TO.C,J5*%
X169700000Y-62025000D03*
D15*
X168225000Y-60500000D03*
X171175000Y-60500000D03*
%TD*%
D34*
%TO.C,C14*%
X146430000Y-72400000D03*
X145470000Y-72400000D03*
%TD*%
%TO.C,C15*%
X142605000Y-74600000D03*
X141645000Y-74600000D03*
%TD*%
D21*
%TO.C,C2*%
X143300000Y-70295000D03*
X143300000Y-69335000D03*
%TD*%
D34*
%TO.C,C3*%
X150680000Y-69315000D03*
X149720000Y-69315000D03*
%TD*%
M02*
