%TF.GenerationSoftware,KiCad,Pcbnew,8.0.7-8.0.7-0~ubuntu22.04.1*%
%TF.CreationDate,2025-02-17T13:03:59+05:30*%
%TF.ProjectId,RFID_pico,52464944-5f70-4696-936f-2e6b69636164,rev?*%
%TF.SameCoordinates,Original*%
%TF.FileFunction,Legend,Top*%
%TF.FilePolarity,Positive*%
%FSLAX46Y46*%
G04 Gerber Fmt 4.6, Leading zero omitted, Abs format (unit mm)*
G04 Created by KiCad (PCBNEW 8.0.7-8.0.7-0~ubuntu22.04.1) date 2025-02-17 13:03:59*
%MOMM*%
%LPD*%
G01*
G04 APERTURE LIST*
%ADD10C,0.100000*%
%ADD11C,0.150000*%
%ADD12C,0.125000*%
%ADD13C,0.120000*%
%ADD14C,0.000000*%
%ADD15C,0.152400*%
%ADD16C,0.127000*%
G04 APERTURE END LIST*
D10*
X173770550Y-96658609D02*
X173603884Y-96420514D01*
X173484836Y-96658609D02*
X173484836Y-96158609D01*
X173484836Y-96158609D02*
X173675312Y-96158609D01*
X173675312Y-96158609D02*
X173722931Y-96182419D01*
X173722931Y-96182419D02*
X173746741Y-96206228D01*
X173746741Y-96206228D02*
X173770550Y-96253847D01*
X173770550Y-96253847D02*
X173770550Y-96325276D01*
X173770550Y-96325276D02*
X173746741Y-96372895D01*
X173746741Y-96372895D02*
X173722931Y-96396704D01*
X173722931Y-96396704D02*
X173675312Y-96420514D01*
X173675312Y-96420514D02*
X173484836Y-96420514D01*
X173937217Y-96158609D02*
X174270550Y-96658609D01*
X174270550Y-96158609D02*
X173937217Y-96658609D01*
X174461026Y-96658609D02*
X174461026Y-96158609D01*
X174461026Y-96158609D02*
X174580074Y-96158609D01*
X174580074Y-96158609D02*
X174651502Y-96182419D01*
X174651502Y-96182419D02*
X174699121Y-96230038D01*
X174699121Y-96230038D02*
X174722931Y-96277657D01*
X174722931Y-96277657D02*
X174746740Y-96372895D01*
X174746740Y-96372895D02*
X174746740Y-96444323D01*
X174746740Y-96444323D02*
X174722931Y-96539561D01*
X174722931Y-96539561D02*
X174699121Y-96587180D01*
X174699121Y-96587180D02*
X174651502Y-96634800D01*
X174651502Y-96634800D02*
X174580074Y-96658609D01*
X174580074Y-96658609D02*
X174461026Y-96658609D01*
X173438408Y-94858609D02*
X173724122Y-94858609D01*
X173581265Y-95358609D02*
X173581265Y-94858609D01*
X173843169Y-94858609D02*
X174176502Y-95358609D01*
X174176502Y-94858609D02*
X173843169Y-95358609D01*
X174366978Y-95358609D02*
X174366978Y-94858609D01*
X174366978Y-94858609D02*
X174486026Y-94858609D01*
X174486026Y-94858609D02*
X174557454Y-94882419D01*
X174557454Y-94882419D02*
X174605073Y-94930038D01*
X174605073Y-94930038D02*
X174628883Y-94977657D01*
X174628883Y-94977657D02*
X174652692Y-95072895D01*
X174652692Y-95072895D02*
X174652692Y-95144323D01*
X174652692Y-95144323D02*
X174628883Y-95239561D01*
X174628883Y-95239561D02*
X174605073Y-95287180D01*
X174605073Y-95287180D02*
X174557454Y-95334800D01*
X174557454Y-95334800D02*
X174486026Y-95358609D01*
X174486026Y-95358609D02*
X174366978Y-95358609D01*
D11*
X170438095Y-71004819D02*
X170438095Y-71814342D01*
X170438095Y-71814342D02*
X170485714Y-71909580D01*
X170485714Y-71909580D02*
X170533333Y-71957200D01*
X170533333Y-71957200D02*
X170628571Y-72004819D01*
X170628571Y-72004819D02*
X170819047Y-72004819D01*
X170819047Y-72004819D02*
X170914285Y-71957200D01*
X170914285Y-71957200D02*
X170961904Y-71909580D01*
X170961904Y-71909580D02*
X171009523Y-71814342D01*
X171009523Y-71814342D02*
X171009523Y-71004819D01*
X171390476Y-71004819D02*
X172009523Y-71004819D01*
X172009523Y-71004819D02*
X171676190Y-71385771D01*
X171676190Y-71385771D02*
X171819047Y-71385771D01*
X171819047Y-71385771D02*
X171914285Y-71433390D01*
X171914285Y-71433390D02*
X171961904Y-71481009D01*
X171961904Y-71481009D02*
X172009523Y-71576247D01*
X172009523Y-71576247D02*
X172009523Y-71814342D01*
X172009523Y-71814342D02*
X171961904Y-71909580D01*
X171961904Y-71909580D02*
X171914285Y-71957200D01*
X171914285Y-71957200D02*
X171819047Y-72004819D01*
X171819047Y-72004819D02*
X171533333Y-72004819D01*
X171533333Y-72004819D02*
X171438095Y-71957200D01*
X171438095Y-71957200D02*
X171390476Y-71909580D01*
X155445180Y-68838095D02*
X154635657Y-68838095D01*
X154635657Y-68838095D02*
X154540419Y-68885714D01*
X154540419Y-68885714D02*
X154492800Y-68933333D01*
X154492800Y-68933333D02*
X154445180Y-69028571D01*
X154445180Y-69028571D02*
X154445180Y-69219047D01*
X154445180Y-69219047D02*
X154492800Y-69314285D01*
X154492800Y-69314285D02*
X154540419Y-69361904D01*
X154540419Y-69361904D02*
X154635657Y-69409523D01*
X154635657Y-69409523D02*
X155445180Y-69409523D01*
X154445180Y-70409523D02*
X154445180Y-69838095D01*
X154445180Y-70123809D02*
X155445180Y-70123809D01*
X155445180Y-70123809D02*
X155302323Y-70028571D01*
X155302323Y-70028571D02*
X155207085Y-69933333D01*
X155207085Y-69933333D02*
X155159466Y-69838095D01*
X155355071Y-67161599D02*
X155593166Y-67161599D01*
X155497928Y-67399694D02*
X155593166Y-67161599D01*
X155593166Y-67161599D02*
X155497928Y-66923504D01*
X155783642Y-67304456D02*
X155593166Y-67161599D01*
X155593166Y-67161599D02*
X155783642Y-67018742D01*
X156445432Y-67161600D02*
X156207337Y-67161600D01*
X156302575Y-66923505D02*
X156207337Y-67161600D01*
X156207337Y-67161600D02*
X156302575Y-67399695D01*
X156016861Y-67018743D02*
X156207337Y-67161600D01*
X156207337Y-67161600D02*
X156016861Y-67304457D01*
X139449745Y-60827195D02*
X140022124Y-60827195D01*
X140022124Y-60827195D02*
X140136600Y-60865353D01*
X140136600Y-60865353D02*
X140212918Y-60941671D01*
X140212918Y-60941671D02*
X140251076Y-61056146D01*
X140251076Y-61056146D02*
X140251076Y-61132464D01*
X139793173Y-60331133D02*
X139755014Y-60407450D01*
X139755014Y-60407450D02*
X139716855Y-60445608D01*
X139716855Y-60445608D02*
X139640538Y-60483767D01*
X139640538Y-60483767D02*
X139602380Y-60483767D01*
X139602380Y-60483767D02*
X139526062Y-60445608D01*
X139526062Y-60445608D02*
X139487904Y-60407450D01*
X139487904Y-60407450D02*
X139449745Y-60331133D01*
X139449745Y-60331133D02*
X139449745Y-60178498D01*
X139449745Y-60178498D02*
X139487904Y-60102181D01*
X139487904Y-60102181D02*
X139526062Y-60064022D01*
X139526062Y-60064022D02*
X139602380Y-60025864D01*
X139602380Y-60025864D02*
X139640538Y-60025864D01*
X139640538Y-60025864D02*
X139716855Y-60064022D01*
X139716855Y-60064022D02*
X139755014Y-60102181D01*
X139755014Y-60102181D02*
X139793173Y-60178498D01*
X139793173Y-60178498D02*
X139793173Y-60331133D01*
X139793173Y-60331133D02*
X139831331Y-60407450D01*
X139831331Y-60407450D02*
X139869490Y-60445608D01*
X139869490Y-60445608D02*
X139945807Y-60483767D01*
X139945807Y-60483767D02*
X140098442Y-60483767D01*
X140098442Y-60483767D02*
X140174759Y-60445608D01*
X140174759Y-60445608D02*
X140212918Y-60407450D01*
X140212918Y-60407450D02*
X140251076Y-60331133D01*
X140251076Y-60331133D02*
X140251076Y-60178498D01*
X140251076Y-60178498D02*
X140212918Y-60102181D01*
X140212918Y-60102181D02*
X140174759Y-60064022D01*
X140174759Y-60064022D02*
X140098442Y-60025864D01*
X140098442Y-60025864D02*
X139945807Y-60025864D01*
X139945807Y-60025864D02*
X139869490Y-60064022D01*
X139869490Y-60064022D02*
X139831331Y-60102181D01*
X139831331Y-60102181D02*
X139793173Y-60178498D01*
X145799745Y-60827195D02*
X146372124Y-60827195D01*
X146372124Y-60827195D02*
X146486600Y-60865353D01*
X146486600Y-60865353D02*
X146562918Y-60941671D01*
X146562918Y-60941671D02*
X146601076Y-61056146D01*
X146601076Y-61056146D02*
X146601076Y-61132464D01*
X145799745Y-60102181D02*
X145799745Y-60254815D01*
X145799745Y-60254815D02*
X145837904Y-60331133D01*
X145837904Y-60331133D02*
X145876062Y-60369291D01*
X145876062Y-60369291D02*
X145990538Y-60445608D01*
X145990538Y-60445608D02*
X146143173Y-60483767D01*
X146143173Y-60483767D02*
X146448442Y-60483767D01*
X146448442Y-60483767D02*
X146524759Y-60445608D01*
X146524759Y-60445608D02*
X146562918Y-60407450D01*
X146562918Y-60407450D02*
X146601076Y-60331133D01*
X146601076Y-60331133D02*
X146601076Y-60178498D01*
X146601076Y-60178498D02*
X146562918Y-60102181D01*
X146562918Y-60102181D02*
X146524759Y-60064022D01*
X146524759Y-60064022D02*
X146448442Y-60025864D01*
X146448442Y-60025864D02*
X146257649Y-60025864D01*
X146257649Y-60025864D02*
X146181331Y-60064022D01*
X146181331Y-60064022D02*
X146143173Y-60102181D01*
X146143173Y-60102181D02*
X146105014Y-60178498D01*
X146105014Y-60178498D02*
X146105014Y-60331133D01*
X146105014Y-60331133D02*
X146143173Y-60407450D01*
X146143173Y-60407450D02*
X146181331Y-60445608D01*
X146181331Y-60445608D02*
X146257649Y-60483767D01*
X143004819Y-77776189D02*
X142004819Y-77776189D01*
X142909580Y-76728571D02*
X142957200Y-76776190D01*
X142957200Y-76776190D02*
X143004819Y-76919047D01*
X143004819Y-76919047D02*
X143004819Y-77014285D01*
X143004819Y-77014285D02*
X142957200Y-77157142D01*
X142957200Y-77157142D02*
X142861961Y-77252380D01*
X142861961Y-77252380D02*
X142766723Y-77299999D01*
X142766723Y-77299999D02*
X142576247Y-77347618D01*
X142576247Y-77347618D02*
X142433390Y-77347618D01*
X142433390Y-77347618D02*
X142242914Y-77299999D01*
X142242914Y-77299999D02*
X142147676Y-77252380D01*
X142147676Y-77252380D02*
X142052438Y-77157142D01*
X142052438Y-77157142D02*
X142004819Y-77014285D01*
X142004819Y-77014285D02*
X142004819Y-76919047D01*
X142004819Y-76919047D02*
X142052438Y-76776190D01*
X142052438Y-76776190D02*
X142100057Y-76728571D01*
X143004819Y-75776190D02*
X143004819Y-76347618D01*
X143004819Y-76061904D02*
X142004819Y-76061904D01*
X142004819Y-76061904D02*
X142147676Y-76157142D01*
X142147676Y-76157142D02*
X142242914Y-76252380D01*
X142242914Y-76252380D02*
X142290533Y-76347618D01*
D12*
X173791666Y-74802190D02*
X173767857Y-74826000D01*
X173767857Y-74826000D02*
X173696428Y-74849809D01*
X173696428Y-74849809D02*
X173648809Y-74849809D01*
X173648809Y-74849809D02*
X173577381Y-74826000D01*
X173577381Y-74826000D02*
X173529762Y-74778380D01*
X173529762Y-74778380D02*
X173505952Y-74730761D01*
X173505952Y-74730761D02*
X173482143Y-74635523D01*
X173482143Y-74635523D02*
X173482143Y-74564095D01*
X173482143Y-74564095D02*
X173505952Y-74468857D01*
X173505952Y-74468857D02*
X173529762Y-74421238D01*
X173529762Y-74421238D02*
X173577381Y-74373619D01*
X173577381Y-74373619D02*
X173648809Y-74349809D01*
X173648809Y-74349809D02*
X173696428Y-74349809D01*
X173696428Y-74349809D02*
X173767857Y-74373619D01*
X173767857Y-74373619D02*
X173791666Y-74397428D01*
X174029762Y-74849809D02*
X174125000Y-74849809D01*
X174125000Y-74849809D02*
X174172619Y-74826000D01*
X174172619Y-74826000D02*
X174196428Y-74802190D01*
X174196428Y-74802190D02*
X174244047Y-74730761D01*
X174244047Y-74730761D02*
X174267857Y-74635523D01*
X174267857Y-74635523D02*
X174267857Y-74445047D01*
X174267857Y-74445047D02*
X174244047Y-74397428D01*
X174244047Y-74397428D02*
X174220238Y-74373619D01*
X174220238Y-74373619D02*
X174172619Y-74349809D01*
X174172619Y-74349809D02*
X174077381Y-74349809D01*
X174077381Y-74349809D02*
X174029762Y-74373619D01*
X174029762Y-74373619D02*
X174005952Y-74397428D01*
X174005952Y-74397428D02*
X173982143Y-74445047D01*
X173982143Y-74445047D02*
X173982143Y-74564095D01*
X173982143Y-74564095D02*
X174005952Y-74611714D01*
X174005952Y-74611714D02*
X174029762Y-74635523D01*
X174029762Y-74635523D02*
X174077381Y-74659333D01*
X174077381Y-74659333D02*
X174172619Y-74659333D01*
X174172619Y-74659333D02*
X174220238Y-74635523D01*
X174220238Y-74635523D02*
X174244047Y-74611714D01*
X174244047Y-74611714D02*
X174267857Y-74564095D01*
X147490666Y-74392809D02*
X147324000Y-74154714D01*
X147204952Y-74392809D02*
X147204952Y-73892809D01*
X147204952Y-73892809D02*
X147395428Y-73892809D01*
X147395428Y-73892809D02*
X147443047Y-73916619D01*
X147443047Y-73916619D02*
X147466857Y-73940428D01*
X147466857Y-73940428D02*
X147490666Y-73988047D01*
X147490666Y-73988047D02*
X147490666Y-74059476D01*
X147490666Y-74059476D02*
X147466857Y-74107095D01*
X147466857Y-74107095D02*
X147443047Y-74130904D01*
X147443047Y-74130904D02*
X147395428Y-74154714D01*
X147395428Y-74154714D02*
X147204952Y-74154714D01*
X147657333Y-73892809D02*
X147990666Y-73892809D01*
X147990666Y-73892809D02*
X147776381Y-74392809D01*
X168669048Y-88076809D02*
X168954762Y-88076809D01*
X168811905Y-88576809D02*
X168811905Y-88076809D01*
X169121428Y-88576809D02*
X169121428Y-88076809D01*
X169121428Y-88076809D02*
X169311904Y-88076809D01*
X169311904Y-88076809D02*
X169359523Y-88100619D01*
X169359523Y-88100619D02*
X169383333Y-88124428D01*
X169383333Y-88124428D02*
X169407142Y-88172047D01*
X169407142Y-88172047D02*
X169407142Y-88243476D01*
X169407142Y-88243476D02*
X169383333Y-88291095D01*
X169383333Y-88291095D02*
X169359523Y-88314904D01*
X169359523Y-88314904D02*
X169311904Y-88338714D01*
X169311904Y-88338714D02*
X169121428Y-88338714D01*
X169573809Y-88076809D02*
X169883333Y-88076809D01*
X169883333Y-88076809D02*
X169716666Y-88267285D01*
X169716666Y-88267285D02*
X169788095Y-88267285D01*
X169788095Y-88267285D02*
X169835714Y-88291095D01*
X169835714Y-88291095D02*
X169859523Y-88314904D01*
X169859523Y-88314904D02*
X169883333Y-88362523D01*
X169883333Y-88362523D02*
X169883333Y-88481571D01*
X169883333Y-88481571D02*
X169859523Y-88529190D01*
X169859523Y-88529190D02*
X169835714Y-88553000D01*
X169835714Y-88553000D02*
X169788095Y-88576809D01*
X169788095Y-88576809D02*
X169645238Y-88576809D01*
X169645238Y-88576809D02*
X169597619Y-88553000D01*
X169597619Y-88553000D02*
X169573809Y-88529190D01*
D11*
X171791333Y-77829580D02*
X171743714Y-77877200D01*
X171743714Y-77877200D02*
X171600857Y-77924819D01*
X171600857Y-77924819D02*
X171505619Y-77924819D01*
X171505619Y-77924819D02*
X171362762Y-77877200D01*
X171362762Y-77877200D02*
X171267524Y-77781961D01*
X171267524Y-77781961D02*
X171219905Y-77686723D01*
X171219905Y-77686723D02*
X171172286Y-77496247D01*
X171172286Y-77496247D02*
X171172286Y-77353390D01*
X171172286Y-77353390D02*
X171219905Y-77162914D01*
X171219905Y-77162914D02*
X171267524Y-77067676D01*
X171267524Y-77067676D02*
X171362762Y-76972438D01*
X171362762Y-76972438D02*
X171505619Y-76924819D01*
X171505619Y-76924819D02*
X171600857Y-76924819D01*
X171600857Y-76924819D02*
X171743714Y-76972438D01*
X171743714Y-76972438D02*
X171791333Y-77020057D01*
X172362762Y-77353390D02*
X172267524Y-77305771D01*
X172267524Y-77305771D02*
X172219905Y-77258152D01*
X172219905Y-77258152D02*
X172172286Y-77162914D01*
X172172286Y-77162914D02*
X172172286Y-77115295D01*
X172172286Y-77115295D02*
X172219905Y-77020057D01*
X172219905Y-77020057D02*
X172267524Y-76972438D01*
X172267524Y-76972438D02*
X172362762Y-76924819D01*
X172362762Y-76924819D02*
X172553238Y-76924819D01*
X172553238Y-76924819D02*
X172648476Y-76972438D01*
X172648476Y-76972438D02*
X172696095Y-77020057D01*
X172696095Y-77020057D02*
X172743714Y-77115295D01*
X172743714Y-77115295D02*
X172743714Y-77162914D01*
X172743714Y-77162914D02*
X172696095Y-77258152D01*
X172696095Y-77258152D02*
X172648476Y-77305771D01*
X172648476Y-77305771D02*
X172553238Y-77353390D01*
X172553238Y-77353390D02*
X172362762Y-77353390D01*
X172362762Y-77353390D02*
X172267524Y-77401009D01*
X172267524Y-77401009D02*
X172219905Y-77448628D01*
X172219905Y-77448628D02*
X172172286Y-77543866D01*
X172172286Y-77543866D02*
X172172286Y-77734342D01*
X172172286Y-77734342D02*
X172219905Y-77829580D01*
X172219905Y-77829580D02*
X172267524Y-77877200D01*
X172267524Y-77877200D02*
X172362762Y-77924819D01*
X172362762Y-77924819D02*
X172553238Y-77924819D01*
X172553238Y-77924819D02*
X172648476Y-77877200D01*
X172648476Y-77877200D02*
X172696095Y-77829580D01*
X172696095Y-77829580D02*
X172743714Y-77734342D01*
X172743714Y-77734342D02*
X172743714Y-77543866D01*
X172743714Y-77543866D02*
X172696095Y-77448628D01*
X172696095Y-77448628D02*
X172648476Y-77401009D01*
X172648476Y-77401009D02*
X172553238Y-77353390D01*
X160615333Y-66653580D02*
X160567714Y-66701200D01*
X160567714Y-66701200D02*
X160424857Y-66748819D01*
X160424857Y-66748819D02*
X160329619Y-66748819D01*
X160329619Y-66748819D02*
X160186762Y-66701200D01*
X160186762Y-66701200D02*
X160091524Y-66605961D01*
X160091524Y-66605961D02*
X160043905Y-66510723D01*
X160043905Y-66510723D02*
X159996286Y-66320247D01*
X159996286Y-66320247D02*
X159996286Y-66177390D01*
X159996286Y-66177390D02*
X160043905Y-65986914D01*
X160043905Y-65986914D02*
X160091524Y-65891676D01*
X160091524Y-65891676D02*
X160186762Y-65796438D01*
X160186762Y-65796438D02*
X160329619Y-65748819D01*
X160329619Y-65748819D02*
X160424857Y-65748819D01*
X160424857Y-65748819D02*
X160567714Y-65796438D01*
X160567714Y-65796438D02*
X160615333Y-65844057D01*
X161472476Y-66082152D02*
X161472476Y-66748819D01*
X161234381Y-65701200D02*
X160996286Y-66415485D01*
X160996286Y-66415485D02*
X161615333Y-66415485D01*
D10*
X146519333Y-72686109D02*
X146519333Y-73043252D01*
X146519333Y-73043252D02*
X146495524Y-73114680D01*
X146495524Y-73114680D02*
X146447905Y-73162300D01*
X146447905Y-73162300D02*
X146376476Y-73186109D01*
X146376476Y-73186109D02*
X146328857Y-73186109D01*
X146757428Y-73186109D02*
X146757428Y-72686109D01*
X146757428Y-72686109D02*
X146947904Y-72686109D01*
X146947904Y-72686109D02*
X146995523Y-72709919D01*
X146995523Y-72709919D02*
X147019333Y-72733728D01*
X147019333Y-72733728D02*
X147043142Y-72781347D01*
X147043142Y-72781347D02*
X147043142Y-72852776D01*
X147043142Y-72852776D02*
X147019333Y-72900395D01*
X147019333Y-72900395D02*
X146995523Y-72924204D01*
X146995523Y-72924204D02*
X146947904Y-72948014D01*
X146947904Y-72948014D02*
X146757428Y-72948014D01*
X147471714Y-72852776D02*
X147471714Y-73186109D01*
X147352666Y-72662300D02*
X147233619Y-73019442D01*
X147233619Y-73019442D02*
X147543142Y-73019442D01*
D11*
X170775333Y-63192819D02*
X170299143Y-63192819D01*
X170299143Y-63192819D02*
X170299143Y-62192819D01*
X171251524Y-62621390D02*
X171156286Y-62573771D01*
X171156286Y-62573771D02*
X171108667Y-62526152D01*
X171108667Y-62526152D02*
X171061048Y-62430914D01*
X171061048Y-62430914D02*
X171061048Y-62383295D01*
X171061048Y-62383295D02*
X171108667Y-62288057D01*
X171108667Y-62288057D02*
X171156286Y-62240438D01*
X171156286Y-62240438D02*
X171251524Y-62192819D01*
X171251524Y-62192819D02*
X171442000Y-62192819D01*
X171442000Y-62192819D02*
X171537238Y-62240438D01*
X171537238Y-62240438D02*
X171584857Y-62288057D01*
X171584857Y-62288057D02*
X171632476Y-62383295D01*
X171632476Y-62383295D02*
X171632476Y-62430914D01*
X171632476Y-62430914D02*
X171584857Y-62526152D01*
X171584857Y-62526152D02*
X171537238Y-62573771D01*
X171537238Y-62573771D02*
X171442000Y-62621390D01*
X171442000Y-62621390D02*
X171251524Y-62621390D01*
X171251524Y-62621390D02*
X171156286Y-62669009D01*
X171156286Y-62669009D02*
X171108667Y-62716628D01*
X171108667Y-62716628D02*
X171061048Y-62811866D01*
X171061048Y-62811866D02*
X171061048Y-63002342D01*
X171061048Y-63002342D02*
X171108667Y-63097580D01*
X171108667Y-63097580D02*
X171156286Y-63145200D01*
X171156286Y-63145200D02*
X171251524Y-63192819D01*
X171251524Y-63192819D02*
X171442000Y-63192819D01*
X171442000Y-63192819D02*
X171537238Y-63145200D01*
X171537238Y-63145200D02*
X171584857Y-63097580D01*
X171584857Y-63097580D02*
X171632476Y-63002342D01*
X171632476Y-63002342D02*
X171632476Y-62811866D01*
X171632476Y-62811866D02*
X171584857Y-62716628D01*
X171584857Y-62716628D02*
X171537238Y-62669009D01*
X171537238Y-62669009D02*
X171442000Y-62621390D01*
D10*
X171835048Y-68814109D02*
X172120762Y-68814109D01*
X171977905Y-69314109D02*
X171977905Y-68814109D01*
X172287428Y-69314109D02*
X172287428Y-68814109D01*
X172287428Y-68814109D02*
X172477904Y-68814109D01*
X172477904Y-68814109D02*
X172525523Y-68837919D01*
X172525523Y-68837919D02*
X172549333Y-68861728D01*
X172549333Y-68861728D02*
X172573142Y-68909347D01*
X172573142Y-68909347D02*
X172573142Y-68980776D01*
X172573142Y-68980776D02*
X172549333Y-69028395D01*
X172549333Y-69028395D02*
X172525523Y-69052204D01*
X172525523Y-69052204D02*
X172477904Y-69076014D01*
X172477904Y-69076014D02*
X172287428Y-69076014D01*
X173049333Y-69314109D02*
X172763619Y-69314109D01*
X172906476Y-69314109D02*
X172906476Y-68814109D01*
X172906476Y-68814109D02*
X172858857Y-68885538D01*
X172858857Y-68885538D02*
X172811238Y-68933157D01*
X172811238Y-68933157D02*
X172763619Y-68956966D01*
D12*
X146474666Y-75662809D02*
X146308000Y-75424714D01*
X146188952Y-75662809D02*
X146188952Y-75162809D01*
X146188952Y-75162809D02*
X146379428Y-75162809D01*
X146379428Y-75162809D02*
X146427047Y-75186619D01*
X146427047Y-75186619D02*
X146450857Y-75210428D01*
X146450857Y-75210428D02*
X146474666Y-75258047D01*
X146474666Y-75258047D02*
X146474666Y-75329476D01*
X146474666Y-75329476D02*
X146450857Y-75377095D01*
X146450857Y-75377095D02*
X146427047Y-75400904D01*
X146427047Y-75400904D02*
X146379428Y-75424714D01*
X146379428Y-75424714D02*
X146188952Y-75424714D01*
X146712762Y-75662809D02*
X146808000Y-75662809D01*
X146808000Y-75662809D02*
X146855619Y-75639000D01*
X146855619Y-75639000D02*
X146879428Y-75615190D01*
X146879428Y-75615190D02*
X146927047Y-75543761D01*
X146927047Y-75543761D02*
X146950857Y-75448523D01*
X146950857Y-75448523D02*
X146950857Y-75258047D01*
X146950857Y-75258047D02*
X146927047Y-75210428D01*
X146927047Y-75210428D02*
X146903238Y-75186619D01*
X146903238Y-75186619D02*
X146855619Y-75162809D01*
X146855619Y-75162809D02*
X146760381Y-75162809D01*
X146760381Y-75162809D02*
X146712762Y-75186619D01*
X146712762Y-75186619D02*
X146688952Y-75210428D01*
X146688952Y-75210428D02*
X146665143Y-75258047D01*
X146665143Y-75258047D02*
X146665143Y-75377095D01*
X146665143Y-75377095D02*
X146688952Y-75424714D01*
X146688952Y-75424714D02*
X146712762Y-75448523D01*
X146712762Y-75448523D02*
X146760381Y-75472333D01*
X146760381Y-75472333D02*
X146855619Y-75472333D01*
X146855619Y-75472333D02*
X146903238Y-75448523D01*
X146903238Y-75448523D02*
X146927047Y-75424714D01*
X146927047Y-75424714D02*
X146950857Y-75377095D01*
D11*
X150140819Y-68178666D02*
X150140819Y-68654856D01*
X150140819Y-68654856D02*
X149140819Y-68654856D01*
X149474152Y-67416761D02*
X150140819Y-67416761D01*
X149093200Y-67654856D02*
X149807485Y-67892951D01*
X149807485Y-67892951D02*
X149807485Y-67273904D01*
D12*
X139996809Y-80391666D02*
X140353952Y-80391666D01*
X140353952Y-80391666D02*
X140425380Y-80415475D01*
X140425380Y-80415475D02*
X140473000Y-80463094D01*
X140473000Y-80463094D02*
X140496809Y-80534523D01*
X140496809Y-80534523D02*
X140496809Y-80582142D01*
X140496809Y-80153571D02*
X139996809Y-80153571D01*
X139996809Y-80153571D02*
X139996809Y-79963095D01*
X139996809Y-79963095D02*
X140020619Y-79915476D01*
X140020619Y-79915476D02*
X140044428Y-79891666D01*
X140044428Y-79891666D02*
X140092047Y-79867857D01*
X140092047Y-79867857D02*
X140163476Y-79867857D01*
X140163476Y-79867857D02*
X140211095Y-79891666D01*
X140211095Y-79891666D02*
X140234904Y-79915476D01*
X140234904Y-79915476D02*
X140258714Y-79963095D01*
X140258714Y-79963095D02*
X140258714Y-80153571D01*
X139996809Y-79701190D02*
X139996809Y-79391666D01*
X139996809Y-79391666D02*
X140187285Y-79558333D01*
X140187285Y-79558333D02*
X140187285Y-79486904D01*
X140187285Y-79486904D02*
X140211095Y-79439285D01*
X140211095Y-79439285D02*
X140234904Y-79415476D01*
X140234904Y-79415476D02*
X140282523Y-79391666D01*
X140282523Y-79391666D02*
X140401571Y-79391666D01*
X140401571Y-79391666D02*
X140449190Y-79415476D01*
X140449190Y-79415476D02*
X140473000Y-79439285D01*
X140473000Y-79439285D02*
X140496809Y-79486904D01*
X140496809Y-79486904D02*
X140496809Y-79629761D01*
X140496809Y-79629761D02*
X140473000Y-79677380D01*
X140473000Y-79677380D02*
X140449190Y-79701190D01*
D11*
X140857333Y-77679819D02*
X140524000Y-77203628D01*
X140285905Y-77679819D02*
X140285905Y-76679819D01*
X140285905Y-76679819D02*
X140666857Y-76679819D01*
X140666857Y-76679819D02*
X140762095Y-76727438D01*
X140762095Y-76727438D02*
X140809714Y-76775057D01*
X140809714Y-76775057D02*
X140857333Y-76870295D01*
X140857333Y-76870295D02*
X140857333Y-77013152D01*
X140857333Y-77013152D02*
X140809714Y-77108390D01*
X140809714Y-77108390D02*
X140762095Y-77156009D01*
X140762095Y-77156009D02*
X140666857Y-77203628D01*
X140666857Y-77203628D02*
X140285905Y-77203628D01*
X141714476Y-76679819D02*
X141524000Y-76679819D01*
X141524000Y-76679819D02*
X141428762Y-76727438D01*
X141428762Y-76727438D02*
X141381143Y-76775057D01*
X141381143Y-76775057D02*
X141285905Y-76917914D01*
X141285905Y-76917914D02*
X141238286Y-77108390D01*
X141238286Y-77108390D02*
X141238286Y-77489342D01*
X141238286Y-77489342D02*
X141285905Y-77584580D01*
X141285905Y-77584580D02*
X141333524Y-77632200D01*
X141333524Y-77632200D02*
X141428762Y-77679819D01*
X141428762Y-77679819D02*
X141619238Y-77679819D01*
X141619238Y-77679819D02*
X141714476Y-77632200D01*
X141714476Y-77632200D02*
X141762095Y-77584580D01*
X141762095Y-77584580D02*
X141809714Y-77489342D01*
X141809714Y-77489342D02*
X141809714Y-77251247D01*
X141809714Y-77251247D02*
X141762095Y-77156009D01*
X141762095Y-77156009D02*
X141714476Y-77108390D01*
X141714476Y-77108390D02*
X141619238Y-77060771D01*
X141619238Y-77060771D02*
X141428762Y-77060771D01*
X141428762Y-77060771D02*
X141333524Y-77108390D01*
X141333524Y-77108390D02*
X141285905Y-77156009D01*
X141285905Y-77156009D02*
X141238286Y-77251247D01*
D10*
X156838095Y-87257419D02*
X156838095Y-88066942D01*
X156838095Y-88066942D02*
X156885714Y-88162180D01*
X156885714Y-88162180D02*
X156933333Y-88209800D01*
X156933333Y-88209800D02*
X157028571Y-88257419D01*
X157028571Y-88257419D02*
X157219047Y-88257419D01*
X157219047Y-88257419D02*
X157314285Y-88209800D01*
X157314285Y-88209800D02*
X157361904Y-88162180D01*
X157361904Y-88162180D02*
X157409523Y-88066942D01*
X157409523Y-88066942D02*
X157409523Y-87257419D01*
X157838095Y-87352657D02*
X157885714Y-87305038D01*
X157885714Y-87305038D02*
X157980952Y-87257419D01*
X157980952Y-87257419D02*
X158219047Y-87257419D01*
X158219047Y-87257419D02*
X158314285Y-87305038D01*
X158314285Y-87305038D02*
X158361904Y-87352657D01*
X158361904Y-87352657D02*
X158409523Y-87447895D01*
X158409523Y-87447895D02*
X158409523Y-87543133D01*
X158409523Y-87543133D02*
X158361904Y-87685990D01*
X158361904Y-87685990D02*
X157790476Y-88257419D01*
X157790476Y-88257419D02*
X158409523Y-88257419D01*
D11*
X167219333Y-74419580D02*
X167171714Y-74467200D01*
X167171714Y-74467200D02*
X167028857Y-74514819D01*
X167028857Y-74514819D02*
X166933619Y-74514819D01*
X166933619Y-74514819D02*
X166790762Y-74467200D01*
X166790762Y-74467200D02*
X166695524Y-74371961D01*
X166695524Y-74371961D02*
X166647905Y-74276723D01*
X166647905Y-74276723D02*
X166600286Y-74086247D01*
X166600286Y-74086247D02*
X166600286Y-73943390D01*
X166600286Y-73943390D02*
X166647905Y-73752914D01*
X166647905Y-73752914D02*
X166695524Y-73657676D01*
X166695524Y-73657676D02*
X166790762Y-73562438D01*
X166790762Y-73562438D02*
X166933619Y-73514819D01*
X166933619Y-73514819D02*
X167028857Y-73514819D01*
X167028857Y-73514819D02*
X167171714Y-73562438D01*
X167171714Y-73562438D02*
X167219333Y-73610057D01*
X167552667Y-73514819D02*
X168219333Y-73514819D01*
X168219333Y-73514819D02*
X167790762Y-74514819D01*
X172016666Y-91634819D02*
X172016666Y-92349104D01*
X172016666Y-92349104D02*
X171969047Y-92491961D01*
X171969047Y-92491961D02*
X171873809Y-92587200D01*
X171873809Y-92587200D02*
X171730952Y-92634819D01*
X171730952Y-92634819D02*
X171635714Y-92634819D01*
X172397619Y-91634819D02*
X173016666Y-91634819D01*
X173016666Y-91634819D02*
X172683333Y-92015771D01*
X172683333Y-92015771D02*
X172826190Y-92015771D01*
X172826190Y-92015771D02*
X172921428Y-92063390D01*
X172921428Y-92063390D02*
X172969047Y-92111009D01*
X172969047Y-92111009D02*
X173016666Y-92206247D01*
X173016666Y-92206247D02*
X173016666Y-92444342D01*
X173016666Y-92444342D02*
X172969047Y-92539580D01*
X172969047Y-92539580D02*
X172921428Y-92587200D01*
X172921428Y-92587200D02*
X172826190Y-92634819D01*
X172826190Y-92634819D02*
X172540476Y-92634819D01*
X172540476Y-92634819D02*
X172445238Y-92587200D01*
X172445238Y-92587200D02*
X172397619Y-92539580D01*
X168373333Y-66459580D02*
X168325714Y-66507200D01*
X168325714Y-66507200D02*
X168182857Y-66554819D01*
X168182857Y-66554819D02*
X168087619Y-66554819D01*
X168087619Y-66554819D02*
X167944762Y-66507200D01*
X167944762Y-66507200D02*
X167849524Y-66411961D01*
X167849524Y-66411961D02*
X167801905Y-66316723D01*
X167801905Y-66316723D02*
X167754286Y-66126247D01*
X167754286Y-66126247D02*
X167754286Y-65983390D01*
X167754286Y-65983390D02*
X167801905Y-65792914D01*
X167801905Y-65792914D02*
X167849524Y-65697676D01*
X167849524Y-65697676D02*
X167944762Y-65602438D01*
X167944762Y-65602438D02*
X168087619Y-65554819D01*
X168087619Y-65554819D02*
X168182857Y-65554819D01*
X168182857Y-65554819D02*
X168325714Y-65602438D01*
X168325714Y-65602438D02*
X168373333Y-65650057D01*
X169278095Y-65554819D02*
X168801905Y-65554819D01*
X168801905Y-65554819D02*
X168754286Y-66031009D01*
X168754286Y-66031009D02*
X168801905Y-65983390D01*
X168801905Y-65983390D02*
X168897143Y-65935771D01*
X168897143Y-65935771D02*
X169135238Y-65935771D01*
X169135238Y-65935771D02*
X169230476Y-65983390D01*
X169230476Y-65983390D02*
X169278095Y-66031009D01*
X169278095Y-66031009D02*
X169325714Y-66126247D01*
X169325714Y-66126247D02*
X169325714Y-66364342D01*
X169325714Y-66364342D02*
X169278095Y-66459580D01*
X169278095Y-66459580D02*
X169230476Y-66507200D01*
X169230476Y-66507200D02*
X169135238Y-66554819D01*
X169135238Y-66554819D02*
X168897143Y-66554819D01*
X168897143Y-66554819D02*
X168801905Y-66507200D01*
X168801905Y-66507200D02*
X168754286Y-66459580D01*
X150709333Y-68169819D02*
X150233143Y-68169819D01*
X150233143Y-68169819D02*
X150233143Y-67169819D01*
X150947429Y-67169819D02*
X151566476Y-67169819D01*
X151566476Y-67169819D02*
X151233143Y-67550771D01*
X151233143Y-67550771D02*
X151376000Y-67550771D01*
X151376000Y-67550771D02*
X151471238Y-67598390D01*
X151471238Y-67598390D02*
X151518857Y-67646009D01*
X151518857Y-67646009D02*
X151566476Y-67741247D01*
X151566476Y-67741247D02*
X151566476Y-67979342D01*
X151566476Y-67979342D02*
X151518857Y-68074580D01*
X151518857Y-68074580D02*
X151471238Y-68122200D01*
X151471238Y-68122200D02*
X151376000Y-68169819D01*
X151376000Y-68169819D02*
X151090286Y-68169819D01*
X151090286Y-68169819D02*
X150995048Y-68122200D01*
X150995048Y-68122200D02*
X150947429Y-68074580D01*
X168235333Y-64716819D02*
X167759143Y-64716819D01*
X167759143Y-64716819D02*
X167759143Y-63716819D01*
X168473429Y-63716819D02*
X169140095Y-63716819D01*
X169140095Y-63716819D02*
X168711524Y-64716819D01*
X158432889Y-60261580D02*
X158432889Y-60833959D01*
X158432889Y-60833959D02*
X158394731Y-60948435D01*
X158394731Y-60948435D02*
X158318413Y-61024753D01*
X158318413Y-61024753D02*
X158203938Y-61062911D01*
X158203938Y-61062911D02*
X158127620Y-61062911D01*
X159157903Y-60528690D02*
X159157903Y-61062911D01*
X158967110Y-60223422D02*
X158776317Y-60795801D01*
X158776317Y-60795801D02*
X159272379Y-60795801D01*
X169505333Y-78178819D02*
X169172000Y-77702628D01*
X168933905Y-78178819D02*
X168933905Y-77178819D01*
X168933905Y-77178819D02*
X169314857Y-77178819D01*
X169314857Y-77178819D02*
X169410095Y-77226438D01*
X169410095Y-77226438D02*
X169457714Y-77274057D01*
X169457714Y-77274057D02*
X169505333Y-77369295D01*
X169505333Y-77369295D02*
X169505333Y-77512152D01*
X169505333Y-77512152D02*
X169457714Y-77607390D01*
X169457714Y-77607390D02*
X169410095Y-77655009D01*
X169410095Y-77655009D02*
X169314857Y-77702628D01*
X169314857Y-77702628D02*
X168933905Y-77702628D01*
X170457714Y-78178819D02*
X169886286Y-78178819D01*
X170172000Y-78178819D02*
X170172000Y-77178819D01*
X170172000Y-77178819D02*
X170076762Y-77321676D01*
X170076762Y-77321676D02*
X169981524Y-77416914D01*
X169981524Y-77416914D02*
X169886286Y-77464533D01*
X144359333Y-68018819D02*
X143883143Y-68018819D01*
X143883143Y-68018819D02*
X143883143Y-67018819D01*
X145216476Y-68018819D02*
X144645048Y-68018819D01*
X144930762Y-68018819D02*
X144930762Y-67018819D01*
X144930762Y-67018819D02*
X144835524Y-67161676D01*
X144835524Y-67161676D02*
X144740286Y-67256914D01*
X144740286Y-67256914D02*
X144645048Y-67304533D01*
X163409333Y-64669819D02*
X162933143Y-64669819D01*
X162933143Y-64669819D02*
X162933143Y-63669819D01*
X164218857Y-63669819D02*
X163742667Y-63669819D01*
X163742667Y-63669819D02*
X163695048Y-64146009D01*
X163695048Y-64146009D02*
X163742667Y-64098390D01*
X163742667Y-64098390D02*
X163837905Y-64050771D01*
X163837905Y-64050771D02*
X164076000Y-64050771D01*
X164076000Y-64050771D02*
X164171238Y-64098390D01*
X164171238Y-64098390D02*
X164218857Y-64146009D01*
X164218857Y-64146009D02*
X164266476Y-64241247D01*
X164266476Y-64241247D02*
X164266476Y-64479342D01*
X164266476Y-64479342D02*
X164218857Y-64574580D01*
X164218857Y-64574580D02*
X164171238Y-64622200D01*
X164171238Y-64622200D02*
X164076000Y-64669819D01*
X164076000Y-64669819D02*
X163837905Y-64669819D01*
X163837905Y-64669819D02*
X163742667Y-64622200D01*
X163742667Y-64622200D02*
X163695048Y-64574580D01*
X159599333Y-64654819D02*
X159123143Y-64654819D01*
X159123143Y-64654819D02*
X159123143Y-63654819D01*
X160361238Y-63654819D02*
X160170762Y-63654819D01*
X160170762Y-63654819D02*
X160075524Y-63702438D01*
X160075524Y-63702438D02*
X160027905Y-63750057D01*
X160027905Y-63750057D02*
X159932667Y-63892914D01*
X159932667Y-63892914D02*
X159885048Y-64083390D01*
X159885048Y-64083390D02*
X159885048Y-64464342D01*
X159885048Y-64464342D02*
X159932667Y-64559580D01*
X159932667Y-64559580D02*
X159980286Y-64607200D01*
X159980286Y-64607200D02*
X160075524Y-64654819D01*
X160075524Y-64654819D02*
X160266000Y-64654819D01*
X160266000Y-64654819D02*
X160361238Y-64607200D01*
X160361238Y-64607200D02*
X160408857Y-64559580D01*
X160408857Y-64559580D02*
X160456476Y-64464342D01*
X160456476Y-64464342D02*
X160456476Y-64226247D01*
X160456476Y-64226247D02*
X160408857Y-64131009D01*
X160408857Y-64131009D02*
X160361238Y-64083390D01*
X160361238Y-64083390D02*
X160266000Y-64035771D01*
X160266000Y-64035771D02*
X160075524Y-64035771D01*
X160075524Y-64035771D02*
X159980286Y-64083390D01*
X159980286Y-64083390D02*
X159932667Y-64131009D01*
X159932667Y-64131009D02*
X159885048Y-64226247D01*
X142867142Y-72495580D02*
X142819523Y-72543200D01*
X142819523Y-72543200D02*
X142676666Y-72590819D01*
X142676666Y-72590819D02*
X142581428Y-72590819D01*
X142581428Y-72590819D02*
X142438571Y-72543200D01*
X142438571Y-72543200D02*
X142343333Y-72447961D01*
X142343333Y-72447961D02*
X142295714Y-72352723D01*
X142295714Y-72352723D02*
X142248095Y-72162247D01*
X142248095Y-72162247D02*
X142248095Y-72019390D01*
X142248095Y-72019390D02*
X142295714Y-71828914D01*
X142295714Y-71828914D02*
X142343333Y-71733676D01*
X142343333Y-71733676D02*
X142438571Y-71638438D01*
X142438571Y-71638438D02*
X142581428Y-71590819D01*
X142581428Y-71590819D02*
X142676666Y-71590819D01*
X142676666Y-71590819D02*
X142819523Y-71638438D01*
X142819523Y-71638438D02*
X142867142Y-71686057D01*
X143819523Y-72590819D02*
X143248095Y-72590819D01*
X143533809Y-72590819D02*
X143533809Y-71590819D01*
X143533809Y-71590819D02*
X143438571Y-71733676D01*
X143438571Y-71733676D02*
X143343333Y-71828914D01*
X143343333Y-71828914D02*
X143248095Y-71876533D01*
X144152857Y-71590819D02*
X144771904Y-71590819D01*
X144771904Y-71590819D02*
X144438571Y-71971771D01*
X144438571Y-71971771D02*
X144581428Y-71971771D01*
X144581428Y-71971771D02*
X144676666Y-72019390D01*
X144676666Y-72019390D02*
X144724285Y-72067009D01*
X144724285Y-72067009D02*
X144771904Y-72162247D01*
X144771904Y-72162247D02*
X144771904Y-72400342D01*
X144771904Y-72400342D02*
X144724285Y-72495580D01*
X144724285Y-72495580D02*
X144676666Y-72543200D01*
X144676666Y-72543200D02*
X144581428Y-72590819D01*
X144581428Y-72590819D02*
X144295714Y-72590819D01*
X144295714Y-72590819D02*
X144200476Y-72543200D01*
X144200476Y-72543200D02*
X144152857Y-72495580D01*
X156043333Y-65383580D02*
X155995714Y-65431200D01*
X155995714Y-65431200D02*
X155852857Y-65478819D01*
X155852857Y-65478819D02*
X155757619Y-65478819D01*
X155757619Y-65478819D02*
X155614762Y-65431200D01*
X155614762Y-65431200D02*
X155519524Y-65335961D01*
X155519524Y-65335961D02*
X155471905Y-65240723D01*
X155471905Y-65240723D02*
X155424286Y-65050247D01*
X155424286Y-65050247D02*
X155424286Y-64907390D01*
X155424286Y-64907390D02*
X155471905Y-64716914D01*
X155471905Y-64716914D02*
X155519524Y-64621676D01*
X155519524Y-64621676D02*
X155614762Y-64526438D01*
X155614762Y-64526438D02*
X155757619Y-64478819D01*
X155757619Y-64478819D02*
X155852857Y-64478819D01*
X155852857Y-64478819D02*
X155995714Y-64526438D01*
X155995714Y-64526438D02*
X156043333Y-64574057D01*
X156900476Y-64478819D02*
X156710000Y-64478819D01*
X156710000Y-64478819D02*
X156614762Y-64526438D01*
X156614762Y-64526438D02*
X156567143Y-64574057D01*
X156567143Y-64574057D02*
X156471905Y-64716914D01*
X156471905Y-64716914D02*
X156424286Y-64907390D01*
X156424286Y-64907390D02*
X156424286Y-65288342D01*
X156424286Y-65288342D02*
X156471905Y-65383580D01*
X156471905Y-65383580D02*
X156519524Y-65431200D01*
X156519524Y-65431200D02*
X156614762Y-65478819D01*
X156614762Y-65478819D02*
X156805238Y-65478819D01*
X156805238Y-65478819D02*
X156900476Y-65431200D01*
X156900476Y-65431200D02*
X156948095Y-65383580D01*
X156948095Y-65383580D02*
X156995714Y-65288342D01*
X156995714Y-65288342D02*
X156995714Y-65050247D01*
X156995714Y-65050247D02*
X156948095Y-64955009D01*
X156948095Y-64955009D02*
X156900476Y-64907390D01*
X156900476Y-64907390D02*
X156805238Y-64859771D01*
X156805238Y-64859771D02*
X156614762Y-64859771D01*
X156614762Y-64859771D02*
X156519524Y-64907390D01*
X156519524Y-64907390D02*
X156471905Y-64955009D01*
X156471905Y-64955009D02*
X156424286Y-65050247D01*
D12*
X156126666Y-73583190D02*
X156102857Y-73607000D01*
X156102857Y-73607000D02*
X156031428Y-73630809D01*
X156031428Y-73630809D02*
X155983809Y-73630809D01*
X155983809Y-73630809D02*
X155912381Y-73607000D01*
X155912381Y-73607000D02*
X155864762Y-73559380D01*
X155864762Y-73559380D02*
X155840952Y-73511761D01*
X155840952Y-73511761D02*
X155817143Y-73416523D01*
X155817143Y-73416523D02*
X155817143Y-73345095D01*
X155817143Y-73345095D02*
X155840952Y-73249857D01*
X155840952Y-73249857D02*
X155864762Y-73202238D01*
X155864762Y-73202238D02*
X155912381Y-73154619D01*
X155912381Y-73154619D02*
X155983809Y-73130809D01*
X155983809Y-73130809D02*
X156031428Y-73130809D01*
X156031428Y-73130809D02*
X156102857Y-73154619D01*
X156102857Y-73154619D02*
X156126666Y-73178428D01*
X156602857Y-73630809D02*
X156317143Y-73630809D01*
X156460000Y-73630809D02*
X156460000Y-73130809D01*
X156460000Y-73130809D02*
X156412381Y-73202238D01*
X156412381Y-73202238D02*
X156364762Y-73249857D01*
X156364762Y-73249857D02*
X156317143Y-73273666D01*
D11*
X140020333Y-76146819D02*
X139687000Y-75670628D01*
X139448905Y-76146819D02*
X139448905Y-75146819D01*
X139448905Y-75146819D02*
X139829857Y-75146819D01*
X139829857Y-75146819D02*
X139925095Y-75194438D01*
X139925095Y-75194438D02*
X139972714Y-75242057D01*
X139972714Y-75242057D02*
X140020333Y-75337295D01*
X140020333Y-75337295D02*
X140020333Y-75480152D01*
X140020333Y-75480152D02*
X139972714Y-75575390D01*
X139972714Y-75575390D02*
X139925095Y-75623009D01*
X139925095Y-75623009D02*
X139829857Y-75670628D01*
X139829857Y-75670628D02*
X139448905Y-75670628D01*
X140591762Y-75575390D02*
X140496524Y-75527771D01*
X140496524Y-75527771D02*
X140448905Y-75480152D01*
X140448905Y-75480152D02*
X140401286Y-75384914D01*
X140401286Y-75384914D02*
X140401286Y-75337295D01*
X140401286Y-75337295D02*
X140448905Y-75242057D01*
X140448905Y-75242057D02*
X140496524Y-75194438D01*
X140496524Y-75194438D02*
X140591762Y-75146819D01*
X140591762Y-75146819D02*
X140782238Y-75146819D01*
X140782238Y-75146819D02*
X140877476Y-75194438D01*
X140877476Y-75194438D02*
X140925095Y-75242057D01*
X140925095Y-75242057D02*
X140972714Y-75337295D01*
X140972714Y-75337295D02*
X140972714Y-75384914D01*
X140972714Y-75384914D02*
X140925095Y-75480152D01*
X140925095Y-75480152D02*
X140877476Y-75527771D01*
X140877476Y-75527771D02*
X140782238Y-75575390D01*
X140782238Y-75575390D02*
X140591762Y-75575390D01*
X140591762Y-75575390D02*
X140496524Y-75623009D01*
X140496524Y-75623009D02*
X140448905Y-75670628D01*
X140448905Y-75670628D02*
X140401286Y-75765866D01*
X140401286Y-75765866D02*
X140401286Y-75956342D01*
X140401286Y-75956342D02*
X140448905Y-76051580D01*
X140448905Y-76051580D02*
X140496524Y-76099200D01*
X140496524Y-76099200D02*
X140591762Y-76146819D01*
X140591762Y-76146819D02*
X140782238Y-76146819D01*
X140782238Y-76146819D02*
X140877476Y-76099200D01*
X140877476Y-76099200D02*
X140925095Y-76051580D01*
X140925095Y-76051580D02*
X140972714Y-75956342D01*
X140972714Y-75956342D02*
X140972714Y-75765866D01*
X140972714Y-75765866D02*
X140925095Y-75670628D01*
X140925095Y-75670628D02*
X140877476Y-75623009D01*
X140877476Y-75623009D02*
X140782238Y-75575390D01*
X140295333Y-68272819D02*
X139819143Y-68272819D01*
X139819143Y-68272819D02*
X139819143Y-67272819D01*
X140581048Y-67368057D02*
X140628667Y-67320438D01*
X140628667Y-67320438D02*
X140723905Y-67272819D01*
X140723905Y-67272819D02*
X140962000Y-67272819D01*
X140962000Y-67272819D02*
X141057238Y-67320438D01*
X141057238Y-67320438D02*
X141104857Y-67368057D01*
X141104857Y-67368057D02*
X141152476Y-67463295D01*
X141152476Y-67463295D02*
X141152476Y-67558533D01*
X141152476Y-67558533D02*
X141104857Y-67701390D01*
X141104857Y-67701390D02*
X140533429Y-68272819D01*
X140533429Y-68272819D02*
X141152476Y-68272819D01*
X166610889Y-60267580D02*
X166610889Y-60839959D01*
X166610889Y-60839959D02*
X166572731Y-60954435D01*
X166572731Y-60954435D02*
X166496413Y-61030753D01*
X166496413Y-61030753D02*
X166381938Y-61068911D01*
X166381938Y-61068911D02*
X166305620Y-61068911D01*
X167374062Y-60267580D02*
X166992476Y-60267580D01*
X166992476Y-60267580D02*
X166954317Y-60649166D01*
X166954317Y-60649166D02*
X166992476Y-60611008D01*
X166992476Y-60611008D02*
X167068793Y-60572849D01*
X167068793Y-60572849D02*
X167259586Y-60572849D01*
X167259586Y-60572849D02*
X167335903Y-60611008D01*
X167335903Y-60611008D02*
X167374062Y-60649166D01*
X167374062Y-60649166D02*
X167412220Y-60725484D01*
X167412220Y-60725484D02*
X167412220Y-60916277D01*
X167412220Y-60916277D02*
X167374062Y-60992594D01*
X167374062Y-60992594D02*
X167335903Y-61030753D01*
X167335903Y-61030753D02*
X167259586Y-61068911D01*
X167259586Y-61068911D02*
X167068793Y-61068911D01*
X167068793Y-61068911D02*
X166992476Y-61030753D01*
X166992476Y-61030753D02*
X166954317Y-60992594D01*
D12*
X145628571Y-71551190D02*
X145604762Y-71575000D01*
X145604762Y-71575000D02*
X145533333Y-71598809D01*
X145533333Y-71598809D02*
X145485714Y-71598809D01*
X145485714Y-71598809D02*
X145414286Y-71575000D01*
X145414286Y-71575000D02*
X145366667Y-71527380D01*
X145366667Y-71527380D02*
X145342857Y-71479761D01*
X145342857Y-71479761D02*
X145319048Y-71384523D01*
X145319048Y-71384523D02*
X145319048Y-71313095D01*
X145319048Y-71313095D02*
X145342857Y-71217857D01*
X145342857Y-71217857D02*
X145366667Y-71170238D01*
X145366667Y-71170238D02*
X145414286Y-71122619D01*
X145414286Y-71122619D02*
X145485714Y-71098809D01*
X145485714Y-71098809D02*
X145533333Y-71098809D01*
X145533333Y-71098809D02*
X145604762Y-71122619D01*
X145604762Y-71122619D02*
X145628571Y-71146428D01*
X146104762Y-71598809D02*
X145819048Y-71598809D01*
X145961905Y-71598809D02*
X145961905Y-71098809D01*
X145961905Y-71098809D02*
X145914286Y-71170238D01*
X145914286Y-71170238D02*
X145866667Y-71217857D01*
X145866667Y-71217857D02*
X145819048Y-71241666D01*
X146533333Y-71265476D02*
X146533333Y-71598809D01*
X146414285Y-71075000D02*
X146295238Y-71432142D01*
X146295238Y-71432142D02*
X146604761Y-71432142D01*
D11*
X141322142Y-73765580D02*
X141274523Y-73813200D01*
X141274523Y-73813200D02*
X141131666Y-73860819D01*
X141131666Y-73860819D02*
X141036428Y-73860819D01*
X141036428Y-73860819D02*
X140893571Y-73813200D01*
X140893571Y-73813200D02*
X140798333Y-73717961D01*
X140798333Y-73717961D02*
X140750714Y-73622723D01*
X140750714Y-73622723D02*
X140703095Y-73432247D01*
X140703095Y-73432247D02*
X140703095Y-73289390D01*
X140703095Y-73289390D02*
X140750714Y-73098914D01*
X140750714Y-73098914D02*
X140798333Y-73003676D01*
X140798333Y-73003676D02*
X140893571Y-72908438D01*
X140893571Y-72908438D02*
X141036428Y-72860819D01*
X141036428Y-72860819D02*
X141131666Y-72860819D01*
X141131666Y-72860819D02*
X141274523Y-72908438D01*
X141274523Y-72908438D02*
X141322142Y-72956057D01*
X142274523Y-73860819D02*
X141703095Y-73860819D01*
X141988809Y-73860819D02*
X141988809Y-72860819D01*
X141988809Y-72860819D02*
X141893571Y-73003676D01*
X141893571Y-73003676D02*
X141798333Y-73098914D01*
X141798333Y-73098914D02*
X141703095Y-73146533D01*
X143179285Y-72860819D02*
X142703095Y-72860819D01*
X142703095Y-72860819D02*
X142655476Y-73337009D01*
X142655476Y-73337009D02*
X142703095Y-73289390D01*
X142703095Y-73289390D02*
X142798333Y-73241771D01*
X142798333Y-73241771D02*
X143036428Y-73241771D01*
X143036428Y-73241771D02*
X143131666Y-73289390D01*
X143131666Y-73289390D02*
X143179285Y-73337009D01*
X143179285Y-73337009D02*
X143226904Y-73432247D01*
X143226904Y-73432247D02*
X143226904Y-73670342D01*
X143226904Y-73670342D02*
X143179285Y-73765580D01*
X143179285Y-73765580D02*
X143131666Y-73813200D01*
X143131666Y-73813200D02*
X143036428Y-73860819D01*
X143036428Y-73860819D02*
X142798333Y-73860819D01*
X142798333Y-73860819D02*
X142703095Y-73813200D01*
X142703095Y-73813200D02*
X142655476Y-73765580D01*
X141565333Y-70174580D02*
X141517714Y-70222200D01*
X141517714Y-70222200D02*
X141374857Y-70269819D01*
X141374857Y-70269819D02*
X141279619Y-70269819D01*
X141279619Y-70269819D02*
X141136762Y-70222200D01*
X141136762Y-70222200D02*
X141041524Y-70126961D01*
X141041524Y-70126961D02*
X140993905Y-70031723D01*
X140993905Y-70031723D02*
X140946286Y-69841247D01*
X140946286Y-69841247D02*
X140946286Y-69698390D01*
X140946286Y-69698390D02*
X140993905Y-69507914D01*
X140993905Y-69507914D02*
X141041524Y-69412676D01*
X141041524Y-69412676D02*
X141136762Y-69317438D01*
X141136762Y-69317438D02*
X141279619Y-69269819D01*
X141279619Y-69269819D02*
X141374857Y-69269819D01*
X141374857Y-69269819D02*
X141517714Y-69317438D01*
X141517714Y-69317438D02*
X141565333Y-69365057D01*
X141946286Y-69365057D02*
X141993905Y-69317438D01*
X141993905Y-69317438D02*
X142089143Y-69269819D01*
X142089143Y-69269819D02*
X142327238Y-69269819D01*
X142327238Y-69269819D02*
X142422476Y-69317438D01*
X142422476Y-69317438D02*
X142470095Y-69365057D01*
X142470095Y-69365057D02*
X142517714Y-69460295D01*
X142517714Y-69460295D02*
X142517714Y-69555533D01*
X142517714Y-69555533D02*
X142470095Y-69698390D01*
X142470095Y-69698390D02*
X141898667Y-70269819D01*
X141898667Y-70269819D02*
X142517714Y-70269819D01*
X150033333Y-70834580D02*
X149985714Y-70882200D01*
X149985714Y-70882200D02*
X149842857Y-70929819D01*
X149842857Y-70929819D02*
X149747619Y-70929819D01*
X149747619Y-70929819D02*
X149604762Y-70882200D01*
X149604762Y-70882200D02*
X149509524Y-70786961D01*
X149509524Y-70786961D02*
X149461905Y-70691723D01*
X149461905Y-70691723D02*
X149414286Y-70501247D01*
X149414286Y-70501247D02*
X149414286Y-70358390D01*
X149414286Y-70358390D02*
X149461905Y-70167914D01*
X149461905Y-70167914D02*
X149509524Y-70072676D01*
X149509524Y-70072676D02*
X149604762Y-69977438D01*
X149604762Y-69977438D02*
X149747619Y-69929819D01*
X149747619Y-69929819D02*
X149842857Y-69929819D01*
X149842857Y-69929819D02*
X149985714Y-69977438D01*
X149985714Y-69977438D02*
X150033333Y-70025057D01*
X150366667Y-69929819D02*
X150985714Y-69929819D01*
X150985714Y-69929819D02*
X150652381Y-70310771D01*
X150652381Y-70310771D02*
X150795238Y-70310771D01*
X150795238Y-70310771D02*
X150890476Y-70358390D01*
X150890476Y-70358390D02*
X150938095Y-70406009D01*
X150938095Y-70406009D02*
X150985714Y-70501247D01*
X150985714Y-70501247D02*
X150985714Y-70739342D01*
X150985714Y-70739342D02*
X150938095Y-70834580D01*
X150938095Y-70834580D02*
X150890476Y-70882200D01*
X150890476Y-70882200D02*
X150795238Y-70929819D01*
X150795238Y-70929819D02*
X150509524Y-70929819D01*
X150509524Y-70929819D02*
X150414286Y-70882200D01*
X150414286Y-70882200D02*
X150366667Y-70834580D01*
D13*
%TO.C,U3*%
X170490000Y-72640000D02*
X171900000Y-72640000D01*
X170500000Y-74960000D02*
X171900000Y-74960000D01*
X170120000Y-72690000D02*
X169880000Y-72360000D01*
X170360000Y-72360000D01*
X170120000Y-72690000D01*
G36*
X170120000Y-72690000D02*
G01*
X169880000Y-72360000D01*
X170360000Y-72360000D01*
X170120000Y-72690000D01*
G37*
D14*
%TO.C,U1*%
G36*
X154840437Y-71911400D02*
G01*
X154459437Y-71911400D01*
X154459437Y-71657400D01*
X154840437Y-71657400D01*
X154840437Y-71911400D01*
G37*
D15*
X153274400Y-67974400D02*
X153274400Y-68390071D01*
X153274400Y-71225600D02*
X153690071Y-71225600D01*
X156525600Y-71225600D02*
X156525600Y-70809929D01*
X156525600Y-67974400D02*
X156109929Y-67974400D01*
X153690071Y-67974400D02*
X153274400Y-67974400D01*
X153274400Y-70809929D02*
X153274400Y-71225600D01*
X156109929Y-71225600D02*
X156525600Y-71225600D01*
X156525600Y-68390071D02*
X156525600Y-67974400D01*
D16*
%TO.C,J8*%
X142000000Y-59180000D02*
X144600000Y-59180000D01*
D11*
X143375000Y-63100000D02*
G75*
G02*
X143225000Y-63100000I-75000J0D01*
G01*
X143225000Y-63100000D02*
G75*
G02*
X143375000Y-63100000I75000J0D01*
G01*
D16*
X142000000Y-62020000D02*
X142550000Y-62020000D01*
X144050000Y-62020000D02*
X144600000Y-62020000D01*
%TO.C,J6*%
X148350000Y-59180000D02*
X150950000Y-59180000D01*
D11*
X149725000Y-63100000D02*
G75*
G02*
X149575000Y-63100000I-75000J0D01*
G01*
X149575000Y-63100000D02*
G75*
G02*
X149725000Y-63100000I75000J0D01*
G01*
D16*
X148350000Y-62020000D02*
X148900000Y-62020000D01*
X150400000Y-62020000D02*
X150950000Y-62020000D01*
D13*
%TO.C,IC1*%
X143640000Y-77510000D02*
X143640000Y-76100000D01*
X145960000Y-77500000D02*
X145960000Y-76100000D01*
X143690000Y-77880000D02*
X143360000Y-78120000D01*
X143360000Y-77640000D01*
X143690000Y-77880000D01*
G36*
X143690000Y-77880000D02*
G01*
X143360000Y-78120000D01*
X143360000Y-77640000D01*
X143690000Y-77880000D01*
G37*
%TO.C,C9*%
X173510000Y-73242164D02*
X173510000Y-73457836D01*
X174230000Y-73242164D02*
X174230000Y-73457836D01*
%TO.C,TP3*%
X168600000Y-89100000D02*
X170000000Y-89100000D01*
X168600000Y-90500000D02*
X168600000Y-89100000D01*
X170000000Y-89100000D02*
X170000000Y-90500000D01*
X170000000Y-90500000D02*
X168600000Y-90500000D01*
%TO.C,C8*%
X171842164Y-75940000D02*
X172057836Y-75940000D01*
X171842164Y-76660000D02*
X172057836Y-76660000D01*
%TO.C,C4*%
X161940000Y-66427836D02*
X161940000Y-66212164D01*
X162660000Y-66427836D02*
X162660000Y-66212164D01*
%TO.C,JP4*%
X147490000Y-72690000D02*
X147490000Y-72090000D01*
X148190000Y-71390000D02*
X149590000Y-71390000D01*
X149590000Y-73390000D02*
X148190000Y-73390000D01*
X150290000Y-72090000D02*
X150290000Y-72690000D01*
X147490000Y-72090000D02*
G75*
G02*
X148190000Y-71390000I699999J1D01*
G01*
X148190000Y-73390000D02*
G75*
G02*
X147490000Y-72690000I-1J699999D01*
G01*
X149590000Y-71390000D02*
G75*
G02*
X150290000Y-72090000I0J-700000D01*
G01*
X150290000Y-72690000D02*
G75*
G02*
X149590000Y-73390000I-700000J0D01*
G01*
%TO.C,TP1*%
X171700000Y-70100000D02*
X173100000Y-70100000D01*
X171700000Y-71500000D02*
X171700000Y-70100000D01*
X173100000Y-70100000D02*
X173100000Y-71500000D01*
X173100000Y-71500000D02*
X171700000Y-71500000D01*
%TO.C,JP3*%
X141050000Y-80675000D02*
X141050000Y-79275000D01*
X141750000Y-78575000D02*
X142350000Y-78575000D01*
X142350000Y-81375000D02*
X141750000Y-81375000D01*
X143050000Y-79275000D02*
X143050000Y-80675000D01*
X141050000Y-79275000D02*
G75*
G02*
X141750000Y-78575000I699999J1D01*
G01*
X141750000Y-81375000D02*
G75*
G02*
X141050000Y-80675000I0J700000D01*
G01*
X142350000Y-78575000D02*
G75*
G02*
X143050000Y-79275000I1J-699999D01*
G01*
X143050000Y-80675000D02*
G75*
G02*
X142350000Y-81375000I-700000J0D01*
G01*
%TO.C,C7*%
X168217836Y-72540000D02*
X168002164Y-72540000D01*
X168217836Y-73260000D02*
X168002164Y-73260000D01*
%TO.C,J3*%
X171240000Y-93115000D02*
X172350000Y-93115000D01*
X171240000Y-93875000D02*
X171240000Y-93115000D01*
X171240000Y-94635000D02*
X171240000Y-98380000D01*
X171240000Y-94635000D02*
X171786529Y-94635000D01*
X171240000Y-98380000D02*
X172042470Y-98380000D01*
X172657530Y-98380000D02*
X173460000Y-98380000D01*
X172913471Y-94635000D02*
X173460000Y-94635000D01*
X173460000Y-94635000D02*
X173460000Y-98380000D01*
%TO.C,C5*%
X169340000Y-66207836D02*
X169340000Y-65992164D01*
X170060000Y-66207836D02*
X170060000Y-65992164D01*
D16*
%TO.C,J4*%
X161000000Y-59180000D02*
X163600000Y-59180000D01*
X161000000Y-62020000D02*
X161550000Y-62020000D01*
X163050000Y-62020000D02*
X163600000Y-62020000D01*
D11*
X162375000Y-63100000D02*
G75*
G02*
X162225000Y-63100000I-75000J0D01*
G01*
X162225000Y-63100000D02*
G75*
G02*
X162375000Y-63100000I75000J0D01*
G01*
D13*
%TO.C,C13*%
X143790000Y-73992164D02*
X143790000Y-74207836D01*
X144510000Y-73992164D02*
X144510000Y-74207836D01*
%TO.C,C6*%
X155757836Y-66340000D02*
X155542164Y-66340000D01*
X155757836Y-67060000D02*
X155542164Y-67060000D01*
%TO.C,C1*%
X154740000Y-73507836D02*
X154740000Y-73292164D01*
X155460000Y-73507836D02*
X155460000Y-73292164D01*
D16*
%TO.C,J5*%
X168400000Y-59080000D02*
X171000000Y-59080000D01*
X168400000Y-61920000D02*
X168950000Y-61920000D01*
X170450000Y-61920000D02*
X171000000Y-61920000D01*
D11*
X169775000Y-63000000D02*
G75*
G02*
X169625000Y-63000000I-75000J0D01*
G01*
X169625000Y-63000000D02*
G75*
G02*
X169775000Y-63000000I75000J0D01*
G01*
D13*
%TO.C,C14*%
X146057836Y-72040000D02*
X145842164Y-72040000D01*
X146057836Y-72760000D02*
X145842164Y-72760000D01*
%TO.C,C15*%
X142232836Y-74240000D02*
X142017164Y-74240000D01*
X142232836Y-74960000D02*
X142017164Y-74960000D01*
%TO.C,C2*%
X142940000Y-69922836D02*
X142940000Y-69707164D01*
X143660000Y-69922836D02*
X143660000Y-69707164D01*
%TO.C,C3*%
X150307836Y-68955000D02*
X150092164Y-68955000D01*
X150307836Y-69675000D02*
X150092164Y-69675000D01*
%TD*%
M02*
