%TF.GenerationSoftware,KiCad,Pcbnew,8.0.7-8.0.7-0~ubuntu22.04.1*%
%TF.CreationDate,2025-02-17T13:03:50+05:30*%
%TF.ProjectId,RFID_pico,52464944-5f70-4696-936f-2e6b69636164,rev?*%
%TF.SameCoordinates,Original*%
%TF.FileFunction,Copper,L2,Bot*%
%TF.FilePolarity,Positive*%
%FSLAX46Y46*%
G04 Gerber Fmt 4.6, Leading zero omitted, Abs format (unit mm)*
G04 Created by KiCad (PCBNEW 8.0.7-8.0.7-0~ubuntu22.04.1) date 2025-02-17 13:03:50*
%MOMM*%
%LPD*%
G01*
G04 APERTURE LIST*
%TA.AperFunction,ConnectorPad*%
%ADD10R,0.350000X1.450000*%
%TD*%
%TA.AperFunction,ComponentPad*%
%ADD11R,1.000000X1.000000*%
%TD*%
%TA.AperFunction,ComponentPad*%
%ADD12O,1.000000X1.000000*%
%TD*%
%TA.AperFunction,ViaPad*%
%ADD13C,0.400000*%
%TD*%
%TA.AperFunction,Conductor*%
%ADD14C,0.150000*%
%TD*%
%TA.AperFunction,Conductor*%
%ADD15C,0.500000*%
%TD*%
G04 APERTURE END LIST*
D10*
%TO.P,J7,2,2*%
%TO.N,unconnected-(J7-Pad2)*%
X166230000Y-102430000D03*
%TO.P,J7,4,4*%
%TO.N,unconnected-(J7-Pad4)*%
X165730000Y-102430000D03*
%TO.P,J7,6,6*%
%TO.N,unconnected-(J7-Pad6)*%
X165230000Y-102430000D03*
%TO.P,J7,8,8*%
%TO.N,unconnected-(J7-Pad8)*%
X164730000Y-102430000D03*
%TO.P,J7,10,10*%
%TO.N,unconnected-(J7-Pad10)*%
X164230000Y-102430000D03*
%TO.P,J7,12,12*%
%TO.N,unconnected-(J7-Pad12)*%
X163730000Y-102430000D03*
%TO.P,J7,14,14*%
%TO.N,unconnected-(J7-Pad14)*%
X163230000Y-102430000D03*
%TO.P,J7,16,16*%
%TO.N,unconnected-(J7-Pad16)*%
X162730000Y-102430000D03*
%TO.P,J7,18,18*%
%TO.N,unconnected-(J7-Pad18)*%
X162230000Y-102430000D03*
%TO.P,J7,20,20*%
%TO.N,unconnected-(J7-Pad20)*%
X161730000Y-102430000D03*
%TO.P,J7,22,22*%
%TO.N,unconnected-(J7-Pad22)*%
X161230000Y-102430000D03*
%TO.P,J7,32,32*%
%TO.N,unconnected-(J7-Pad32)*%
X158730000Y-102430000D03*
%TO.P,J7,34,34*%
%TO.N,unconnected-(J7-Pad34)*%
X158230000Y-102430000D03*
%TO.P,J7,36,36*%
%TO.N,unconnected-(J7-Pad36)*%
X157730000Y-102430000D03*
%TO.P,J7,38,38*%
%TO.N,unconnected-(J7-Pad38)*%
X157230000Y-102430000D03*
%TO.P,J7,40,40*%
%TO.N,unconnected-(J7-Pad40)*%
X156730000Y-102430000D03*
%TO.P,J7,42,42*%
%TO.N,unconnected-(J7-Pad42)*%
X156230000Y-102430000D03*
%TO.P,J7,44,44*%
%TO.N,unconnected-(J7-Pad44)*%
X155730000Y-102430000D03*
%TO.P,J7,46,46*%
%TO.N,unconnected-(J7-Pad46)*%
X155230000Y-102430000D03*
%TO.P,J7,48,48*%
%TO.N,unconnected-(J7-Pad48)*%
X154730000Y-102430000D03*
%TO.P,J7,50,50*%
%TO.N,unconnected-(J7-Pad50)*%
X154230000Y-102430000D03*
%TO.P,J7,52,52*%
%TO.N,unconnected-(J7-Pad52)*%
X153730000Y-102430000D03*
%TO.P,J7,54,54*%
%TO.N,unconnected-(J7-Pad54)*%
X153230000Y-102430000D03*
%TO.P,J7,56,56*%
%TO.N,unconnected-(J7-Pad56)*%
X152730000Y-102430000D03*
%TO.P,J7,58,58*%
%TO.N,unconnected-(J7-Pad58)*%
X152230000Y-102430000D03*
%TO.P,J7,60,60*%
%TO.N,unconnected-(J7-Pad60)*%
X151730000Y-102430000D03*
%TO.P,J7,62,62*%
%TO.N,unconnected-(J7-Pad62)*%
X151230000Y-102430000D03*
%TO.P,J7,64,64*%
%TO.N,unconnected-(J7-Pad64)*%
X150730000Y-102430000D03*
%TO.P,J7,66,66*%
%TO.N,unconnected-(J7-Pad66)*%
X150230000Y-102430000D03*
%TO.P,J7,68,68*%
%TO.N,unconnected-(J7-Pad68)*%
X149730000Y-102430000D03*
%TO.P,J7,70,70*%
%TO.N,unconnected-(J7-Pad70)*%
X149230000Y-102430000D03*
%TO.P,J7,72,72*%
%TO.N,unconnected-(J7-Pad72)*%
X148730000Y-102430000D03*
%TO.P,J7,74,74*%
%TO.N,unconnected-(J7-Pad74)*%
X148230000Y-102430000D03*
%TD*%
D11*
%TO.P,J3,1,Pin_1*%
%TO.N,VCC*%
X172350000Y-93875000D03*
D12*
%TO.P,J3,2,Pin_2*%
%TO.N,/TXD*%
X172350000Y-95145000D03*
%TO.P,J3,3,Pin_3*%
%TO.N,/RXD*%
X172350000Y-96415000D03*
%TO.P,J3,4,Pin_4*%
%TO.N,GND*%
X172350000Y-97685000D03*
%TD*%
D13*
%TO.N,GND*%
X141750000Y-72250000D03*
X141025000Y-72250000D03*
X142400000Y-72225000D03*
X141025000Y-71500000D03*
X141750000Y-71500000D03*
X142400000Y-71500000D03*
X141725000Y-72900000D03*
X141000000Y-72900000D03*
X142450000Y-72900000D03*
X151950000Y-72000000D03*
X151225000Y-72000000D03*
X152600000Y-71975000D03*
X151225000Y-71250000D03*
X151950000Y-71250000D03*
X152600000Y-71250000D03*
X142050000Y-87300000D03*
X141325000Y-87300000D03*
X142700000Y-87275000D03*
X141325000Y-86550000D03*
X142050000Y-86550000D03*
X142700000Y-86550000D03*
X142025000Y-87950000D03*
X141300000Y-87950000D03*
X142750000Y-87950000D03*
X142050000Y-85150000D03*
X141325000Y-85150000D03*
X142700000Y-85125000D03*
X141325000Y-84400000D03*
X142050000Y-84400000D03*
X142700000Y-84400000D03*
X142025000Y-85800000D03*
X141300000Y-85800000D03*
X142750000Y-85800000D03*
X142050000Y-83100000D03*
X141325000Y-83100000D03*
X142700000Y-83075000D03*
X141325000Y-82350000D03*
X142050000Y-82350000D03*
X142700000Y-82350000D03*
X142025000Y-83750000D03*
X141300000Y-83750000D03*
X142750000Y-83750000D03*
X161650000Y-95100000D03*
X160925000Y-95100000D03*
X162300000Y-95075000D03*
X160925000Y-94350000D03*
X161650000Y-94350000D03*
X162300000Y-94350000D03*
X161625000Y-95750000D03*
X160900000Y-95750000D03*
X162350000Y-95750000D03*
X159450000Y-95150000D03*
X158725000Y-95150000D03*
X160100000Y-95125000D03*
X158725000Y-94400000D03*
X159450000Y-94400000D03*
X160100000Y-94400000D03*
X159425000Y-95800000D03*
X158700000Y-95800000D03*
X160150000Y-95800000D03*
X157250000Y-95200000D03*
X156525000Y-95200000D03*
X157900000Y-95175000D03*
X156525000Y-94450000D03*
X157250000Y-94450000D03*
X157900000Y-94450000D03*
X157225000Y-95850000D03*
X156500000Y-95850000D03*
X157950000Y-95850000D03*
X155050000Y-95200000D03*
X154325000Y-95200000D03*
X155700000Y-95175000D03*
X154325000Y-94450000D03*
X155050000Y-94450000D03*
X155700000Y-94450000D03*
X155025000Y-95850000D03*
X154300000Y-95850000D03*
X155750000Y-95850000D03*
X152850000Y-95200000D03*
X152125000Y-95200000D03*
X153500000Y-95175000D03*
X152125000Y-94450000D03*
X152850000Y-94450000D03*
X153500000Y-94450000D03*
X152825000Y-95850000D03*
X152100000Y-95850000D03*
X153550000Y-95850000D03*
X162050000Y-79900000D03*
X161325000Y-79900000D03*
X162700000Y-79875000D03*
X161325000Y-79150000D03*
X162050000Y-79150000D03*
X162700000Y-79150000D03*
X162025000Y-80550000D03*
X161300000Y-80550000D03*
X162750000Y-80550000D03*
X167250000Y-68300000D03*
X167250000Y-69025000D03*
X166600000Y-68300000D03*
X165875000Y-68300000D03*
X166600000Y-69050000D03*
X165875000Y-69050000D03*
X165200000Y-68300000D03*
X164475000Y-68300000D03*
X165200000Y-69050000D03*
X164475000Y-69050000D03*
X163750000Y-68250000D03*
X163025000Y-68250000D03*
X163750000Y-69000000D03*
X163025000Y-69000000D03*
X167300000Y-69700000D03*
X166575000Y-69700000D03*
X165850000Y-69700000D03*
X165125000Y-69700000D03*
X164450000Y-69700000D03*
X163725000Y-69700000D03*
X163000000Y-69700000D03*
X162275000Y-69700000D03*
X160200000Y-71000000D03*
X159475000Y-71000000D03*
X159500000Y-71000000D03*
X158775000Y-71000000D03*
X158750000Y-71000000D03*
X158025000Y-71000000D03*
X158000000Y-71000000D03*
%TO.N,/TXD*%
X171000000Y-95150000D03*
X164475000Y-100650000D03*
%TO.N,/RXD*%
X165275000Y-100575000D03*
X171025000Y-96425000D03*
%TO.N,GND*%
X146200000Y-68600000D03*
X157275000Y-71000000D03*
%TO.N,V2R7*%
X172380000Y-69620000D03*
X155170000Y-65850000D03*
%TO.N,/V3R3*%
X169300000Y-88600000D03*
X143450000Y-74600000D03*
%TO.N,/MXC2*%
X154300000Y-66700000D03*
X147164602Y-72308226D03*
%TO.N,/MXC1*%
X153575000Y-67025000D03*
X142675000Y-73925000D03*
%TO.N,/GPIO2*%
X145800000Y-84000000D03*
X144800000Y-78800000D03*
%TD*%
D14*
%TO.N,/TXD*%
X169975000Y-95150000D02*
X171000000Y-95150000D01*
X164475000Y-100650000D02*
X169975000Y-95150000D01*
%TO.N,/RXD*%
X165950000Y-100575000D02*
X170100000Y-96425000D01*
X170100000Y-96425000D02*
X171025000Y-96425000D01*
X165275000Y-100575000D02*
X165950000Y-100575000D01*
D15*
%TO.N,V2R7*%
X172380000Y-69620000D02*
X168610000Y-65850000D01*
X168610000Y-65850000D02*
X155170000Y-65850000D01*
%TO.N,/V3R3*%
X145125000Y-72925000D02*
X143450000Y-74600000D01*
X146811827Y-72925000D02*
X145125000Y-72925000D01*
X146851827Y-72965000D02*
X146811827Y-72925000D01*
X169300000Y-77300000D02*
X164925000Y-72925000D01*
X147328173Y-72965000D02*
X146851827Y-72965000D01*
X169300000Y-88600000D02*
X169300000Y-77300000D01*
X147368173Y-72925000D02*
X147328173Y-72965000D01*
X164925000Y-72925000D02*
X147368173Y-72925000D01*
D14*
%TO.N,/MXC2*%
X148963526Y-72308226D02*
X154300000Y-66971752D01*
X147164602Y-72308226D02*
X148963526Y-72308226D01*
X154300000Y-66971752D02*
X154300000Y-66700000D01*
%TO.N,/MXC1*%
X153575000Y-67025000D02*
X149575000Y-67025000D01*
X149575000Y-67025000D02*
X142675000Y-73925000D01*
%TO.N,/GPIO2*%
X144800000Y-78800000D02*
X144800000Y-83000000D01*
X144800000Y-83000000D02*
X145800000Y-84000000D01*
%TD*%
%TA.AperFunction,Conductor*%
%TO.N,GND*%
G36*
X174717963Y-58844685D02*
G01*
X174763718Y-58897489D01*
X174774924Y-58949076D01*
X174770513Y-66157313D01*
X174751883Y-96599008D01*
X174750076Y-99551076D01*
X174730350Y-99618103D01*
X174677518Y-99663826D01*
X174626076Y-99675000D01*
X167609689Y-99675000D01*
X167542650Y-99655315D01*
X167496895Y-99602511D01*
X167486951Y-99533353D01*
X167515976Y-99469797D01*
X167522008Y-99463319D01*
X168800327Y-98185000D01*
X171148762Y-98185000D01*
X171219865Y-98337482D01*
X171350342Y-98523820D01*
X171511179Y-98684657D01*
X171697518Y-98815134D01*
X171697520Y-98815135D01*
X171849999Y-98886237D01*
X172850000Y-98886237D01*
X173002479Y-98815135D01*
X173002481Y-98815134D01*
X173188820Y-98684657D01*
X173349657Y-98523820D01*
X173480134Y-98337482D01*
X173551237Y-98185000D01*
X172850000Y-98185000D01*
X172850000Y-98886237D01*
X171849999Y-98886237D01*
X171850000Y-98886236D01*
X171850000Y-98185000D01*
X171148762Y-98185000D01*
X168800327Y-98185000D01*
X169343114Y-97642213D01*
X172025000Y-97642213D01*
X172025000Y-97727787D01*
X172047149Y-97810445D01*
X172089936Y-97884554D01*
X172150446Y-97945064D01*
X172224555Y-97987851D01*
X172307213Y-98010000D01*
X172392787Y-98010000D01*
X172475445Y-97987851D01*
X172549554Y-97945064D01*
X172610064Y-97884554D01*
X172652851Y-97810445D01*
X172675000Y-97727787D01*
X172675000Y-97642213D01*
X172652851Y-97559555D01*
X172610064Y-97485446D01*
X172549554Y-97424936D01*
X172475445Y-97382149D01*
X172392787Y-97360000D01*
X172307213Y-97360000D01*
X172224555Y-97382149D01*
X172150446Y-97424936D01*
X172089936Y-97485446D01*
X172047149Y-97559555D01*
X172025000Y-97642213D01*
X169343114Y-97642213D01*
X170198508Y-96786819D01*
X170259831Y-96753334D01*
X170286189Y-96750500D01*
X170661806Y-96750500D01*
X170728844Y-96770183D01*
X170835931Y-96839004D01*
X170960225Y-96875499D01*
X170960227Y-96875500D01*
X171098444Y-96875500D01*
X171165483Y-96895185D01*
X171211238Y-96947989D01*
X171221182Y-97017147D01*
X171210826Y-97051905D01*
X171148762Y-97184999D01*
X171148762Y-97185000D01*
X173551238Y-97185000D01*
X173551237Y-97184999D01*
X173480134Y-97032517D01*
X173349657Y-96846179D01*
X173188813Y-96685335D01*
X173143471Y-96653586D01*
X173099847Y-96599008D01*
X173091376Y-96538128D01*
X173105249Y-96415002D01*
X173105249Y-96414997D01*
X173086314Y-96246943D01*
X173030454Y-96087305D01*
X173030452Y-96087302D01*
X172940481Y-95944115D01*
X172940476Y-95944109D01*
X172864048Y-95867681D01*
X172830563Y-95806358D01*
X172835547Y-95736666D01*
X172864048Y-95692319D01*
X172940477Y-95615890D01*
X172973079Y-95564005D01*
X173030452Y-95472697D01*
X173030454Y-95472694D01*
X173030454Y-95472692D01*
X173030456Y-95472690D01*
X173086313Y-95313059D01*
X173086313Y-95313058D01*
X173086314Y-95313056D01*
X173105249Y-95145002D01*
X173105249Y-95144997D01*
X173086314Y-94976943D01*
X173060768Y-94903937D01*
X173030456Y-94817310D01*
X173030454Y-94817307D01*
X173030454Y-94817306D01*
X172979363Y-94735996D01*
X172978827Y-94735144D01*
X172959827Y-94667908D01*
X172980194Y-94601073D01*
X173014930Y-94566071D01*
X173030601Y-94555601D01*
X173085966Y-94472740D01*
X173100500Y-94399674D01*
X173100500Y-93350326D01*
X173100500Y-93350323D01*
X173100499Y-93350321D01*
X173085967Y-93277264D01*
X173085966Y-93277260D01*
X173030601Y-93194399D01*
X172947740Y-93139034D01*
X172947739Y-93139033D01*
X172947735Y-93139032D01*
X172874677Y-93124500D01*
X172874674Y-93124500D01*
X171825326Y-93124500D01*
X171825323Y-93124500D01*
X171752264Y-93139032D01*
X171752260Y-93139033D01*
X171669399Y-93194399D01*
X171614033Y-93277260D01*
X171614032Y-93277264D01*
X171599500Y-93350321D01*
X171599500Y-94399678D01*
X171614032Y-94472735D01*
X171614033Y-94472739D01*
X171614034Y-94472740D01*
X171669399Y-94555601D01*
X171685068Y-94566070D01*
X171729872Y-94619679D01*
X171738582Y-94689004D01*
X171721172Y-94735144D01*
X171669544Y-94817309D01*
X171669542Y-94817313D01*
X171629820Y-94930831D01*
X171589098Y-94987607D01*
X171524146Y-95013354D01*
X171455584Y-94999897D01*
X171405181Y-94951510D01*
X171399993Y-94941405D01*
X171382882Y-94903937D01*
X171298049Y-94806033D01*
X171189069Y-94735996D01*
X171189065Y-94735994D01*
X171189064Y-94735994D01*
X171064774Y-94699500D01*
X171064772Y-94699500D01*
X170935228Y-94699500D01*
X170935226Y-94699500D01*
X170810935Y-94735994D01*
X170810932Y-94735995D01*
X170810931Y-94735996D01*
X170703845Y-94804816D01*
X170636806Y-94824500D01*
X170025465Y-94824500D01*
X170025449Y-94824499D01*
X170017853Y-94824499D01*
X169932147Y-94824499D01*
X169899033Y-94833372D01*
X169849359Y-94846682D01*
X169849358Y-94846683D01*
X169775141Y-94889532D01*
X169775136Y-94889536D01*
X165025992Y-99638681D01*
X164964669Y-99672166D01*
X164938311Y-99675000D01*
X139074000Y-99675000D01*
X139006961Y-99655315D01*
X138961206Y-99602511D01*
X138950000Y-99551000D01*
X138950000Y-78800000D01*
X144344867Y-78800000D01*
X144363302Y-78928225D01*
X144417117Y-79046061D01*
X144417118Y-79046063D01*
X144444213Y-79077333D01*
X144473238Y-79140888D01*
X144474500Y-79158535D01*
X144474500Y-83042852D01*
X144496682Y-83125640D01*
X144518108Y-83162750D01*
X144539535Y-83199862D01*
X144539536Y-83199863D01*
X144539537Y-83199864D01*
X145316555Y-83976881D01*
X145350040Y-84038204D01*
X145351612Y-84046915D01*
X145363302Y-84128225D01*
X145417117Y-84246061D01*
X145417118Y-84246063D01*
X145501951Y-84343967D01*
X145610931Y-84414004D01*
X145735225Y-84450499D01*
X145735227Y-84450500D01*
X145735228Y-84450500D01*
X145864773Y-84450500D01*
X145864773Y-84450499D01*
X145989069Y-84414004D01*
X146098049Y-84343967D01*
X146182882Y-84246063D01*
X146236697Y-84128226D01*
X146255133Y-84000000D01*
X146236697Y-83871774D01*
X146182882Y-83753937D01*
X146098049Y-83656033D01*
X145989069Y-83585996D01*
X145989065Y-83585994D01*
X145989064Y-83585994D01*
X145864774Y-83549500D01*
X145864772Y-83549500D01*
X145861188Y-83549500D01*
X145857748Y-83548490D01*
X145855995Y-83548238D01*
X145856031Y-83547985D01*
X145794149Y-83529815D01*
X145773507Y-83513181D01*
X145161819Y-82901492D01*
X145128334Y-82840169D01*
X145125500Y-82813811D01*
X145125500Y-79158535D01*
X145145185Y-79091496D01*
X145155783Y-79077336D01*
X145182882Y-79046063D01*
X145236697Y-78928226D01*
X145255133Y-78800000D01*
X145236697Y-78671774D01*
X145182882Y-78553937D01*
X145098049Y-78456033D01*
X144989069Y-78385996D01*
X144989065Y-78385994D01*
X144989064Y-78385994D01*
X144864774Y-78349500D01*
X144864772Y-78349500D01*
X144735228Y-78349500D01*
X144735226Y-78349500D01*
X144610935Y-78385994D01*
X144610932Y-78385995D01*
X144610931Y-78385996D01*
X144559677Y-78418934D01*
X144501950Y-78456033D01*
X144417118Y-78553937D01*
X144417117Y-78553938D01*
X144363302Y-78671774D01*
X144344867Y-78800000D01*
X138950000Y-78800000D01*
X138950000Y-73925000D01*
X142219867Y-73925000D01*
X142238302Y-74053225D01*
X142292117Y-74171061D01*
X142292118Y-74171063D01*
X142376951Y-74268967D01*
X142485931Y-74339004D01*
X142548318Y-74357322D01*
X142610225Y-74375499D01*
X142610227Y-74375500D01*
X142610228Y-74375500D01*
X142739771Y-74375500D01*
X142739772Y-74375500D01*
X142801682Y-74357322D01*
X142871549Y-74357322D01*
X142930328Y-74395096D01*
X142959353Y-74458651D01*
X142956391Y-74508389D01*
X142949500Y-74534108D01*
X142949500Y-74665891D01*
X142983608Y-74793187D01*
X143016554Y-74850250D01*
X143049500Y-74907314D01*
X143142686Y-75000500D01*
X143256814Y-75066392D01*
X143384108Y-75100500D01*
X143384110Y-75100500D01*
X143515890Y-75100500D01*
X143515892Y-75100500D01*
X143643186Y-75066392D01*
X143757314Y-75000500D01*
X145295995Y-73461819D01*
X145357318Y-73428334D01*
X145383676Y-73425500D01*
X146620328Y-73425500D01*
X146652421Y-73429725D01*
X146658639Y-73431391D01*
X146658641Y-73431392D01*
X146785935Y-73465500D01*
X146785937Y-73465500D01*
X147394063Y-73465500D01*
X147394065Y-73465500D01*
X147521359Y-73431392D01*
X147521360Y-73431391D01*
X147527579Y-73429725D01*
X147559672Y-73425500D01*
X164666324Y-73425500D01*
X164733363Y-73445185D01*
X164754005Y-73461819D01*
X168763181Y-77470995D01*
X168796666Y-77532318D01*
X168799500Y-77558676D01*
X168799500Y-88665891D01*
X168833608Y-88793187D01*
X168866554Y-88850250D01*
X168899500Y-88907314D01*
X168992686Y-89000500D01*
X169106814Y-89066392D01*
X169234108Y-89100500D01*
X169234110Y-89100500D01*
X169365890Y-89100500D01*
X169365892Y-89100500D01*
X169493186Y-89066392D01*
X169607314Y-89000500D01*
X169700500Y-88907314D01*
X169766392Y-88793186D01*
X169800500Y-88665892D01*
X169800500Y-77234108D01*
X169766392Y-77106814D01*
X169700500Y-76992686D01*
X169607314Y-76899500D01*
X165232314Y-72524500D01*
X165175250Y-72491554D01*
X165118187Y-72458608D01*
X165054539Y-72441554D01*
X164990892Y-72424500D01*
X164990891Y-72424500D01*
X149606941Y-72424500D01*
X149539902Y-72404815D01*
X149494147Y-72352011D01*
X149484203Y-72282853D01*
X149513228Y-72219297D01*
X149519260Y-72212819D01*
X151918893Y-69813186D01*
X154560465Y-67171614D01*
X154603318Y-67097391D01*
X154619017Y-67038797D01*
X154645076Y-66989692D01*
X154682882Y-66946063D01*
X154736697Y-66828226D01*
X154755133Y-66700000D01*
X154736697Y-66571774D01*
X154682882Y-66453937D01*
X154598049Y-66356033D01*
X154489069Y-66285996D01*
X154489065Y-66285994D01*
X154489064Y-66285994D01*
X154364774Y-66249500D01*
X154364772Y-66249500D01*
X154235228Y-66249500D01*
X154235226Y-66249500D01*
X154110935Y-66285994D01*
X154110932Y-66285995D01*
X154110931Y-66285996D01*
X154063635Y-66316391D01*
X154001950Y-66356033D01*
X153917118Y-66453937D01*
X153917116Y-66453938D01*
X153880410Y-66534314D01*
X153834655Y-66587118D01*
X153767615Y-66606802D01*
X153732683Y-66601780D01*
X153639772Y-66574500D01*
X153510228Y-66574500D01*
X153510226Y-66574500D01*
X153385935Y-66610994D01*
X153385932Y-66610995D01*
X153385931Y-66610996D01*
X153278845Y-66679816D01*
X153211806Y-66699500D01*
X149625465Y-66699500D01*
X149625449Y-66699499D01*
X149617853Y-66699499D01*
X149532148Y-66699499D01*
X149490755Y-66710590D01*
X149449360Y-66721682D01*
X149449355Y-66721685D01*
X149375144Y-66764530D01*
X149375136Y-66764536D01*
X142701492Y-73438181D01*
X142640169Y-73471666D01*
X142613811Y-73474500D01*
X142610226Y-73474500D01*
X142485935Y-73510994D01*
X142485932Y-73510995D01*
X142485931Y-73510996D01*
X142434677Y-73543934D01*
X142376950Y-73581033D01*
X142292118Y-73678937D01*
X142292117Y-73678938D01*
X142238302Y-73796774D01*
X142219867Y-73925000D01*
X138950000Y-73925000D01*
X138950000Y-65784108D01*
X154669500Y-65784108D01*
X154669500Y-65915891D01*
X154703608Y-66043187D01*
X154736554Y-66100250D01*
X154769500Y-66157314D01*
X154862686Y-66250500D01*
X154976814Y-66316392D01*
X155104108Y-66350500D01*
X168351324Y-66350500D01*
X168418363Y-66370185D01*
X168439005Y-66386819D01*
X172072686Y-70020500D01*
X172186814Y-70086392D01*
X172314107Y-70120500D01*
X172314109Y-70120500D01*
X172445890Y-70120500D01*
X172445892Y-70120500D01*
X172573186Y-70086392D01*
X172687314Y-70020500D01*
X172780500Y-69927314D01*
X172846392Y-69813186D01*
X172880500Y-69685892D01*
X172880500Y-69554107D01*
X172846392Y-69426814D01*
X172780500Y-69312686D01*
X168917314Y-65449500D01*
X168860250Y-65416554D01*
X168803187Y-65383608D01*
X168739539Y-65366554D01*
X168675892Y-65349500D01*
X155104108Y-65349500D01*
X154976812Y-65383608D01*
X154862686Y-65449500D01*
X154862683Y-65449502D01*
X154769502Y-65542683D01*
X154769500Y-65542686D01*
X154703608Y-65656812D01*
X154669500Y-65784108D01*
X138950000Y-65784108D01*
X138950000Y-58949000D01*
X138969685Y-58881961D01*
X139022489Y-58836206D01*
X139074000Y-58825000D01*
X174650924Y-58825000D01*
X174717963Y-58844685D01*
G37*
%TD.AperFunction*%
%TD*%
M02*
