M48
; DRILL file {KiCad 8.0.7-8.0.7-0~ubuntu22.04.1} date 2025-02-17T13:03:47+0530
; FORMAT={-:-/ absolute / inch / decimal}
; #@! TF.CreationDate,2025-02-17T13:03:47+05:30
; #@! TF.GenerationSoftware,Kicad,Pcbnew,8.0.7-8.0.7-0~ubuntu22.04.1
; #@! TF.FileFunction,Plated,1,2,PTH
FMAT,2
INCH
; #@! TA.AperFunction,Plated,PTH,ViaDrill
T1C0.0118
; #@! TA.AperFunction,Plated,PTH,ComponentDrill
T2C0.0256
%
G90
G05
T1
X5.5512Y-2.8701
X5.5522Y-2.815
X5.5522Y-2.8445
X5.563Y-3.2972
X5.563Y-3.378
X5.563Y-3.4626
X5.564Y-3.2421
X5.564Y-3.2717
X5.564Y-3.3228
X5.564Y-3.3524
X5.564Y-3.4075
X5.564Y-3.437
X5.5797Y-2.8701
X5.5807Y-2.815
X5.5807Y-2.8445
X5.5915Y-3.2972
X5.5915Y-3.378
X5.5915Y-3.4626
X5.5925Y-3.2421
X5.5925Y-3.2717
X5.5925Y-3.3228
X5.5925Y-3.3524
X5.5925Y-3.4075
X5.5925Y-3.437
X5.6063Y-2.815
X5.6063Y-2.8435
X5.6083Y-2.8701
X5.6171Y-2.9104
X5.6181Y-3.2421
X5.6181Y-3.2707
X5.6181Y-3.3228
X5.6181Y-3.3514
X5.6181Y-3.4075
X5.6181Y-3.436
X5.6201Y-3.2972
X5.6201Y-3.378
X5.6201Y-3.4626
X5.6476Y-2.937
X5.7008Y-3.1024
X5.7402Y-3.3071
X5.7559Y-2.7008
X5.7939Y-2.8468
X5.9537Y-2.8051
X5.9537Y-2.8346
X5.9823Y-2.8051
X5.9823Y-2.8346
X5.9882Y-3.7736
X5.9892Y-3.7185
X5.9892Y-3.748
X6.0079Y-2.8051
X6.0079Y-2.8337
X6.0167Y-3.7736
X6.0177Y-3.7185
X6.0177Y-3.748
X6.0433Y-3.7185
X6.0433Y-3.747
X6.0453Y-3.7736
X6.0463Y-2.6388
X6.0748Y-2.626
X6.0748Y-3.7736
X6.0758Y-3.7185
X6.0758Y-3.748
X6.1033Y-3.7736
X6.1043Y-3.7185
X6.1043Y-3.748
X6.1091Y-2.5925
X6.1299Y-3.7185
X6.1299Y-3.747
X6.1319Y-3.7736
X6.1614Y-3.7736
X6.1624Y-3.7185
X6.1624Y-3.748
X6.19Y-3.7736
X6.1909Y-3.7185
X6.1909Y-3.748
X6.1919Y-2.7953
X6.2165Y-3.7185
X6.2165Y-3.747
X6.2185Y-3.7736
X6.2205Y-2.7953
X6.2215Y-2.7953
X6.248Y-3.7717
X6.249Y-3.7165
X6.249Y-3.7461
X6.25Y-2.7953
X6.251Y-2.7953
X6.2766Y-3.7717
X6.2776Y-3.7165
X6.2776Y-3.7461
X6.2785Y-2.7953
X6.2795Y-2.7953
X6.3031Y-3.7165
X6.3031Y-3.7451
X6.3051Y-3.7717
X6.3071Y-2.7953
X6.3346Y-3.7697
X6.3356Y-3.7146
X6.3356Y-3.7441
X6.3504Y-3.1713
X6.3514Y-3.1161
X6.3514Y-3.1457
X6.3632Y-3.7697
X6.3642Y-3.7146
X6.3642Y-3.7441
X6.3789Y-3.1713
X6.3799Y-3.1161
X6.3799Y-3.1457
X6.3888Y-2.7441
X6.3898Y-3.7146
X6.3898Y-3.7431
X6.3917Y-3.7697
X6.4055Y-3.1161
X6.4055Y-3.1447
X6.4075Y-3.1713
X6.4173Y-2.7441
X6.4183Y-2.687
X6.4183Y-2.7165
X6.4459Y-2.7441
X6.4469Y-2.687
X6.4469Y-2.7165
X6.4744Y-2.7441
X6.4754Y-2.689
X6.4754Y-2.7185
X6.4754Y-3.9626
X6.501Y-2.7441
X6.5039Y-2.689
X6.5039Y-2.7185
X6.5069Y-3.9596
X6.5295Y-2.7441
X6.5305Y-2.689
X6.5305Y-2.7185
X6.5581Y-2.7441
X6.5591Y-2.689
X6.5591Y-2.7185
X6.5846Y-2.689
X6.5846Y-2.7175
X6.5866Y-2.7441
X6.6654Y-3.4882
X6.7323Y-3.7461
X6.7333Y-3.7963
X6.7866Y-2.7409
T2
X6.7854Y-3.6959
X6.7854Y-3.7459
X6.7854Y-3.7959
X6.7854Y-3.8459
M30
