%TF.GenerationSoftware,KiCad,Pcbnew,8.0.7-8.0.7-0~ubuntu22.04.1*%
%TF.CreationDate,2025-03-03T20:15:27+05:30*%
%TF.ProjectId,RFID,52464944-2e6b-4696-9361-645f70636258,rev?*%
%TF.SameCoordinates,Original*%
%TF.FileFunction,Soldermask,Bot*%
%TF.FilePolarity,Negative*%
%FSLAX46Y46*%
G04 Gerber Fmt 4.6, Leading zero omitted, Abs format (unit mm)*
G04 Created by KiCad (PCBNEW 8.0.7-8.0.7-0~ubuntu22.04.1) date 2025-03-03 20:15:27*
%MOMM*%
%LPD*%
G01*
G04 APERTURE LIST*
G04 Aperture macros list*
%AMRoundRect*
0 Rectangle with rounded corners*
0 $1 Rounding radius*
0 $2 $3 $4 $5 $6 $7 $8 $9 X,Y pos of 4 corners*
0 Add a 4 corners polygon primitive as box body*
4,1,4,$2,$3,$4,$5,$6,$7,$8,$9,$2,$3,0*
0 Add four circle primitives for the rounded corners*
1,1,$1+$1,$2,$3*
1,1,$1+$1,$4,$5*
1,1,$1+$1,$6,$7*
1,1,$1+$1,$8,$9*
0 Add four rect primitives between the rounded corners*
20,1,$1+$1,$2,$3,$4,$5,0*
20,1,$1+$1,$4,$5,$6,$7,0*
20,1,$1+$1,$6,$7,$8,$9,0*
20,1,$1+$1,$8,$9,$2,$3,0*%
G04 Aperture macros list end*
%ADD10RoundRect,0.250000X0.625000X-0.350000X0.625000X0.350000X-0.625000X0.350000X-0.625000X-0.350000X0*%
%ADD11O,1.750000X1.200000*%
%ADD12R,1.700000X1.700000*%
%ADD13O,1.700000X1.700000*%
%ADD14O,4.204000X2.204000*%
%ADD15O,2.554000X4.904000*%
%ADD16RoundRect,0.076200X-0.629000X-0.629000X0.629000X-0.629000X0.629000X0.629000X-0.629000X0.629000X0*%
%ADD17C,1.410400*%
%ADD18C,3.518400*%
%ADD19C,2.600000*%
%ADD20C,3.800000*%
%ADD21C,3.250000*%
%ADD22RoundRect,0.102000X0.699000X0.699000X-0.699000X0.699000X-0.699000X-0.699000X0.699000X-0.699000X0*%
%ADD23C,1.602000*%
%ADD24C,1.734000*%
%ADD25C,2.649000*%
%ADD26C,1.702000*%
%ADD27C,2.154000*%
%ADD28C,0.600000*%
%ADD29O,1.104000X2.204000*%
%ADD30O,1.104000X1.904000*%
%ADD31C,1.150000*%
%ADD32C,1.650000*%
%ADD33C,1.100000*%
%ADD34C,1.600000*%
%ADD35C,1.050000*%
%ADD36C,1.300000*%
%ADD37O,1.500000X3.300000*%
%ADD38O,1.500000X2.300000*%
%ADD39O,1.188400X2.252400*%
%ADD40O,1.252400X2.752400*%
G04 APERTURE END LIST*
D10*
%TO.C,M1*%
X113750000Y-172150000D03*
D11*
X113750000Y-170150000D03*
X113750000Y-168150000D03*
X113750000Y-166150000D03*
%TD*%
D12*
%TO.C,J10*%
X301450000Y-124060000D03*
D13*
X301450000Y-126600000D03*
%TD*%
D12*
%TO.C,J5*%
X225910000Y-155250000D03*
D13*
X228450000Y-155250000D03*
X230990000Y-155250000D03*
X233530000Y-155250000D03*
X236070000Y-155250000D03*
X238610000Y-155250000D03*
%TD*%
D14*
%TO.C,J1*%
X218310000Y-193950000D03*
X218310000Y-199950000D03*
D15*
X223110000Y-196450000D03*
%TD*%
D16*
%TO.C,J9*%
X157187500Y-196190000D03*
D17*
X159687500Y-196190000D03*
X161687500Y-196190000D03*
X164187500Y-196190000D03*
X156687500Y-194690000D03*
X158687500Y-194690000D03*
X160687500Y-194690000D03*
X162687500Y-194690000D03*
X164687500Y-194690000D03*
X157187500Y-192990000D03*
X159687500Y-192990000D03*
X161687500Y-192990000D03*
X164187500Y-192990000D03*
X156687500Y-191490000D03*
X158687500Y-191490000D03*
X160687500Y-191490000D03*
X162687500Y-191490000D03*
X164687500Y-191490000D03*
D18*
X154117500Y-198190000D03*
X167257500Y-198190000D03*
X167257500Y-192510000D03*
X154117500Y-192510000D03*
%TD*%
D19*
%TO.C,H6*%
X300750000Y-204350000D03*
D20*
X300750000Y-204350000D03*
%TD*%
D21*
%TO.C,J7*%
X143265000Y-196750000D03*
X131835000Y-196750000D03*
D22*
X131830000Y-187860000D03*
D23*
X133110000Y-190400000D03*
X134370000Y-187860000D03*
X135650000Y-190400000D03*
X136910000Y-187860000D03*
X138190000Y-190400000D03*
X139450000Y-187860000D03*
X140730000Y-190400000D03*
X141990000Y-187860000D03*
X143270000Y-190400000D03*
D24*
X130925000Y-201650000D03*
X133465000Y-201650000D03*
X141635000Y-201650000D03*
X144175000Y-201650000D03*
D25*
X129805000Y-193700000D03*
X145295000Y-193700000D03*
%TD*%
D26*
%TO.C,SW1*%
X262150000Y-203022500D03*
X266650000Y-203022500D03*
D27*
X260895000Y-200532500D03*
X267905000Y-200532500D03*
%TD*%
D19*
%TO.C,H3*%
X111550000Y-204850000D03*
D20*
X111550000Y-204850000D03*
%TD*%
D19*
%TO.C,H5*%
X300450000Y-85850000D03*
D20*
X300450000Y-85850000D03*
%TD*%
D28*
%TO.C,J2*%
X230510000Y-201470000D03*
X236290000Y-201470000D03*
D29*
X229075000Y-200980000D03*
X237725000Y-200980000D03*
D30*
X229075000Y-205150000D03*
X237725000Y-205150000D03*
%TD*%
D31*
%TO.C,J20*%
X286400000Y-135600000D03*
D32*
X266400000Y-135600000D03*
%TD*%
D33*
%TO.C,J18*%
X194850000Y-97025000D03*
D34*
X214850000Y-97025000D03*
%TD*%
D12*
%TO.C,J6*%
X297190000Y-152180000D03*
D13*
X294650000Y-152180000D03*
X292110000Y-152180000D03*
X289570000Y-152180000D03*
%TD*%
D33*
%TO.C,A1*%
X184725000Y-148750000D03*
D34*
X115925000Y-148750000D03*
%TD*%
D35*
%TO.C,BT1*%
X118750005Y-192750000D03*
D36*
X118750005Y-185300000D03*
%TD*%
D12*
%TO.C,J4*%
X112550000Y-158150000D03*
D13*
X115090000Y-158150000D03*
X117630000Y-158150000D03*
%TD*%
D19*
%TO.C,H4*%
X113250000Y-86250000D03*
D20*
X113250000Y-86250000D03*
%TD*%
D12*
%TO.C,JP1*%
X239950000Y-185850000D03*
D13*
X242490000Y-185850000D03*
X245030000Y-185850000D03*
%TD*%
D31*
%TO.C,J19*%
X225000000Y-97425000D03*
D32*
X245000000Y-97425000D03*
%TD*%
D37*
%TO.C,J8*%
X207850000Y-198205000D03*
X193350000Y-198205000D03*
D38*
X207850000Y-204165000D03*
X193350000Y-204165000D03*
%TD*%
D39*
%TO.C,J3*%
X177180000Y-200620000D03*
X185820000Y-200620000D03*
D40*
X177180000Y-205980000D03*
X185820000Y-205980000D03*
%TD*%
D26*
%TO.C,SW2*%
X249050000Y-200522500D03*
X253550000Y-200522500D03*
D27*
X247795000Y-198032500D03*
X254805000Y-198032500D03*
%TD*%
M02*
