M48
; DRILL file {KiCad 8.0.6-8.0.6-0~ubuntu22.04.1} date 2024-11-06T16:41:04+0530
; FORMAT={-:-/ absolute / inch / decimal}
; #@! TF.CreationDate,2024-11-06T16:41:04+05:30
; #@! TF.GenerationSoftware,Kicad,Pcbnew,8.0.6-8.0.6-0~ubuntu22.04.1
; #@! TF.FileFunction,Plated,1,4,PTH
FMAT,2
INCH
; #@! TA.AperFunction,Plated,PTH,ViaDrill
T1C0.0118
; #@! TA.AperFunction,Plated,PTH,ComponentDrill
T2C0.0157
; #@! TA.AperFunction,Plated,PTH,ComponentDrill
T3C0.0236
; #@! TA.AperFunction,Plated,PTH,ComponentDrill
T4C0.0276
; #@! TA.AperFunction,Plated,PTH,ComponentDrill
T5C0.0354
; #@! TA.AperFunction,Plated,PTH,ComponentDrill
T6C0.0390
; #@! TA.AperFunction,Plated,PTH,ComponentDrill
T7C0.0394
; #@! TA.AperFunction,Plated,PTH,ComponentDrill
T8C0.0512
; #@! TA.AperFunction,Plated,PTH,ComponentDrill
T9C0.0524
; #@! TA.AperFunction,Plated,PTH,ComponentDrill
T10C0.0591
; #@! TA.AperFunction,Plated,PTH,ComponentDrill
T11C0.0866
; #@! TA.AperFunction,Plated,PTH,ComponentDrill
T12C0.0906
; #@! TA.AperFunction,Plated,PTH,ComponentDrill
T13C0.0984
%
G90
G05
T1
X4.3681Y-6.6437
X4.3681Y-6.6791
X4.3681Y-6.7146
X4.3681Y-6.75
X4.3681Y-6.7854
X4.3681Y-6.8209
X4.3681Y-6.8602
X4.3681Y-6.8957
X4.3681Y-6.935
X4.3681Y-6.9744
X4.4035Y-6.8957
X4.4035Y-6.935
X4.4035Y-6.9744
X4.4075Y-6.6437
X4.4075Y-6.6791
X4.4075Y-6.7146
X4.4075Y-6.75
X4.4075Y-6.7854
X4.4075Y-6.8209
X4.4075Y-6.8602
X4.439Y-6.8957
X4.439Y-6.935
X4.439Y-6.9744
X4.4744Y-6.8957
X4.4744Y-6.935
X4.4744Y-6.9744
X4.5098Y-6.8957
X4.5098Y-6.935
X4.5098Y-6.9744
X4.5866Y-6.0866
X4.6004Y-6.1201
X4.6437Y-6.128
X4.6673Y-6.8799
X4.6673Y-6.9193
X4.6831Y-5.5295
X4.6831Y-5.561
X4.6831Y-5.5925
X4.6831Y-5.624
X4.6831Y-6.1043
X4.6909Y-5.9547
X4.7106Y-6.8799
X4.7106Y-6.9193
X4.7185Y-5.5295
X4.7185Y-5.561
X4.7185Y-5.5925
X4.7185Y-5.624
X4.7264Y-6.1949
X4.7343Y-5.9508
X4.7416Y-5.841
X4.7453Y-6.1634
X4.7539Y-5.5295
X4.7539Y-5.561
X4.7539Y-5.5925
X4.7539Y-5.624
X4.7539Y-6.75
X4.7539Y-6.7933
X4.7539Y-6.8366
X4.7539Y-6.8799
X4.7539Y-6.9232
X4.7665Y-5.8638
X4.7854Y-7.1043
X4.7854Y-7.1476
X4.7854Y-7.1909
X4.7854Y-7.2343
X4.7854Y-7.2776
X4.7854Y-7.3209
X4.7854Y-7.3642
X4.7854Y-7.4075
X4.7854Y-7.4508
X4.7854Y-7.4941
X4.7854Y-7.5413
X4.7854Y-7.5846
X4.7854Y-7.628
X4.7854Y-7.6713
X4.7854Y-7.7146
X4.7854Y-7.7579
X4.7894Y-5.5295
X4.7894Y-5.561
X4.7894Y-5.5925
X4.7894Y-5.624
X4.7972Y-6.75
X4.7972Y-6.7972
X4.7972Y-6.8366
X4.7972Y-6.8799
X4.8012Y-5.8366
X4.8122Y-5.8681
X4.8248Y-5.5295
X4.8248Y-5.561
X4.8248Y-5.5925
X4.8248Y-5.624
X4.8287Y-7.1043
X4.8287Y-7.1476
X4.8287Y-7.1909
X4.8287Y-7.2343
X4.8287Y-7.2776
X4.8287Y-7.3209
X4.8287Y-7.3642
X4.8287Y-7.4075
X4.8287Y-7.4508
X4.8287Y-7.4941
X4.8287Y-7.5413
X4.8287Y-7.5846
X4.8287Y-7.628
X4.8287Y-7.6713
X4.8287Y-7.7146
X4.8287Y-7.7579
X4.8406Y-6.75
X4.8406Y-6.7972
X4.8406Y-6.8366
X4.8406Y-6.8799
X4.8445Y-6.1634
X4.8445Y-6.1949
X4.872Y-7.1043
X4.872Y-7.1476
X4.872Y-7.1909
X4.872Y-7.2343
X4.872Y-7.2776
X4.872Y-7.3209
X4.872Y-7.3642
X4.872Y-7.4075
X4.872Y-7.4508
X4.872Y-7.4941
X4.872Y-7.5413
X4.872Y-7.5846
X4.872Y-7.628
X4.872Y-7.6713
X4.872Y-7.7146
X4.872Y-7.7579
X4.8799Y-5.9193
X4.8839Y-6.7933
X4.8839Y-6.8366
X4.8839Y-6.8799
X4.9028Y-5.8642
X4.9146Y-5.2193
X4.915Y-5.2512
X4.9154Y-7.1043
X4.9154Y-7.1476
X4.9154Y-7.1909
X4.9154Y-7.2343
X4.9154Y-7.2776
X4.9154Y-7.3209
X4.9154Y-7.3642
X4.9154Y-7.4075
X4.9154Y-7.4508
X4.9154Y-7.4941
X4.9154Y-7.5413
X4.9154Y-7.5886
X4.9154Y-7.628
X4.9154Y-7.6713
X4.9154Y-7.7146
X4.9154Y-7.7579
X4.9193Y-6.1319
X4.9193Y-6.1752
X4.9193Y-6.2185
X4.9193Y-6.2579
X4.9193Y-6.3012
X4.9193Y-6.3445
X4.9193Y-6.3839
X4.9193Y-6.4232
X4.9193Y-6.4587
X4.9193Y-6.4941
X4.9272Y-6.8366
X4.9272Y-6.8799
X4.935Y-5.8602
X4.9386Y-5.1
X4.9626Y-5.8996
X4.966Y-5.0526
X4.9665Y-6.1319
X4.9665Y-6.1752
X4.9665Y-6.2185
X4.9665Y-6.2579
X4.9665Y-6.3012
X4.9665Y-6.3445
X4.9665Y-6.3839
X4.9665Y-6.4232
X4.9665Y-6.4587
X4.9665Y-6.4941
X4.9665Y-6.5295
X4.9705Y-6.8799
X5.0177Y-5.8051
X5.0177Y-5.8406
X5.0177Y-5.8799
X5.0177Y-5.9193
X5.0177Y-6.1319
X5.0177Y-6.1752
X5.0177Y-6.2185
X5.0177Y-6.2579
X5.0177Y-6.3012
X5.0374Y-6.9547
X5.061Y-5.8012
X5.061Y-5.8406
X5.061Y-5.8799
X5.061Y-5.9193
X5.0689Y-6.1319
X5.0728Y-6.1752
X5.0768Y-6.2185
X5.0768Y-6.2579
X5.0807Y-6.4075
X5.0807Y-6.4429
X5.0807Y-6.4783
X5.1043Y-5.8012
X5.1043Y-5.8406
X5.1043Y-5.8799
X5.1043Y-5.9193
X5.1161Y-6.372
X5.1161Y-6.4075
X5.1161Y-6.4429
X5.1161Y-6.4783
X5.1201Y-6.1319
X5.1201Y-6.1752
X5.1201Y-6.2185
X5.1201Y-6.2579
X5.1516Y-5.8012
X5.1516Y-5.8406
X5.1516Y-5.876
X5.1516Y-5.9193
X5.1516Y-6.3366
X5.1516Y-6.372
X5.1516Y-6.4075
X5.1516Y-6.4429
X5.1516Y-6.4783
X5.187Y-6.372
X5.187Y-6.4075
X5.187Y-6.4429
X5.187Y-6.4783
X5.2213Y-5.8366
X5.2224Y-6.4075
X5.2224Y-6.4429
X5.2224Y-6.4783
X5.2441Y-5.8917
X5.2802Y-6.5347
X5.2894Y-6.3327
X5.2908Y-6.2381
X5.2933Y-6.2067
X5.3209Y-6.4823
X5.3248Y-6.624
X5.3366Y-7.1555
X5.3366Y-7.1949
X5.3366Y-7.2343
X5.3445Y-6.3563
X5.3602Y-6.624
X5.3681Y-5.9193
X5.372Y-6.0965
X5.372Y-7.124
X5.372Y-7.1673
X5.376Y-6.4823
X5.376Y-7.2067
X5.3917Y-5.8878
X5.3996Y-6.624
X5.4075Y-6.1634
X5.4075Y-6.1949
X5.4114Y-6.0925
X5.4154Y-7.1673
X5.4232Y-6.8602
X5.4232Y-6.9705
X5.4232Y-6.9988
X5.435Y-6.4823
X5.4383Y-6.7654
X5.4469Y-6.1634
X5.4469Y-6.1949
X5.4469Y-6.2303
X5.4626Y-6.7854
X5.4665Y-5.8681
X5.4705Y-5.9114
X5.4705Y-6.0925
X5.4862Y-6.1634
X5.4862Y-6.1949
X5.4862Y-6.2303
X5.4862Y-6.6791
X5.4902Y-6.4823
X5.5138Y-7.1516
X5.5205Y-6.9924
X5.5217Y-5.813
X5.5217Y-6.1634
X5.5217Y-6.1949
X5.5217Y-6.2303
X5.5295Y-6.0965
X5.5295Y-6.7028
X5.5335Y-6.5335
X5.5492Y-6.7894
X5.5595Y-5.8185
X5.5635Y-6.4406
X5.5768Y-6.0965
X5.5846Y-6.7894
X5.5965Y-6.3563
X5.6043Y-5.9587
X5.6201Y-6.3335
X5.628Y-6.1122
X5.628Y-6.4154
X5.6516Y-6.4429
X5.6673Y-6.9705
X5.6673Y-7.1555
X5.6673Y-7.2028
X5.6713Y-5.502
X5.6713Y-5.5335
X5.6713Y-5.565
X5.6713Y-5.5965
X5.6713Y-5.628
X5.6963Y-6.3903
X5.7067Y-5.502
X5.7067Y-5.5335
X5.7067Y-5.565
X5.7067Y-5.5965
X5.7067Y-5.628
X5.7185Y-6.8484
X5.7264Y-6.0965
X5.7343Y-6.4587
X5.7421Y-5.502
X5.7421Y-5.5335
X5.7421Y-5.565
X5.7421Y-5.5965
X5.7421Y-5.628
X5.7421Y-6.876
X5.7618Y-6.1594
X5.7618Y-6.1909
X5.7776Y-5.502
X5.7776Y-5.5335
X5.7776Y-5.565
X5.7776Y-5.5965
X5.7776Y-5.628
X5.7815Y-5.8602
X5.8121Y-5.8528
X5.813Y-5.502
X5.813Y-5.5335
X5.813Y-5.565
X5.813Y-5.5965
X5.813Y-5.628
X5.8839Y-5.9114
X5.8839Y-6.7343
X5.8839Y-6.7657
X5.8839Y-6.7657
X5.8839Y-6.7972
X5.8839Y-6.7972
X5.8839Y-6.8287
X5.8839Y-6.8287
X5.8839Y-6.8602
X5.8839Y-6.8917
X5.8996Y-7.2003
X5.9193Y-6.6398
X5.9193Y-6.6713
X5.9193Y-6.7028
X5.9193Y-6.7028
X5.9193Y-6.7343
X5.9193Y-6.7343
X5.9193Y-6.7657
X5.9193Y-6.7657
X5.9193Y-6.7657
X5.9193Y-6.7972
X5.9193Y-6.7972
X5.9193Y-6.8287
X5.9193Y-6.8287
X5.9193Y-6.8287
X5.9193Y-6.8602
X5.9193Y-6.8602
X5.9193Y-6.8917
X5.9193Y-6.8917
X5.9311Y-5.8248
X5.935Y-7.2003
X5.936Y-7.2904
X5.9547Y-6.6398
X5.9547Y-6.6713
X5.9547Y-6.6713
X5.9547Y-6.7028
X5.9547Y-6.7028
X5.9547Y-6.7028
X5.9547Y-6.7343
X5.9547Y-6.7343
X5.9547Y-6.7657
X5.9547Y-6.7657
X5.9547Y-6.7972
X5.9547Y-6.8287
X5.9547Y-6.8287
X5.9547Y-6.8287
X5.9547Y-6.8602
X5.9547Y-6.8602
X5.9547Y-6.8917
X5.9547Y-6.8917
X5.9626Y-5.7815
X5.9665Y-6.1594
X5.9843Y-6.1299
X5.9902Y-6.6713
X5.9902Y-6.7028
X5.9902Y-6.7028
X5.9902Y-6.7343
X5.9902Y-6.7343
X5.9902Y-6.7657
X5.9902Y-6.7657
X5.9902Y-6.7972
X5.9902Y-6.8287
X5.9902Y-6.8287
X5.9902Y-6.8287
X5.9902Y-6.8602
X5.9902Y-6.8602
X5.9902Y-6.8917
X5.9902Y-6.8917
X5.998Y-5.9075
X6.0187Y-5.8474
X6.0256Y-6.1398
X6.0256Y-6.7028
X6.0256Y-6.7343
X6.0256Y-6.7343
X6.0256Y-6.7657
X6.0256Y-6.7657
X6.0256Y-6.7657
X6.0256Y-6.7972
X6.0256Y-6.7972
X6.0256Y-6.8287
X6.0256Y-6.8287
X6.0256Y-6.8287
X6.0256Y-6.8602
X6.0256Y-6.8602
X6.0256Y-6.8917
X6.0256Y-6.8917
X6.0374Y-6.1083
X6.061Y-6.7343
X6.061Y-6.7657
X6.061Y-6.7657
X6.061Y-6.7657
X6.061Y-6.7972
X6.061Y-6.7972
X6.061Y-6.7972
X6.061Y-6.8287
X6.061Y-6.8287
X6.061Y-6.8287
X6.061Y-6.8287
X6.061Y-6.8602
X6.061Y-6.8602
X6.061Y-6.8917
X6.061Y-6.8917
X6.065Y-5.9075
X6.0965Y-6.7657
X6.0965Y-6.7972
X6.0965Y-6.7972
X6.0965Y-6.8287
X6.0965Y-6.8287
X6.0965Y-6.8287
X6.0965Y-6.8287
X6.0965Y-6.8602
X6.0965Y-6.8602
X6.0965Y-6.8602
X6.0965Y-6.8917
X6.0965Y-6.8917
X6.1071Y-5.8091
X6.1161Y-5.624
X6.124Y-6.1004
X6.124Y-6.1398
X6.128Y-5.9035
X6.1319Y-6.7972
X6.1319Y-6.8287
X6.1319Y-6.8287
X6.1319Y-6.8602
X6.1319Y-6.8602
X6.1319Y-6.8602
X6.1319Y-6.8917
X6.1319Y-6.8957
X6.1516Y-5.5886
X6.1516Y-5.624
X6.1516Y-7.2894
X6.1594Y-5.813
X6.1634Y-6.8602
X6.1634Y-6.8957
X6.1713Y-7.2003
X6.1791Y-5.9035
X6.187Y-5.5886
X6.187Y-5.624
X6.187Y-6.124
X6.187Y-6.1713
X6.1949Y-6.8602
X6.1949Y-6.8957
X6.2091Y-5.7909
X6.2224Y-5.5886
X6.2224Y-5.624
X6.2303Y-5.9075
X6.2343Y-6.124
X6.2343Y-6.1673
X6.2579Y-5.5886
X6.2579Y-5.5886
X6.2579Y-5.624
X6.2579Y-5.624
X6.2854Y-5.9035
X6.2854Y-6.124
X6.2854Y-6.1673
X6.2923Y-7.1004
X6.2933Y-5.5886
X6.2933Y-5.5886
X6.2933Y-5.624
X6.3169Y-7.0776
X6.3177Y-6.2185
X6.3287Y-5.5886
X6.3287Y-5.624
X6.3406Y-5.9035
X6.3642Y-5.5886
X6.3642Y-5.624
X6.3799Y-6.2185
X6.3957Y-5.9035
X6.3996Y-5.5886
X6.3996Y-5.5886
X6.3996Y-5.624
X6.3996Y-5.624
X6.4038Y-7.1052
X6.4232Y-7.4665
X6.4304Y-7.0884
X6.435Y-5.5886
X6.435Y-5.624
X6.4508Y-7.4075
X6.4547Y-5.9035
X6.4705Y-5.5886
X6.4705Y-5.624
X6.5059Y-5.5886
X6.5059Y-5.624
X6.5217Y-5.9035
X6.5413Y-5.5886
X6.5413Y-5.5886
X6.5413Y-5.624
X6.5413Y-5.624
X6.5768Y-5.5886
X6.5768Y-5.624
X6.5886Y-5.9035
X6.6122Y-5.5886
X6.6122Y-5.624
X6.6476Y-5.5886
X6.6476Y-5.624
X6.6555Y-6.9862
X6.6594Y-5.9035
X6.6831Y-5.5886
X6.6831Y-5.5886
X6.6831Y-5.624
X6.6831Y-5.624
X6.6909Y-7.4075
X6.7185Y-5.5886
X6.7185Y-5.624
X6.7224Y-6.9705
X6.7264Y-5.9035
X6.7539Y-5.5886
X6.7539Y-5.624
X6.7618Y-7.4744
X6.7894Y-5.5886
X6.7894Y-5.624
X6.7933Y-5.9035
X6.7933Y-7.1043
X6.7941Y-7.4031
X6.8169Y-7.0768
X6.8248Y-5.5886
X6.8248Y-5.5886
X6.8248Y-5.624
X6.8248Y-5.624
X6.8602Y-5.5886
X6.8602Y-5.624
X6.8602Y-5.9035
X6.8602Y-7.3957
X6.8839Y-7.065
X6.8882Y-7.4307
X6.8957Y-5.5886
X6.8957Y-5.624
X6.8957Y-7.1043
X6.9272Y-5.9035
X6.9311Y-5.5886
X6.9311Y-5.624
X6.9665Y-5.5886
X6.9665Y-5.5886
X6.9665Y-5.624
X6.9665Y-5.624
X6.998Y-5.9035
X7.002Y-5.5886
X7.002Y-5.624
X7.002Y-7.5138
X7.002Y-7.5492
X7.002Y-7.5846
X7.002Y-7.6201
X7.002Y-7.6555
X7.0295Y-7.5846
X7.0335Y-7.5138
X7.0335Y-7.5492
X7.0335Y-7.6201
X7.0335Y-7.6555
X7.0374Y-5.5886
X7.0374Y-5.624
X7.0492Y-7.4311
X7.0689Y-5.9035
X7.0689Y-7.5138
X7.0689Y-7.5492
X7.0689Y-7.5846
X7.0728Y-5.5886
X7.0728Y-5.624
X7.0728Y-7.6201
X7.0728Y-7.6555
X7.0925Y-7.4311
X7.1004Y-7.5138
X7.1004Y-7.5492
X7.1004Y-7.5846
X7.1004Y-7.6201
X7.1004Y-7.6555
X7.1083Y-5.5886
X7.1083Y-5.5886
X7.1083Y-5.624
X7.1083Y-5.624
X7.1319Y-7.5138
X7.1319Y-7.5492
X7.1319Y-7.5846
X7.1319Y-7.6201
X7.1319Y-7.6555
X7.1358Y-5.9035
X7.1358Y-7.4311
X7.1437Y-5.5886
X7.1437Y-5.624
X7.1516Y-7.2461
X7.1634Y-7.5138
X7.1634Y-7.5492
X7.1634Y-7.5846
X7.1634Y-7.6201
X7.1634Y-7.6555
X7.1673Y-6.7933
X7.1673Y-6.8327
X7.1673Y-6.876
X7.1673Y-6.9193
X7.1673Y-6.9547
X7.1673Y-6.9941
X7.1673Y-7.0335
X7.1673Y-7.0728
X7.1673Y-7.1083
X7.1673Y-7.1398
X7.1791Y-5.5886
X7.1791Y-5.624
X7.1831Y-7.4311
X7.1949Y-7.5138
X7.1949Y-7.5492
X7.1949Y-7.5846
X7.1949Y-7.6201
X7.1949Y-7.6555
X7.1988Y-7.1949
X7.2028Y-5.9035
X7.2146Y-5.5886
X7.2146Y-5.624
X7.2264Y-7.4311
X7.2264Y-7.5138
X7.2264Y-7.5492
X7.2264Y-7.5846
X7.2264Y-7.6201
X7.2303Y-7.6555
X7.25Y-5.5886
X7.25Y-5.624
X7.2579Y-5.7028
X7.2736Y-7.1909
X7.2894Y-5.7028
X7.3248Y-5.7028
X7.3406Y-3.8091
X7.3406Y-3.8445
X7.3406Y-3.8799
X7.3406Y-3.9154
X7.3406Y-3.9508
X7.3406Y-3.9862
X7.3406Y-4.0217
X7.3406Y-4.0571
X7.3406Y-4.0965
X7.3406Y-4.1358
X7.3484Y-6.8091
X7.3563Y-7.0807
X7.3563Y-7.124
X7.3602Y-5.7028
X7.3602Y-5.8602
X7.3602Y-5.8957
X7.3602Y-5.9272
X7.3602Y-5.9626
X7.3602Y-5.9941
X7.376Y-3.8091
X7.376Y-3.8445
X7.376Y-3.8799
X7.3839Y-6.6988
X7.3957Y-7.6083
X7.3996Y-7.5689
X7.4035Y-7.0807
X7.4035Y-7.124
X7.4035Y-7.1713
X7.4035Y-7.5295
X7.4065Y-6.9321
X7.4114Y-3.8091
X7.4114Y-3.8445
X7.4114Y-3.8799
X7.4469Y-6.7579
X7.4949Y-3.8878
X7.4949Y-3.9626
X7.5056Y-3.8366
X7.5217Y-7.3051
X7.5217Y-7.3445
X7.5256Y-6.8091
X7.5413Y-3.9035
X7.5413Y-7.561
X7.5689Y-7.872
X7.5689Y-7.9035
X7.5689Y-7.935
X7.5807Y-3.9035
X7.5965Y-6.9311
X7.6043Y-7.872
X7.6043Y-7.872
X7.6043Y-7.9035
X7.6043Y-7.9035
X7.6043Y-7.935
X7.6043Y-7.935
X7.6201Y-3.9035
X7.6201Y-7.2776
X7.6398Y-7.872
X7.6398Y-7.9035
X7.6398Y-7.935
X7.6516Y-7.6831
X7.6752Y-7.872
X7.6752Y-7.9035
X7.6752Y-7.935
X7.7106Y-7.2776
X7.7106Y-7.872
X7.7106Y-7.9035
X7.7106Y-7.935
X7.7224Y-3.6752
X7.7461Y-7.872
X7.7461Y-7.872
X7.7461Y-7.9035
X7.7461Y-7.9035
X7.7461Y-7.935
X7.7461Y-7.935
X7.7618Y-7.5965
X7.7776Y-3.6791
X7.7815Y-7.872
X7.7815Y-7.9035
X7.7815Y-7.935
X7.8169Y-7.872
X7.8169Y-7.9035
X7.8169Y-7.935
X7.8327Y-5.8799
X7.8327Y-5.9193
X7.8327Y-5.9547
X7.8327Y-5.9902
X7.8327Y-6.0256
X7.8327Y-6.061
X7.8327Y-6.0965
X7.8327Y-6.1319
X7.8327Y-6.1673
X7.8327Y-6.2028
X7.8327Y-6.2382
X7.8327Y-7.2776
X7.8366Y-3.6713
X7.8524Y-7.872
X7.8524Y-7.9035
X7.8524Y-7.935
X7.8681Y-4.0335
X7.8681Y-5.8799
X7.8681Y-5.9193
X7.8681Y-5.9547
X7.8681Y-5.9902
X7.8681Y-6.0256
X7.8681Y-6.061
X7.8681Y-6.0965
X7.8681Y-6.1319
X7.8681Y-6.1673
X7.8681Y-6.2028
X7.8681Y-6.2382
X7.8878Y-7.872
X7.8878Y-7.9035
X7.8878Y-7.935
X7.8957Y-3.6752
X7.9035Y-5.8799
X7.9035Y-5.9193
X7.9035Y-5.9547
X7.9035Y-5.9902
X7.9035Y-6.0256
X7.9035Y-6.061
X7.9035Y-6.0965
X7.9035Y-6.1319
X7.9035Y-6.1673
X7.9035Y-6.2028
X7.9035Y-6.2382
X7.9035Y-7.5965
X7.9075Y-4.0728
X7.939Y-5.8799
X7.939Y-5.9193
X7.939Y-5.9547
X7.939Y-5.9902
X7.939Y-6.0256
X7.939Y-6.061
X7.939Y-6.0965
X7.939Y-6.1319
X7.939Y-6.1673
X7.939Y-6.2028
X7.939Y-6.2382
X7.9547Y-3.6752
X7.9547Y-7.2776
X7.9587Y-4.0768
X7.9744Y-5.8799
X7.9744Y-5.8799
X7.9744Y-5.9193
X7.9744Y-5.9193
X7.9744Y-5.9547
X7.9744Y-5.9547
X7.9744Y-5.9902
X7.9744Y-5.9902
X7.9744Y-6.0256
X7.9744Y-6.0256
X7.9744Y-6.061
X7.9744Y-6.061
X7.9744Y-6.0965
X7.9744Y-6.0965
X7.9744Y-6.1319
X7.9744Y-6.1319
X7.9744Y-6.1673
X7.9744Y-6.1673
X7.9744Y-6.2028
X7.9744Y-6.2028
X7.9744Y-6.2382
X7.9744Y-6.2382
X8.0098Y-5.8799
X8.0098Y-5.9193
X8.0098Y-5.9547
X8.0098Y-5.9902
X8.0098Y-6.0256
X8.0098Y-6.061
X8.0098Y-6.0965
X8.0098Y-6.1319
X8.0098Y-6.1673
X8.0098Y-6.2028
X8.0098Y-6.2382
X8.0157Y-3.6673
X8.0177Y-4.0768
X8.0453Y-5.8799
X8.0453Y-5.9193
X8.0453Y-5.9547
X8.0453Y-5.9902
X8.0453Y-6.0256
X8.0453Y-6.061
X8.0453Y-6.0965
X8.0453Y-6.1319
X8.0453Y-6.1673
X8.0453Y-6.2028
X8.0453Y-6.2382
X8.0728Y-4.0768
X8.0728Y-7.2776
X8.0748Y-3.6673
X8.0807Y-5.8799
X8.0807Y-5.9193
X8.0807Y-5.9547
X8.0807Y-5.9902
X8.0807Y-6.0256
X8.0807Y-6.061
X8.0807Y-6.0965
X8.0807Y-6.1319
X8.0807Y-6.1673
X8.0807Y-6.2028
X8.0807Y-6.2382
X8.1161Y-5.8799
X8.1161Y-5.9193
X8.1161Y-5.9547
X8.1161Y-5.9902
X8.1161Y-6.0256
X8.1161Y-6.061
X8.1161Y-6.0965
X8.1161Y-6.1319
X8.1161Y-6.1673
X8.1161Y-6.2028
X8.1161Y-6.2382
X8.1319Y-4.0768
X8.1516Y-3.5374
X8.1713Y-3.7461
X8.1791Y-3.7106
X8.1831Y-3.5374
X8.1831Y-3.9902
X8.187Y-4.0768
X8.2106Y-6.7894
X8.2146Y-3.5374
X8.2224Y-4.0217
X8.2421Y-6.8642
X8.2461Y-3.5374
X8.2461Y-4.0768
X8.2598Y-6.5039
X8.2776Y-3.5374
X8.2815Y-6.8642
X8.2854Y-4.065
X8.3012Y-3.5492
X8.3012Y-3.5846
X8.3012Y-3.6201
X8.3012Y-3.6555
X8.3169Y-6.5605
X8.3209Y-6.8642
X8.3327Y-3.5374
X8.3327Y-3.6752
X8.3602Y-6.5605
X8.3603Y-6.8602
X8.3681Y-3.5374
X8.3681Y-3.5374
X8.3681Y-3.6752
X8.3957Y-6.8248
X8.4035Y-3.5374
X8.4035Y-3.6752
X8.4114Y-3.998
X8.4114Y-4.0413
X8.4331Y-6.7874
X8.435Y-5.75
X8.4429Y-6.6201
X8.4429Y-7.1358
X8.4508Y-6.8878
X8.4587Y-3.5492
X8.4705Y-7.1083
X8.4744Y-6.7894
X8.4744Y-7.0531
X8.4862Y-7.5295
X8.4902Y-7.3681
X8.498Y-3.5492
X8.5138Y-7.5295
X8.5177Y-7.3681
X8.5217Y-6.7894
X8.5335Y-6.6161
X8.5335Y-6.9547
X8.5335Y-6.9902
X8.5374Y-3.5492
X8.5413Y-7.5295
X8.5453Y-7.3681
X8.565Y-6.7894
X8.5728Y-3.5492
X8.6083Y-6.8878
X8.6122Y-3.5492
X8.6122Y-3.5846
X8.6122Y-3.6201
X8.6122Y-3.6555
X8.6122Y-3.6909
X8.6122Y-6.7894
X8.624Y-6.9862
X8.6272Y-6.6161
X8.6398Y-3.8524
X8.6417Y-6.8858
X8.6476Y-3.5492
X8.6476Y-3.5846
X8.6476Y-3.6201
X8.6476Y-3.6555
X8.6634Y-7.3681
X8.6673Y-7.5295
X8.6831Y-3.5492
X8.6831Y-3.5846
X8.6831Y-3.6201
X8.6909Y-6.5656
X8.6909Y-7.3681
X8.6988Y-7.5295
X8.7028Y-6.7776
X8.7185Y-3.5492
X8.7185Y-3.5846
X8.7185Y-7.3681
X8.7303Y-7.5295
X8.7382Y-7.5886
X8.7382Y-7.6319
X8.7382Y-7.6752
X8.7382Y-7.7146
X8.7382Y-7.7579
X8.75Y-6.7776
X8.7539Y-7.8012
X8.7579Y-3.5492
X8.7618Y-6.813
X8.7618Y-6.8524
X8.7618Y-6.8996
X8.7618Y-6.939
X8.7618Y-6.9862
X8.7618Y-7.0295
X8.7618Y-7.0768
X8.7795Y-7.8268
X8.7854Y-7.1319
X8.7854Y-7.1831
X8.7854Y-7.2303
X8.7854Y-7.2815
X8.7894Y-3.9272
X8.7972Y-6.7776
X8.8051Y-6.6949
X8.8287Y-3.9252
X8.8484Y-7.7697
X8.8524Y-6.7776
X8.8701Y-6.4724
X8.876Y-7.2972
X8.876Y-7.7067
X8.8878Y-3.5256
X8.8878Y-7.8169
X8.8957Y-6.7776
X8.9075Y-7.7343
X8.9114Y-7.7736
X8.9193Y-6.4656
X8.9272Y-6.7776
X8.9311Y-6.5728
X8.935Y-6.5217
X8.935Y-7.5846
X8.939Y-7.624
X8.9469Y-3.5256
X8.9783Y-7.8209
X8.9862Y-6.4656
X9.0374Y-7.0689
X9.0453Y-6.5728
X9.0453Y-6.8799
X9.0551Y-3.8543
X9.0551Y-4.0
X9.0886Y-6.8784
X9.0918Y-6.9382
X9.1161Y-7.687
X9.1476Y-6.5138
X9.1476Y-6.6594
X9.2264Y-3.7185
X9.252Y-6.5709
X9.2539Y-3.7421
X9.2579Y-3.4862
X9.2579Y-3.5217
X9.2618Y-3.5571
X9.2894Y-7.25
X9.2894Y-7.2815
X9.2972Y-3.4862
X9.2972Y-3.5217
X9.2972Y-3.5571
X9.3169Y-6.4656
X9.3248Y-6.8287
X9.3327Y-7.25
X9.3327Y-7.2815
X9.3406Y-3.4862
X9.3406Y-3.5217
X9.3406Y-3.5571
X9.4114Y-3.8563
X9.4547Y-3.4823
X9.4547Y-3.5177
X9.4902Y-3.4823
X9.4902Y-3.5177
X9.5256Y-3.4823
X9.5256Y-3.5177
X9.561Y-3.4823
X9.561Y-3.5177
X9.5965Y-3.4823
X9.5965Y-3.5177
X9.6319Y-3.4823
X9.6319Y-3.5177
X9.6634Y-3.9232
X9.6673Y-3.4823
X9.6673Y-3.5177
X9.7028Y-3.4823
X9.7028Y-3.5177
X9.7028Y-3.9232
X9.7382Y-3.9232
X9.7421Y-3.4823
X9.7421Y-3.5177
X9.7815Y-3.4823
X9.7815Y-3.5177
X9.7815Y-7.7579
X9.8051Y-3.5807
X9.8209Y-3.4823
X9.8209Y-3.5177
X9.8209Y-7.7697
X9.8563Y-3.4823
X9.8563Y-3.5177
X9.8563Y-3.5492
X9.8957Y-3.4823
X9.8957Y-3.5177
X9.8957Y-3.5492
X9.9311Y-3.4823
X9.9311Y-3.5177
X9.9311Y-3.5492
X9.9665Y-3.4823
X9.9665Y-3.5177
X9.9665Y-3.5492
X10.2264Y-7.4311
X10.2697Y-7.4311
X10.4193Y-7.3642
X10.4193Y-7.4154
X10.4193Y-7.4665
X10.4193Y-7.5138
X10.4469Y-7.3648
X10.4469Y-7.4148
X10.4508Y-7.4648
X10.4508Y-7.5148
X10.628Y-8.0571
X10.6594Y-7.4648
X10.6594Y-7.5148
X10.6634Y-7.3648
X10.6634Y-7.4148
X10.6904Y-7.3648
X10.6909Y-7.4154
X10.6949Y-7.4665
X10.6949Y-7.5138
X10.9232Y-8.0531
X11.2264Y-8.0374
X11.5453Y-5.3484
X11.5453Y-5.3799
X11.5453Y-5.4114
X11.5453Y-5.4114
X11.5453Y-5.4429
X11.5453Y-5.4744
X11.561Y-6.6161
X11.5807Y-5.3484
X11.5807Y-5.3799
X11.5807Y-5.4114
X11.5807Y-5.4114
X11.5807Y-5.4114
X11.5807Y-5.4429
X11.5807Y-5.4429
X11.5807Y-5.4744
X11.5807Y-5.4744
X11.6161Y-5.4114
X11.6161Y-5.4114
X11.6161Y-5.4429
X11.6161Y-5.4429
X11.6161Y-5.4744
X11.6161Y-5.4744
X11.6201Y-6.6201
X11.6516Y-5.4114
X11.6516Y-5.4114
X11.6516Y-5.4429
X11.6516Y-5.4429
X11.6516Y-5.4744
X11.6516Y-5.4744
X11.687Y-5.4114
X11.687Y-5.4114
X11.687Y-5.4429
X11.687Y-5.4429
X11.687Y-5.4744
X11.687Y-5.4744
X11.6988Y-5.1201
X11.7224Y-5.4114
X11.7224Y-5.4429
X11.7224Y-5.4744
X11.7274Y-5.1427
T2
X8.9626Y-7.375
X8.9626Y-7.4203
X9.0256Y-7.375
X9.0256Y-7.4203
T4
X6.3996Y-7.5252
X6.3996Y-7.6512
X6.4193Y-7.5843
X6.4193Y-7.7102
X6.4783Y-7.5252
X6.4783Y-7.6512
X6.5177Y-7.5843
X6.5177Y-7.7102
X6.5571Y-7.5252
X6.5571Y-7.6512
X6.5965Y-7.5843
X6.5965Y-7.7102
X6.6358Y-7.5252
X6.6358Y-7.6512
X6.6949Y-7.5843
X6.6949Y-7.7102
X6.7146Y-7.5252
X6.7146Y-7.6512
T5
X5.2051Y-7.9201
X5.2291Y-7.3772
X5.2791Y-7.4772
X5.3051Y-7.8602
X5.3291Y-7.3772
X5.3791Y-7.4772
X5.4291Y-7.3772
X5.4791Y-7.4772
X5.5291Y-7.3772
X5.5791Y-7.4772
X5.6031Y-7.9201
X5.6291Y-7.3772
X5.6791Y-7.4772
X5.7031Y-7.8602
T6
X9.5285Y-7.9744
X9.7057Y-7.9744
X10.127Y-7.9744
X10.3041Y-7.9744
T7
X4.4311Y-6.2264
X4.4823Y-6.5295
X4.4823Y-6.628
X4.4823Y-6.7264
X4.4823Y-6.8248
X4.5311Y-6.2264
X4.6311Y-6.2264
X8.2146Y-5.9618
X8.2146Y-6.0618
X8.2146Y-6.1618
X8.2146Y-6.2618
X8.3563Y-5.9618
X8.3563Y-6.0618
X8.3563Y-6.1618
X8.3563Y-6.2618
X8.498Y-5.9618
X8.498Y-6.0618
X8.498Y-6.1618
X8.498Y-6.2618
X8.6398Y-5.9618
X8.6398Y-6.0618
X8.6398Y-6.1618
X8.6398Y-6.2618
X9.4469Y-7.3169
X9.5469Y-7.3169
X9.6469Y-7.3169
X10.0785Y-6.0453
X10.0785Y-6.187
X10.0785Y-6.3287
X10.0785Y-6.4705
X10.1785Y-6.0453
X10.1785Y-6.187
X10.1785Y-6.3287
X10.1785Y-6.4705
X10.2785Y-6.0453
X10.2785Y-6.187
X10.2785Y-6.3287
X10.2785Y-6.4705
X11.4004Y-5.9913
X11.5004Y-5.9913
X11.6004Y-5.9913
X11.7004Y-5.9913
T8
X9.4789Y-7.8764
X9.7549Y-7.8764
X10.0774Y-7.8764
X10.3533Y-7.8764
T9
X7.387Y-8.0247
X7.4107Y-7.8318
X7.9815Y-7.8318
X8.0051Y-8.0247
T10
X5.148Y-7.6071
X5.7602Y-7.6071
T11
X4.3917Y-8.065
X4.4587Y-3.3957
X11.8287Y-3.3799
X11.8406Y-8.0453
T12
X6.2984Y-7.5654
X6.2984Y-7.789
X6.8157Y-7.5654
X6.8157Y-7.789
X10.8684Y-3.6078
T13
X8.0728Y-4.747
X9.2618Y-4.7687
T3
G00X8.7096Y-7.8791
M15
G01X8.7096Y-7.9224
M16
G05
G00X8.7096Y-8.0492
M15
G01X8.7096Y-8.0807
M16
G05
G00X9.0502Y-7.8791
M15
G01X9.0502Y-7.9224
M16
G05
G00X9.0502Y-8.0492
M15
G01X9.0502Y-8.0807
M16
G05
M30
