%TF.GenerationSoftware,KiCad,Pcbnew,8.0.6-8.0.6-0~ubuntu22.04.1*%
%TF.CreationDate,2024-11-06T16:41:28+05:30*%
%TF.ProjectId,RFID,52464944-2e6b-4696-9361-645f70636258,rev?*%
%TF.SameCoordinates,Original*%
%TF.FileFunction,Soldermask,Top*%
%TF.FilePolarity,Negative*%
%FSLAX46Y46*%
G04 Gerber Fmt 4.6, Leading zero omitted, Abs format (unit mm)*
G04 Created by KiCad (PCBNEW 8.0.6-8.0.6-0~ubuntu22.04.1) date 2024-11-06 16:41:28*
%MOMM*%
%LPD*%
G01*
G04 APERTURE LIST*
G04 Aperture macros list*
%AMRoundRect*
0 Rectangle with rounded corners*
0 $1 Rounding radius*
0 $2 $3 $4 $5 $6 $7 $8 $9 X,Y pos of 4 corners*
0 Add a 4 corners polygon primitive as box body*
4,1,4,$2,$3,$4,$5,$6,$7,$8,$9,$2,$3,0*
0 Add four circle primitives for the rounded corners*
1,1,$1+$1,$2,$3*
1,1,$1+$1,$4,$5*
1,1,$1+$1,$6,$7*
1,1,$1+$1,$8,$9*
0 Add four rect primitives between the rounded corners*
20,1,$1+$1,$2,$3,$4,$5,0*
20,1,$1+$1,$4,$5,$6,$7,0*
20,1,$1+$1,$6,$7,$8,$9,0*
20,1,$1+$1,$8,$9,$2,$3,0*%
%AMFreePoly0*
4,1,14,0.314644,0.085355,0.385355,0.014644,0.400000,-0.020711,0.400000,-0.050000,0.385355,-0.085355,0.350000,-0.100000,-0.350000,-0.100000,-0.385355,-0.085355,-0.400000,-0.050000,-0.400000,0.050000,-0.385355,0.085355,-0.350000,0.100000,0.279289,0.100000,0.314644,0.085355,0.314644,0.085355,$1*%
%AMFreePoly1*
4,1,14,0.385355,0.085355,0.400000,0.050000,0.400000,0.020711,0.385355,-0.014644,0.314644,-0.085355,0.279289,-0.100000,-0.350000,-0.100000,-0.385355,-0.085355,-0.400000,-0.050000,-0.400000,0.050000,-0.385355,0.085355,-0.350000,0.100000,0.350000,0.100000,0.385355,0.085355,0.385355,0.085355,$1*%
%AMFreePoly2*
4,1,14,0.085355,0.385355,0.100000,0.350000,0.100000,-0.350000,0.085355,-0.385355,0.050000,-0.400000,-0.050000,-0.400000,-0.085355,-0.385355,-0.100000,-0.350000,-0.100000,0.279289,-0.085355,0.314644,-0.014644,0.385355,0.020711,0.400000,0.050000,0.400000,0.085355,0.385355,0.085355,0.385355,$1*%
%AMFreePoly3*
4,1,14,0.014644,0.385355,0.085355,0.314644,0.100000,0.279289,0.100000,-0.350000,0.085355,-0.385355,0.050000,-0.400000,-0.050000,-0.400000,-0.085355,-0.385355,-0.100000,-0.350000,-0.100000,0.350000,-0.085355,0.385355,-0.050000,0.400000,-0.020711,0.400000,0.014644,0.385355,0.014644,0.385355,$1*%
%AMFreePoly4*
4,1,14,0.385355,0.085355,0.400000,0.050000,0.400000,-0.050000,0.385355,-0.085355,0.350000,-0.100000,-0.279289,-0.100000,-0.314644,-0.085355,-0.385355,-0.014644,-0.400000,0.020711,-0.400000,0.050000,-0.385355,0.085355,-0.350000,0.100000,0.350000,0.100000,0.385355,0.085355,0.385355,0.085355,$1*%
%AMFreePoly5*
4,1,14,0.385355,0.085355,0.400000,0.050000,0.400000,-0.050000,0.385355,-0.085355,0.350000,-0.100000,-0.350000,-0.100000,-0.385355,-0.085355,-0.400000,-0.050000,-0.400000,-0.020711,-0.385355,0.014644,-0.314644,0.085355,-0.279289,0.100000,0.350000,0.100000,0.385355,0.085355,0.385355,0.085355,$1*%
%AMFreePoly6*
4,1,14,0.085355,0.385355,0.100000,0.350000,0.100000,-0.279289,0.085355,-0.314644,0.014644,-0.385355,-0.020711,-0.400000,-0.050000,-0.400000,-0.085355,-0.385355,-0.100000,-0.350000,-0.100000,0.350000,-0.085355,0.385355,-0.050000,0.400000,0.050000,0.400000,0.085355,0.385355,0.085355,0.385355,$1*%
%AMFreePoly7*
4,1,14,0.085355,0.385355,0.100000,0.350000,0.100000,-0.350000,0.085355,-0.385355,0.050000,-0.400000,0.020711,-0.400000,-0.014644,-0.385355,-0.085355,-0.314644,-0.100000,-0.279289,-0.100000,0.350000,-0.085355,0.385355,-0.050000,0.400000,0.050000,0.400000,0.085355,0.385355,0.085355,0.385355,$1*%
G04 Aperture macros list end*
%ADD10C,0.010000*%
%ADD11R,0.600000X0.450000*%
%ADD12RoundRect,0.102000X0.150000X0.875000X-0.150000X0.875000X-0.150000X-0.875000X0.150000X-0.875000X0*%
%ADD13C,1.600000*%
%ADD14C,1.100000*%
%ADD15RoundRect,0.102000X1.750000X2.300000X-1.750000X2.300000X-1.750000X-2.300000X1.750000X-2.300000X0*%
%ADD16RoundRect,0.150000X-0.150000X0.587500X-0.150000X-0.587500X0.150000X-0.587500X0.150000X0.587500X0*%
%ADD17RoundRect,0.250000X-0.475000X0.337500X-0.475000X-0.337500X0.475000X-0.337500X0.475000X0.337500X0*%
%ADD18RoundRect,0.155000X0.155000X-0.212500X0.155000X0.212500X-0.155000X0.212500X-0.155000X-0.212500X0*%
%ADD19C,2.600000*%
%ADD20C,3.800000*%
%ADD21R,0.600000X0.700000*%
%ADD22RoundRect,0.237500X0.287500X0.237500X-0.287500X0.237500X-0.287500X-0.237500X0.287500X-0.237500X0*%
%ADD23RoundRect,0.160000X0.160000X-0.197500X0.160000X0.197500X-0.160000X0.197500X-0.160000X-0.197500X0*%
%ADD24RoundRect,0.237500X0.300000X0.237500X-0.300000X0.237500X-0.300000X-0.237500X0.300000X-0.237500X0*%
%ADD25R,1.700000X0.600000*%
%ADD26R,2.700000X1.000000*%
%ADD27RoundRect,0.237500X-0.250000X-0.237500X0.250000X-0.237500X0.250000X0.237500X-0.250000X0.237500X0*%
%ADD28RoundRect,0.155000X-0.155000X0.212500X-0.155000X-0.212500X0.155000X-0.212500X0.155000X0.212500X0*%
%ADD29FreePoly0,90.000000*%
%ADD30RoundRect,0.050000X0.050000X-0.350000X0.050000X0.350000X-0.050000X0.350000X-0.050000X-0.350000X0*%
%ADD31FreePoly1,90.000000*%
%ADD32FreePoly2,90.000000*%
%ADD33RoundRect,0.050000X0.350000X-0.050000X0.350000X0.050000X-0.350000X0.050000X-0.350000X-0.050000X0*%
%ADD34FreePoly3,90.000000*%
%ADD35FreePoly4,90.000000*%
%ADD36FreePoly5,90.000000*%
%ADD37FreePoly6,90.000000*%
%ADD38FreePoly7,90.000000*%
%ADD39R,2.650000X2.650000*%
%ADD40C,2.100000*%
%ADD41C,1.750000*%
%ADD42RoundRect,0.160000X0.197500X0.160000X-0.197500X0.160000X-0.197500X-0.160000X0.197500X-0.160000X0*%
%ADD43C,0.600000*%
%ADD44O,1.104000X2.204000*%
%ADD45O,1.104000X1.904000*%
%ADD46R,1.800000X2.500000*%
%ADD47C,1.650000*%
%ADD48C,1.150000*%
%ADD49RoundRect,0.102000X0.150000X0.775000X-0.150000X0.775000X-0.150000X-0.775000X0.150000X-0.775000X0*%
%ADD50C,5.000000*%
%ADD51RoundRect,0.102000X0.600000X1.375000X-0.600000X1.375000X-0.600000X-1.375000X0.600000X-1.375000X0*%
%ADD52R,0.625000X0.250000*%
%ADD53R,0.700000X0.450000*%
%ADD54R,0.575000X0.450000*%
%ADD55R,0.250000X0.625000*%
%ADD56R,0.450000X0.700000*%
%ADD57R,0.450000X0.575000*%
%ADD58RoundRect,0.160000X-0.197500X-0.160000X0.197500X-0.160000X0.197500X0.160000X-0.197500X0.160000X0*%
%ADD59RoundRect,0.160000X-0.160000X0.197500X-0.160000X-0.197500X0.160000X-0.197500X0.160000X0.197500X0*%
%ADD60RoundRect,0.237500X-0.300000X-0.237500X0.300000X-0.237500X0.300000X0.237500X-0.300000X0.237500X0*%
%ADD61RoundRect,0.102000X-0.150000X-0.775000X0.150000X-0.775000X0.150000X0.775000X-0.150000X0.775000X0*%
%ADD62RoundRect,0.102000X-0.600000X-1.375000X0.600000X-1.375000X0.600000X1.375000X-0.600000X1.375000X0*%
%ADD63R,1.700000X1.700000*%
%ADD64O,1.700000X1.700000*%
%ADD65RoundRect,0.250000X0.337500X0.475000X-0.337500X0.475000X-0.337500X-0.475000X0.337500X-0.475000X0*%
%ADD66RoundRect,0.155000X0.212500X0.155000X-0.212500X0.155000X-0.212500X-0.155000X0.212500X-0.155000X0*%
%ADD67RoundRect,0.250000X0.475000X-0.337500X0.475000X0.337500X-0.475000X0.337500X-0.475000X-0.337500X0*%
%ADD68RoundRect,0.155000X-0.212500X-0.155000X0.212500X-0.155000X0.212500X0.155000X-0.212500X0.155000X0*%
%ADD69RoundRect,0.076200X-0.604000X-0.604000X0.604000X-0.604000X0.604000X0.604000X-0.604000X0.604000X0*%
%ADD70C,1.360400*%
%ADD71C,3.468400*%
%ADD72RoundRect,0.150000X-0.150000X0.512500X-0.150000X-0.512500X0.150000X-0.512500X0.150000X0.512500X0*%
%ADD73R,0.700000X0.600000*%
%ADD74C,1.000000*%
%ADD75RoundRect,0.102000X-0.754000X0.754000X-0.754000X-0.754000X0.754000X-0.754000X0.754000X0.754000X0*%
%ADD76C,1.712000*%
%ADD77R,1.600000X1.150000*%
%ADD78R,0.600000X1.300000*%
%ADD79R,0.558800X1.701800*%
%ADD80RoundRect,0.237500X-0.237500X0.287500X-0.237500X-0.287500X0.237500X-0.287500X0.237500X0.287500X0*%
%ADD81RoundRect,0.150000X-0.587500X-0.150000X0.587500X-0.150000X0.587500X0.150000X-0.587500X0.150000X0*%
%ADD82R,1.400000X0.900000*%
%ADD83RoundRect,0.237500X0.250000X0.237500X-0.250000X0.237500X-0.250000X-0.237500X0.250000X-0.237500X0*%
%ADD84RoundRect,0.237500X-0.237500X0.250000X-0.237500X-0.250000X0.237500X-0.250000X0.237500X0.250000X0*%
%ADD85C,1.300000*%
%ADD86RoundRect,0.102000X-1.300000X1.800000X-1.300000X-1.800000X1.300000X-1.800000X1.300000X1.800000X0*%
%ADD87R,2.400000X1.500000*%
%ADD88C,3.250000*%
%ADD89C,1.900000*%
%ADD90R,1.900000X1.900000*%
%ADD91C,2.500000*%
%ADD92RoundRect,0.237500X0.237500X-0.250000X0.237500X0.250000X-0.237500X0.250000X-0.237500X-0.250000X0*%
%ADD93R,2.100000X1.800000*%
%ADD94RoundRect,0.237500X-0.287500X-0.237500X0.287500X-0.237500X0.287500X0.237500X-0.287500X0.237500X0*%
%ADD95RoundRect,0.102000X-0.150000X-0.950000X0.150000X-0.950000X0.150000X0.950000X-0.150000X0.950000X0*%
%ADD96C,2.199000*%
%ADD97RoundRect,0.102000X0.200000X-0.750000X0.200000X0.750000X-0.200000X0.750000X-0.200000X-0.750000X0*%
%ADD98R,0.450000X0.600000*%
%ADD99R,3.000000X0.900000*%
%ADD100R,0.900000X3.000000*%
%ADD101R,2.300000X3.000000*%
G04 APERTURE END LIST*
D10*
%TO.C,J2*%
X222700000Y-200720000D02*
X222000000Y-200720000D01*
X222000000Y-199480000D01*
X222700000Y-199480000D01*
X222700000Y-200720000D01*
G36*
X222700000Y-200720000D02*
G01*
X222000000Y-200720000D01*
X222000000Y-199480000D01*
X222700000Y-199480000D01*
X222700000Y-200720000D01*
G37*
X223500000Y-200720000D02*
X222800000Y-200720000D01*
X222800000Y-199480000D01*
X223500000Y-199480000D01*
X223500000Y-200720000D01*
G36*
X223500000Y-200720000D02*
G01*
X222800000Y-200720000D01*
X222800000Y-199480000D01*
X223500000Y-199480000D01*
X223500000Y-200720000D01*
G37*
X224000000Y-200720000D02*
X223600000Y-200720000D01*
X223600000Y-199480000D01*
X224000000Y-199480000D01*
X224000000Y-200720000D01*
G36*
X224000000Y-200720000D02*
G01*
X223600000Y-200720000D01*
X223600000Y-199480000D01*
X224000000Y-199480000D01*
X224000000Y-200720000D01*
G37*
X224500000Y-200720000D02*
X224100000Y-200720000D01*
X224100000Y-199480000D01*
X224500000Y-199480000D01*
X224500000Y-200720000D01*
G36*
X224500000Y-200720000D02*
G01*
X224100000Y-200720000D01*
X224100000Y-199480000D01*
X224500000Y-199480000D01*
X224500000Y-200720000D01*
G37*
X225000000Y-200720000D02*
X224600000Y-200720000D01*
X224600000Y-199480000D01*
X225000000Y-199480000D01*
X225000000Y-200720000D01*
G36*
X225000000Y-200720000D02*
G01*
X224600000Y-200720000D01*
X224600000Y-199480000D01*
X225000000Y-199480000D01*
X225000000Y-200720000D01*
G37*
X225500000Y-200720000D02*
X225100000Y-200720000D01*
X225100000Y-199480000D01*
X225500000Y-199480000D01*
X225500000Y-200720000D01*
G36*
X225500000Y-200720000D02*
G01*
X225100000Y-200720000D01*
X225100000Y-199480000D01*
X225500000Y-199480000D01*
X225500000Y-200720000D01*
G37*
X226000000Y-200720000D02*
X225600000Y-200720000D01*
X225600000Y-199480000D01*
X226000000Y-199480000D01*
X226000000Y-200720000D01*
G36*
X226000000Y-200720000D02*
G01*
X225600000Y-200720000D01*
X225600000Y-199480000D01*
X226000000Y-199480000D01*
X226000000Y-200720000D01*
G37*
X226500000Y-200720000D02*
X226100000Y-200720000D01*
X226100000Y-199480000D01*
X226500000Y-199480000D01*
X226500000Y-200720000D01*
G36*
X226500000Y-200720000D02*
G01*
X226100000Y-200720000D01*
X226100000Y-199480000D01*
X226500000Y-199480000D01*
X226500000Y-200720000D01*
G37*
X227000000Y-200720000D02*
X226600000Y-200720000D01*
X226600000Y-199480000D01*
X227000000Y-199480000D01*
X227000000Y-200720000D01*
G36*
X227000000Y-200720000D02*
G01*
X226600000Y-200720000D01*
X226600000Y-199480000D01*
X227000000Y-199480000D01*
X227000000Y-200720000D01*
G37*
X227500000Y-200720000D02*
X227100000Y-200720000D01*
X227100000Y-199480000D01*
X227500000Y-199480000D01*
X227500000Y-200720000D01*
G36*
X227500000Y-200720000D02*
G01*
X227100000Y-200720000D01*
X227100000Y-199480000D01*
X227500000Y-199480000D01*
X227500000Y-200720000D01*
G37*
X228300000Y-200720000D02*
X227600000Y-200720000D01*
X227600000Y-199480000D01*
X228300000Y-199480000D01*
X228300000Y-200720000D01*
G36*
X228300000Y-200720000D02*
G01*
X227600000Y-200720000D01*
X227600000Y-199480000D01*
X228300000Y-199480000D01*
X228300000Y-200720000D01*
G37*
X229100000Y-200720000D02*
X228400000Y-200720000D01*
X228400000Y-199480000D01*
X229100000Y-199480000D01*
X229100000Y-200720000D01*
G36*
X229100000Y-200720000D02*
G01*
X228400000Y-200720000D01*
X228400000Y-199480000D01*
X229100000Y-199480000D01*
X229100000Y-200720000D01*
G37*
%TO.C,D4*%
X223858000Y-193601000D02*
X223860000Y-193601000D01*
X223863000Y-193602000D01*
X223865000Y-193602000D01*
X223868000Y-193603000D01*
X223870000Y-193604000D01*
X223873000Y-193605000D01*
X223875000Y-193607000D01*
X223877000Y-193608000D01*
X223879000Y-193610000D01*
X223881000Y-193611000D01*
X223883000Y-193613000D01*
X223885000Y-193615000D01*
X223887000Y-193617000D01*
X223889000Y-193619000D01*
X223890000Y-193621000D01*
X223892000Y-193623000D01*
X223893000Y-193625000D01*
X223895000Y-193627000D01*
X223896000Y-193630000D01*
X223897000Y-193632000D01*
X223898000Y-193635000D01*
X223898000Y-193637000D01*
X223899000Y-193640000D01*
X223899000Y-193642000D01*
X223900000Y-193645000D01*
X223900000Y-193647000D01*
X223900000Y-193650000D01*
X223900000Y-193950000D01*
X223900000Y-193953000D01*
X223900000Y-193955000D01*
X223899000Y-193958000D01*
X223899000Y-193960000D01*
X223898000Y-193963000D01*
X223898000Y-193965000D01*
X223897000Y-193968000D01*
X223896000Y-193970000D01*
X223895000Y-193973000D01*
X223893000Y-193975000D01*
X223892000Y-193977000D01*
X223890000Y-193979000D01*
X223889000Y-193981000D01*
X223887000Y-193983000D01*
X223885000Y-193985000D01*
X223883000Y-193987000D01*
X223881000Y-193989000D01*
X223879000Y-193990000D01*
X223877000Y-193992000D01*
X223875000Y-193993000D01*
X223873000Y-193995000D01*
X223870000Y-193996000D01*
X223868000Y-193997000D01*
X223865000Y-193998000D01*
X223863000Y-193998000D01*
X223860000Y-193999000D01*
X223858000Y-193999000D01*
X223855000Y-194000000D01*
X223853000Y-194000000D01*
X223850000Y-194000000D01*
X223250000Y-194000000D01*
X223247000Y-194000000D01*
X223245000Y-194000000D01*
X223242000Y-193999000D01*
X223240000Y-193999000D01*
X223237000Y-193998000D01*
X223235000Y-193998000D01*
X223232000Y-193997000D01*
X223230000Y-193996000D01*
X223227000Y-193995000D01*
X223225000Y-193993000D01*
X223223000Y-193992000D01*
X223221000Y-193990000D01*
X223219000Y-193989000D01*
X223217000Y-193987000D01*
X223215000Y-193985000D01*
X223213000Y-193983000D01*
X223211000Y-193981000D01*
X223210000Y-193979000D01*
X223208000Y-193977000D01*
X223207000Y-193975000D01*
X223205000Y-193973000D01*
X223204000Y-193970000D01*
X223203000Y-193968000D01*
X223202000Y-193965000D01*
X223202000Y-193963000D01*
X223201000Y-193960000D01*
X223201000Y-193958000D01*
X223200000Y-193955000D01*
X223200000Y-193953000D01*
X223200000Y-193950000D01*
X223200000Y-193650000D01*
X223200000Y-193647000D01*
X223200000Y-193645000D01*
X223201000Y-193642000D01*
X223201000Y-193640000D01*
X223202000Y-193637000D01*
X223202000Y-193635000D01*
X223203000Y-193632000D01*
X223204000Y-193630000D01*
X223205000Y-193627000D01*
X223207000Y-193625000D01*
X223208000Y-193623000D01*
X223210000Y-193621000D01*
X223211000Y-193619000D01*
X223213000Y-193617000D01*
X223215000Y-193615000D01*
X223217000Y-193613000D01*
X223219000Y-193611000D01*
X223221000Y-193610000D01*
X223223000Y-193608000D01*
X223225000Y-193607000D01*
X223227000Y-193605000D01*
X223230000Y-193604000D01*
X223232000Y-193603000D01*
X223235000Y-193602000D01*
X223237000Y-193602000D01*
X223240000Y-193601000D01*
X223242000Y-193601000D01*
X223245000Y-193600000D01*
X223247000Y-193600000D01*
X223250000Y-193600000D01*
X223850000Y-193600000D01*
X223853000Y-193600000D01*
X223855000Y-193600000D01*
X223858000Y-193601000D01*
G36*
X223858000Y-193601000D02*
G01*
X223860000Y-193601000D01*
X223863000Y-193602000D01*
X223865000Y-193602000D01*
X223868000Y-193603000D01*
X223870000Y-193604000D01*
X223873000Y-193605000D01*
X223875000Y-193607000D01*
X223877000Y-193608000D01*
X223879000Y-193610000D01*
X223881000Y-193611000D01*
X223883000Y-193613000D01*
X223885000Y-193615000D01*
X223887000Y-193617000D01*
X223889000Y-193619000D01*
X223890000Y-193621000D01*
X223892000Y-193623000D01*
X223893000Y-193625000D01*
X223895000Y-193627000D01*
X223896000Y-193630000D01*
X223897000Y-193632000D01*
X223898000Y-193635000D01*
X223898000Y-193637000D01*
X223899000Y-193640000D01*
X223899000Y-193642000D01*
X223900000Y-193645000D01*
X223900000Y-193647000D01*
X223900000Y-193650000D01*
X223900000Y-193950000D01*
X223900000Y-193953000D01*
X223900000Y-193955000D01*
X223899000Y-193958000D01*
X223899000Y-193960000D01*
X223898000Y-193963000D01*
X223898000Y-193965000D01*
X223897000Y-193968000D01*
X223896000Y-193970000D01*
X223895000Y-193973000D01*
X223893000Y-193975000D01*
X223892000Y-193977000D01*
X223890000Y-193979000D01*
X223889000Y-193981000D01*
X223887000Y-193983000D01*
X223885000Y-193985000D01*
X223883000Y-193987000D01*
X223881000Y-193989000D01*
X223879000Y-193990000D01*
X223877000Y-193992000D01*
X223875000Y-193993000D01*
X223873000Y-193995000D01*
X223870000Y-193996000D01*
X223868000Y-193997000D01*
X223865000Y-193998000D01*
X223863000Y-193998000D01*
X223860000Y-193999000D01*
X223858000Y-193999000D01*
X223855000Y-194000000D01*
X223853000Y-194000000D01*
X223850000Y-194000000D01*
X223250000Y-194000000D01*
X223247000Y-194000000D01*
X223245000Y-194000000D01*
X223242000Y-193999000D01*
X223240000Y-193999000D01*
X223237000Y-193998000D01*
X223235000Y-193998000D01*
X223232000Y-193997000D01*
X223230000Y-193996000D01*
X223227000Y-193995000D01*
X223225000Y-193993000D01*
X223223000Y-193992000D01*
X223221000Y-193990000D01*
X223219000Y-193989000D01*
X223217000Y-193987000D01*
X223215000Y-193985000D01*
X223213000Y-193983000D01*
X223211000Y-193981000D01*
X223210000Y-193979000D01*
X223208000Y-193977000D01*
X223207000Y-193975000D01*
X223205000Y-193973000D01*
X223204000Y-193970000D01*
X223203000Y-193968000D01*
X223202000Y-193965000D01*
X223202000Y-193963000D01*
X223201000Y-193960000D01*
X223201000Y-193958000D01*
X223200000Y-193955000D01*
X223200000Y-193953000D01*
X223200000Y-193950000D01*
X223200000Y-193650000D01*
X223200000Y-193647000D01*
X223200000Y-193645000D01*
X223201000Y-193642000D01*
X223201000Y-193640000D01*
X223202000Y-193637000D01*
X223202000Y-193635000D01*
X223203000Y-193632000D01*
X223204000Y-193630000D01*
X223205000Y-193627000D01*
X223207000Y-193625000D01*
X223208000Y-193623000D01*
X223210000Y-193621000D01*
X223211000Y-193619000D01*
X223213000Y-193617000D01*
X223215000Y-193615000D01*
X223217000Y-193613000D01*
X223219000Y-193611000D01*
X223221000Y-193610000D01*
X223223000Y-193608000D01*
X223225000Y-193607000D01*
X223227000Y-193605000D01*
X223230000Y-193604000D01*
X223232000Y-193603000D01*
X223235000Y-193602000D01*
X223237000Y-193602000D01*
X223240000Y-193601000D01*
X223242000Y-193601000D01*
X223245000Y-193600000D01*
X223247000Y-193600000D01*
X223250000Y-193600000D01*
X223850000Y-193600000D01*
X223853000Y-193600000D01*
X223855000Y-193600000D01*
X223858000Y-193601000D01*
G37*
X223858000Y-194301000D02*
X223860000Y-194301000D01*
X223863000Y-194302000D01*
X223865000Y-194302000D01*
X223868000Y-194303000D01*
X223870000Y-194304000D01*
X223873000Y-194305000D01*
X223875000Y-194307000D01*
X223877000Y-194308000D01*
X223879000Y-194310000D01*
X223881000Y-194311000D01*
X223883000Y-194313000D01*
X223885000Y-194315000D01*
X223887000Y-194317000D01*
X223889000Y-194319000D01*
X223890000Y-194321000D01*
X223892000Y-194323000D01*
X223893000Y-194325000D01*
X223895000Y-194327000D01*
X223896000Y-194330000D01*
X223897000Y-194332000D01*
X223898000Y-194335000D01*
X223898000Y-194337000D01*
X223899000Y-194340000D01*
X223899000Y-194342000D01*
X223900000Y-194345000D01*
X223900000Y-194347000D01*
X223900000Y-194350000D01*
X223900000Y-194650000D01*
X223900000Y-194653000D01*
X223900000Y-194655000D01*
X223899000Y-194658000D01*
X223899000Y-194660000D01*
X223898000Y-194663000D01*
X223898000Y-194665000D01*
X223897000Y-194668000D01*
X223896000Y-194670000D01*
X223895000Y-194673000D01*
X223893000Y-194675000D01*
X223892000Y-194677000D01*
X223890000Y-194679000D01*
X223889000Y-194681000D01*
X223887000Y-194683000D01*
X223885000Y-194685000D01*
X223883000Y-194687000D01*
X223881000Y-194689000D01*
X223879000Y-194690000D01*
X223877000Y-194692000D01*
X223875000Y-194693000D01*
X223873000Y-194695000D01*
X223870000Y-194696000D01*
X223868000Y-194697000D01*
X223865000Y-194698000D01*
X223863000Y-194698000D01*
X223860000Y-194699000D01*
X223858000Y-194699000D01*
X223855000Y-194700000D01*
X223853000Y-194700000D01*
X223850000Y-194700000D01*
X223250000Y-194700000D01*
X223247000Y-194700000D01*
X223245000Y-194700000D01*
X223242000Y-194699000D01*
X223240000Y-194699000D01*
X223237000Y-194698000D01*
X223235000Y-194698000D01*
X223232000Y-194697000D01*
X223230000Y-194696000D01*
X223227000Y-194695000D01*
X223225000Y-194693000D01*
X223223000Y-194692000D01*
X223221000Y-194690000D01*
X223219000Y-194689000D01*
X223217000Y-194687000D01*
X223215000Y-194685000D01*
X223213000Y-194683000D01*
X223211000Y-194681000D01*
X223210000Y-194679000D01*
X223208000Y-194677000D01*
X223207000Y-194675000D01*
X223205000Y-194673000D01*
X223204000Y-194670000D01*
X223203000Y-194668000D01*
X223202000Y-194665000D01*
X223202000Y-194663000D01*
X223201000Y-194660000D01*
X223201000Y-194658000D01*
X223200000Y-194655000D01*
X223200000Y-194653000D01*
X223200000Y-194650000D01*
X223200000Y-194350000D01*
X223200000Y-194347000D01*
X223200000Y-194345000D01*
X223201000Y-194342000D01*
X223201000Y-194340000D01*
X223202000Y-194337000D01*
X223202000Y-194335000D01*
X223203000Y-194332000D01*
X223204000Y-194330000D01*
X223205000Y-194327000D01*
X223207000Y-194325000D01*
X223208000Y-194323000D01*
X223210000Y-194321000D01*
X223211000Y-194319000D01*
X223213000Y-194317000D01*
X223215000Y-194315000D01*
X223217000Y-194313000D01*
X223219000Y-194311000D01*
X223221000Y-194310000D01*
X223223000Y-194308000D01*
X223225000Y-194307000D01*
X223227000Y-194305000D01*
X223230000Y-194304000D01*
X223232000Y-194303000D01*
X223235000Y-194302000D01*
X223237000Y-194302000D01*
X223240000Y-194301000D01*
X223242000Y-194301000D01*
X223245000Y-194300000D01*
X223247000Y-194300000D01*
X223250000Y-194300000D01*
X223850000Y-194300000D01*
X223853000Y-194300000D01*
X223855000Y-194300000D01*
X223858000Y-194301000D01*
G36*
X223858000Y-194301000D02*
G01*
X223860000Y-194301000D01*
X223863000Y-194302000D01*
X223865000Y-194302000D01*
X223868000Y-194303000D01*
X223870000Y-194304000D01*
X223873000Y-194305000D01*
X223875000Y-194307000D01*
X223877000Y-194308000D01*
X223879000Y-194310000D01*
X223881000Y-194311000D01*
X223883000Y-194313000D01*
X223885000Y-194315000D01*
X223887000Y-194317000D01*
X223889000Y-194319000D01*
X223890000Y-194321000D01*
X223892000Y-194323000D01*
X223893000Y-194325000D01*
X223895000Y-194327000D01*
X223896000Y-194330000D01*
X223897000Y-194332000D01*
X223898000Y-194335000D01*
X223898000Y-194337000D01*
X223899000Y-194340000D01*
X223899000Y-194342000D01*
X223900000Y-194345000D01*
X223900000Y-194347000D01*
X223900000Y-194350000D01*
X223900000Y-194650000D01*
X223900000Y-194653000D01*
X223900000Y-194655000D01*
X223899000Y-194658000D01*
X223899000Y-194660000D01*
X223898000Y-194663000D01*
X223898000Y-194665000D01*
X223897000Y-194668000D01*
X223896000Y-194670000D01*
X223895000Y-194673000D01*
X223893000Y-194675000D01*
X223892000Y-194677000D01*
X223890000Y-194679000D01*
X223889000Y-194681000D01*
X223887000Y-194683000D01*
X223885000Y-194685000D01*
X223883000Y-194687000D01*
X223881000Y-194689000D01*
X223879000Y-194690000D01*
X223877000Y-194692000D01*
X223875000Y-194693000D01*
X223873000Y-194695000D01*
X223870000Y-194696000D01*
X223868000Y-194697000D01*
X223865000Y-194698000D01*
X223863000Y-194698000D01*
X223860000Y-194699000D01*
X223858000Y-194699000D01*
X223855000Y-194700000D01*
X223853000Y-194700000D01*
X223850000Y-194700000D01*
X223250000Y-194700000D01*
X223247000Y-194700000D01*
X223245000Y-194700000D01*
X223242000Y-194699000D01*
X223240000Y-194699000D01*
X223237000Y-194698000D01*
X223235000Y-194698000D01*
X223232000Y-194697000D01*
X223230000Y-194696000D01*
X223227000Y-194695000D01*
X223225000Y-194693000D01*
X223223000Y-194692000D01*
X223221000Y-194690000D01*
X223219000Y-194689000D01*
X223217000Y-194687000D01*
X223215000Y-194685000D01*
X223213000Y-194683000D01*
X223211000Y-194681000D01*
X223210000Y-194679000D01*
X223208000Y-194677000D01*
X223207000Y-194675000D01*
X223205000Y-194673000D01*
X223204000Y-194670000D01*
X223203000Y-194668000D01*
X223202000Y-194665000D01*
X223202000Y-194663000D01*
X223201000Y-194660000D01*
X223201000Y-194658000D01*
X223200000Y-194655000D01*
X223200000Y-194653000D01*
X223200000Y-194650000D01*
X223200000Y-194350000D01*
X223200000Y-194347000D01*
X223200000Y-194345000D01*
X223201000Y-194342000D01*
X223201000Y-194340000D01*
X223202000Y-194337000D01*
X223202000Y-194335000D01*
X223203000Y-194332000D01*
X223204000Y-194330000D01*
X223205000Y-194327000D01*
X223207000Y-194325000D01*
X223208000Y-194323000D01*
X223210000Y-194321000D01*
X223211000Y-194319000D01*
X223213000Y-194317000D01*
X223215000Y-194315000D01*
X223217000Y-194313000D01*
X223219000Y-194311000D01*
X223221000Y-194310000D01*
X223223000Y-194308000D01*
X223225000Y-194307000D01*
X223227000Y-194305000D01*
X223230000Y-194304000D01*
X223232000Y-194303000D01*
X223235000Y-194302000D01*
X223237000Y-194302000D01*
X223240000Y-194301000D01*
X223242000Y-194301000D01*
X223245000Y-194300000D01*
X223247000Y-194300000D01*
X223250000Y-194300000D01*
X223850000Y-194300000D01*
X223853000Y-194300000D01*
X223855000Y-194300000D01*
X223858000Y-194301000D01*
G37*
%TO.C,D3*%
X228445500Y-197201000D02*
X228447500Y-197201000D01*
X228450500Y-197202000D01*
X228452500Y-197202000D01*
X228455500Y-197203000D01*
X228457500Y-197204000D01*
X228460500Y-197205000D01*
X228462500Y-197207000D01*
X228464500Y-197208000D01*
X228466500Y-197210000D01*
X228468500Y-197211000D01*
X228470500Y-197213000D01*
X228472500Y-197215000D01*
X228474500Y-197217000D01*
X228476500Y-197219000D01*
X228477500Y-197221000D01*
X228479500Y-197223000D01*
X228480500Y-197225000D01*
X228482500Y-197227000D01*
X228483500Y-197230000D01*
X228484500Y-197232000D01*
X228485500Y-197235000D01*
X228485500Y-197237000D01*
X228486500Y-197240000D01*
X228486500Y-197242000D01*
X228487500Y-197245000D01*
X228487500Y-197247000D01*
X228487500Y-197250000D01*
X228487500Y-197850000D01*
X228487500Y-197853000D01*
X228487500Y-197855000D01*
X228486500Y-197858000D01*
X228486500Y-197860000D01*
X228485500Y-197863000D01*
X228485500Y-197865000D01*
X228484500Y-197868000D01*
X228483500Y-197870000D01*
X228482500Y-197873000D01*
X228480500Y-197875000D01*
X228479500Y-197877000D01*
X228477500Y-197879000D01*
X228476500Y-197881000D01*
X228474500Y-197883000D01*
X228472500Y-197885000D01*
X228470500Y-197887000D01*
X228468500Y-197889000D01*
X228466500Y-197890000D01*
X228464500Y-197892000D01*
X228462500Y-197893000D01*
X228460500Y-197895000D01*
X228457500Y-197896000D01*
X228455500Y-197897000D01*
X228452500Y-197898000D01*
X228450500Y-197898000D01*
X228447500Y-197899000D01*
X228445500Y-197899000D01*
X228442500Y-197900000D01*
X228440500Y-197900000D01*
X228437500Y-197900000D01*
X228137500Y-197900000D01*
X228134500Y-197900000D01*
X228132500Y-197900000D01*
X228129500Y-197899000D01*
X228127500Y-197899000D01*
X228124500Y-197898000D01*
X228122500Y-197898000D01*
X228119500Y-197897000D01*
X228117500Y-197896000D01*
X228114500Y-197895000D01*
X228112500Y-197893000D01*
X228110500Y-197892000D01*
X228108500Y-197890000D01*
X228106500Y-197889000D01*
X228104500Y-197887000D01*
X228102500Y-197885000D01*
X228100500Y-197883000D01*
X228098500Y-197881000D01*
X228097500Y-197879000D01*
X228095500Y-197877000D01*
X228094500Y-197875000D01*
X228092500Y-197873000D01*
X228091500Y-197870000D01*
X228090500Y-197868000D01*
X228089500Y-197865000D01*
X228089500Y-197863000D01*
X228088500Y-197860000D01*
X228088500Y-197858000D01*
X228087500Y-197855000D01*
X228087500Y-197853000D01*
X228087500Y-197850000D01*
X228087500Y-197250000D01*
X228087500Y-197247000D01*
X228087500Y-197245000D01*
X228088500Y-197242000D01*
X228088500Y-197240000D01*
X228089500Y-197237000D01*
X228089500Y-197235000D01*
X228090500Y-197232000D01*
X228091500Y-197230000D01*
X228092500Y-197227000D01*
X228094500Y-197225000D01*
X228095500Y-197223000D01*
X228097500Y-197221000D01*
X228098500Y-197219000D01*
X228100500Y-197217000D01*
X228102500Y-197215000D01*
X228104500Y-197213000D01*
X228106500Y-197211000D01*
X228108500Y-197210000D01*
X228110500Y-197208000D01*
X228112500Y-197207000D01*
X228114500Y-197205000D01*
X228117500Y-197204000D01*
X228119500Y-197203000D01*
X228122500Y-197202000D01*
X228124500Y-197202000D01*
X228127500Y-197201000D01*
X228129500Y-197201000D01*
X228132500Y-197200000D01*
X228134500Y-197200000D01*
X228137500Y-197200000D01*
X228437500Y-197200000D01*
X228440500Y-197200000D01*
X228442500Y-197200000D01*
X228445500Y-197201000D01*
G36*
X228445500Y-197201000D02*
G01*
X228447500Y-197201000D01*
X228450500Y-197202000D01*
X228452500Y-197202000D01*
X228455500Y-197203000D01*
X228457500Y-197204000D01*
X228460500Y-197205000D01*
X228462500Y-197207000D01*
X228464500Y-197208000D01*
X228466500Y-197210000D01*
X228468500Y-197211000D01*
X228470500Y-197213000D01*
X228472500Y-197215000D01*
X228474500Y-197217000D01*
X228476500Y-197219000D01*
X228477500Y-197221000D01*
X228479500Y-197223000D01*
X228480500Y-197225000D01*
X228482500Y-197227000D01*
X228483500Y-197230000D01*
X228484500Y-197232000D01*
X228485500Y-197235000D01*
X228485500Y-197237000D01*
X228486500Y-197240000D01*
X228486500Y-197242000D01*
X228487500Y-197245000D01*
X228487500Y-197247000D01*
X228487500Y-197250000D01*
X228487500Y-197850000D01*
X228487500Y-197853000D01*
X228487500Y-197855000D01*
X228486500Y-197858000D01*
X228486500Y-197860000D01*
X228485500Y-197863000D01*
X228485500Y-197865000D01*
X228484500Y-197868000D01*
X228483500Y-197870000D01*
X228482500Y-197873000D01*
X228480500Y-197875000D01*
X228479500Y-197877000D01*
X228477500Y-197879000D01*
X228476500Y-197881000D01*
X228474500Y-197883000D01*
X228472500Y-197885000D01*
X228470500Y-197887000D01*
X228468500Y-197889000D01*
X228466500Y-197890000D01*
X228464500Y-197892000D01*
X228462500Y-197893000D01*
X228460500Y-197895000D01*
X228457500Y-197896000D01*
X228455500Y-197897000D01*
X228452500Y-197898000D01*
X228450500Y-197898000D01*
X228447500Y-197899000D01*
X228445500Y-197899000D01*
X228442500Y-197900000D01*
X228440500Y-197900000D01*
X228437500Y-197900000D01*
X228137500Y-197900000D01*
X228134500Y-197900000D01*
X228132500Y-197900000D01*
X228129500Y-197899000D01*
X228127500Y-197899000D01*
X228124500Y-197898000D01*
X228122500Y-197898000D01*
X228119500Y-197897000D01*
X228117500Y-197896000D01*
X228114500Y-197895000D01*
X228112500Y-197893000D01*
X228110500Y-197892000D01*
X228108500Y-197890000D01*
X228106500Y-197889000D01*
X228104500Y-197887000D01*
X228102500Y-197885000D01*
X228100500Y-197883000D01*
X228098500Y-197881000D01*
X228097500Y-197879000D01*
X228095500Y-197877000D01*
X228094500Y-197875000D01*
X228092500Y-197873000D01*
X228091500Y-197870000D01*
X228090500Y-197868000D01*
X228089500Y-197865000D01*
X228089500Y-197863000D01*
X228088500Y-197860000D01*
X228088500Y-197858000D01*
X228087500Y-197855000D01*
X228087500Y-197853000D01*
X228087500Y-197850000D01*
X228087500Y-197250000D01*
X228087500Y-197247000D01*
X228087500Y-197245000D01*
X228088500Y-197242000D01*
X228088500Y-197240000D01*
X228089500Y-197237000D01*
X228089500Y-197235000D01*
X228090500Y-197232000D01*
X228091500Y-197230000D01*
X228092500Y-197227000D01*
X228094500Y-197225000D01*
X228095500Y-197223000D01*
X228097500Y-197221000D01*
X228098500Y-197219000D01*
X228100500Y-197217000D01*
X228102500Y-197215000D01*
X228104500Y-197213000D01*
X228106500Y-197211000D01*
X228108500Y-197210000D01*
X228110500Y-197208000D01*
X228112500Y-197207000D01*
X228114500Y-197205000D01*
X228117500Y-197204000D01*
X228119500Y-197203000D01*
X228122500Y-197202000D01*
X228124500Y-197202000D01*
X228127500Y-197201000D01*
X228129500Y-197201000D01*
X228132500Y-197200000D01*
X228134500Y-197200000D01*
X228137500Y-197200000D01*
X228437500Y-197200000D01*
X228440500Y-197200000D01*
X228442500Y-197200000D01*
X228445500Y-197201000D01*
G37*
X229145500Y-197201000D02*
X229147500Y-197201000D01*
X229150500Y-197202000D01*
X229152500Y-197202000D01*
X229155500Y-197203000D01*
X229157500Y-197204000D01*
X229160500Y-197205000D01*
X229162500Y-197207000D01*
X229164500Y-197208000D01*
X229166500Y-197210000D01*
X229168500Y-197211000D01*
X229170500Y-197213000D01*
X229172500Y-197215000D01*
X229174500Y-197217000D01*
X229176500Y-197219000D01*
X229177500Y-197221000D01*
X229179500Y-197223000D01*
X229180500Y-197225000D01*
X229182500Y-197227000D01*
X229183500Y-197230000D01*
X229184500Y-197232000D01*
X229185500Y-197235000D01*
X229185500Y-197237000D01*
X229186500Y-197240000D01*
X229186500Y-197242000D01*
X229187500Y-197245000D01*
X229187500Y-197247000D01*
X229187500Y-197250000D01*
X229187500Y-197850000D01*
X229187500Y-197853000D01*
X229187500Y-197855000D01*
X229186500Y-197858000D01*
X229186500Y-197860000D01*
X229185500Y-197863000D01*
X229185500Y-197865000D01*
X229184500Y-197868000D01*
X229183500Y-197870000D01*
X229182500Y-197873000D01*
X229180500Y-197875000D01*
X229179500Y-197877000D01*
X229177500Y-197879000D01*
X229176500Y-197881000D01*
X229174500Y-197883000D01*
X229172500Y-197885000D01*
X229170500Y-197887000D01*
X229168500Y-197889000D01*
X229166500Y-197890000D01*
X229164500Y-197892000D01*
X229162500Y-197893000D01*
X229160500Y-197895000D01*
X229157500Y-197896000D01*
X229155500Y-197897000D01*
X229152500Y-197898000D01*
X229150500Y-197898000D01*
X229147500Y-197899000D01*
X229145500Y-197899000D01*
X229142500Y-197900000D01*
X229140500Y-197900000D01*
X229137500Y-197900000D01*
X228837500Y-197900000D01*
X228834500Y-197900000D01*
X228832500Y-197900000D01*
X228829500Y-197899000D01*
X228827500Y-197899000D01*
X228824500Y-197898000D01*
X228822500Y-197898000D01*
X228819500Y-197897000D01*
X228817500Y-197896000D01*
X228814500Y-197895000D01*
X228812500Y-197893000D01*
X228810500Y-197892000D01*
X228808500Y-197890000D01*
X228806500Y-197889000D01*
X228804500Y-197887000D01*
X228802500Y-197885000D01*
X228800500Y-197883000D01*
X228798500Y-197881000D01*
X228797500Y-197879000D01*
X228795500Y-197877000D01*
X228794500Y-197875000D01*
X228792500Y-197873000D01*
X228791500Y-197870000D01*
X228790500Y-197868000D01*
X228789500Y-197865000D01*
X228789500Y-197863000D01*
X228788500Y-197860000D01*
X228788500Y-197858000D01*
X228787500Y-197855000D01*
X228787500Y-197853000D01*
X228787500Y-197850000D01*
X228787500Y-197250000D01*
X228787500Y-197247000D01*
X228787500Y-197245000D01*
X228788500Y-197242000D01*
X228788500Y-197240000D01*
X228789500Y-197237000D01*
X228789500Y-197235000D01*
X228790500Y-197232000D01*
X228791500Y-197230000D01*
X228792500Y-197227000D01*
X228794500Y-197225000D01*
X228795500Y-197223000D01*
X228797500Y-197221000D01*
X228798500Y-197219000D01*
X228800500Y-197217000D01*
X228802500Y-197215000D01*
X228804500Y-197213000D01*
X228806500Y-197211000D01*
X228808500Y-197210000D01*
X228810500Y-197208000D01*
X228812500Y-197207000D01*
X228814500Y-197205000D01*
X228817500Y-197204000D01*
X228819500Y-197203000D01*
X228822500Y-197202000D01*
X228824500Y-197202000D01*
X228827500Y-197201000D01*
X228829500Y-197201000D01*
X228832500Y-197200000D01*
X228834500Y-197200000D01*
X228837500Y-197200000D01*
X229137500Y-197200000D01*
X229140500Y-197200000D01*
X229142500Y-197200000D01*
X229145500Y-197201000D01*
G36*
X229145500Y-197201000D02*
G01*
X229147500Y-197201000D01*
X229150500Y-197202000D01*
X229152500Y-197202000D01*
X229155500Y-197203000D01*
X229157500Y-197204000D01*
X229160500Y-197205000D01*
X229162500Y-197207000D01*
X229164500Y-197208000D01*
X229166500Y-197210000D01*
X229168500Y-197211000D01*
X229170500Y-197213000D01*
X229172500Y-197215000D01*
X229174500Y-197217000D01*
X229176500Y-197219000D01*
X229177500Y-197221000D01*
X229179500Y-197223000D01*
X229180500Y-197225000D01*
X229182500Y-197227000D01*
X229183500Y-197230000D01*
X229184500Y-197232000D01*
X229185500Y-197235000D01*
X229185500Y-197237000D01*
X229186500Y-197240000D01*
X229186500Y-197242000D01*
X229187500Y-197245000D01*
X229187500Y-197247000D01*
X229187500Y-197250000D01*
X229187500Y-197850000D01*
X229187500Y-197853000D01*
X229187500Y-197855000D01*
X229186500Y-197858000D01*
X229186500Y-197860000D01*
X229185500Y-197863000D01*
X229185500Y-197865000D01*
X229184500Y-197868000D01*
X229183500Y-197870000D01*
X229182500Y-197873000D01*
X229180500Y-197875000D01*
X229179500Y-197877000D01*
X229177500Y-197879000D01*
X229176500Y-197881000D01*
X229174500Y-197883000D01*
X229172500Y-197885000D01*
X229170500Y-197887000D01*
X229168500Y-197889000D01*
X229166500Y-197890000D01*
X229164500Y-197892000D01*
X229162500Y-197893000D01*
X229160500Y-197895000D01*
X229157500Y-197896000D01*
X229155500Y-197897000D01*
X229152500Y-197898000D01*
X229150500Y-197898000D01*
X229147500Y-197899000D01*
X229145500Y-197899000D01*
X229142500Y-197900000D01*
X229140500Y-197900000D01*
X229137500Y-197900000D01*
X228837500Y-197900000D01*
X228834500Y-197900000D01*
X228832500Y-197900000D01*
X228829500Y-197899000D01*
X228827500Y-197899000D01*
X228824500Y-197898000D01*
X228822500Y-197898000D01*
X228819500Y-197897000D01*
X228817500Y-197896000D01*
X228814500Y-197895000D01*
X228812500Y-197893000D01*
X228810500Y-197892000D01*
X228808500Y-197890000D01*
X228806500Y-197889000D01*
X228804500Y-197887000D01*
X228802500Y-197885000D01*
X228800500Y-197883000D01*
X228798500Y-197881000D01*
X228797500Y-197879000D01*
X228795500Y-197877000D01*
X228794500Y-197875000D01*
X228792500Y-197873000D01*
X228791500Y-197870000D01*
X228790500Y-197868000D01*
X228789500Y-197865000D01*
X228789500Y-197863000D01*
X228788500Y-197860000D01*
X228788500Y-197858000D01*
X228787500Y-197855000D01*
X228787500Y-197853000D01*
X228787500Y-197850000D01*
X228787500Y-197250000D01*
X228787500Y-197247000D01*
X228787500Y-197245000D01*
X228788500Y-197242000D01*
X228788500Y-197240000D01*
X228789500Y-197237000D01*
X228789500Y-197235000D01*
X228790500Y-197232000D01*
X228791500Y-197230000D01*
X228792500Y-197227000D01*
X228794500Y-197225000D01*
X228795500Y-197223000D01*
X228797500Y-197221000D01*
X228798500Y-197219000D01*
X228800500Y-197217000D01*
X228802500Y-197215000D01*
X228804500Y-197213000D01*
X228806500Y-197211000D01*
X228808500Y-197210000D01*
X228810500Y-197208000D01*
X228812500Y-197207000D01*
X228814500Y-197205000D01*
X228817500Y-197204000D01*
X228819500Y-197203000D01*
X228822500Y-197202000D01*
X228824500Y-197202000D01*
X228827500Y-197201000D01*
X228829500Y-197201000D01*
X228832500Y-197200000D01*
X228834500Y-197200000D01*
X228837500Y-197200000D01*
X229137500Y-197200000D01*
X229140500Y-197200000D01*
X229142500Y-197200000D01*
X229145500Y-197201000D01*
G37*
%TO.C,D5*%
X228445500Y-195601000D02*
X228447500Y-195601000D01*
X228450500Y-195602000D01*
X228452500Y-195602000D01*
X228455500Y-195603000D01*
X228457500Y-195604000D01*
X228460500Y-195605000D01*
X228462500Y-195607000D01*
X228464500Y-195608000D01*
X228466500Y-195610000D01*
X228468500Y-195611000D01*
X228470500Y-195613000D01*
X228472500Y-195615000D01*
X228474500Y-195617000D01*
X228476500Y-195619000D01*
X228477500Y-195621000D01*
X228479500Y-195623000D01*
X228480500Y-195625000D01*
X228482500Y-195627000D01*
X228483500Y-195630000D01*
X228484500Y-195632000D01*
X228485500Y-195635000D01*
X228485500Y-195637000D01*
X228486500Y-195640000D01*
X228486500Y-195642000D01*
X228487500Y-195645000D01*
X228487500Y-195647000D01*
X228487500Y-195650000D01*
X228487500Y-196250000D01*
X228487500Y-196253000D01*
X228487500Y-196255000D01*
X228486500Y-196258000D01*
X228486500Y-196260000D01*
X228485500Y-196263000D01*
X228485500Y-196265000D01*
X228484500Y-196268000D01*
X228483500Y-196270000D01*
X228482500Y-196273000D01*
X228480500Y-196275000D01*
X228479500Y-196277000D01*
X228477500Y-196279000D01*
X228476500Y-196281000D01*
X228474500Y-196283000D01*
X228472500Y-196285000D01*
X228470500Y-196287000D01*
X228468500Y-196289000D01*
X228466500Y-196290000D01*
X228464500Y-196292000D01*
X228462500Y-196293000D01*
X228460500Y-196295000D01*
X228457500Y-196296000D01*
X228455500Y-196297000D01*
X228452500Y-196298000D01*
X228450500Y-196298000D01*
X228447500Y-196299000D01*
X228445500Y-196299000D01*
X228442500Y-196300000D01*
X228440500Y-196300000D01*
X228437500Y-196300000D01*
X228137500Y-196300000D01*
X228134500Y-196300000D01*
X228132500Y-196300000D01*
X228129500Y-196299000D01*
X228127500Y-196299000D01*
X228124500Y-196298000D01*
X228122500Y-196298000D01*
X228119500Y-196297000D01*
X228117500Y-196296000D01*
X228114500Y-196295000D01*
X228112500Y-196293000D01*
X228110500Y-196292000D01*
X228108500Y-196290000D01*
X228106500Y-196289000D01*
X228104500Y-196287000D01*
X228102500Y-196285000D01*
X228100500Y-196283000D01*
X228098500Y-196281000D01*
X228097500Y-196279000D01*
X228095500Y-196277000D01*
X228094500Y-196275000D01*
X228092500Y-196273000D01*
X228091500Y-196270000D01*
X228090500Y-196268000D01*
X228089500Y-196265000D01*
X228089500Y-196263000D01*
X228088500Y-196260000D01*
X228088500Y-196258000D01*
X228087500Y-196255000D01*
X228087500Y-196253000D01*
X228087500Y-196250000D01*
X228087500Y-195650000D01*
X228087500Y-195647000D01*
X228087500Y-195645000D01*
X228088500Y-195642000D01*
X228088500Y-195640000D01*
X228089500Y-195637000D01*
X228089500Y-195635000D01*
X228090500Y-195632000D01*
X228091500Y-195630000D01*
X228092500Y-195627000D01*
X228094500Y-195625000D01*
X228095500Y-195623000D01*
X228097500Y-195621000D01*
X228098500Y-195619000D01*
X228100500Y-195617000D01*
X228102500Y-195615000D01*
X228104500Y-195613000D01*
X228106500Y-195611000D01*
X228108500Y-195610000D01*
X228110500Y-195608000D01*
X228112500Y-195607000D01*
X228114500Y-195605000D01*
X228117500Y-195604000D01*
X228119500Y-195603000D01*
X228122500Y-195602000D01*
X228124500Y-195602000D01*
X228127500Y-195601000D01*
X228129500Y-195601000D01*
X228132500Y-195600000D01*
X228134500Y-195600000D01*
X228137500Y-195600000D01*
X228437500Y-195600000D01*
X228440500Y-195600000D01*
X228442500Y-195600000D01*
X228445500Y-195601000D01*
G36*
X228445500Y-195601000D02*
G01*
X228447500Y-195601000D01*
X228450500Y-195602000D01*
X228452500Y-195602000D01*
X228455500Y-195603000D01*
X228457500Y-195604000D01*
X228460500Y-195605000D01*
X228462500Y-195607000D01*
X228464500Y-195608000D01*
X228466500Y-195610000D01*
X228468500Y-195611000D01*
X228470500Y-195613000D01*
X228472500Y-195615000D01*
X228474500Y-195617000D01*
X228476500Y-195619000D01*
X228477500Y-195621000D01*
X228479500Y-195623000D01*
X228480500Y-195625000D01*
X228482500Y-195627000D01*
X228483500Y-195630000D01*
X228484500Y-195632000D01*
X228485500Y-195635000D01*
X228485500Y-195637000D01*
X228486500Y-195640000D01*
X228486500Y-195642000D01*
X228487500Y-195645000D01*
X228487500Y-195647000D01*
X228487500Y-195650000D01*
X228487500Y-196250000D01*
X228487500Y-196253000D01*
X228487500Y-196255000D01*
X228486500Y-196258000D01*
X228486500Y-196260000D01*
X228485500Y-196263000D01*
X228485500Y-196265000D01*
X228484500Y-196268000D01*
X228483500Y-196270000D01*
X228482500Y-196273000D01*
X228480500Y-196275000D01*
X228479500Y-196277000D01*
X228477500Y-196279000D01*
X228476500Y-196281000D01*
X228474500Y-196283000D01*
X228472500Y-196285000D01*
X228470500Y-196287000D01*
X228468500Y-196289000D01*
X228466500Y-196290000D01*
X228464500Y-196292000D01*
X228462500Y-196293000D01*
X228460500Y-196295000D01*
X228457500Y-196296000D01*
X228455500Y-196297000D01*
X228452500Y-196298000D01*
X228450500Y-196298000D01*
X228447500Y-196299000D01*
X228445500Y-196299000D01*
X228442500Y-196300000D01*
X228440500Y-196300000D01*
X228437500Y-196300000D01*
X228137500Y-196300000D01*
X228134500Y-196300000D01*
X228132500Y-196300000D01*
X228129500Y-196299000D01*
X228127500Y-196299000D01*
X228124500Y-196298000D01*
X228122500Y-196298000D01*
X228119500Y-196297000D01*
X228117500Y-196296000D01*
X228114500Y-196295000D01*
X228112500Y-196293000D01*
X228110500Y-196292000D01*
X228108500Y-196290000D01*
X228106500Y-196289000D01*
X228104500Y-196287000D01*
X228102500Y-196285000D01*
X228100500Y-196283000D01*
X228098500Y-196281000D01*
X228097500Y-196279000D01*
X228095500Y-196277000D01*
X228094500Y-196275000D01*
X228092500Y-196273000D01*
X228091500Y-196270000D01*
X228090500Y-196268000D01*
X228089500Y-196265000D01*
X228089500Y-196263000D01*
X228088500Y-196260000D01*
X228088500Y-196258000D01*
X228087500Y-196255000D01*
X228087500Y-196253000D01*
X228087500Y-196250000D01*
X228087500Y-195650000D01*
X228087500Y-195647000D01*
X228087500Y-195645000D01*
X228088500Y-195642000D01*
X228088500Y-195640000D01*
X228089500Y-195637000D01*
X228089500Y-195635000D01*
X228090500Y-195632000D01*
X228091500Y-195630000D01*
X228092500Y-195627000D01*
X228094500Y-195625000D01*
X228095500Y-195623000D01*
X228097500Y-195621000D01*
X228098500Y-195619000D01*
X228100500Y-195617000D01*
X228102500Y-195615000D01*
X228104500Y-195613000D01*
X228106500Y-195611000D01*
X228108500Y-195610000D01*
X228110500Y-195608000D01*
X228112500Y-195607000D01*
X228114500Y-195605000D01*
X228117500Y-195604000D01*
X228119500Y-195603000D01*
X228122500Y-195602000D01*
X228124500Y-195602000D01*
X228127500Y-195601000D01*
X228129500Y-195601000D01*
X228132500Y-195600000D01*
X228134500Y-195600000D01*
X228137500Y-195600000D01*
X228437500Y-195600000D01*
X228440500Y-195600000D01*
X228442500Y-195600000D01*
X228445500Y-195601000D01*
G37*
X229145500Y-195601000D02*
X229147500Y-195601000D01*
X229150500Y-195602000D01*
X229152500Y-195602000D01*
X229155500Y-195603000D01*
X229157500Y-195604000D01*
X229160500Y-195605000D01*
X229162500Y-195607000D01*
X229164500Y-195608000D01*
X229166500Y-195610000D01*
X229168500Y-195611000D01*
X229170500Y-195613000D01*
X229172500Y-195615000D01*
X229174500Y-195617000D01*
X229176500Y-195619000D01*
X229177500Y-195621000D01*
X229179500Y-195623000D01*
X229180500Y-195625000D01*
X229182500Y-195627000D01*
X229183500Y-195630000D01*
X229184500Y-195632000D01*
X229185500Y-195635000D01*
X229185500Y-195637000D01*
X229186500Y-195640000D01*
X229186500Y-195642000D01*
X229187500Y-195645000D01*
X229187500Y-195647000D01*
X229187500Y-195650000D01*
X229187500Y-196250000D01*
X229187500Y-196253000D01*
X229187500Y-196255000D01*
X229186500Y-196258000D01*
X229186500Y-196260000D01*
X229185500Y-196263000D01*
X229185500Y-196265000D01*
X229184500Y-196268000D01*
X229183500Y-196270000D01*
X229182500Y-196273000D01*
X229180500Y-196275000D01*
X229179500Y-196277000D01*
X229177500Y-196279000D01*
X229176500Y-196281000D01*
X229174500Y-196283000D01*
X229172500Y-196285000D01*
X229170500Y-196287000D01*
X229168500Y-196289000D01*
X229166500Y-196290000D01*
X229164500Y-196292000D01*
X229162500Y-196293000D01*
X229160500Y-196295000D01*
X229157500Y-196296000D01*
X229155500Y-196297000D01*
X229152500Y-196298000D01*
X229150500Y-196298000D01*
X229147500Y-196299000D01*
X229145500Y-196299000D01*
X229142500Y-196300000D01*
X229140500Y-196300000D01*
X229137500Y-196300000D01*
X228837500Y-196300000D01*
X228834500Y-196300000D01*
X228832500Y-196300000D01*
X228829500Y-196299000D01*
X228827500Y-196299000D01*
X228824500Y-196298000D01*
X228822500Y-196298000D01*
X228819500Y-196297000D01*
X228817500Y-196296000D01*
X228814500Y-196295000D01*
X228812500Y-196293000D01*
X228810500Y-196292000D01*
X228808500Y-196290000D01*
X228806500Y-196289000D01*
X228804500Y-196287000D01*
X228802500Y-196285000D01*
X228800500Y-196283000D01*
X228798500Y-196281000D01*
X228797500Y-196279000D01*
X228795500Y-196277000D01*
X228794500Y-196275000D01*
X228792500Y-196273000D01*
X228791500Y-196270000D01*
X228790500Y-196268000D01*
X228789500Y-196265000D01*
X228789500Y-196263000D01*
X228788500Y-196260000D01*
X228788500Y-196258000D01*
X228787500Y-196255000D01*
X228787500Y-196253000D01*
X228787500Y-196250000D01*
X228787500Y-195650000D01*
X228787500Y-195647000D01*
X228787500Y-195645000D01*
X228788500Y-195642000D01*
X228788500Y-195640000D01*
X228789500Y-195637000D01*
X228789500Y-195635000D01*
X228790500Y-195632000D01*
X228791500Y-195630000D01*
X228792500Y-195627000D01*
X228794500Y-195625000D01*
X228795500Y-195623000D01*
X228797500Y-195621000D01*
X228798500Y-195619000D01*
X228800500Y-195617000D01*
X228802500Y-195615000D01*
X228804500Y-195613000D01*
X228806500Y-195611000D01*
X228808500Y-195610000D01*
X228810500Y-195608000D01*
X228812500Y-195607000D01*
X228814500Y-195605000D01*
X228817500Y-195604000D01*
X228819500Y-195603000D01*
X228822500Y-195602000D01*
X228824500Y-195602000D01*
X228827500Y-195601000D01*
X228829500Y-195601000D01*
X228832500Y-195600000D01*
X228834500Y-195600000D01*
X228837500Y-195600000D01*
X229137500Y-195600000D01*
X229140500Y-195600000D01*
X229142500Y-195600000D01*
X229145500Y-195601000D01*
G36*
X229145500Y-195601000D02*
G01*
X229147500Y-195601000D01*
X229150500Y-195602000D01*
X229152500Y-195602000D01*
X229155500Y-195603000D01*
X229157500Y-195604000D01*
X229160500Y-195605000D01*
X229162500Y-195607000D01*
X229164500Y-195608000D01*
X229166500Y-195610000D01*
X229168500Y-195611000D01*
X229170500Y-195613000D01*
X229172500Y-195615000D01*
X229174500Y-195617000D01*
X229176500Y-195619000D01*
X229177500Y-195621000D01*
X229179500Y-195623000D01*
X229180500Y-195625000D01*
X229182500Y-195627000D01*
X229183500Y-195630000D01*
X229184500Y-195632000D01*
X229185500Y-195635000D01*
X229185500Y-195637000D01*
X229186500Y-195640000D01*
X229186500Y-195642000D01*
X229187500Y-195645000D01*
X229187500Y-195647000D01*
X229187500Y-195650000D01*
X229187500Y-196250000D01*
X229187500Y-196253000D01*
X229187500Y-196255000D01*
X229186500Y-196258000D01*
X229186500Y-196260000D01*
X229185500Y-196263000D01*
X229185500Y-196265000D01*
X229184500Y-196268000D01*
X229183500Y-196270000D01*
X229182500Y-196273000D01*
X229180500Y-196275000D01*
X229179500Y-196277000D01*
X229177500Y-196279000D01*
X229176500Y-196281000D01*
X229174500Y-196283000D01*
X229172500Y-196285000D01*
X229170500Y-196287000D01*
X229168500Y-196289000D01*
X229166500Y-196290000D01*
X229164500Y-196292000D01*
X229162500Y-196293000D01*
X229160500Y-196295000D01*
X229157500Y-196296000D01*
X229155500Y-196297000D01*
X229152500Y-196298000D01*
X229150500Y-196298000D01*
X229147500Y-196299000D01*
X229145500Y-196299000D01*
X229142500Y-196300000D01*
X229140500Y-196300000D01*
X229137500Y-196300000D01*
X228837500Y-196300000D01*
X228834500Y-196300000D01*
X228832500Y-196300000D01*
X228829500Y-196299000D01*
X228827500Y-196299000D01*
X228824500Y-196298000D01*
X228822500Y-196298000D01*
X228819500Y-196297000D01*
X228817500Y-196296000D01*
X228814500Y-196295000D01*
X228812500Y-196293000D01*
X228810500Y-196292000D01*
X228808500Y-196290000D01*
X228806500Y-196289000D01*
X228804500Y-196287000D01*
X228802500Y-196285000D01*
X228800500Y-196283000D01*
X228798500Y-196281000D01*
X228797500Y-196279000D01*
X228795500Y-196277000D01*
X228794500Y-196275000D01*
X228792500Y-196273000D01*
X228791500Y-196270000D01*
X228790500Y-196268000D01*
X228789500Y-196265000D01*
X228789500Y-196263000D01*
X228788500Y-196260000D01*
X228788500Y-196258000D01*
X228787500Y-196255000D01*
X228787500Y-196253000D01*
X228787500Y-196250000D01*
X228787500Y-195650000D01*
X228787500Y-195647000D01*
X228787500Y-195645000D01*
X228788500Y-195642000D01*
X228788500Y-195640000D01*
X228789500Y-195637000D01*
X228789500Y-195635000D01*
X228790500Y-195632000D01*
X228791500Y-195630000D01*
X228792500Y-195627000D01*
X228794500Y-195625000D01*
X228795500Y-195623000D01*
X228797500Y-195621000D01*
X228798500Y-195619000D01*
X228800500Y-195617000D01*
X228802500Y-195615000D01*
X228804500Y-195613000D01*
X228806500Y-195611000D01*
X228808500Y-195610000D01*
X228810500Y-195608000D01*
X228812500Y-195607000D01*
X228814500Y-195605000D01*
X228817500Y-195604000D01*
X228819500Y-195603000D01*
X228822500Y-195602000D01*
X228824500Y-195602000D01*
X228827500Y-195601000D01*
X228829500Y-195601000D01*
X228832500Y-195600000D01*
X228834500Y-195600000D01*
X228837500Y-195600000D01*
X229137500Y-195600000D01*
X229140500Y-195600000D01*
X229142500Y-195600000D01*
X229145500Y-195601000D01*
G37*
%TD*%
D11*
%TO.C,D8*%
X210050000Y-190500000D03*
X207950000Y-190500000D03*
%TD*%
D12*
%TO.C,A1*%
X116950000Y-152850000D03*
X117200000Y-144650000D03*
X117450000Y-152850000D03*
X117700000Y-144650000D03*
X117950000Y-152850000D03*
X118200000Y-144650000D03*
X118450000Y-152850000D03*
X118700000Y-144650000D03*
X118950000Y-152850000D03*
X119200000Y-144650000D03*
X119450000Y-152850000D03*
X119700000Y-144650000D03*
X119950000Y-152850000D03*
X120200000Y-144650000D03*
X120450000Y-152850000D03*
X120700000Y-144650000D03*
X120950000Y-152850000D03*
X121200000Y-144650000D03*
X121450000Y-152850000D03*
X121700000Y-144650000D03*
X121950000Y-152850000D03*
X122200000Y-144650000D03*
X122450000Y-152850000D03*
X122700000Y-144650000D03*
X122950000Y-152850000D03*
X123200000Y-144650000D03*
X123450000Y-152850000D03*
X123700000Y-144650000D03*
X123950000Y-152850000D03*
X124200000Y-144650000D03*
X124450000Y-152850000D03*
X124700000Y-144650000D03*
X124950000Y-152850000D03*
X125200000Y-144650000D03*
X125450000Y-152850000D03*
X125700000Y-144650000D03*
X125950000Y-152850000D03*
X126200000Y-144650000D03*
X126450000Y-152850000D03*
X126700000Y-144650000D03*
X126950000Y-152850000D03*
X127200000Y-144650000D03*
X127450000Y-152850000D03*
X127700000Y-144650000D03*
X127950000Y-152850000D03*
X128200000Y-144650000D03*
X128450000Y-152850000D03*
X128700000Y-144650000D03*
X128950000Y-152850000D03*
X129200000Y-144650000D03*
X129450000Y-152850000D03*
X129700000Y-144650000D03*
X129950000Y-152850000D03*
X130200000Y-144650000D03*
X130450000Y-152850000D03*
X130700000Y-144650000D03*
X130950000Y-152850000D03*
X131200000Y-144650000D03*
X131450000Y-152850000D03*
X131700000Y-144650000D03*
X131950000Y-152850000D03*
X132200000Y-144650000D03*
X132450000Y-152850000D03*
X132700000Y-144650000D03*
X132950000Y-152850000D03*
X133200000Y-144650000D03*
X133450000Y-152850000D03*
X133700000Y-144650000D03*
X133950000Y-152850000D03*
X134200000Y-144650000D03*
X134450000Y-152850000D03*
X134700000Y-144650000D03*
X134950000Y-152850000D03*
X135200000Y-144650000D03*
X135450000Y-152850000D03*
X135700000Y-144650000D03*
X135950000Y-152850000D03*
X136200000Y-144650000D03*
X136450000Y-152850000D03*
X136700000Y-144650000D03*
X136950000Y-152850000D03*
X137200000Y-144650000D03*
X137450000Y-152850000D03*
X137700000Y-144650000D03*
X137950000Y-152850000D03*
X138200000Y-144650000D03*
X138450000Y-152850000D03*
X138700000Y-144650000D03*
X138950000Y-152850000D03*
X139200000Y-144650000D03*
X139450000Y-152850000D03*
X139700000Y-144650000D03*
X139950000Y-152850000D03*
X140200000Y-144650000D03*
X140450000Y-152850000D03*
X140700000Y-144650000D03*
X140950000Y-152850000D03*
X141200000Y-144650000D03*
X141450000Y-152850000D03*
X141700000Y-144650000D03*
X141950000Y-152850000D03*
X142200000Y-144650000D03*
X142450000Y-152850000D03*
X142700000Y-144650000D03*
X142950000Y-152850000D03*
X143200000Y-144650000D03*
X143450000Y-152850000D03*
X143700000Y-144650000D03*
X143950000Y-152850000D03*
X144200000Y-144650000D03*
X144450000Y-152850000D03*
X144700000Y-144650000D03*
X144950000Y-152850000D03*
X145200000Y-144650000D03*
X145450000Y-152850000D03*
X145700000Y-144650000D03*
X145950000Y-152850000D03*
X146200000Y-144650000D03*
X146450000Y-152850000D03*
X146700000Y-144650000D03*
X146950000Y-152850000D03*
X147200000Y-144650000D03*
X147450000Y-152850000D03*
X147700000Y-144650000D03*
X147950000Y-152850000D03*
X148200000Y-144650000D03*
X148450000Y-152850000D03*
X148700000Y-144650000D03*
X148950000Y-152850000D03*
X149200000Y-144650000D03*
X149450000Y-152850000D03*
X149700000Y-144650000D03*
X149950000Y-152850000D03*
X150200000Y-144650000D03*
X150450000Y-152850000D03*
X150700000Y-144650000D03*
X150950000Y-152850000D03*
X151200000Y-144650000D03*
X151450000Y-152850000D03*
X151700000Y-144650000D03*
X151950000Y-152850000D03*
X152200000Y-144650000D03*
X152450000Y-152850000D03*
X152700000Y-144650000D03*
X154950000Y-152850000D03*
X155200000Y-144650000D03*
X155450000Y-152850000D03*
X155700000Y-144650000D03*
X155950000Y-152850000D03*
X156200000Y-144650000D03*
X156450000Y-152850000D03*
X156700000Y-144650000D03*
X156950000Y-152850000D03*
X157200000Y-144650000D03*
X157450000Y-152850000D03*
X157700000Y-144650000D03*
X157950000Y-152850000D03*
X158200000Y-144650000D03*
X158450000Y-152850000D03*
X158700000Y-144650000D03*
X158950000Y-152850000D03*
X159200000Y-144650000D03*
X159450000Y-152850000D03*
X159700000Y-144650000D03*
X159950000Y-152850000D03*
X160200000Y-144650000D03*
X160450000Y-152850000D03*
X160700000Y-144650000D03*
X160950000Y-152850000D03*
X161200000Y-144650000D03*
X161450000Y-152850000D03*
X161700000Y-144650000D03*
X161950000Y-152850000D03*
X162200000Y-144650000D03*
X162450000Y-152850000D03*
X162700000Y-144650000D03*
X162950000Y-152850000D03*
X163200000Y-144650000D03*
X163450000Y-152850000D03*
X163700000Y-144650000D03*
X163950000Y-152850000D03*
X164200000Y-144650000D03*
X164450000Y-152850000D03*
X164700000Y-144650000D03*
X164950000Y-152850000D03*
X165200000Y-144650000D03*
X165450000Y-152850000D03*
X165700000Y-144650000D03*
X165950000Y-152850000D03*
X166200000Y-144650000D03*
X166450000Y-152850000D03*
X166700000Y-144650000D03*
X166950000Y-152850000D03*
X167200000Y-144650000D03*
X167450000Y-152850000D03*
X167700000Y-144650000D03*
X167950000Y-152850000D03*
X168200000Y-144650000D03*
X168450000Y-152850000D03*
X168700000Y-144650000D03*
X168950000Y-152850000D03*
X169200000Y-144650000D03*
X169450000Y-152850000D03*
X169700000Y-144650000D03*
X169950000Y-152850000D03*
X170200000Y-144650000D03*
X170450000Y-152850000D03*
X170700000Y-144650000D03*
X170950000Y-152850000D03*
X171200000Y-144650000D03*
X171450000Y-152850000D03*
X171700000Y-144650000D03*
X171950000Y-152850000D03*
X172200000Y-144650000D03*
X172450000Y-152850000D03*
X172700000Y-144650000D03*
X172950000Y-152850000D03*
X173200000Y-144650000D03*
X173450000Y-152850000D03*
X173700000Y-144650000D03*
X173950000Y-152850000D03*
X174200000Y-144650000D03*
X174450000Y-152850000D03*
X174700000Y-144650000D03*
X174950000Y-152850000D03*
X175200000Y-144650000D03*
X175450000Y-152850000D03*
X175700000Y-144650000D03*
X175950000Y-152850000D03*
X176200000Y-144650000D03*
X176450000Y-152850000D03*
X176700000Y-144650000D03*
X176950000Y-152850000D03*
X177200000Y-144650000D03*
X177450000Y-152850000D03*
X177700000Y-144650000D03*
X177950000Y-152850000D03*
X178200000Y-144650000D03*
X178450000Y-152850000D03*
X178700000Y-144650000D03*
X178950000Y-152850000D03*
X179200000Y-144650000D03*
X179450000Y-152850000D03*
X179700000Y-144650000D03*
X179950000Y-152850000D03*
X180200000Y-144650000D03*
X180450000Y-152850000D03*
X180700000Y-144650000D03*
X180950000Y-152850000D03*
X181200000Y-144650000D03*
X181450000Y-152850000D03*
X181700000Y-144650000D03*
X181950000Y-152850000D03*
X182200000Y-144650000D03*
X182450000Y-152850000D03*
X182700000Y-144650000D03*
X182950000Y-152850000D03*
X183200000Y-144650000D03*
X183450000Y-152850000D03*
X183700000Y-144650000D03*
D13*
X115925000Y-148750000D03*
D14*
X184725000Y-148750000D03*
D15*
X184125000Y-136750000D03*
X116525000Y-136750000D03*
%TD*%
D16*
%TO.C,Q6*%
X191450000Y-176075000D03*
X189550000Y-176075000D03*
X190500000Y-177950000D03*
%TD*%
D17*
%TO.C,C14*%
X214550000Y-164612500D03*
X214550000Y-166687500D03*
%TD*%
D18*
%TO.C,C31*%
X129100000Y-167132500D03*
X129100000Y-165997500D03*
%TD*%
D19*
%TO.C,H6*%
X300750000Y-204350000D03*
D20*
X300750000Y-204350000D03*
%TD*%
D21*
%TO.C,D17*%
X168550000Y-184350000D03*
X169950000Y-184350000D03*
%TD*%
D22*
%TO.C,D25*%
X190350000Y-104750000D03*
X188600000Y-104750000D03*
%TD*%
D23*
%TO.C,R35*%
X136850000Y-173947500D03*
X136850000Y-172752500D03*
%TD*%
D24*
%TO.C,C75*%
X190370000Y-99750000D03*
X188645000Y-99750000D03*
%TD*%
D25*
%TO.C,J21*%
X245525000Y-174575000D03*
X245525000Y-175825000D03*
X245525000Y-177075000D03*
X245525000Y-178325000D03*
D26*
X242325000Y-172725000D03*
X242325000Y-180175000D03*
%TD*%
D27*
%TO.C,R69*%
X249425000Y-185350000D03*
X251250000Y-185350000D03*
%TD*%
D28*
%TO.C,C24*%
X135150000Y-165982500D03*
X135150000Y-167117500D03*
%TD*%
D18*
%TO.C,C32*%
X148800000Y-167132500D03*
X148800000Y-165997500D03*
%TD*%
D29*
%TO.C,U5*%
X140500000Y-175300000D03*
D30*
X140900000Y-175300000D03*
X141300000Y-175300000D03*
X141700000Y-175300000D03*
X142100000Y-175300000D03*
X142500000Y-175300000D03*
X142900000Y-175300000D03*
D31*
X143300000Y-175300000D03*
D32*
X143850000Y-174750000D03*
D33*
X143850000Y-174350000D03*
X143850000Y-173950000D03*
X143850000Y-173550000D03*
X143850000Y-173150000D03*
X143850000Y-172750000D03*
X143850000Y-172350000D03*
D34*
X143850000Y-171950000D03*
D35*
X143300000Y-171400000D03*
D30*
X142900000Y-171400000D03*
X142500000Y-171400000D03*
X142100000Y-171400000D03*
X141700000Y-171400000D03*
X141300000Y-171400000D03*
X140900000Y-171400000D03*
D36*
X140500000Y-171400000D03*
D37*
X139950000Y-171950000D03*
D33*
X139950000Y-172350000D03*
X139950000Y-172750000D03*
X139950000Y-173150000D03*
X139950000Y-173550000D03*
X139950000Y-173950000D03*
X139950000Y-174350000D03*
D38*
X139950000Y-174750000D03*
D39*
X141900000Y-173350000D03*
%TD*%
D40*
%TO.C,SW1*%
X262975000Y-200060000D03*
X255965000Y-200060000D03*
D41*
X261725000Y-202550000D03*
X257225000Y-202550000D03*
%TD*%
D42*
%TO.C,R3*%
X288147500Y-204150000D03*
X286952500Y-204150000D03*
%TD*%
D19*
%TO.C,H3*%
X111550000Y-204850000D03*
D20*
X111550000Y-204850000D03*
%TD*%
D19*
%TO.C,H5*%
X300450000Y-85850000D03*
D20*
X300450000Y-85850000D03*
%TD*%
D43*
%TO.C,J2*%
X222660000Y-201170000D03*
X228440000Y-201170000D03*
D44*
X221225000Y-200680000D03*
X229875000Y-200680000D03*
D45*
X221225000Y-204850000D03*
X229875000Y-204850000D03*
%TD*%
D28*
%TO.C,C41*%
X161350000Y-181582500D03*
X161350000Y-182717500D03*
%TD*%
D46*
%TO.C,D9*%
X223150000Y-187150000D03*
X223150000Y-191150000D03*
%TD*%
D47*
%TO.C,J20*%
X266400000Y-135575000D03*
D48*
X286400000Y-135575000D03*
D49*
X285650000Y-140850000D03*
X285400000Y-133300000D03*
X285150000Y-140850000D03*
X284900000Y-133300000D03*
X284650000Y-140850000D03*
X284400000Y-133300000D03*
X284150000Y-140850000D03*
X283900000Y-133300000D03*
X283650000Y-140850000D03*
X283400000Y-133300000D03*
X283150000Y-140850000D03*
X282900000Y-133300000D03*
X282650000Y-140850000D03*
X282400000Y-133300000D03*
X282150000Y-140850000D03*
X281900000Y-133300000D03*
X281650000Y-140850000D03*
X281400000Y-133300000D03*
X281150000Y-140850000D03*
X280900000Y-133300000D03*
X280650000Y-140850000D03*
X280400000Y-133300000D03*
X280150000Y-140850000D03*
D50*
X276057600Y-91637200D03*
D49*
X277900000Y-133300000D03*
X277650000Y-140850000D03*
X277400000Y-133300000D03*
X277150000Y-140850000D03*
X276900000Y-133300000D03*
X276650000Y-140850000D03*
X276400000Y-133300000D03*
X276150000Y-140850000D03*
X275900000Y-133300000D03*
X275650000Y-140850000D03*
X275400000Y-133300000D03*
X275150000Y-140850000D03*
X274900000Y-133300000D03*
X274650000Y-140850000D03*
X274400000Y-133300000D03*
X274150000Y-140850000D03*
X273900000Y-133300000D03*
X273650000Y-140850000D03*
X273400000Y-133300000D03*
X273150000Y-140850000D03*
X272900000Y-133300000D03*
X272650000Y-140850000D03*
X272400000Y-133300000D03*
X272150000Y-140850000D03*
X271900000Y-133300000D03*
X271650000Y-140850000D03*
X271400000Y-133300000D03*
X271150000Y-140850000D03*
X270900000Y-133300000D03*
X270650000Y-140850000D03*
X270400000Y-133300000D03*
X270150000Y-140850000D03*
X269900000Y-133300000D03*
X269650000Y-140850000D03*
X269400000Y-133300000D03*
X269150000Y-140850000D03*
X268900000Y-133300000D03*
X268650000Y-140850000D03*
X268400000Y-133300000D03*
X268150000Y-140850000D03*
X267900000Y-133300000D03*
X267650000Y-140850000D03*
X267400000Y-133300000D03*
X267150000Y-140850000D03*
D51*
X286750000Y-140075000D03*
X266050000Y-140075000D03*
%TD*%
D52*
%TO.C,U14*%
X251950000Y-155650000D03*
X251950000Y-156150000D03*
D53*
X251987500Y-156650000D03*
D52*
X251950000Y-157150000D03*
X251950000Y-157650000D03*
X252725000Y-157650000D03*
X252725000Y-157150000D03*
D54*
X252750000Y-156650000D03*
D52*
X252725000Y-156150000D03*
X252725000Y-155650000D03*
%TD*%
D28*
%TO.C,C18*%
X261050000Y-193882500D03*
X261050000Y-195017500D03*
%TD*%
D55*
%TO.C,U8*%
X175150000Y-184975000D03*
X174650000Y-184975000D03*
D56*
X174150000Y-185012500D03*
D55*
X173650000Y-184975000D03*
X173150000Y-184975000D03*
X173150000Y-185750000D03*
X173650000Y-185750000D03*
D57*
X174150000Y-185775000D03*
D55*
X174650000Y-185750000D03*
X175150000Y-185750000D03*
%TD*%
D24*
%TO.C,C73*%
X190370000Y-101550000D03*
X188645000Y-101550000D03*
%TD*%
D58*
%TO.C,R49*%
X189502500Y-180175000D03*
X190697500Y-180175000D03*
%TD*%
D42*
%TO.C,R4*%
X280247500Y-204550000D03*
X279052500Y-204550000D03*
%TD*%
D17*
%TO.C,C20*%
X230150000Y-162150000D03*
X230150000Y-164225000D03*
%TD*%
D59*
%TO.C,R37*%
X145850000Y-176952500D03*
X145850000Y-178147500D03*
%TD*%
D23*
%TO.C,R45*%
X197050000Y-187345000D03*
X197050000Y-186150000D03*
%TD*%
D60*
%TO.C,C81*%
X248687500Y-95855000D03*
X250412500Y-95855000D03*
%TD*%
D17*
%TO.C,C44*%
X155050000Y-180812500D03*
X155050000Y-182887500D03*
%TD*%
D14*
%TO.C,J18*%
X194850000Y-96875000D03*
D13*
X214850000Y-96875000D03*
D61*
X195600000Y-91600000D03*
X195850000Y-99150000D03*
X196100000Y-91600000D03*
X196350000Y-99150000D03*
X196600000Y-91600000D03*
X196850000Y-99150000D03*
X197100000Y-91600000D03*
X197350000Y-99150000D03*
X197600000Y-91600000D03*
X197850000Y-99150000D03*
X198100000Y-91600000D03*
X198350000Y-99150000D03*
X198600000Y-91600000D03*
X198850000Y-99150000D03*
X199100000Y-91600000D03*
X199350000Y-99150000D03*
X199600000Y-91600000D03*
X199850000Y-99150000D03*
X200100000Y-91600000D03*
X200350000Y-99150000D03*
X200600000Y-91600000D03*
X200850000Y-99150000D03*
X201100000Y-91600000D03*
X201350000Y-99150000D03*
X201600000Y-91600000D03*
X201850000Y-99150000D03*
X202100000Y-91600000D03*
X202350000Y-99150000D03*
X202600000Y-91600000D03*
X202850000Y-99150000D03*
X203100000Y-91600000D03*
X203350000Y-99150000D03*
X203600000Y-91600000D03*
X203850000Y-99150000D03*
X204100000Y-91600000D03*
X204350000Y-99150000D03*
X204600000Y-91600000D03*
X204850000Y-99150000D03*
X205100000Y-91600000D03*
X205350000Y-99150000D03*
X205600000Y-91600000D03*
X205850000Y-99150000D03*
X206100000Y-91600000D03*
X206350000Y-99150000D03*
X206600000Y-91600000D03*
X206850000Y-99150000D03*
X207100000Y-91600000D03*
X207350000Y-99150000D03*
X207600000Y-91600000D03*
X207850000Y-99150000D03*
X208100000Y-91600000D03*
X208350000Y-99150000D03*
X208600000Y-91600000D03*
X208850000Y-99150000D03*
X209100000Y-91600000D03*
X209350000Y-99150000D03*
X209600000Y-91600000D03*
X209850000Y-99150000D03*
D50*
X205050000Y-120575000D03*
D61*
X212100000Y-91600000D03*
X212350000Y-99150000D03*
X212600000Y-91600000D03*
X212850000Y-99150000D03*
X213100000Y-91600000D03*
X213350000Y-99150000D03*
X213600000Y-91600000D03*
X213850000Y-99150000D03*
X214100000Y-91600000D03*
D62*
X194500000Y-92375000D03*
X215200000Y-92375000D03*
%TD*%
D18*
%TO.C,C38*%
X134150000Y-183050000D03*
X134150000Y-181915000D03*
%TD*%
D42*
%TO.C,R53*%
X191647500Y-184550000D03*
X190452500Y-184550000D03*
%TD*%
%TO.C,R11*%
X234747500Y-181550000D03*
X233552500Y-181550000D03*
%TD*%
D28*
%TO.C,C52*%
X194650000Y-180350000D03*
X194650000Y-181485000D03*
%TD*%
D27*
%TO.C,R62*%
X256825000Y-185350000D03*
X258650000Y-185350000D03*
%TD*%
D55*
%TO.C,U12*%
X215550000Y-148037500D03*
X215050000Y-148037500D03*
D56*
X214550000Y-148075000D03*
D55*
X214050000Y-148037500D03*
X213550000Y-148037500D03*
X213550000Y-148812500D03*
X214050000Y-148812500D03*
D57*
X214550000Y-148837500D03*
D55*
X215050000Y-148812500D03*
X215550000Y-148812500D03*
%TD*%
D60*
%TO.C,C83*%
X249487500Y-187250000D03*
X251212500Y-187250000D03*
%TD*%
D46*
%TO.C,D10*%
X218600000Y-187150000D03*
X218600000Y-191150000D03*
%TD*%
D23*
%TO.C,R34*%
X131450000Y-183047500D03*
X131450000Y-181852500D03*
%TD*%
D58*
%TO.C,R41*%
X189952500Y-174150000D03*
X191147500Y-174150000D03*
%TD*%
D23*
%TO.C,R50*%
X203250000Y-187345000D03*
X203250000Y-186150000D03*
%TD*%
%TO.C,R10*%
X236850000Y-172747500D03*
X236850000Y-171552500D03*
%TD*%
%TO.C,R44*%
X195850000Y-187345000D03*
X195850000Y-186150000D03*
%TD*%
D21*
%TO.C,D23*%
X184150000Y-181050000D03*
X185550000Y-181050000D03*
%TD*%
D63*
%TO.C,J6*%
X297190000Y-152180000D03*
D64*
X294650000Y-152180000D03*
X292110000Y-152180000D03*
X289570000Y-152180000D03*
%TD*%
D17*
%TO.C,C12*%
X216850000Y-164612500D03*
X216850000Y-166687500D03*
%TD*%
D65*
%TO.C,C71*%
X190387500Y-95250000D03*
X188312500Y-95250000D03*
%TD*%
D23*
%TO.C,R48*%
X202050000Y-187345000D03*
X202050000Y-186150000D03*
%TD*%
D66*
%TO.C,C76*%
X190642500Y-98150000D03*
X189507500Y-98150000D03*
%TD*%
D59*
%TO.C,R22*%
X246950000Y-194352500D03*
X246950000Y-195547500D03*
%TD*%
D67*
%TO.C,C16*%
X216750000Y-181287500D03*
X216750000Y-179212500D03*
%TD*%
D55*
%TO.C,U7*%
X165350000Y-184575000D03*
X164850000Y-184575000D03*
D56*
X164350000Y-184612500D03*
D55*
X163850000Y-184575000D03*
X163350000Y-184575000D03*
X163350000Y-185350000D03*
X163850000Y-185350000D03*
D57*
X164350000Y-185375000D03*
D55*
X164850000Y-185350000D03*
X165350000Y-185350000D03*
%TD*%
D67*
%TO.C,C11*%
X232450000Y-176787500D03*
X232450000Y-174712500D03*
%TD*%
D28*
%TO.C,C51*%
X197450000Y-180350000D03*
X197450000Y-181485000D03*
%TD*%
D68*
%TO.C,C36*%
X132682500Y-176650000D03*
X133817500Y-176650000D03*
%TD*%
D23*
%TO.C,R38*%
X182950000Y-185247500D03*
X182950000Y-184052500D03*
%TD*%
D69*
%TO.C,J7*%
X163050000Y-195840000D03*
D70*
X165550000Y-195840000D03*
X167550000Y-195840000D03*
X170050000Y-195840000D03*
X170550000Y-194340000D03*
X168550000Y-194340000D03*
X166550000Y-194340000D03*
X164550000Y-194340000D03*
X162550000Y-194340000D03*
X163050000Y-192640000D03*
X165550000Y-192640000D03*
X167550000Y-192640000D03*
X170050000Y-192640000D03*
X170550000Y-191140000D03*
X168550000Y-191140000D03*
X166550000Y-191140000D03*
X164550000Y-191140000D03*
X162550000Y-191140000D03*
D71*
X159980000Y-197840000D03*
X173120000Y-197840000D03*
X173120000Y-192160000D03*
X159980000Y-192160000D03*
%TD*%
D42*
%TO.C,R15*%
X272647500Y-204650000D03*
X271452500Y-204650000D03*
%TD*%
D72*
%TO.C,U4*%
X227700000Y-168612500D03*
X226750000Y-168612500D03*
X225800000Y-168612500D03*
X225800000Y-170887500D03*
X226750000Y-170887500D03*
X227700000Y-170887500D03*
%TD*%
D63*
%TO.C,J13*%
X212250000Y-159050000D03*
D64*
X212250000Y-156510000D03*
X212250000Y-153970000D03*
X212250000Y-151430000D03*
%TD*%
D28*
%TO.C,C25*%
X136550000Y-166000000D03*
X136550000Y-167135000D03*
%TD*%
D63*
%TO.C,J14*%
X261075000Y-160750000D03*
D64*
X258535000Y-160750000D03*
X255995000Y-160750000D03*
%TD*%
D24*
%TO.C,C85*%
X255612500Y-187350000D03*
X253887500Y-187350000D03*
%TD*%
D66*
%TO.C,C74*%
X190642500Y-96850000D03*
X189507500Y-96850000D03*
%TD*%
D59*
%TO.C,R27*%
X165750000Y-156752500D03*
X165750000Y-157947500D03*
%TD*%
D65*
%TO.C,C55*%
X295587500Y-130550000D03*
X293512500Y-130550000D03*
%TD*%
D23*
%TO.C,R14*%
X236850000Y-175547500D03*
X236850000Y-174352500D03*
%TD*%
D67*
%TO.C,C6*%
X211650000Y-177750000D03*
X211650000Y-175675000D03*
%TD*%
D73*
%TO.C,D19*%
X170750000Y-174550000D03*
X170750000Y-175950000D03*
%TD*%
D59*
%TO.C,R26*%
X164550000Y-156750000D03*
X164550000Y-157945000D03*
%TD*%
D74*
%TO.C,TP5*%
X150000000Y-159752500D03*
%TD*%
D17*
%TO.C,C5*%
X226950000Y-173612500D03*
X226950000Y-175687500D03*
%TD*%
D74*
%TO.C,TP*%
X203950000Y-102250000D03*
%TD*%
D17*
%TO.C,C17*%
X232450000Y-162150000D03*
X232450000Y-164225000D03*
%TD*%
D28*
%TO.C,C49*%
X201050000Y-180350000D03*
X201050000Y-181485000D03*
%TD*%
D59*
%TO.C,R31*%
X118450000Y-168852500D03*
X118450000Y-170047500D03*
%TD*%
D23*
%TO.C,R25*%
X142650000Y-141947500D03*
X142650000Y-140752500D03*
%TD*%
D75*
%TO.C,M1*%
X113850000Y-173350000D03*
D76*
X113850000Y-170850000D03*
X113850000Y-168350000D03*
X113850000Y-165850000D03*
%TD*%
D55*
%TO.C,U9*%
X202050000Y-190475000D03*
X201550000Y-190475000D03*
D56*
X201050000Y-190512500D03*
D55*
X200550000Y-190475000D03*
X200050000Y-190475000D03*
X200050000Y-191250000D03*
X200550000Y-191250000D03*
D57*
X201050000Y-191275000D03*
D55*
X201550000Y-191250000D03*
X202050000Y-191250000D03*
%TD*%
D28*
%TO.C,C34*%
X143950000Y-178182500D03*
X143950000Y-179317500D03*
%TD*%
D77*
%TO.C,U2*%
X229250000Y-187325000D03*
X227650000Y-187325000D03*
X229250000Y-188475000D03*
X227650000Y-188475000D03*
D78*
X230450000Y-185050000D03*
X229450000Y-185050000D03*
X228450000Y-185050000D03*
X227450000Y-185050000D03*
X226450000Y-185050000D03*
X226450000Y-190750000D03*
X227450000Y-190750000D03*
X228450000Y-190750000D03*
X229450000Y-190750000D03*
X230450000Y-190750000D03*
%TD*%
D18*
%TO.C,C29*%
X147600000Y-167132500D03*
X147600000Y-165997500D03*
%TD*%
D79*
%TO.C,U6*%
X252005000Y-180856900D03*
X253275000Y-180856900D03*
X254545000Y-180856900D03*
X255815000Y-180856900D03*
X257085000Y-180856900D03*
X258355000Y-180856900D03*
X259625000Y-180856900D03*
X260895000Y-180856900D03*
X260895000Y-172043100D03*
X259625000Y-172043100D03*
X258355000Y-172043100D03*
X257085000Y-172043100D03*
X255815000Y-172043100D03*
X254545000Y-172043100D03*
X253275000Y-172043100D03*
X252005000Y-172043100D03*
%TD*%
D42*
%TO.C,R42*%
X190245000Y-193350000D03*
X189050000Y-193350000D03*
%TD*%
D23*
%TO.C,R43*%
X193850000Y-187345000D03*
X193850000Y-186150000D03*
%TD*%
D59*
%TO.C,R29*%
X120450000Y-165252500D03*
X120450000Y-166447500D03*
%TD*%
D63*
%TO.C,J11*%
X261075000Y-157150000D03*
D64*
X258535000Y-157150000D03*
X255995000Y-157150000D03*
%TD*%
D67*
%TO.C,C13*%
X234750000Y-176787500D03*
X234750000Y-174712500D03*
%TD*%
D59*
%TO.C,R30*%
X118450000Y-163652500D03*
X118450000Y-164847500D03*
%TD*%
D18*
%TO.C,C33*%
X143600000Y-167100000D03*
X143600000Y-165965000D03*
%TD*%
D73*
%TO.C,D14*%
X259350000Y-193650000D03*
X259350000Y-195050000D03*
%TD*%
D80*
%TO.C,F3*%
X152850000Y-185175000D03*
X152850000Y-186925000D03*
%TD*%
D18*
%TO.C,C27*%
X131600000Y-167132500D03*
X131600000Y-165997500D03*
%TD*%
D28*
%TO.C,C53*%
X193650000Y-180350000D03*
X193650000Y-181485000D03*
%TD*%
D73*
%TO.C,D2*%
X230750000Y-195950000D03*
X230750000Y-197350000D03*
%TD*%
D28*
%TO.C,C54*%
X184750000Y-196982500D03*
X184750000Y-198117500D03*
%TD*%
D81*
%TO.C,Q5*%
X184775000Y-183800000D03*
X184775000Y-185700000D03*
X186650000Y-184750000D03*
%TD*%
D28*
%TO.C,C48*%
X202050000Y-180350000D03*
X202050000Y-181485000D03*
%TD*%
%TO.C,C22*%
X118450000Y-171682500D03*
X118450000Y-172817500D03*
%TD*%
D17*
%TO.C,C2*%
X294850000Y-143312500D03*
X294850000Y-145387500D03*
%TD*%
D58*
%TO.C,R39*%
X185452500Y-174250000D03*
X186647500Y-174250000D03*
%TD*%
D63*
%TO.C,J9*%
X261075000Y-153550000D03*
D64*
X258535000Y-153550000D03*
X255995000Y-153550000D03*
%TD*%
D17*
%TO.C,C45*%
X152550000Y-180812500D03*
X152550000Y-182887500D03*
%TD*%
D65*
%TO.C,C72*%
X190387500Y-93150000D03*
X188312500Y-93150000D03*
%TD*%
D24*
%TO.C,C84*%
X262212500Y-190350000D03*
X260487500Y-190350000D03*
%TD*%
D23*
%TO.C,R46*%
X198950000Y-187345000D03*
X198950000Y-186150000D03*
%TD*%
D63*
%TO.C,J12*%
X219450000Y-151430000D03*
D64*
X219450000Y-153970000D03*
X219450000Y-156510000D03*
X219450000Y-159050000D03*
%TD*%
D73*
%TO.C,D1*%
X223550000Y-195950000D03*
X223550000Y-197350000D03*
%TD*%
D16*
%TO.C,Q8*%
X192000000Y-186575000D03*
X190100000Y-186575000D03*
X191050000Y-188450000D03*
%TD*%
D82*
%TO.C,D27*%
X272650000Y-206938100D03*
X275050000Y-206938100D03*
%TD*%
D46*
%TO.C,D11*%
X214050000Y-187150000D03*
X214050000Y-191150000D03*
%TD*%
D83*
%TO.C,R67*%
X254950000Y-185350000D03*
X253125000Y-185350000D03*
%TD*%
D67*
%TO.C,C19*%
X219050000Y-181287500D03*
X219050000Y-179212500D03*
%TD*%
D24*
%TO.C,C39*%
X262312500Y-187250000D03*
X260587500Y-187250000D03*
%TD*%
D17*
%TO.C,C7*%
X224650000Y-173612500D03*
X224650000Y-175687500D03*
%TD*%
D58*
%TO.C,R58*%
X248452500Y-92455000D03*
X249647500Y-92455000D03*
%TD*%
D84*
%TO.C,R8*%
X230750000Y-192537500D03*
X230750000Y-194362500D03*
%TD*%
D67*
%TO.C,C78*%
X232850000Y-88387500D03*
X232850000Y-86312500D03*
%TD*%
D28*
%TO.C,C8*%
X212350000Y-167882500D03*
X212350000Y-169017500D03*
%TD*%
D68*
%TO.C,C21*%
X243882500Y-194050000D03*
X245017500Y-194050000D03*
%TD*%
D63*
%TO.C,J16*%
X261075000Y-164350000D03*
D64*
X258535000Y-164350000D03*
X255995000Y-164350000D03*
%TD*%
D58*
%TO.C,R51*%
X184352500Y-179650000D03*
X185547500Y-179650000D03*
%TD*%
D85*
%TO.C,BT1*%
X118950000Y-183970000D03*
D74*
X118950000Y-191460000D03*
D86*
X118950000Y-179770000D03*
X118950000Y-195560000D03*
%TD*%
D59*
%TO.C,R21*%
X257850000Y-193752500D03*
X257850000Y-194947500D03*
%TD*%
D58*
%TO.C,R2*%
X228052500Y-193950000D03*
X229247500Y-193950000D03*
%TD*%
D63*
%TO.C,J10*%
X215850000Y-151430000D03*
D64*
X215850000Y-153970000D03*
X215850000Y-156510000D03*
X215850000Y-159050000D03*
%TD*%
D59*
%TO.C,R55*%
X217750000Y-96652500D03*
X217750000Y-97847500D03*
%TD*%
%TO.C,R54*%
X217550000Y-92052500D03*
X217550000Y-93247500D03*
%TD*%
%TO.C,R12*%
X236550000Y-181652500D03*
X236550000Y-182847500D03*
%TD*%
D87*
%TO.C,L2*%
X232350000Y-172400000D03*
X232350000Y-166900000D03*
%TD*%
D80*
%TO.C,F4*%
X154550000Y-185175000D03*
X154550000Y-186925000D03*
%TD*%
D59*
%TO.C,R36*%
X132850000Y-181852500D03*
X132850000Y-183047500D03*
%TD*%
D55*
%TO.C,U13*%
X219150000Y-148075000D03*
X218650000Y-148075000D03*
D56*
X218150000Y-148112500D03*
D55*
X217650000Y-148075000D03*
X217150000Y-148075000D03*
X217150000Y-148850000D03*
X217650000Y-148850000D03*
D57*
X218150000Y-148875000D03*
D55*
X218650000Y-148850000D03*
X219150000Y-148850000D03*
%TD*%
D21*
%TO.C,D21*%
X188947500Y-194850000D03*
X190347500Y-194850000D03*
%TD*%
D68*
%TO.C,C82*%
X248482500Y-97455000D03*
X249617500Y-97455000D03*
%TD*%
D73*
%TO.C,D20*%
X169050000Y-174550000D03*
X169050000Y-175950000D03*
%TD*%
D66*
%TO.C,C37*%
X133867500Y-170600000D03*
X132732500Y-170600000D03*
%TD*%
D87*
%TO.C,L1*%
X216850000Y-169450000D03*
X216850000Y-174950000D03*
%TD*%
D52*
%TO.C,U11*%
X251975000Y-152050000D03*
X251975000Y-152550000D03*
D53*
X252012500Y-153050000D03*
D52*
X251975000Y-153550000D03*
X251975000Y-154050000D03*
X252750000Y-154050000D03*
X252750000Y-153550000D03*
D54*
X252775000Y-153050000D03*
D52*
X252750000Y-152550000D03*
X252750000Y-152050000D03*
%TD*%
D18*
%TO.C,C26*%
X132900000Y-167132500D03*
X132900000Y-165997500D03*
%TD*%
D88*
%TO.C,J5*%
X132820000Y-196270000D03*
X144250000Y-196270000D03*
D89*
X144860000Y-199650000D03*
X142320000Y-201170000D03*
X134750000Y-199650000D03*
X132210000Y-201170000D03*
D90*
X132820000Y-187380000D03*
D89*
X134090000Y-189920000D03*
X135360000Y-187380000D03*
X136630000Y-189920000D03*
X137900000Y-187380000D03*
X139170000Y-189920000D03*
X140440000Y-187380000D03*
X141710000Y-189920000D03*
X142980000Y-187380000D03*
X144250000Y-189920000D03*
D91*
X130760000Y-193220000D03*
X146310000Y-193220000D03*
%TD*%
D83*
%TO.C,R70*%
X253362500Y-169350000D03*
X251537500Y-169350000D03*
%TD*%
D74*
%TO.C,TP3*%
X214150000Y-178050000D03*
%TD*%
D42*
%TO.C,R60*%
X249647500Y-101255000D03*
X248452500Y-101255000D03*
%TD*%
D16*
%TO.C,Q7*%
X187000000Y-176075000D03*
X185100000Y-176075000D03*
X186050000Y-177950000D03*
%TD*%
D59*
%TO.C,R28*%
X149850000Y-156052500D03*
X149850000Y-157247500D03*
%TD*%
D63*
%TO.C,J4*%
X112550000Y-158150000D03*
D64*
X115090000Y-158150000D03*
X117630000Y-158150000D03*
%TD*%
D19*
%TO.C,H4*%
X113250000Y-86250000D03*
D20*
X113250000Y-86250000D03*
%TD*%
D28*
%TO.C,C40*%
X162450000Y-181582500D03*
X162450000Y-182717500D03*
%TD*%
D42*
%TO.C,R23*%
X123247500Y-176650000D03*
X122052500Y-176650000D03*
%TD*%
D17*
%TO.C,C10*%
X219130000Y-164692500D03*
X219130000Y-166767500D03*
%TD*%
D23*
%TO.C,R18*%
X224650000Y-166847500D03*
X224650000Y-165652500D03*
%TD*%
D28*
%TO.C,C46*%
X205750000Y-180350000D03*
X205750000Y-181485000D03*
%TD*%
D92*
%TO.C,R16*%
X209750000Y-168462500D03*
X209750000Y-166637500D03*
%TD*%
D63*
%TO.C,JP1*%
X239950000Y-185850000D03*
D64*
X242490000Y-185850000D03*
X245030000Y-185850000D03*
%TD*%
D63*
%TO.C,J15*%
X208650000Y-159050000D03*
D64*
X208650000Y-156510000D03*
X208650000Y-153970000D03*
X208650000Y-151430000D03*
%TD*%
D59*
%TO.C,R17*%
X208150000Y-167452500D03*
X208150000Y-168647500D03*
%TD*%
D21*
%TO.C,D18*%
X168550000Y-186050000D03*
X169950000Y-186050000D03*
%TD*%
D28*
%TO.C,C47*%
X204750000Y-180350000D03*
X204750000Y-181485000D03*
%TD*%
D93*
%TO.C,Y1*%
X134650000Y-172450000D03*
X131750000Y-172450000D03*
X131750000Y-174750000D03*
X134650000Y-174750000D03*
%TD*%
D68*
%TO.C,C80*%
X248482500Y-98755000D03*
X249617500Y-98755000D03*
%TD*%
D18*
%TO.C,C28*%
X130400000Y-167132500D03*
X130400000Y-165997500D03*
%TD*%
D94*
%TO.C,F5*%
X184975000Y-195450000D03*
X186725000Y-195450000D03*
%TD*%
D42*
%TO.C,R59*%
X249647500Y-99955000D03*
X248452500Y-99955000D03*
%TD*%
D28*
%TO.C,C23*%
X137750000Y-179582500D03*
X137750000Y-180717500D03*
%TD*%
D67*
%TO.C,C77*%
X230540000Y-88387500D03*
X230540000Y-86312500D03*
%TD*%
D18*
%TO.C,C30*%
X142400000Y-167132500D03*
X142400000Y-165997500D03*
%TD*%
D58*
%TO.C,R56*%
X189452500Y-103150000D03*
X190647500Y-103150000D03*
%TD*%
D59*
%TO.C,R19*%
X225950000Y-165652500D03*
X225950000Y-166847500D03*
%TD*%
D82*
%TO.C,D7*%
X280250000Y-206938100D03*
X282650000Y-206938100D03*
%TD*%
D28*
%TO.C,C50*%
X198450000Y-180350000D03*
X198450000Y-181485000D03*
%TD*%
D48*
%TO.C,J19*%
X225000000Y-97425000D03*
D47*
X245000000Y-97425000D03*
D61*
X225750000Y-92150000D03*
X226000000Y-99700000D03*
X226250000Y-92150000D03*
X226500000Y-99700000D03*
X226750000Y-92150000D03*
X227000000Y-99700000D03*
X227250000Y-92150000D03*
X227500000Y-99700000D03*
X227750000Y-92150000D03*
X228000000Y-99700000D03*
X228250000Y-92150000D03*
X228500000Y-99700000D03*
X228750000Y-92150000D03*
X229000000Y-99700000D03*
X229250000Y-92150000D03*
X229500000Y-99700000D03*
X229750000Y-92150000D03*
X230000000Y-99700000D03*
X230250000Y-92150000D03*
X230500000Y-99700000D03*
X230750000Y-92150000D03*
X231000000Y-99700000D03*
X231250000Y-92150000D03*
D50*
X235250000Y-121125000D03*
D61*
X233500000Y-99700000D03*
X233750000Y-92150000D03*
X234000000Y-99700000D03*
X234250000Y-92150000D03*
X234500000Y-99700000D03*
X234750000Y-92150000D03*
X235000000Y-99700000D03*
X235250000Y-92150000D03*
X235500000Y-99700000D03*
X235750000Y-92150000D03*
X236000000Y-99700000D03*
X236250000Y-92150000D03*
X236500000Y-99700000D03*
X236750000Y-92150000D03*
X237000000Y-99700000D03*
X237250000Y-92150000D03*
X237500000Y-99700000D03*
X237750000Y-92150000D03*
X238000000Y-99700000D03*
X238250000Y-92150000D03*
X238500000Y-99700000D03*
X238750000Y-92150000D03*
X239000000Y-99700000D03*
X239250000Y-92150000D03*
X239500000Y-99700000D03*
X239750000Y-92150000D03*
X240000000Y-99700000D03*
X240250000Y-92150000D03*
X240500000Y-99700000D03*
X240750000Y-92150000D03*
X241000000Y-99700000D03*
X241250000Y-92150000D03*
X241500000Y-99700000D03*
X241750000Y-92150000D03*
X242000000Y-99700000D03*
X242250000Y-92150000D03*
X242500000Y-99700000D03*
X242750000Y-92150000D03*
X243000000Y-99700000D03*
X243250000Y-92150000D03*
X243500000Y-99700000D03*
X243750000Y-92150000D03*
X244000000Y-99700000D03*
X244250000Y-92150000D03*
D62*
X224650000Y-92925000D03*
X245350000Y-92925000D03*
%TD*%
D95*
%TO.C,J8*%
X200230750Y-198027500D03*
X199730750Y-198027500D03*
X199230750Y-198027500D03*
X198730750Y-198027500D03*
X198230750Y-198027500D03*
X197730750Y-198027500D03*
X197230750Y-198027500D03*
X196730750Y-198027500D03*
X196230750Y-198027500D03*
X195730750Y-198027500D03*
X195230750Y-198027500D03*
X194730750Y-198027500D03*
X194230750Y-198027500D03*
X193730750Y-198027500D03*
X193230750Y-198027500D03*
X192730750Y-198027500D03*
X192230750Y-198027500D03*
X191730750Y-198027500D03*
X191230750Y-198027500D03*
D96*
X202730750Y-198927500D03*
X188230750Y-198927500D03*
X187630750Y-203827500D03*
X203330750Y-203827500D03*
%TD*%
D97*
%TO.C,U1*%
X289425000Y-140775000D03*
X290075000Y-140775000D03*
X290725000Y-140775000D03*
X291375000Y-140775000D03*
X292025000Y-140775000D03*
X292675000Y-140775000D03*
X293325000Y-140775000D03*
X293975000Y-140775000D03*
X294625000Y-140775000D03*
X295275000Y-140775000D03*
X295925000Y-140775000D03*
X296575000Y-140775000D03*
X297225000Y-140775000D03*
X297875000Y-140775000D03*
X297875000Y-133525000D03*
X297225000Y-133525000D03*
X296575000Y-133525000D03*
X295925000Y-133525000D03*
X295275000Y-133525000D03*
X294625000Y-133525000D03*
X293975000Y-133525000D03*
X293325000Y-133525000D03*
X292675000Y-133525000D03*
X292025000Y-133525000D03*
X291375000Y-133525000D03*
X290725000Y-133525000D03*
X290075000Y-133525000D03*
X289425000Y-133525000D03*
%TD*%
D28*
%TO.C,C42*%
X176250000Y-181482500D03*
X176250000Y-182617500D03*
%TD*%
D23*
%TO.C,R24*%
X141250000Y-141947500D03*
X141250000Y-140752500D03*
%TD*%
D82*
%TO.C,D6*%
X288150000Y-206938100D03*
X290550000Y-206938100D03*
%TD*%
D60*
%TO.C,C86*%
X247687500Y-169350000D03*
X249412500Y-169350000D03*
%TD*%
D80*
%TO.C,L3*%
X258150000Y-187275000D03*
X258150000Y-189025000D03*
%TD*%
D23*
%TO.C,R52*%
X205050000Y-187345000D03*
X205050000Y-186150000D03*
%TD*%
D46*
%TO.C,D22*%
X185850000Y-192750000D03*
X185850000Y-188750000D03*
%TD*%
D72*
%TO.C,U3*%
X212000000Y-170812500D03*
X211050000Y-170812500D03*
X210100000Y-170812500D03*
X210100000Y-173087500D03*
X211050000Y-173087500D03*
X212000000Y-173087500D03*
%TD*%
D21*
%TO.C,D24*%
X189400000Y-181775000D03*
X190800000Y-181775000D03*
%TD*%
D23*
%TO.C,R47*%
X200150000Y-187342500D03*
X200150000Y-186147500D03*
%TD*%
D28*
%TO.C,C9*%
X227950000Y-165682500D03*
X227950000Y-166817500D03*
%TD*%
D83*
%TO.C,R61*%
X262350000Y-185350000D03*
X260525000Y-185350000D03*
%TD*%
D17*
%TO.C,C3*%
X291350000Y-143212500D03*
X291350000Y-145287500D03*
%TD*%
D59*
%TO.C,R57*%
X238550000Y-88752500D03*
X238550000Y-89947500D03*
%TD*%
D74*
%TO.C,TP4*%
X229550000Y-177550000D03*
%TD*%
D58*
%TO.C,R1*%
X228052500Y-192650000D03*
X229247500Y-192650000D03*
%TD*%
D21*
%TO.C,D15*%
X243650000Y-195550000D03*
X245050000Y-195550000D03*
%TD*%
D55*
%TO.C,U10*%
X198650000Y-190475000D03*
X198150000Y-190475000D03*
D56*
X197650000Y-190512500D03*
D55*
X197150000Y-190475000D03*
X196650000Y-190475000D03*
X196650000Y-191250000D03*
X197150000Y-191250000D03*
D57*
X197650000Y-191275000D03*
D55*
X198150000Y-191250000D03*
X198650000Y-191250000D03*
%TD*%
D74*
%TO.C,TP6*%
X115250000Y-161650000D03*
%TD*%
D98*
%TO.C,D16*%
X120450000Y-170100000D03*
X120450000Y-168000000D03*
%TD*%
D74*
%TO.C,TP7*%
X120450000Y-162650000D03*
%TD*%
D59*
%TO.C,R33*%
X138050000Y-165970000D03*
X138050000Y-167165000D03*
%TD*%
D83*
%TO.C,R71*%
X259562500Y-169350000D03*
X257737500Y-169350000D03*
%TD*%
D42*
%TO.C,R40*%
X190245000Y-192050000D03*
X189050000Y-192050000D03*
%TD*%
D17*
%TO.C,C15*%
X234750000Y-162150000D03*
X234750000Y-164225000D03*
%TD*%
D28*
%TO.C,C43*%
X175150000Y-181482500D03*
X175150000Y-182617500D03*
%TD*%
%TO.C,C35*%
X140150000Y-179282500D03*
X140150000Y-180417500D03*
%TD*%
D59*
%TO.C,R32*%
X139450000Y-165970000D03*
X139450000Y-167165000D03*
%TD*%
D16*
%TO.C,Q3*%
X234600000Y-183412500D03*
X232700000Y-183412500D03*
X233650000Y-185287500D03*
%TD*%
D67*
%TO.C,C4*%
X209230000Y-177750000D03*
X209230000Y-175675000D03*
%TD*%
D68*
%TO.C,C1*%
X229382500Y-183250000D03*
X230517500Y-183250000D03*
%TD*%
D40*
%TO.C,SW2*%
X247775000Y-200060000D03*
X240765000Y-200060000D03*
D41*
X246525000Y-202550000D03*
X242025000Y-202550000D03*
%TD*%
D60*
%TO.C,C79*%
X248687500Y-94055000D03*
X250412500Y-94055000D03*
%TD*%
D99*
%TO.C,U16*%
X300090000Y-190875000D03*
X300090000Y-189605000D03*
X300090000Y-188335000D03*
X300090000Y-187065000D03*
X300090000Y-185795000D03*
X300090000Y-184525000D03*
X300090000Y-183255000D03*
X300090000Y-181985000D03*
X300090000Y-180715000D03*
X300090000Y-179445000D03*
X300090000Y-178175000D03*
X300090000Y-176905000D03*
X300090000Y-175635000D03*
X300090000Y-174365000D03*
X300090000Y-173095000D03*
X300090000Y-171825000D03*
X300090000Y-170555000D03*
X300090000Y-169285000D03*
X300090000Y-168015000D03*
X300120000Y-166745000D03*
X300090000Y-165475000D03*
X300090000Y-164205000D03*
X300090000Y-162935000D03*
X300090000Y-161665000D03*
D100*
X293730000Y-156920000D03*
X292460000Y-156920000D03*
X291190000Y-156920000D03*
X289920000Y-156920000D03*
X288650000Y-156950000D03*
X287380000Y-156920000D03*
X286110000Y-156920000D03*
X284840000Y-156920000D03*
X283570000Y-156920000D03*
X282300000Y-156920000D03*
X281030000Y-156920000D03*
X279760000Y-156920000D03*
X278490000Y-156920000D03*
X277220000Y-156920000D03*
X275950000Y-156920000D03*
X274680000Y-156920000D03*
D99*
X267910000Y-161665000D03*
X267910000Y-162935000D03*
X267910000Y-164205000D03*
X267910000Y-165475000D03*
X267940000Y-166745000D03*
X267910000Y-168015000D03*
X267910000Y-169285000D03*
X267910000Y-170555000D03*
X267910000Y-171825000D03*
X267910000Y-173095000D03*
X267910000Y-174365000D03*
X267910000Y-175635000D03*
X267910000Y-176905000D03*
X267910000Y-178175000D03*
X267910000Y-179445000D03*
X267910000Y-180715000D03*
X267910000Y-181985000D03*
X267910000Y-183255000D03*
X267910000Y-184525000D03*
X267910000Y-185795000D03*
X267910000Y-187065000D03*
X267910000Y-188335000D03*
X267910000Y-189605000D03*
X267910000Y-190875000D03*
D100*
X274680000Y-195590000D03*
X275950000Y-195590000D03*
X277220000Y-195590000D03*
X278490000Y-195590000D03*
X279760000Y-195590000D03*
X281030000Y-195590000D03*
X282300000Y-195590000D03*
X283570000Y-195590000D03*
X284840000Y-195590000D03*
X286110000Y-195590000D03*
X287380000Y-195590000D03*
X288650000Y-195620000D03*
X289920000Y-195590000D03*
X291190000Y-195590000D03*
X292460000Y-195590000D03*
D101*
X295700000Y-156930000D03*
X272710000Y-156930000D03*
D100*
X293730000Y-195590000D03*
D101*
X295700000Y-195600000D03*
X272710000Y-195600000D03*
%TD*%
D42*
%TO.C,R5*%
X211247500Y-187250000D03*
X210052500Y-187250000D03*
%TD*%
M02*
