%TF.GenerationSoftware,KiCad,Pcbnew,8.0.6-8.0.6-0~ubuntu22.04.1*%
%TF.CreationDate,2024-11-06T16:41:25+05:30*%
%TF.ProjectId,RFID,52464944-2e6b-4696-9361-645f70636258,rev?*%
%TF.SameCoordinates,Original*%
%TF.FileFunction,Legend,Bot*%
%TF.FilePolarity,Positive*%
%FSLAX46Y46*%
G04 Gerber Fmt 4.6, Leading zero omitted, Abs format (unit mm)*
G04 Created by KiCad (PCBNEW 8.0.6-8.0.6-0~ubuntu22.04.1) date 2024-11-06 16:41:25*
%MOMM*%
%LPD*%
G01*
G04 APERTURE LIST*
%ADD10C,0.300000*%
%ADD11C,0.000000*%
G04 APERTURE END LIST*
D10*
X178828588Y-120202681D02*
X178971446Y-120131252D01*
X178971446Y-120131252D02*
X179185731Y-120131252D01*
X179185731Y-120131252D02*
X179400017Y-120202681D01*
X179400017Y-120202681D02*
X179542874Y-120345538D01*
X179542874Y-120345538D02*
X179614303Y-120488395D01*
X179614303Y-120488395D02*
X179685731Y-120774109D01*
X179685731Y-120774109D02*
X179685731Y-120988395D01*
X179685731Y-120988395D02*
X179614303Y-121274109D01*
X179614303Y-121274109D02*
X179542874Y-121416966D01*
X179542874Y-121416966D02*
X179400017Y-121559824D01*
X179400017Y-121559824D02*
X179185731Y-121631252D01*
X179185731Y-121631252D02*
X179042874Y-121631252D01*
X179042874Y-121631252D02*
X178828588Y-121559824D01*
X178828588Y-121559824D02*
X178757160Y-121488395D01*
X178757160Y-121488395D02*
X178757160Y-120988395D01*
X178757160Y-120988395D02*
X179042874Y-120988395D01*
X177900017Y-120131252D02*
X177900017Y-120488395D01*
X178257160Y-120345538D02*
X177900017Y-120488395D01*
X177900017Y-120488395D02*
X177542874Y-120345538D01*
X178114303Y-120774109D02*
X177900017Y-120488395D01*
X177900017Y-120488395D02*
X177685731Y-120774109D01*
X176757160Y-120131252D02*
X176757160Y-120488395D01*
X177114303Y-120345538D02*
X176757160Y-120488395D01*
X176757160Y-120488395D02*
X176400017Y-120345538D01*
X176971446Y-120774109D02*
X176757160Y-120488395D01*
X176757160Y-120488395D02*
X176542874Y-120774109D01*
X175614303Y-120131252D02*
X175614303Y-120488395D01*
X175971446Y-120345538D02*
X175614303Y-120488395D01*
X175614303Y-120488395D02*
X175257160Y-120345538D01*
X175828589Y-120774109D02*
X175614303Y-120488395D01*
X175614303Y-120488395D02*
X175400017Y-120774109D01*
D11*
%TO.C,G\u002A\u002A\u002A*%
G36*
X142088704Y-110991122D02*
G01*
X142716316Y-111161505D01*
X142757062Y-111172472D01*
X143009061Y-111262127D01*
X143198472Y-111435867D01*
X143334201Y-111783893D01*
X143425151Y-112396406D01*
X143480227Y-113363608D01*
X143508332Y-114775698D01*
X143518372Y-116722879D01*
X143519250Y-119295352D01*
X143516770Y-120544553D01*
X143486366Y-123349513D01*
X143412438Y-125553035D01*
X143283751Y-127237222D01*
X143089074Y-128484176D01*
X142817171Y-129375998D01*
X142456810Y-129994791D01*
X141996756Y-130422658D01*
X141428719Y-130663842D01*
X140408564Y-130874619D01*
X139271792Y-130979854D01*
X138288622Y-130956759D01*
X137729270Y-130782544D01*
X137648551Y-130448892D01*
X137711350Y-129709305D01*
X137993326Y-129064664D01*
X138689569Y-128823346D01*
X138884596Y-128819746D01*
X139376572Y-128743535D01*
X139757317Y-128507464D01*
X140042682Y-128032158D01*
X140248520Y-127238239D01*
X140390681Y-126046333D01*
X140485018Y-124377062D01*
X140547382Y-122151051D01*
X140593625Y-119288923D01*
X140627324Y-116755480D01*
X140665988Y-114635146D01*
X140727060Y-113078396D01*
X140831118Y-112006451D01*
X140998736Y-111340530D01*
X141250489Y-111001855D01*
X141606953Y-110911646D01*
X142088704Y-110991122D01*
G37*
G36*
X182070584Y-114156450D02*
G01*
X182934297Y-114271543D01*
X183416305Y-114523724D01*
X183378745Y-114789584D01*
X183010357Y-115548745D01*
X182347936Y-116641556D01*
X181469812Y-117930909D01*
X180789396Y-118888843D01*
X180017708Y-119995129D01*
X179490856Y-120775426D01*
X179295893Y-121102722D01*
X179412386Y-121316434D01*
X179859615Y-122018176D01*
X180564125Y-123082200D01*
X181442372Y-124380916D01*
X182128632Y-125401928D01*
X182883526Y-126568600D01*
X183398435Y-127418779D01*
X183588851Y-127817177D01*
X183553812Y-127881213D01*
X183058894Y-128043034D01*
X182165401Y-128107853D01*
X181679078Y-128096907D01*
X181075257Y-127978982D01*
X180557892Y-127629266D01*
X179969685Y-126924090D01*
X179153336Y-125739785D01*
X177564721Y-123371716D01*
X175861172Y-125739785D01*
X175149880Y-126714494D01*
X174498996Y-127502311D01*
X173962014Y-127917933D01*
X173373754Y-128080176D01*
X172569039Y-128107853D01*
X172011866Y-128104030D01*
X171356844Y-128041355D01*
X171220475Y-127834504D01*
X171471272Y-127398512D01*
X171594525Y-127221287D01*
X172145182Y-126435128D01*
X172932068Y-125315900D01*
X173828124Y-124044425D01*
X175694157Y-121399679D01*
X173391175Y-118060808D01*
X172555185Y-116826399D01*
X171828734Y-115636357D01*
X171521485Y-114862533D01*
X171625476Y-114417814D01*
X172132744Y-114215087D01*
X173035330Y-114167239D01*
X173186160Y-114170592D01*
X173745077Y-114288312D01*
X174270454Y-114663449D01*
X174892888Y-115416644D01*
X175742973Y-116668542D01*
X177377376Y-119169302D01*
X179090183Y-116662521D01*
X179532133Y-116022610D01*
X180275177Y-115026877D01*
X180841286Y-114463367D01*
X181368769Y-114212761D01*
X181995934Y-114155741D01*
X182070584Y-114156450D01*
G37*
G36*
X220772951Y-123083040D02*
G01*
X220452660Y-124661019D01*
X220336123Y-124953439D01*
X219670973Y-126042784D01*
X218792589Y-127016732D01*
X218642798Y-127146363D01*
X217780905Y-127757606D01*
X216883778Y-128039562D01*
X215614662Y-128107853D01*
X214575891Y-128063581D01*
X213545669Y-127816638D01*
X212715872Y-127279015D01*
X211752290Y-126450177D01*
X210900349Y-127302117D01*
X210020907Y-127916722D01*
X209086211Y-128085136D01*
X208347031Y-127754036D01*
X207981286Y-126945177D01*
X208022961Y-126193079D01*
X208428469Y-125961374D01*
X208604885Y-125911426D01*
X208770486Y-125651484D01*
X208881418Y-125078266D01*
X208947946Y-124091247D01*
X208980336Y-122589909D01*
X208988851Y-120473728D01*
X208988851Y-116365110D01*
X211850823Y-116365110D01*
X211852818Y-119285073D01*
X211912575Y-121220230D01*
X212174848Y-123194114D01*
X212658009Y-124574320D01*
X213375313Y-125414207D01*
X214273101Y-125852173D01*
X215500028Y-125831361D01*
X216749888Y-125097983D01*
X217034253Y-124843628D01*
X217429564Y-124369627D01*
X217645420Y-123771642D01*
X217735538Y-122852579D01*
X217753640Y-121415348D01*
X217595833Y-119275384D01*
X217080577Y-117628706D01*
X216189562Y-116570447D01*
X214904831Y-116079747D01*
X213208423Y-116135745D01*
X211850823Y-116365110D01*
X208988851Y-116365110D01*
X208988851Y-114986081D01*
X209941547Y-114552003D01*
X210749210Y-114293178D01*
X212158097Y-114033867D01*
X213745465Y-113869468D01*
X215220921Y-113828061D01*
X216294070Y-113937726D01*
X216477673Y-113992721D01*
X217628888Y-114625323D01*
X218825435Y-115651589D01*
X219847094Y-116856219D01*
X220473649Y-118023917D01*
X220752247Y-119324505D01*
X220873181Y-121187680D01*
X220861142Y-121415348D01*
X220772951Y-123083040D01*
G37*
G36*
X193826718Y-123087424D02*
G01*
X193298242Y-125763036D01*
X192265897Y-128369889D01*
X190987734Y-130530896D01*
X188814325Y-133032484D01*
X186176299Y-135052131D01*
X183155185Y-136530569D01*
X179832513Y-137408529D01*
X179327714Y-137481453D01*
X176140778Y-137546227D01*
X173048971Y-136965299D01*
X170132763Y-135798974D01*
X167472620Y-134107554D01*
X165149010Y-131951340D01*
X163242400Y-129390636D01*
X161833259Y-126485744D01*
X161002052Y-123296965D01*
X160863794Y-121131797D01*
X163019480Y-121131797D01*
X163019512Y-121202939D01*
X163037707Y-122986671D01*
X163112064Y-124264083D01*
X163276165Y-125237231D01*
X163563595Y-126108174D01*
X164007937Y-127078970D01*
X165627335Y-129714320D01*
X167794101Y-132051214D01*
X170344175Y-133855985D01*
X173189698Y-135052336D01*
X175022233Y-135430208D01*
X177497410Y-135590452D01*
X179954369Y-135427113D01*
X182081251Y-134943990D01*
X182525712Y-134782631D01*
X185334868Y-133357695D01*
X187725479Y-131429923D01*
X189648226Y-129089491D01*
X191053786Y-126426578D01*
X191892839Y-123531360D01*
X192116063Y-120494014D01*
X191674136Y-117404717D01*
X191139222Y-115710660D01*
X189778399Y-112988556D01*
X187982816Y-110721323D01*
X185834498Y-108916771D01*
X183415470Y-107582711D01*
X180807758Y-106726953D01*
X178093387Y-106357305D01*
X175354383Y-106481579D01*
X172672772Y-107107583D01*
X170130578Y-108243128D01*
X167809828Y-109896024D01*
X165792547Y-112074079D01*
X164160761Y-114785105D01*
X164017144Y-115090254D01*
X163555189Y-116148517D01*
X163262825Y-117068373D01*
X163101672Y-118063252D01*
X163033350Y-119346583D01*
X163019480Y-121131797D01*
X160863794Y-121131797D01*
X160835187Y-120683805D01*
X161237389Y-117497226D01*
X162259398Y-114413186D01*
X163855759Y-111561551D01*
X165981014Y-109072188D01*
X166872661Y-108264738D01*
X169395814Y-106456296D01*
X172069873Y-105266502D01*
X175021224Y-104649336D01*
X178376251Y-104558779D01*
X178785240Y-104577845D01*
X180409157Y-104702156D01*
X181685922Y-104934498D01*
X182920312Y-105348476D01*
X184417105Y-106017696D01*
X185136525Y-106378833D01*
X187986969Y-108262303D01*
X190332326Y-110596059D01*
X192125803Y-113312740D01*
X193320605Y-116344983D01*
X193869938Y-119625427D01*
X193895645Y-120101440D01*
X193886583Y-120494014D01*
X193826718Y-123087424D01*
G37*
G36*
X156536133Y-125091143D02*
G01*
X155391429Y-128154054D01*
X153591945Y-131060601D01*
X151957378Y-132920874D01*
X149346789Y-134997187D01*
X146329220Y-136488908D01*
X142890400Y-137404498D01*
X140762049Y-137569897D01*
X137984633Y-137329362D01*
X135175482Y-136640521D01*
X132716160Y-135606604D01*
X130037563Y-133862070D01*
X127820974Y-131695047D01*
X126085311Y-129189414D01*
X124849488Y-126429048D01*
X124132422Y-123497827D01*
X123953029Y-120479628D01*
X124071521Y-119530516D01*
X125832254Y-119530516D01*
X125841245Y-122461847D01*
X126483541Y-125352731D01*
X127699528Y-128091230D01*
X129429590Y-130565406D01*
X131614114Y-132663320D01*
X134193486Y-134273033D01*
X134627937Y-134478744D01*
X135805388Y-134967627D01*
X136908376Y-135264603D01*
X138200106Y-135426250D01*
X139943781Y-135509148D01*
X141592668Y-135507031D01*
X144380475Y-135174573D01*
X146795894Y-134360197D01*
X148987925Y-133004342D01*
X151105568Y-131047449D01*
X151574403Y-130524284D01*
X153395190Y-127906383D01*
X154579513Y-125107872D01*
X155144208Y-122213780D01*
X155106113Y-119309135D01*
X154482067Y-116478965D01*
X153288905Y-113808299D01*
X151543468Y-111382165D01*
X149262591Y-109285592D01*
X146463113Y-107603607D01*
X145434125Y-107136082D01*
X144432951Y-106774532D01*
X143428750Y-106572077D01*
X142184167Y-106483652D01*
X140461847Y-106464191D01*
X140176474Y-106464362D01*
X138574630Y-106485966D01*
X137411456Y-106580030D01*
X136445546Y-106797997D01*
X135435493Y-107191313D01*
X134139890Y-107811423D01*
X133020684Y-108417280D01*
X130405514Y-110358255D01*
X128338788Y-112751922D01*
X126843036Y-115568148D01*
X125940787Y-118776805D01*
X125832254Y-119530516D01*
X124071521Y-119530516D01*
X124330223Y-117458329D01*
X125282922Y-114517808D01*
X126830040Y-111741943D01*
X128990494Y-109214611D01*
X130263755Y-108073433D01*
X132773072Y-106329149D01*
X135411455Y-105199647D01*
X138318060Y-104633922D01*
X141632048Y-104580964D01*
X142188014Y-104612168D01*
X143776673Y-104751712D01*
X145018302Y-104991917D01*
X146199631Y-105403649D01*
X147607389Y-106057774D01*
X147871073Y-106190713D01*
X150757875Y-108042129D01*
X153127887Y-110313690D01*
X154961395Y-112923040D01*
X156238687Y-115787818D01*
X156940049Y-118825667D01*
X157045769Y-121954228D01*
X157003601Y-122213780D01*
X156536133Y-125091143D01*
G37*
G36*
X230746972Y-121985759D02*
G01*
X230702822Y-122907739D01*
X230574399Y-124395560D01*
X230340983Y-125577082D01*
X229937757Y-126727089D01*
X229299902Y-128120366D01*
X227660861Y-130801514D01*
X225469699Y-133210484D01*
X222887030Y-135166343D01*
X220028437Y-136582097D01*
X217009503Y-137370754D01*
X216812247Y-137398397D01*
X213315300Y-137522470D01*
X209912146Y-136960148D01*
X206699066Y-135726784D01*
X206287836Y-135503557D01*
X204578655Y-134330970D01*
X202833106Y-132817404D01*
X201280006Y-131176146D01*
X200148168Y-129620481D01*
X199419234Y-128208553D01*
X198388725Y-125165129D01*
X197924903Y-121946651D01*
X197952826Y-121081164D01*
X199874280Y-121081164D01*
X199889584Y-122792323D01*
X199969347Y-124027114D01*
X200154895Y-125010283D01*
X200487553Y-125966577D01*
X201008648Y-127120742D01*
X201327000Y-127753128D01*
X203135218Y-130410046D01*
X205454646Y-132620342D01*
X208187230Y-134286141D01*
X208191187Y-134287994D01*
X209550370Y-134872822D01*
X210746218Y-135229577D01*
X212071361Y-135422074D01*
X213818429Y-135514125D01*
X214232342Y-135523304D01*
X217328148Y-135316923D01*
X220036413Y-134575500D01*
X222484472Y-133250072D01*
X224799661Y-131291678D01*
X225065299Y-131017926D01*
X226866715Y-128618021D01*
X228154158Y-125862346D01*
X228888268Y-122901659D01*
X229029688Y-119886722D01*
X228539059Y-116968292D01*
X227807147Y-114995054D01*
X226245620Y-112352236D01*
X224206666Y-110126886D01*
X221781295Y-108368126D01*
X219060515Y-107125075D01*
X216135336Y-106446856D01*
X213096767Y-106382589D01*
X210035816Y-106981395D01*
X207129047Y-108232694D01*
X204540916Y-110095773D01*
X202377571Y-112516353D01*
X200675033Y-115461802D01*
X200563128Y-115714133D01*
X200220513Y-116671845D01*
X200011513Y-117727215D01*
X199906168Y-119085741D01*
X199874521Y-120952924D01*
X199874280Y-121081164D01*
X197952826Y-121081164D01*
X198029529Y-118703763D01*
X198704360Y-115587108D01*
X199951155Y-112747327D01*
X200103049Y-112489809D01*
X202087843Y-109820967D01*
X204451502Y-107690575D01*
X207109104Y-106098634D01*
X209975730Y-105045144D01*
X212966456Y-104530104D01*
X215996363Y-104553515D01*
X218980530Y-105115376D01*
X221834035Y-106215688D01*
X224471958Y-107854451D01*
X226809377Y-110031664D01*
X228761372Y-112747327D01*
X229291177Y-113736975D01*
X230220533Y-116185003D01*
X230692658Y-118873461D01*
X230710341Y-119886722D01*
X230746972Y-121985759D01*
G37*
%TD*%
M02*
