%TF.GenerationSoftware,KiCad,Pcbnew,9.0.1-9.0.1-0~ubuntu22.04.1*%
%TF.CreationDate,2025-05-12T10:47:02+05:30*%
%TF.ProjectId,RFID_pico,52464944-5f70-4696-936f-2e6b69636164,rev?*%
%TF.SameCoordinates,Original*%
%TF.FileFunction,Soldermask,Bot*%
%TF.FilePolarity,Negative*%
%FSLAX46Y46*%
G04 Gerber Fmt 4.6, Leading zero omitted, Abs format (unit mm)*
G04 Created by KiCad (PCBNEW 9.0.1-9.0.1-0~ubuntu22.04.1) date 2025-05-12 10:47:02*
%MOMM*%
%LPD*%
G01*
G04 APERTURE LIST*
%ADD10C,2.700000*%
%ADD11R,0.350000X1.450000*%
%ADD12O,2.252400X1.188400*%
%ADD13O,2.752400X1.252400*%
%ADD14R,2.350000X0.850000*%
G04 APERTURE END LIST*
D10*
%TO.C,REF\u002A\u002A*%
X156900000Y-61800000D03*
%TD*%
D11*
%TO.C,J7*%
X166230000Y-102430000D03*
X165730000Y-102430000D03*
X165230000Y-102430000D03*
X164730000Y-102430000D03*
X164230000Y-102430000D03*
X163730000Y-102430000D03*
X163230000Y-102430000D03*
X162730000Y-102430000D03*
X162230000Y-102430000D03*
X161730000Y-102430000D03*
X161230000Y-102430000D03*
X158730000Y-102430000D03*
X158230000Y-102430000D03*
X157730000Y-102430000D03*
X157230000Y-102430000D03*
X156730000Y-102430000D03*
X156230000Y-102430000D03*
X155730000Y-102430000D03*
X155230000Y-102430000D03*
X154730000Y-102430000D03*
X154230000Y-102430000D03*
X153730000Y-102430000D03*
X153230000Y-102430000D03*
X152730000Y-102430000D03*
X152230000Y-102430000D03*
X151730000Y-102430000D03*
X151230000Y-102430000D03*
X150730000Y-102430000D03*
X150230000Y-102430000D03*
X149730000Y-102430000D03*
X149230000Y-102430000D03*
X148730000Y-102430000D03*
X148230000Y-102430000D03*
%TD*%
D12*
%TO.C,J1*%
X144430000Y-72820000D03*
X144430000Y-81460000D03*
D13*
X139070000Y-72820000D03*
X139070000Y-81460000D03*
%TD*%
D14*
%TO.C,J3*%
X172720000Y-91910000D03*
X170370000Y-93910000D03*
X172720000Y-95910000D03*
X170370000Y-97910000D03*
%TD*%
M02*
