M48
; DRILL file {KiCad 9.0.1-9.0.1-0~ubuntu22.04.1} date 2025-05-12T10:46:31+0530
; FORMAT={-:-/ absolute / metric / decimal}
; #@! TF.CreationDate,2025-05-12T10:46:31+05:30
; #@! TF.GenerationSoftware,Kicad,Pcbnew,9.0.1-9.0.1-0~ubuntu22.04.1
; #@! TF.FileFunction,Plated,1,4,PTH
FMAT,2
METRIC
; #@! TA.AperFunction,Plated,PTH,ViaDrill
T1C0.150
; #@! TA.AperFunction,Plated,PTH,ViaDrill
T2C0.300
; #@! TA.AperFunction,Plated,PTH,ComponentDrill
T3C0.600
%
G90
G05
T1
X137.5Y-59.4
X137.5Y-60.1
X137.5Y-60.8
X137.5Y-61.5
X137.5Y-62.2
X137.5Y-62.9
X137.7Y-63.7
X137.7Y-64.4
X137.7Y-65.1
X137.7Y-65.8
X137.7Y-66.5
X137.7Y-67.2
X137.89Y-99.3
X138.1Y-59.4
X138.1Y-60.1
X138.1Y-60.8
X138.1Y-61.5
X138.1Y-62.2
X138.1Y-62.9
X138.1Y-67.9
X138.1Y-68.6
X138.1Y-69.3
X138.1Y-69.9
X138.1Y-70.6
X138.1Y-71.3
X138.262Y-98.442
X138.3Y-63.7
X138.3Y-64.4
X138.3Y-65.1
X138.3Y-65.8
X138.3Y-66.5
X138.3Y-67.2
X138.7Y-67.9
X138.7Y-68.6
X138.7Y-69.3
X138.7Y-69.9
X138.7Y-70.6
X138.7Y-71.3
X139.4Y-67.9
X139.4Y-68.6
X139.4Y-69.3
X139.4Y-69.9
X139.4Y-70.6
X139.4Y-71.3
X140.0Y-67.9
X140.0Y-68.6
X140.0Y-69.3
X140.0Y-69.9
X140.0Y-70.6
X140.0Y-71.3
X140.24Y-85.92
X141.4Y-88.2
X141.9Y-67.8
X141.9Y-68.5
X142.0Y-69.2
X142.5Y-69.7
X142.51Y-88.32
X142.6Y-63.6
X142.6Y-64.3
X142.6Y-65.0
X142.6Y-65.7
X142.6Y-66.4
X142.6Y-67.1
X142.6Y-67.8
X142.69Y-76.89
X142.7Y-68.6
X143.2Y-69.2
X143.2Y-69.9
X143.3Y-63.6
X143.3Y-64.3
X143.3Y-65.0
X143.3Y-65.7
X143.3Y-66.4
X143.3Y-67.1
X143.3Y-67.8
X143.9Y-59.4
X143.9Y-65.0
X143.9Y-65.7
X143.9Y-66.4
X143.9Y-67.1
X143.9Y-67.8
X143.9Y-68.5
X143.9Y-69.2
X143.9Y-69.9
X144.0Y-60.1
X144.0Y-60.8
X144.0Y-61.5
X144.0Y-62.2
X144.0Y-62.9
X144.0Y-63.6
X144.0Y-64.3
X144.29Y-88.52
X144.6Y-59.4
X144.6Y-67.8
X144.6Y-68.5
X144.6Y-69.2
X144.6Y-69.9
X144.7Y-60.1
X144.7Y-60.8
X144.7Y-61.5
X144.7Y-62.2
X144.7Y-62.9
X144.7Y-63.6
X144.7Y-64.3
X144.7Y-65.0
X144.7Y-65.7
X144.7Y-66.4
X144.7Y-67.1
X145.3Y-59.4
X145.3Y-68.5
X145.3Y-69.2
X145.3Y-69.9
X145.4Y-60.1
X145.4Y-60.8
X145.4Y-61.5
X145.4Y-62.2
X145.4Y-62.9
X145.4Y-63.6
X145.4Y-64.3
X145.4Y-65.0
X145.4Y-65.7
X145.4Y-66.4
X145.4Y-67.1
X145.4Y-67.8
X145.66Y-85.17
X145.79Y-76.65
X145.88Y-76.12
X146.0Y-59.4
X146.0Y-69.9
X146.1Y-60.1
X146.1Y-60.8
X146.1Y-61.5
X146.1Y-62.2
X146.1Y-62.9
X146.1Y-63.6
X146.1Y-64.3
X146.1Y-65.0
X146.1Y-65.7
X146.1Y-66.4
X146.1Y-67.1
X146.1Y-67.8
X146.1Y-68.5
X146.1Y-69.2
X146.7Y-59.4
X146.7Y-60.1
X146.7Y-60.8
X146.7Y-61.5
X146.7Y-62.2
X146.7Y-62.9
X146.7Y-63.6
X146.7Y-64.3
X146.7Y-65.0
X146.7Y-65.7
X146.7Y-66.4
X146.7Y-67.1
X146.7Y-67.8
X146.7Y-68.5
X146.7Y-69.2
X146.7Y-69.9
X146.89Y-88.51
X147.4Y-66.4
X147.4Y-67.1
X147.4Y-67.8
X147.4Y-68.5
X147.4Y-69.2
X147.4Y-69.9
X147.7Y-77.9
X148.1Y-66.4
X148.1Y-67.1
X148.1Y-67.8
X148.1Y-68.5
X148.1Y-69.2
X148.1Y-69.9
X148.1Y-77.5
X148.6Y-77.8
X148.9Y-69.2
X148.9Y-69.9
X150.103Y-85.4
X150.451Y-94.72
X150.6Y-84.955
X150.8Y-66.3
X150.8Y-67.0
X150.8Y-67.7
X150.8Y-68.4
X151.0Y-84.3
X151.217Y-83.517
X151.4Y-63.1
X151.4Y-63.8
X151.4Y-64.4
X151.4Y-65.1
X151.4Y-65.7
X151.4Y-66.3
X151.4Y-67.0
X151.4Y-67.7
X151.4Y-93.4
X151.6Y-68.4
X151.6Y-69.0
X152.0Y-63.1
X152.0Y-63.8
X152.0Y-64.4
X152.0Y-65.1
X152.1Y-65.7
X152.1Y-66.3
X152.1Y-67.0
X152.1Y-67.7
X152.4Y-59.1
X152.4Y-59.8
X152.4Y-60.5
X152.4Y-61.1
X152.4Y-61.8
X152.4Y-62.4
X152.4Y-68.4
X152.4Y-69.0
X152.6Y-63.1
X152.6Y-63.8
X152.6Y-64.4
X152.6Y-65.1
X152.7Y-65.7
X152.7Y-66.3
X152.7Y-67.0
X152.7Y-67.7
X153.0Y-59.1
X153.0Y-59.8
X153.0Y-60.5
X153.0Y-61.1
X153.0Y-61.8
X153.0Y-62.4
X153.2Y-63.1
X153.2Y-63.8
X153.2Y-64.4
X153.2Y-65.1
X153.2Y-68.4
X153.2Y-69.0
X153.3Y-67.7
X153.6Y-59.1
X153.6Y-59.8
X153.6Y-60.5
X153.6Y-61.1
X153.6Y-61.8
X153.6Y-62.4
X153.8Y-63.0
X153.8Y-63.7
X153.8Y-64.4
X153.8Y-65.0
X153.9Y-68.4
X153.9Y-69.0
X154.2Y-59.1
X154.2Y-59.8
X154.6Y-64.4
X154.6Y-65.0
X154.6Y-68.4
X154.6Y-69.0
X155.4Y-68.4
X157.0Y-99.8
X157.0Y-100.2
X157.0Y-100.6
X157.4Y-99.8
X157.4Y-100.2
X157.4Y-100.6
X157.777Y-66.867
X157.8Y-99.8
X157.8Y-100.2
X157.8Y-100.6
X158.0Y-98.3
X158.2Y-99.8
X158.2Y-100.2
X158.5Y-64.8
X158.5Y-65.4
X158.6Y-99.8
X158.64Y-66.74
X158.7Y-97.7
X159.2Y-64.8
X159.2Y-65.4
X159.9Y-64.8
X159.9Y-65.4
X160.5Y-59.1
X160.5Y-59.8
X160.5Y-60.5
X160.5Y-61.2
X160.5Y-61.9
X160.5Y-62.6
X160.5Y-63.3
X160.5Y-64.0
X160.5Y-64.7
X160.6Y-65.4
X161.1Y-59.1
X161.1Y-59.8
X161.1Y-60.5
X161.1Y-61.2
X161.1Y-61.9
X161.1Y-62.6
X161.1Y-63.3
X161.1Y-64.0
X161.1Y-64.7
X161.2Y-65.4
X161.2Y-66.1
X161.99Y-72.84
X162.3Y-101.2
X163.0Y-100.2
X163.5Y-100.1
X163.7Y-96.5
X164.0Y-99.74
X164.2Y-96.5
X164.48Y-99.34
X164.7Y-96.5
X165.2Y-68.5
X165.2Y-69.2
X165.2Y-69.9
X165.2Y-96.5
X165.48Y-99.3
X165.7Y-96.5
X165.8Y-62.9
X165.8Y-63.6
X165.8Y-64.3
X165.8Y-65.0
X165.8Y-65.7
X165.8Y-66.4
X165.8Y-67.1
X165.8Y-67.8
X165.8Y-68.5
X165.8Y-69.2
X165.8Y-69.9
X166.2Y-96.5
X166.2Y-97.0
X166.4Y-62.9
X166.4Y-63.6
X166.4Y-64.3
X166.4Y-65.0
X166.4Y-65.7
X166.4Y-66.4
X166.4Y-67.1
X166.4Y-67.8
X166.5Y-68.5
X166.5Y-69.2
X166.5Y-69.9
X166.8Y-96.5
X166.8Y-97.0
X166.8Y-97.5
X167.1Y-59.4
X167.1Y-60.1
X167.1Y-60.8
X167.1Y-61.5
X167.1Y-62.2
X167.1Y-62.9
X167.1Y-63.6
X167.1Y-64.3
X167.1Y-65.0
X167.1Y-65.7
X167.1Y-66.4
X167.1Y-67.1
X167.1Y-67.8
X167.1Y-68.5
X167.1Y-69.2
X167.1Y-69.9
X167.3Y-96.5
X167.3Y-97.0
X167.3Y-97.5
X167.7Y-59.4
X167.7Y-96.5
X167.7Y-97.0
X167.7Y-97.5
X167.8Y-60.1
X167.8Y-60.8
X167.8Y-61.5
X167.8Y-62.2
X167.8Y-62.9
X167.8Y-63.6
X167.8Y-64.3
X167.8Y-65.0
X167.8Y-65.7
X167.8Y-66.4
X167.8Y-67.1
X167.8Y-67.8
X167.8Y-68.5
X167.8Y-69.2
X167.8Y-69.9
X168.1Y-96.5
X168.1Y-97.0
X168.1Y-97.5
X168.4Y-59.4
X168.4Y-60.1
X168.4Y-60.8
X168.4Y-61.5
X168.4Y-62.2
X168.4Y-62.9
X168.4Y-63.6
X168.4Y-64.3
X168.4Y-65.0
X168.4Y-65.7
X168.4Y-66.4
X168.4Y-67.1
X168.4Y-67.8
X168.4Y-68.5
X168.4Y-69.2
X168.4Y-69.9
X168.5Y-96.5
X168.5Y-97.0
X168.5Y-97.5
X169.1Y-68.5
X169.1Y-69.2
X169.1Y-69.9
X169.7Y-68.5
X169.7Y-69.2
X169.7Y-69.9
X171.45Y-72.865
X171.8Y-69.9
X171.8Y-70.6
X171.8Y-71.3
X172.15Y-98.75
X172.4Y-65.8
X172.4Y-66.5
X172.4Y-67.2
X172.4Y-67.8
X172.4Y-68.5
X172.4Y-69.2
X172.4Y-69.9
X172.4Y-70.6
X172.4Y-71.3
X173.0Y-65.8
X173.0Y-66.5
X173.0Y-67.2
X173.0Y-67.8
X173.0Y-68.5
X173.0Y-69.2
X173.0Y-69.9
X173.0Y-70.6
X173.0Y-71.3
X173.4Y-93.4
X173.6Y-65.7
X173.6Y-66.4
X173.6Y-67.1
X173.6Y-67.8
X173.6Y-68.5
X173.6Y-69.2
X173.6Y-69.9
X173.6Y-70.6
X173.6Y-71.3
X173.9Y-59.3
X173.9Y-60.0
X173.9Y-60.7
X173.9Y-61.4
X173.9Y-62.1
X173.9Y-62.8
X173.9Y-63.5
X173.9Y-64.2
X173.9Y-64.9
X174.1Y-94.3
X174.2Y-65.7
X174.2Y-66.4
X174.2Y-67.1
X174.2Y-67.8
X174.2Y-68.5
X174.2Y-69.2
X174.5Y-59.3
X174.5Y-60.0
X174.5Y-60.7
X174.5Y-61.4
X174.5Y-62.1
X174.5Y-62.8
X174.5Y-63.5
X174.5Y-64.2
X174.5Y-64.9
T2
X146.145Y-87.845
X146.85Y-81.73
X147.385Y-98.415
X148.6Y-86.5
X149.225Y-84.8
X151.08Y-75.47
X153.7Y-101.1
X159.64Y-67.08
X173.71Y-87.99
T3
G00X139.82Y-72.82
M15
G01X138.32Y-72.82
M16
G05
G00X139.82Y-81.46
M15
G01X138.32Y-81.46
M16
G05
G00X144.93Y-72.82
M15
G01X143.93Y-72.82
M16
G05
G00X144.93Y-81.46
M15
G01X143.93Y-81.46
M16
G05
M30
