%TF.GenerationSoftware,KiCad,Pcbnew,9.0.1-9.0.1-0~ubuntu22.04.1*%
%TF.CreationDate,2025-05-12T10:46:44+05:30*%
%TF.ProjectId,RFID_pico,52464944-5f70-4696-936f-2e6b69636164,rev?*%
%TF.SameCoordinates,Original*%
%TF.FileFunction,Copper,L4,Bot*%
%TF.FilePolarity,Positive*%
%FSLAX46Y46*%
G04 Gerber Fmt 4.6, Leading zero omitted, Abs format (unit mm)*
G04 Created by KiCad (PCBNEW 9.0.1-9.0.1-0~ubuntu22.04.1) date 2025-05-12 10:46:44*
%MOMM*%
%LPD*%
G01*
G04 APERTURE LIST*
%TA.AperFunction,ConnectorPad*%
%ADD10R,0.350000X1.450000*%
%TD*%
%TA.AperFunction,ComponentPad*%
%ADD11O,2.100000X1.036000*%
%TD*%
%TA.AperFunction,ComponentPad*%
%ADD12O,2.600000X1.100000*%
%TD*%
%TA.AperFunction,SMDPad,CuDef*%
%ADD13R,2.350000X0.850000*%
%TD*%
%TA.AperFunction,ViaPad*%
%ADD14C,0.250000*%
%TD*%
%TA.AperFunction,ViaPad*%
%ADD15C,0.400000*%
%TD*%
%TA.AperFunction,Conductor*%
%ADD16C,0.300000*%
%TD*%
%TA.AperFunction,Conductor*%
%ADD17C,0.150000*%
%TD*%
G04 APERTURE END LIST*
D10*
%TO.P,J7,2,2*%
%TO.N,/TX_LED*%
X166230000Y-102430000D03*
%TO.P,J7,4,4*%
%TO.N,/RX_LED*%
X165730000Y-102430000D03*
%TO.P,J7,6,6*%
%TO.N,unconnected-(J7-Pad6)*%
X165230000Y-102430000D03*
%TO.P,J7,8,8*%
%TO.N,unconnected-(J7-Pad8)*%
X164730000Y-102430000D03*
%TO.P,J7,10,10*%
%TO.N,unconnected-(J7-Pad10)*%
X164230000Y-102430000D03*
%TO.P,J7,12,12*%
%TO.N,unconnected-(J7-Pad12)*%
X163730000Y-102430000D03*
%TO.P,J7,14,14*%
%TO.N,unconnected-(J7-Pad14)*%
X163230000Y-102430000D03*
%TO.P,J7,16,16*%
%TO.N,unconnected-(J7-Pad16)*%
X162730000Y-102430000D03*
%TO.P,J7,18,18*%
%TO.N,unconnected-(J7-Pad18)*%
X162230000Y-102430000D03*
%TO.P,J7,20,20*%
%TO.N,unconnected-(J7-Pad20)*%
X161730000Y-102430000D03*
%TO.P,J7,22,22*%
%TO.N,unconnected-(J7-Pad22)*%
X161230000Y-102430000D03*
%TO.P,J7,32,32*%
%TO.N,GND*%
X158730000Y-102430000D03*
%TO.P,J7,34,34*%
X158230000Y-102430000D03*
%TO.P,J7,36,36*%
X157730000Y-102430000D03*
%TO.P,J7,38,38*%
X157230000Y-102430000D03*
%TO.P,J7,40,40*%
X156730000Y-102430000D03*
%TO.P,J7,42,42*%
X156230000Y-102430000D03*
%TO.P,J7,44,44*%
X155730000Y-102430000D03*
%TO.P,J7,46,46*%
X155230000Y-102430000D03*
%TO.P,J7,48,48*%
X154730000Y-102430000D03*
%TO.P,J7,50,50*%
X154230000Y-102430000D03*
%TO.P,J7,52,52*%
X153730000Y-102430000D03*
%TO.P,J7,54,54*%
X153230000Y-102430000D03*
%TO.P,J7,56,56*%
X152730000Y-102430000D03*
%TO.P,J7,58,58*%
X152230000Y-102430000D03*
%TO.P,J7,60,60*%
X151730000Y-102430000D03*
%TO.P,J7,62,62*%
X151230000Y-102430000D03*
%TO.P,J7,64,64*%
X150730000Y-102430000D03*
%TO.P,J7,66,66*%
X150230000Y-102430000D03*
%TO.P,J7,68,68*%
X149730000Y-102430000D03*
%TO.P,J7,70,70*%
X149230000Y-102430000D03*
%TO.P,J7,72,72*%
X148730000Y-102430000D03*
%TO.P,J7,74,74*%
X148230000Y-102430000D03*
%TD*%
D11*
%TO.P,J1,SH1,SHIELD3*%
%TO.N,GND*%
X144430000Y-72820000D03*
%TO.P,J1,SH2,SHIELD4*%
X144430000Y-81460000D03*
D12*
%TO.P,J1,SH3,SHIELD1*%
X139070000Y-72820000D03*
%TO.P,J1,SH4,SHIELD2*%
X139070000Y-81460000D03*
%TD*%
D13*
%TO.P,J3,1,Pin_1*%
%TO.N,VIN*%
X172720000Y-91910000D03*
%TO.P,J3,2,Pin_2*%
%TO.N,/TXD*%
X170370000Y-93910000D03*
%TO.P,J3,3,Pin_3*%
%TO.N,/RXD*%
X172720000Y-95910000D03*
%TO.P,J3,4,Pin_4*%
%TO.N,GND*%
X170370000Y-97910000D03*
%TD*%
D14*
%TO.N,GND*%
X148100000Y-77500000D03*
X147700000Y-77900000D03*
X148600000Y-77800000D03*
X154600000Y-65000000D03*
X154600000Y-64400000D03*
X153800000Y-65000000D03*
X153800000Y-64400000D03*
X153800000Y-63000000D03*
X153600000Y-62400000D03*
X153800000Y-63700000D03*
X152000000Y-65100000D03*
X152000000Y-63100000D03*
X151400000Y-63100000D03*
X151400000Y-64400000D03*
X152000000Y-63800000D03*
X152000000Y-64400000D03*
X151400000Y-65100000D03*
X151400000Y-63800000D03*
X153200000Y-65100000D03*
X153200000Y-63100000D03*
X152600000Y-63100000D03*
X152600000Y-64400000D03*
X153000000Y-62400000D03*
X153200000Y-63800000D03*
X152400000Y-62400000D03*
X153200000Y-64400000D03*
X152600000Y-65100000D03*
X152600000Y-63800000D03*
X154200000Y-59800000D03*
X153600000Y-59800000D03*
X153600000Y-61100000D03*
X154200000Y-59100000D03*
X153600000Y-59100000D03*
X153600000Y-61800000D03*
X153600000Y-60500000D03*
X152700000Y-66300000D03*
X152100000Y-65700000D03*
X151400000Y-65700000D03*
X152700000Y-65700000D03*
X173900000Y-59300000D03*
X173900000Y-60700000D03*
X173900000Y-60000000D03*
X174500000Y-60000000D03*
X174500000Y-60700000D03*
X174500000Y-59300000D03*
X173900000Y-61400000D03*
X173900000Y-62800000D03*
X173900000Y-62100000D03*
X174500000Y-62100000D03*
X174500000Y-62800000D03*
X174500000Y-61400000D03*
X173900000Y-63500000D03*
X173900000Y-64900000D03*
X173900000Y-64200000D03*
X174500000Y-64200000D03*
X174500000Y-64900000D03*
X174500000Y-63500000D03*
X173600000Y-65700000D03*
X173600000Y-67100000D03*
X173600000Y-66400000D03*
X174200000Y-66400000D03*
X174200000Y-67100000D03*
X174200000Y-65700000D03*
X173600000Y-67800000D03*
X173600000Y-69200000D03*
X173600000Y-68500000D03*
X174200000Y-68500000D03*
X174200000Y-69200000D03*
X174200000Y-67800000D03*
X173000000Y-69900000D03*
X173000000Y-71300000D03*
X173000000Y-70600000D03*
X173600000Y-70600000D03*
X173600000Y-71300000D03*
X173600000Y-69900000D03*
X171800000Y-69900000D03*
X171800000Y-71300000D03*
X171800000Y-70600000D03*
X172400000Y-70600000D03*
X172400000Y-71300000D03*
X172400000Y-69900000D03*
X172400000Y-67800000D03*
X172400000Y-69200000D03*
X172400000Y-68500000D03*
X173000000Y-68500000D03*
X173000000Y-69200000D03*
X173000000Y-67800000D03*
X172400000Y-65800000D03*
X172400000Y-67200000D03*
X172400000Y-66500000D03*
X173000000Y-66500000D03*
X173000000Y-67200000D03*
X173000000Y-65800000D03*
X159900000Y-64800000D03*
X158500000Y-64800000D03*
X159200000Y-64800000D03*
X159200000Y-65400000D03*
X158500000Y-65400000D03*
X159900000Y-65400000D03*
X160600000Y-65400000D03*
X161200000Y-66100000D03*
X161200000Y-65400000D03*
X160500000Y-63300000D03*
X160500000Y-64700000D03*
X160500000Y-64000000D03*
X161100000Y-64000000D03*
X161100000Y-64700000D03*
X161100000Y-63300000D03*
X160500000Y-61200000D03*
X160500000Y-62600000D03*
X160500000Y-61900000D03*
X161100000Y-61900000D03*
X161100000Y-62600000D03*
X161100000Y-61200000D03*
X160500000Y-59100000D03*
X160500000Y-60500000D03*
X160500000Y-59800000D03*
X161100000Y-59800000D03*
X161100000Y-60500000D03*
X161100000Y-59100000D03*
X154600000Y-69000000D03*
X154600000Y-68400000D03*
X155400000Y-68400000D03*
X153300000Y-67700000D03*
X153200000Y-69000000D03*
X153200000Y-68400000D03*
X153900000Y-68400000D03*
X153900000Y-69000000D03*
X152400000Y-69000000D03*
X151600000Y-69000000D03*
X151600000Y-68400000D03*
X152400000Y-68400000D03*
X150800000Y-68400000D03*
X152400000Y-61100000D03*
X152400000Y-61800000D03*
X153000000Y-61800000D03*
X153000000Y-61100000D03*
X152400000Y-59100000D03*
X152400000Y-60500000D03*
X152400000Y-59800000D03*
X153000000Y-59800000D03*
X153000000Y-60500000D03*
X153000000Y-59100000D03*
X152100000Y-66300000D03*
X152100000Y-67700000D03*
X152100000Y-67000000D03*
X152700000Y-67000000D03*
X152700000Y-67700000D03*
X150800000Y-66300000D03*
X150800000Y-67700000D03*
X150800000Y-67000000D03*
X151400000Y-67000000D03*
X151400000Y-67700000D03*
X151400000Y-66300000D03*
X137500000Y-59400000D03*
X137500000Y-60800000D03*
X137500000Y-60100000D03*
X138100000Y-60100000D03*
X138100000Y-60800000D03*
X138100000Y-59400000D03*
X137500000Y-61500000D03*
X137500000Y-62900000D03*
X137500000Y-62200000D03*
X138100000Y-62200000D03*
X138100000Y-62900000D03*
X138100000Y-61500000D03*
X137700000Y-63700000D03*
X137700000Y-65100000D03*
X137700000Y-64400000D03*
X138300000Y-64400000D03*
X138300000Y-65100000D03*
X138300000Y-63700000D03*
X137700000Y-65800000D03*
X137700000Y-67200000D03*
X137700000Y-66500000D03*
X138300000Y-66500000D03*
X138300000Y-67200000D03*
X138300000Y-65800000D03*
X138100000Y-67900000D03*
X138100000Y-69300000D03*
X138100000Y-68600000D03*
X138700000Y-68600000D03*
X138700000Y-69300000D03*
X138700000Y-67900000D03*
X138100000Y-69900000D03*
X138100000Y-71300000D03*
X138100000Y-70600000D03*
X138700000Y-70600000D03*
X138700000Y-71300000D03*
X138700000Y-69900000D03*
X139400000Y-69900000D03*
X139400000Y-71300000D03*
X139400000Y-70600000D03*
X140000000Y-70600000D03*
X140000000Y-71300000D03*
X140000000Y-69900000D03*
X139400000Y-67900000D03*
X139400000Y-69300000D03*
X139400000Y-68600000D03*
X140000000Y-68600000D03*
X140000000Y-69300000D03*
X140000000Y-67900000D03*
X165800000Y-63600000D03*
X165800000Y-62900000D03*
X166400000Y-62900000D03*
X166400000Y-63600000D03*
X165800000Y-64300000D03*
X165800000Y-65700000D03*
X165800000Y-65000000D03*
X166400000Y-65000000D03*
X166400000Y-65700000D03*
X166400000Y-64300000D03*
X165800000Y-66400000D03*
X165800000Y-67800000D03*
X165800000Y-67100000D03*
X166400000Y-67100000D03*
X166400000Y-67800000D03*
X166400000Y-66400000D03*
X169100000Y-68500000D03*
X169100000Y-69900000D03*
X169100000Y-69200000D03*
X169700000Y-69200000D03*
X169700000Y-69900000D03*
X169700000Y-68500000D03*
X165200000Y-68500000D03*
X165200000Y-69900000D03*
X165200000Y-69200000D03*
X165800000Y-69200000D03*
X165800000Y-69900000D03*
X165800000Y-68500000D03*
X166500000Y-68500000D03*
X166500000Y-69900000D03*
X166500000Y-69200000D03*
X167100000Y-69200000D03*
X167100000Y-69900000D03*
X167100000Y-68500000D03*
X167100000Y-59400000D03*
X167700000Y-59400000D03*
X167800000Y-68500000D03*
X167100000Y-65700000D03*
X167100000Y-67100000D03*
X167100000Y-66400000D03*
X167800000Y-60800000D03*
X168400000Y-61500000D03*
X167100000Y-60800000D03*
X167800000Y-67100000D03*
X167800000Y-65000000D03*
X167100000Y-67800000D03*
X167100000Y-65000000D03*
X167100000Y-64300000D03*
X167800000Y-69900000D03*
X168400000Y-62900000D03*
X167800000Y-61500000D03*
X167800000Y-66400000D03*
X167800000Y-69200000D03*
X168400000Y-66400000D03*
X168400000Y-64300000D03*
X168400000Y-69200000D03*
X167800000Y-62200000D03*
X167800000Y-64300000D03*
X168400000Y-62200000D03*
X167100000Y-60100000D03*
X168400000Y-59400000D03*
X167800000Y-62900000D03*
X167100000Y-62900000D03*
X167100000Y-62200000D03*
X167800000Y-60100000D03*
X167100000Y-61500000D03*
X168400000Y-65700000D03*
X168400000Y-67800000D03*
X167800000Y-67800000D03*
X167100000Y-63600000D03*
X167800000Y-63600000D03*
X168400000Y-69900000D03*
X168400000Y-68500000D03*
X168400000Y-67100000D03*
X168400000Y-60800000D03*
X168400000Y-65000000D03*
X168400000Y-63600000D03*
X167800000Y-65700000D03*
X168400000Y-60100000D03*
X148900000Y-69200000D03*
X148900000Y-69900000D03*
X148100000Y-69900000D03*
X148100000Y-69200000D03*
X148100000Y-68500000D03*
X148100000Y-67800000D03*
X148100000Y-67100000D03*
X148100000Y-66400000D03*
X147400000Y-66400000D03*
X147400000Y-67100000D03*
X147400000Y-67800000D03*
X147400000Y-68500000D03*
X147400000Y-69200000D03*
X147400000Y-69900000D03*
X144700000Y-67100000D03*
X144700000Y-66400000D03*
X144700000Y-65700000D03*
X144700000Y-65000000D03*
X143900000Y-65000000D03*
X143900000Y-65700000D03*
X143900000Y-66400000D03*
X143900000Y-67100000D03*
X143900000Y-67800000D03*
X144600000Y-67800000D03*
X145400000Y-67800000D03*
X145400000Y-67100000D03*
X145400000Y-66400000D03*
X145400000Y-65700000D03*
X145400000Y-65000000D03*
X145400000Y-64300000D03*
X144700000Y-64300000D03*
X144000000Y-64300000D03*
X143300000Y-64300000D03*
X143300000Y-65000000D03*
X143300000Y-65700000D03*
X143300000Y-66400000D03*
X143300000Y-67100000D03*
X143300000Y-67800000D03*
X143900000Y-68500000D03*
X144600000Y-68500000D03*
X145300000Y-68500000D03*
X142700000Y-68600000D03*
X143200000Y-69200000D03*
X143900000Y-69200000D03*
X144600000Y-69200000D03*
X145300000Y-69200000D03*
X146100000Y-69200000D03*
X146100000Y-68500000D03*
X146100000Y-67800000D03*
X146100000Y-67100000D03*
X146100000Y-66400000D03*
X146100000Y-65700000D03*
X146100000Y-65000000D03*
X146100000Y-64300000D03*
X146100000Y-63600000D03*
X146100000Y-62900000D03*
X145400000Y-62900000D03*
X145400000Y-63600000D03*
X144700000Y-63600000D03*
X144700000Y-62900000D03*
X144700000Y-62200000D03*
X145400000Y-62200000D03*
X146100000Y-62200000D03*
X146100000Y-61500000D03*
X145400000Y-61500000D03*
X144700000Y-61500000D03*
X144700000Y-60800000D03*
X145400000Y-60800000D03*
X146100000Y-60800000D03*
X146100000Y-60100000D03*
X145400000Y-60100000D03*
X144700000Y-60100000D03*
X144000000Y-60100000D03*
X144000000Y-60800000D03*
X144000000Y-61500000D03*
X144000000Y-62200000D03*
X144000000Y-62900000D03*
X144000000Y-63600000D03*
X143300000Y-63600000D03*
X142600000Y-63600000D03*
X142600000Y-64300000D03*
X142600000Y-65000000D03*
X142600000Y-65700000D03*
X142600000Y-66400000D03*
X142600000Y-67100000D03*
X142600000Y-67800000D03*
X141900000Y-67800000D03*
X141900000Y-68500000D03*
X142000000Y-69200000D03*
X142500000Y-69700000D03*
X143200000Y-69900000D03*
X143900000Y-69900000D03*
X144600000Y-69900000D03*
X145300000Y-69900000D03*
X146000000Y-69900000D03*
X146700000Y-69900000D03*
X146700000Y-69200000D03*
X146700000Y-68500000D03*
X146700000Y-67800000D03*
X146700000Y-67100000D03*
X146700000Y-66400000D03*
X146700000Y-65700000D03*
X146700000Y-65000000D03*
X146700000Y-64300000D03*
X146700000Y-63600000D03*
X146700000Y-62900000D03*
X146700000Y-62200000D03*
X146700000Y-61500000D03*
X146700000Y-60800000D03*
X146700000Y-60100000D03*
X146700000Y-59400000D03*
X146000000Y-59400000D03*
X145300000Y-59400000D03*
X144600000Y-59400000D03*
X143900000Y-59400000D03*
%TO.N,/TXD*%
X146890000Y-88510000D03*
X174100000Y-94300000D03*
X151400000Y-93400000D03*
%TO.N,/RXD*%
X150451000Y-94720000D03*
X172150000Y-98750000D03*
X144290000Y-88520000D03*
%TO.N,GND*%
X166800000Y-97500000D03*
X168500000Y-96500000D03*
X158200000Y-100200000D03*
X157800000Y-100200000D03*
X167700000Y-96500000D03*
X157400000Y-99800000D03*
X166200000Y-96500000D03*
X157800000Y-99800000D03*
X157800000Y-100600000D03*
X157400000Y-100600000D03*
X165700000Y-96500000D03*
X157000000Y-100600000D03*
X164200000Y-96500000D03*
X168100000Y-97500000D03*
X168100000Y-96500000D03*
X168100000Y-97000000D03*
X167700000Y-97500000D03*
X167300000Y-97000000D03*
X158600000Y-99800000D03*
X163700000Y-96500000D03*
X166800000Y-97000000D03*
X166200000Y-97000000D03*
X167300000Y-97500000D03*
X164700000Y-96500000D03*
X167700000Y-97000000D03*
X165200000Y-96500000D03*
X157400000Y-100200000D03*
X157000000Y-100200000D03*
X157000000Y-99800000D03*
X167300000Y-96500000D03*
X168500000Y-97000000D03*
X168500000Y-97500000D03*
X166800000Y-96500000D03*
X158200000Y-99800000D03*
D15*
%TO.N,2.7V*%
X146850000Y-81730000D03*
X151080000Y-75470000D03*
X159639999Y-67080000D03*
D14*
%TO.N,/MXC2*%
X145660000Y-85170000D03*
X158640000Y-66740000D03*
X161990000Y-72840000D03*
%TO.N,/MXC1*%
X157777157Y-66867157D03*
X140240000Y-85920000D03*
X171450000Y-72865000D03*
%TO.N,/GPIO1*%
X162300000Y-101200000D03*
X151217157Y-83517157D03*
X141400000Y-88200000D03*
%TO.N,/GPIO2*%
X142510000Y-88320000D03*
X163000000Y-100200000D03*
X151000000Y-84300000D03*
D15*
%TO.N,VIN*%
X146145000Y-87845000D03*
D14*
X173400000Y-93400000D03*
D15*
X149225000Y-84800000D03*
D14*
%TO.N,/GPIO3*%
X158700000Y-97700000D03*
X163500000Y-100100000D03*
X150600000Y-84954789D03*
%TO.N,/GPIO4*%
X158000000Y-98300000D03*
X164000000Y-99740000D03*
X150103000Y-85400000D03*
D15*
%TO.N,/3.3V*%
X148600000Y-86500000D03*
X173710000Y-87990000D03*
%TO.N,/RX_LED*%
X153700000Y-101100000D03*
D14*
%TO.N,USB_M*%
X145880000Y-76120000D03*
X137890000Y-99300000D03*
X164480000Y-99340000D03*
X142690000Y-76890000D03*
%TO.N,USB_P*%
X165480000Y-99300000D03*
X138262157Y-98442157D03*
X145790000Y-76650000D03*
D15*
%TO.N,/TX_LED*%
X147385000Y-98415000D03*
%TD*%
D16*
%TO.N,2.7V*%
X146850000Y-81730000D02*
X146226000Y-81106000D01*
X146226000Y-81106000D02*
X146226000Y-78679230D01*
X146226000Y-78679230D02*
X149435230Y-75470000D01*
X149435230Y-75470000D02*
X151080000Y-75470000D01*
D17*
%TO.N,/MXC2*%
X156152000Y-68711489D02*
X155711488Y-69152000D01*
X156152000Y-68150776D02*
X156152000Y-68711489D01*
X157084619Y-67218157D02*
X156152000Y-68150776D01*
X157561057Y-67218157D02*
X157084619Y-67218157D01*
X155352000Y-69311488D02*
X154911488Y-69752000D01*
X158178157Y-66962545D02*
X158178157Y-67033257D01*
X157611057Y-67268157D02*
X157561057Y-67218157D01*
X157943257Y-67268157D02*
X157611057Y-67268157D01*
X155352000Y-69152000D02*
X155352000Y-69311488D01*
X155711488Y-69152000D02*
X155352000Y-69152000D01*
X158178157Y-67033257D02*
X157943257Y-67268157D01*
X158400702Y-66740000D02*
X158178157Y-66962545D01*
X158640000Y-66740000D02*
X158400702Y-66740000D01*
X154911488Y-69752000D02*
X154550776Y-69752000D01*
X154550776Y-69752000D02*
X145800000Y-78502776D01*
X145800000Y-78502776D02*
X145800000Y-85040000D01*
X145800000Y-85040000D02*
X145670000Y-85170000D01*
X145670000Y-85170000D02*
X145660000Y-85170000D01*
%TO.N,/MXC1*%
X154433900Y-69401000D02*
X154419644Y-69386744D01*
X154766100Y-69401000D02*
X154433900Y-69401000D01*
X155001000Y-69166100D02*
X154766100Y-69401000D01*
X155686744Y-68119644D02*
X155801000Y-68233900D01*
X154986744Y-68819644D02*
X155001000Y-68833900D01*
X155001000Y-68833900D02*
X155001000Y-69166100D01*
X155119644Y-68686744D02*
X154986744Y-68819644D01*
X155233900Y-68801000D02*
X155119644Y-68686744D01*
X155566100Y-68801000D02*
X155233900Y-68801000D01*
X155801000Y-68566100D02*
X155566100Y-68801000D01*
X155801000Y-68233900D02*
X155801000Y-68566100D01*
X156939231Y-66867157D02*
X155686744Y-68119644D01*
X157777157Y-66867157D02*
X156939231Y-66867157D01*
X154419644Y-69386744D02*
X140240000Y-83566388D01*
X140240000Y-83566388D02*
X140240000Y-85920000D01*
%TO.N,/TX_LED*%
X147385000Y-98415000D02*
X156985000Y-98415000D01*
X156985000Y-98415000D02*
X158101000Y-97299000D01*
X158101000Y-97299000D02*
X165795388Y-97299000D01*
X166851000Y-99949000D02*
X166230000Y-100570000D01*
X165795388Y-97299000D02*
X166851000Y-98354612D01*
X166230000Y-100570000D02*
X166230000Y-102430000D01*
X166851000Y-98354612D02*
X166851000Y-99949000D01*
%TO.N,/RX_LED*%
X153700000Y-101100000D02*
X153800000Y-101000000D01*
X153800000Y-101000000D02*
X158200000Y-101000000D01*
X159500000Y-99700000D02*
X161100000Y-99700000D01*
X158200000Y-101000000D02*
X159500000Y-99700000D01*
X161100000Y-99700000D02*
X162000000Y-100600000D01*
X162000000Y-100600000D02*
X165400000Y-100600000D01*
X165400000Y-100600000D02*
X165730000Y-100930000D01*
X165730000Y-100930000D02*
X165730000Y-102430000D01*
%TO.N,/TXD*%
X173710000Y-93910000D02*
X174100000Y-94300000D01*
X151400000Y-93400000D02*
X149666388Y-93400000D01*
X149666388Y-93400000D02*
X146890000Y-90623612D01*
X170370000Y-93910000D02*
X173710000Y-93910000D01*
X146890000Y-90623612D02*
X146890000Y-88510000D01*
%TO.N,/RXD*%
X172720000Y-95910000D02*
X172720000Y-98180000D01*
X144290000Y-89290000D02*
X144290000Y-88520000D01*
X172150000Y-98750000D02*
X172100000Y-98800000D01*
X172720000Y-98180000D02*
X172150000Y-98750000D01*
X149720000Y-94720000D02*
X144290000Y-89290000D01*
X150451000Y-94720000D02*
X149720000Y-94720000D01*
D16*
%TO.N,GND*%
X158730000Y-102430000D02*
X148230000Y-102430000D01*
%TO.N,2.7V*%
X151080000Y-75470000D02*
X151249999Y-75470000D01*
X151249999Y-75470000D02*
X159639999Y-67080000D01*
D17*
%TO.N,/MXC2*%
X161990000Y-68530000D02*
X159980000Y-66520000D01*
X158830000Y-66520000D02*
X158640000Y-66710000D01*
X158640000Y-66710000D02*
X158640000Y-66740000D01*
X161990000Y-72840000D02*
X161990000Y-68530000D01*
X159980000Y-66520000D02*
X158830000Y-66520000D01*
%TO.N,/MXC1*%
X162341000Y-72441000D02*
X162341000Y-68384612D01*
X162341000Y-68384612D02*
X160066388Y-66110000D01*
X171450000Y-72865000D02*
X162765000Y-72865000D01*
X158534314Y-66110000D02*
X157777157Y-66867157D01*
X160066388Y-66110000D02*
X158534314Y-66110000D01*
X162765000Y-72865000D02*
X162341000Y-72441000D01*
%TO.N,/GPIO1*%
X141400000Y-88200000D02*
X141740000Y-88200000D01*
X146480000Y-86030000D02*
X148610000Y-83900000D01*
X141740000Y-88200000D02*
X143910000Y-86030000D01*
X148610000Y-83900000D02*
X150834314Y-83900000D01*
X143910000Y-86030000D02*
X146480000Y-86030000D01*
X150834314Y-83900000D02*
X151217157Y-83517157D01*
%TO.N,/GPIO2*%
X144240000Y-86590000D02*
X142510000Y-88320000D01*
X151000000Y-84300000D02*
X148810000Y-84300000D01*
X148810000Y-84300000D02*
X146520000Y-86590000D01*
X146520000Y-86590000D02*
X144240000Y-86590000D01*
D16*
%TO.N,VIN*%
X146515000Y-87510000D02*
X149225000Y-84800000D01*
X146145000Y-87845000D02*
X146480000Y-87510000D01*
X173400000Y-93400000D02*
X173000000Y-93400000D01*
X146480000Y-87510000D02*
X146515000Y-87510000D01*
X173000000Y-93400000D02*
X172720000Y-93120000D01*
X172720000Y-93120000D02*
X172720000Y-91910000D01*
D17*
%TO.N,/GPIO3*%
X166500000Y-98500000D02*
X165700000Y-97700000D01*
X165900000Y-100200000D02*
X166500000Y-99600000D01*
X163500000Y-100100000D02*
X163600000Y-100200000D01*
X165700000Y-97700000D02*
X158700000Y-97700000D01*
X163600000Y-100200000D02*
X165900000Y-100200000D01*
X166500000Y-99600000D02*
X166500000Y-98500000D01*
%TO.N,/GPIO4*%
X166000000Y-98700000D02*
X165600000Y-98300000D01*
X165600000Y-99800000D02*
X166000000Y-99400000D01*
X164060000Y-99800000D02*
X165600000Y-99800000D01*
X165600000Y-98300000D02*
X158000000Y-98300000D01*
X166000000Y-99400000D02*
X166000000Y-98700000D01*
X164000000Y-99740000D02*
X164060000Y-99800000D01*
D16*
%TO.N,/3.3V*%
X171400000Y-75200000D02*
X154100000Y-75200000D01*
X173710000Y-77510000D02*
X171400000Y-75200000D01*
X150300000Y-86500000D02*
X148600000Y-86500000D01*
X152100000Y-77200000D02*
X152100000Y-84700000D01*
X173710000Y-87990000D02*
X173710000Y-77510000D01*
X154100000Y-75200000D02*
X152100000Y-77200000D01*
X152100000Y-84700000D02*
X150300000Y-86500000D01*
D17*
%TO.N,USB_M*%
X142690000Y-80110000D02*
X142690000Y-76890000D01*
X137860000Y-84940000D02*
X142690000Y-80110000D01*
X137860000Y-99270000D02*
X137860000Y-84940000D01*
X145880000Y-76120000D02*
X143460000Y-76120000D01*
X143460000Y-76120000D02*
X142690000Y-76890000D01*
X137930000Y-99340000D02*
X137890000Y-99300000D01*
X137890000Y-99300000D02*
X137860000Y-99270000D01*
X164480000Y-99340000D02*
X137930000Y-99340000D01*
%TO.N,USB_P*%
X145790000Y-77520000D02*
X138262157Y-85047843D01*
X145790000Y-76650000D02*
X145790000Y-77520000D01*
X165120000Y-98940000D02*
X138760000Y-98940000D01*
X138262157Y-85047843D02*
X138262157Y-98442157D01*
X138760000Y-98940000D02*
X138262157Y-98442157D01*
X165480000Y-99300000D02*
X165120000Y-98940000D01*
%TD*%
%TA.AperFunction,Conductor*%
%TO.N,GND*%
G36*
X158962561Y-99635185D02*
G01*
X159008316Y-99687989D01*
X159018260Y-99757147D01*
X158989235Y-99820703D01*
X158983203Y-99827181D01*
X158122204Y-100688181D01*
X158060881Y-100721666D01*
X158034523Y-100724500D01*
X153862354Y-100724500D01*
X153830261Y-100720275D01*
X153827422Y-100719514D01*
X153752727Y-100699500D01*
X153647273Y-100699500D01*
X153545413Y-100726793D01*
X153545410Y-100726794D01*
X153454085Y-100779521D01*
X153379521Y-100854085D01*
X153326794Y-100945410D01*
X153326793Y-100945413D01*
X153299500Y-101047273D01*
X153299500Y-101081000D01*
X153297147Y-101089011D01*
X153298429Y-101097261D01*
X153287449Y-101122038D01*
X153279815Y-101148039D01*
X153273505Y-101153505D01*
X153270123Y-101161140D01*
X153247490Y-101176048D01*
X153227011Y-101193794D01*
X153217234Y-101195978D01*
X153211775Y-101199575D01*
X153179621Y-101204383D01*
X153176899Y-101204992D01*
X152981399Y-101207198D01*
X152978904Y-101206496D01*
X152966747Y-101206496D01*
X152952832Y-101205000D01*
X152507167Y-101205000D01*
X152493253Y-101206496D01*
X152466747Y-101206496D01*
X152452832Y-101205000D01*
X152007167Y-101205000D01*
X151993253Y-101206496D01*
X151966747Y-101206496D01*
X151952832Y-101205000D01*
X151507167Y-101205000D01*
X151493253Y-101206496D01*
X151466747Y-101206496D01*
X151452832Y-101205000D01*
X151007167Y-101205000D01*
X150993253Y-101206496D01*
X150966747Y-101206496D01*
X150952832Y-101205000D01*
X150507167Y-101205000D01*
X150493253Y-101206496D01*
X150466747Y-101206496D01*
X150452832Y-101205000D01*
X150007167Y-101205000D01*
X149993253Y-101206496D01*
X149966747Y-101206496D01*
X149952832Y-101205000D01*
X149507167Y-101205000D01*
X149493253Y-101206496D01*
X149466747Y-101206496D01*
X149452832Y-101205000D01*
X149007167Y-101205000D01*
X148993253Y-101206496D01*
X148966747Y-101206496D01*
X148952832Y-101205000D01*
X148507167Y-101205000D01*
X148493253Y-101206496D01*
X148466747Y-101206496D01*
X148452832Y-101205000D01*
X148007155Y-101205000D01*
X147947627Y-101211401D01*
X147947620Y-101211403D01*
X147812913Y-101261645D01*
X147812906Y-101261649D01*
X147697812Y-101347809D01*
X147697809Y-101347812D01*
X147611650Y-101462905D01*
X147611645Y-101462915D01*
X147584140Y-101536654D01*
X148230000Y-102182514D01*
X148823576Y-101588938D01*
X148884899Y-101555453D01*
X148911257Y-101552619D01*
X149048743Y-101552619D01*
X149069988Y-101558857D01*
X149092077Y-101560437D01*
X149106133Y-101569470D01*
X149115782Y-101572304D01*
X149122367Y-101579904D01*
X149136424Y-101588938D01*
X149230000Y-101682514D01*
X149323576Y-101588938D01*
X149384899Y-101555453D01*
X149411257Y-101552619D01*
X149548743Y-101552619D01*
X149569988Y-101558857D01*
X149592077Y-101560437D01*
X149606133Y-101569470D01*
X149615782Y-101572304D01*
X149622367Y-101579904D01*
X149636424Y-101588938D01*
X149730000Y-101682514D01*
X149823576Y-101588938D01*
X149884899Y-101555453D01*
X149911257Y-101552619D01*
X150048743Y-101552619D01*
X150069988Y-101558857D01*
X150092077Y-101560437D01*
X150106133Y-101569470D01*
X150115782Y-101572304D01*
X150122367Y-101579904D01*
X150136424Y-101588938D01*
X150230000Y-101682514D01*
X150323576Y-101588938D01*
X150384899Y-101555453D01*
X150411257Y-101552619D01*
X150548743Y-101552619D01*
X150569988Y-101558857D01*
X150592077Y-101560437D01*
X150606133Y-101569470D01*
X150615782Y-101572304D01*
X150622367Y-101579904D01*
X150636424Y-101588938D01*
X150730000Y-101682514D01*
X150823576Y-101588938D01*
X150884899Y-101555453D01*
X150911257Y-101552619D01*
X151048743Y-101552619D01*
X151069988Y-101558857D01*
X151092077Y-101560437D01*
X151106133Y-101569470D01*
X151115782Y-101572304D01*
X151122367Y-101579904D01*
X151136424Y-101588938D01*
X151230000Y-101682514D01*
X151323576Y-101588938D01*
X151384899Y-101555453D01*
X151411257Y-101552619D01*
X151548743Y-101552619D01*
X151569988Y-101558857D01*
X151592077Y-101560437D01*
X151606133Y-101569470D01*
X151615782Y-101572304D01*
X151622367Y-101579904D01*
X151636424Y-101588938D01*
X151730000Y-101682514D01*
X151823576Y-101588938D01*
X151884899Y-101555453D01*
X151911257Y-101552619D01*
X152048743Y-101552619D01*
X152069988Y-101558857D01*
X152092077Y-101560437D01*
X152106133Y-101569470D01*
X152115782Y-101572304D01*
X152122367Y-101579904D01*
X152136424Y-101588938D01*
X152230000Y-101682514D01*
X152323576Y-101588938D01*
X152384899Y-101555453D01*
X152411257Y-101552619D01*
X152548743Y-101552619D01*
X152569988Y-101558857D01*
X152592077Y-101560437D01*
X152606133Y-101569470D01*
X152615782Y-101572304D01*
X152622367Y-101579904D01*
X152636424Y-101588938D01*
X152730000Y-101682514D01*
X152823576Y-101588938D01*
X152884899Y-101555453D01*
X152911257Y-101552619D01*
X153048743Y-101552619D01*
X153069988Y-101558857D01*
X153092077Y-101560437D01*
X153106133Y-101569470D01*
X153115782Y-101572304D01*
X153122367Y-101579904D01*
X153136424Y-101588938D01*
X153230000Y-101682514D01*
X153323576Y-101588938D01*
X153384899Y-101555453D01*
X153411257Y-101552619D01*
X153548743Y-101552619D01*
X153569988Y-101558857D01*
X153592077Y-101560437D01*
X153606133Y-101569470D01*
X153615782Y-101572304D01*
X153622367Y-101579904D01*
X153636424Y-101588938D01*
X153730000Y-101682514D01*
X153823576Y-101588938D01*
X153884899Y-101555453D01*
X153911257Y-101552619D01*
X154048743Y-101552619D01*
X154069988Y-101558857D01*
X154092077Y-101560437D01*
X154106133Y-101569470D01*
X154115782Y-101572304D01*
X154122367Y-101579904D01*
X154136424Y-101588938D01*
X154230000Y-101682514D01*
X154323576Y-101588938D01*
X154384899Y-101555453D01*
X154411257Y-101552619D01*
X154548743Y-101552619D01*
X154569988Y-101558857D01*
X154592077Y-101560437D01*
X154606133Y-101569470D01*
X154615782Y-101572304D01*
X154622367Y-101579904D01*
X154636424Y-101588938D01*
X154730000Y-101682514D01*
X154823576Y-101588938D01*
X154884899Y-101555453D01*
X154911257Y-101552619D01*
X155048743Y-101552619D01*
X155069988Y-101558857D01*
X155092077Y-101560437D01*
X155106133Y-101569470D01*
X155115782Y-101572304D01*
X155122367Y-101579904D01*
X155136424Y-101588938D01*
X155230000Y-101682514D01*
X155323576Y-101588938D01*
X155384899Y-101555453D01*
X155411257Y-101552619D01*
X155548743Y-101552619D01*
X155569988Y-101558857D01*
X155592077Y-101560437D01*
X155606133Y-101569470D01*
X155615782Y-101572304D01*
X155622367Y-101579904D01*
X155636424Y-101588938D01*
X155730000Y-101682514D01*
X155823576Y-101588938D01*
X155884899Y-101555453D01*
X155911257Y-101552619D01*
X156048743Y-101552619D01*
X156069988Y-101558857D01*
X156092077Y-101560437D01*
X156106133Y-101569470D01*
X156115782Y-101572304D01*
X156122367Y-101579904D01*
X156136424Y-101588938D01*
X156230000Y-101682514D01*
X156323576Y-101588938D01*
X156384899Y-101555453D01*
X156411257Y-101552619D01*
X156548743Y-101552619D01*
X156569988Y-101558857D01*
X156592077Y-101560437D01*
X156606133Y-101569470D01*
X156615782Y-101572304D01*
X156622367Y-101579904D01*
X156636424Y-101588938D01*
X156730000Y-101682514D01*
X156823576Y-101588938D01*
X156884899Y-101555453D01*
X156911257Y-101552619D01*
X157048743Y-101552619D01*
X157069988Y-101558857D01*
X157092077Y-101560437D01*
X157106133Y-101569470D01*
X157115782Y-101572304D01*
X157122367Y-101579904D01*
X157136424Y-101588938D01*
X157230000Y-101682514D01*
X157323576Y-101588938D01*
X157384899Y-101555453D01*
X157411257Y-101552619D01*
X157548743Y-101552619D01*
X157569988Y-101558857D01*
X157592077Y-101560437D01*
X157606133Y-101569470D01*
X157615782Y-101572304D01*
X157622367Y-101579904D01*
X157636424Y-101588938D01*
X157730000Y-101682514D01*
X157823576Y-101588938D01*
X157884899Y-101555453D01*
X157911257Y-101552619D01*
X158048743Y-101552619D01*
X158069988Y-101558857D01*
X158092077Y-101560437D01*
X158106133Y-101569470D01*
X158115782Y-101572304D01*
X158122367Y-101579904D01*
X158136424Y-101588938D01*
X158766062Y-102218576D01*
X158799547Y-102279899D01*
X158794563Y-102349591D01*
X158766062Y-102393938D01*
X158730000Y-102430000D01*
X158766062Y-102466062D01*
X158799547Y-102527385D01*
X158794563Y-102597077D01*
X158766062Y-102641424D01*
X158136424Y-103271062D01*
X158075101Y-103304547D01*
X158005409Y-103299563D01*
X157990529Y-103290000D01*
X157964256Y-103290000D01*
X157937615Y-103304547D01*
X157867923Y-103299563D01*
X157823576Y-103271062D01*
X157730000Y-103177486D01*
X157636424Y-103271062D01*
X157575101Y-103304547D01*
X157548743Y-103307381D01*
X157411257Y-103307381D01*
X157390011Y-103301142D01*
X157367923Y-103299563D01*
X157353866Y-103290529D01*
X157344218Y-103287696D01*
X157337632Y-103280095D01*
X157323576Y-103271062D01*
X157230000Y-103177486D01*
X157136424Y-103271062D01*
X157075101Y-103304547D01*
X157048743Y-103307381D01*
X156911257Y-103307381D01*
X156890011Y-103301142D01*
X156867923Y-103299563D01*
X156853866Y-103290529D01*
X156844218Y-103287696D01*
X156837632Y-103280095D01*
X156823576Y-103271062D01*
X156730000Y-103177486D01*
X156636424Y-103271062D01*
X156575101Y-103304547D01*
X156548743Y-103307381D01*
X156411257Y-103307381D01*
X156390011Y-103301142D01*
X156367923Y-103299563D01*
X156353866Y-103290529D01*
X156344218Y-103287696D01*
X156337632Y-103280095D01*
X156323576Y-103271062D01*
X156230000Y-103177486D01*
X156136424Y-103271062D01*
X156075101Y-103304547D01*
X156048743Y-103307381D01*
X155911257Y-103307381D01*
X155890011Y-103301142D01*
X155867923Y-103299563D01*
X155853866Y-103290529D01*
X155844218Y-103287696D01*
X155837632Y-103280095D01*
X155823576Y-103271062D01*
X155730000Y-103177486D01*
X155636424Y-103271062D01*
X155575101Y-103304547D01*
X155548743Y-103307381D01*
X155411257Y-103307381D01*
X155390011Y-103301142D01*
X155367923Y-103299563D01*
X155353866Y-103290529D01*
X155344218Y-103287696D01*
X155337632Y-103280095D01*
X155323576Y-103271062D01*
X155230000Y-103177486D01*
X155136424Y-103271062D01*
X155075101Y-103304547D01*
X155048743Y-103307381D01*
X154911257Y-103307381D01*
X154890011Y-103301142D01*
X154867923Y-103299563D01*
X154853866Y-103290529D01*
X154844218Y-103287696D01*
X154837632Y-103280095D01*
X154823576Y-103271062D01*
X154730000Y-103177486D01*
X154636424Y-103271062D01*
X154575101Y-103304547D01*
X154548743Y-103307381D01*
X154411257Y-103307381D01*
X154390011Y-103301142D01*
X154367923Y-103299563D01*
X154353866Y-103290529D01*
X154344218Y-103287696D01*
X154337632Y-103280095D01*
X154323576Y-103271062D01*
X154230000Y-103177486D01*
X154136424Y-103271062D01*
X154075101Y-103304547D01*
X154048743Y-103307381D01*
X153911257Y-103307381D01*
X153890011Y-103301142D01*
X153867923Y-103299563D01*
X153853866Y-103290529D01*
X153844218Y-103287696D01*
X153837632Y-103280095D01*
X153823576Y-103271062D01*
X153730000Y-103177486D01*
X153636424Y-103271062D01*
X153575101Y-103304547D01*
X153548743Y-103307381D01*
X153411257Y-103307381D01*
X153390011Y-103301142D01*
X153367923Y-103299563D01*
X153353866Y-103290529D01*
X153344218Y-103287696D01*
X153337632Y-103280095D01*
X153323576Y-103271062D01*
X153230000Y-103177486D01*
X153136424Y-103271062D01*
X153075101Y-103304547D01*
X153048743Y-103307381D01*
X152911257Y-103307381D01*
X152890011Y-103301142D01*
X152867923Y-103299563D01*
X152853866Y-103290529D01*
X152844218Y-103287696D01*
X152837632Y-103280095D01*
X152823576Y-103271062D01*
X152730000Y-103177486D01*
X152636424Y-103271062D01*
X152575101Y-103304547D01*
X152548743Y-103307381D01*
X152411257Y-103307381D01*
X152390011Y-103301142D01*
X152367923Y-103299563D01*
X152353866Y-103290529D01*
X152344218Y-103287696D01*
X152337632Y-103280095D01*
X152323576Y-103271062D01*
X152230000Y-103177486D01*
X152136424Y-103271062D01*
X152075101Y-103304547D01*
X152048743Y-103307381D01*
X151911257Y-103307381D01*
X151890011Y-103301142D01*
X151867923Y-103299563D01*
X151853866Y-103290529D01*
X151844218Y-103287696D01*
X151837632Y-103280095D01*
X151823576Y-103271062D01*
X151730000Y-103177486D01*
X151636424Y-103271062D01*
X151575101Y-103304547D01*
X151548743Y-103307381D01*
X151411257Y-103307381D01*
X151390011Y-103301142D01*
X151367923Y-103299563D01*
X151353866Y-103290529D01*
X151344218Y-103287696D01*
X151337632Y-103280095D01*
X151323576Y-103271062D01*
X151230000Y-103177486D01*
X151136424Y-103271062D01*
X151075101Y-103304547D01*
X151048743Y-103307381D01*
X150911257Y-103307381D01*
X150890011Y-103301142D01*
X150867923Y-103299563D01*
X150853866Y-103290529D01*
X150844218Y-103287696D01*
X150837632Y-103280095D01*
X150823576Y-103271062D01*
X150730000Y-103177486D01*
X150636424Y-103271062D01*
X150575101Y-103304547D01*
X150548743Y-103307381D01*
X150411257Y-103307381D01*
X150390011Y-103301142D01*
X150367923Y-103299563D01*
X150353866Y-103290529D01*
X150344218Y-103287696D01*
X150337632Y-103280095D01*
X150323576Y-103271062D01*
X150230000Y-103177486D01*
X150136424Y-103271062D01*
X150075101Y-103304547D01*
X150048743Y-103307381D01*
X149911257Y-103307381D01*
X149890011Y-103301142D01*
X149867923Y-103299563D01*
X149853866Y-103290529D01*
X149844218Y-103287696D01*
X149837632Y-103280095D01*
X149823576Y-103271062D01*
X149730000Y-103177486D01*
X149636424Y-103271062D01*
X149575101Y-103304547D01*
X149548743Y-103307381D01*
X149411257Y-103307381D01*
X149390011Y-103301142D01*
X149367923Y-103299563D01*
X149353866Y-103290529D01*
X149344218Y-103287696D01*
X149337632Y-103280095D01*
X149323576Y-103271062D01*
X149230000Y-103177486D01*
X149136424Y-103271062D01*
X149075101Y-103304547D01*
X149048742Y-103307381D01*
X148911256Y-103307380D01*
X148890009Y-103301141D01*
X148867920Y-103299561D01*
X148853865Y-103290528D01*
X148844217Y-103287695D01*
X148837630Y-103280093D01*
X148823576Y-103271061D01*
X148230001Y-102677486D01*
X148230000Y-102677486D01*
X147584140Y-103323343D01*
X147611645Y-103397085D01*
X147693320Y-103506189D01*
X147717737Y-103571653D01*
X147702885Y-103639926D01*
X147653480Y-103689332D01*
X147594053Y-103704500D01*
X147429500Y-103704500D01*
X147362461Y-103684815D01*
X147316706Y-103632011D01*
X147305500Y-103580500D01*
X147305500Y-102857514D01*
X147555000Y-102857514D01*
X147982514Y-102430000D01*
X148477486Y-102430000D01*
X148980000Y-102932514D01*
X148982514Y-102930000D01*
X149477486Y-102930000D01*
X149480000Y-102932514D01*
X149482514Y-102930000D01*
X149977486Y-102930000D01*
X149980000Y-102932514D01*
X149982514Y-102930000D01*
X150477486Y-102930000D01*
X150480000Y-102932514D01*
X150482514Y-102930000D01*
X150977486Y-102930000D01*
X150980000Y-102932514D01*
X150982514Y-102930000D01*
X151477486Y-102930000D01*
X151480000Y-102932514D01*
X151482514Y-102930000D01*
X151977486Y-102930000D01*
X151980000Y-102932514D01*
X151982514Y-102930000D01*
X152477486Y-102930000D01*
X152480000Y-102932514D01*
X152482514Y-102930000D01*
X152977486Y-102930000D01*
X152980000Y-102932514D01*
X152982514Y-102930000D01*
X153477486Y-102930000D01*
X153480000Y-102932514D01*
X153482514Y-102930000D01*
X153977486Y-102930000D01*
X153980000Y-102932514D01*
X153982514Y-102930000D01*
X154477486Y-102930000D01*
X154480000Y-102932514D01*
X154482514Y-102930000D01*
X154977486Y-102930000D01*
X154980000Y-102932514D01*
X154982514Y-102930000D01*
X155477486Y-102930000D01*
X155480000Y-102932514D01*
X155482514Y-102930000D01*
X155977486Y-102930000D01*
X155980000Y-102932514D01*
X155982514Y-102930000D01*
X156477486Y-102930000D01*
X156480000Y-102932514D01*
X156482514Y-102930000D01*
X156977486Y-102930000D01*
X156980000Y-102932514D01*
X156982514Y-102930000D01*
X157477486Y-102930000D01*
X157480000Y-102932514D01*
X157482514Y-102930000D01*
X157480000Y-102927486D01*
X157477486Y-102930000D01*
X156982514Y-102930000D01*
X156980000Y-102927486D01*
X156977486Y-102930000D01*
X156482514Y-102930000D01*
X156480000Y-102927486D01*
X156477486Y-102930000D01*
X155982514Y-102930000D01*
X155980000Y-102927486D01*
X155977486Y-102930000D01*
X155482514Y-102930000D01*
X155480000Y-102927486D01*
X155477486Y-102930000D01*
X154982514Y-102930000D01*
X154980000Y-102927486D01*
X154977486Y-102930000D01*
X154482514Y-102930000D01*
X154480000Y-102927486D01*
X154477486Y-102930000D01*
X153982514Y-102930000D01*
X153980000Y-102927486D01*
X153977486Y-102930000D01*
X153482514Y-102930000D01*
X153480000Y-102927486D01*
X153477486Y-102930000D01*
X152982514Y-102930000D01*
X152980000Y-102927486D01*
X152977486Y-102930000D01*
X152482514Y-102930000D01*
X152480000Y-102927486D01*
X152477486Y-102930000D01*
X151982514Y-102930000D01*
X151980000Y-102927486D01*
X151977486Y-102930000D01*
X151482514Y-102930000D01*
X151480000Y-102927486D01*
X151477486Y-102930000D01*
X150982514Y-102930000D01*
X150980000Y-102927486D01*
X150977486Y-102930000D01*
X150482514Y-102930000D01*
X150480000Y-102927486D01*
X150477486Y-102930000D01*
X149982514Y-102930000D01*
X149980000Y-102927486D01*
X149977486Y-102930000D01*
X149482514Y-102930000D01*
X149480000Y-102927486D01*
X149477486Y-102930000D01*
X148982514Y-102930000D01*
X148693938Y-102641424D01*
X148689599Y-102633478D01*
X148682352Y-102628053D01*
X148673117Y-102603293D01*
X148660453Y-102580101D01*
X148661098Y-102571071D01*
X148657935Y-102562589D01*
X148663551Y-102536768D01*
X148665437Y-102510409D01*
X148671255Y-102501355D01*
X148672787Y-102494316D01*
X148693938Y-102466062D01*
X148730000Y-102430000D01*
X148977486Y-102430000D01*
X149230000Y-102682514D01*
X149232514Y-102680000D01*
X149727486Y-102680000D01*
X149730000Y-102682514D01*
X149732514Y-102680000D01*
X150227486Y-102680000D01*
X150230000Y-102682514D01*
X150232514Y-102680000D01*
X150727486Y-102680000D01*
X150730000Y-102682514D01*
X150732514Y-102680000D01*
X151227486Y-102680000D01*
X151230000Y-102682514D01*
X151232514Y-102680000D01*
X151727486Y-102680000D01*
X151730000Y-102682514D01*
X151732514Y-102680000D01*
X152227486Y-102680000D01*
X152230000Y-102682514D01*
X152232514Y-102680000D01*
X152727486Y-102680000D01*
X152730000Y-102682514D01*
X152732514Y-102680000D01*
X153227486Y-102680000D01*
X153230000Y-102682514D01*
X153232514Y-102680000D01*
X153727486Y-102680000D01*
X153730000Y-102682514D01*
X153732514Y-102680000D01*
X154227486Y-102680000D01*
X154230000Y-102682514D01*
X154232514Y-102680000D01*
X154727486Y-102680000D01*
X154730000Y-102682514D01*
X154732514Y-102680000D01*
X155227486Y-102680000D01*
X155230000Y-102682514D01*
X155232514Y-102680000D01*
X155727486Y-102680000D01*
X155730000Y-102682514D01*
X155732514Y-102680000D01*
X156227486Y-102680000D01*
X156230000Y-102682514D01*
X156232514Y-102680000D01*
X156727486Y-102680000D01*
X156730000Y-102682514D01*
X156732514Y-102680000D01*
X157227486Y-102680000D01*
X157230000Y-102682514D01*
X157232514Y-102680000D01*
X157230000Y-102677486D01*
X157227486Y-102680000D01*
X156732514Y-102680000D01*
X156730000Y-102677486D01*
X156727486Y-102680000D01*
X156232514Y-102680000D01*
X156230000Y-102677486D01*
X156227486Y-102680000D01*
X155732514Y-102680000D01*
X155730000Y-102677486D01*
X155727486Y-102680000D01*
X155232514Y-102680000D01*
X155230000Y-102677486D01*
X155227486Y-102680000D01*
X154732514Y-102680000D01*
X154730000Y-102677486D01*
X154727486Y-102680000D01*
X154232514Y-102680000D01*
X154230000Y-102677486D01*
X154227486Y-102680000D01*
X153732514Y-102680000D01*
X153730000Y-102677486D01*
X153727486Y-102680000D01*
X153232514Y-102680000D01*
X153230000Y-102677486D01*
X153227486Y-102680000D01*
X152732514Y-102680000D01*
X152730000Y-102677486D01*
X152727486Y-102680000D01*
X152232514Y-102680000D01*
X152230000Y-102677486D01*
X152227486Y-102680000D01*
X151732514Y-102680000D01*
X151730000Y-102677486D01*
X151727486Y-102680000D01*
X151232514Y-102680000D01*
X151230000Y-102677486D01*
X151227486Y-102680000D01*
X150732514Y-102680000D01*
X150730000Y-102677486D01*
X150727486Y-102680000D01*
X150232514Y-102680000D01*
X150230000Y-102677486D01*
X150227486Y-102680000D01*
X149732514Y-102680000D01*
X149730000Y-102677486D01*
X149727486Y-102680000D01*
X149232514Y-102680000D01*
X149193938Y-102641424D01*
X149160453Y-102580101D01*
X149165437Y-102510409D01*
X149193938Y-102466062D01*
X149230000Y-102430000D01*
X149477486Y-102430000D01*
X149480000Y-102432514D01*
X149482514Y-102430000D01*
X149977486Y-102430000D01*
X149980000Y-102432514D01*
X149982514Y-102430000D01*
X150477486Y-102430000D01*
X150480000Y-102432514D01*
X150482514Y-102430000D01*
X150977486Y-102430000D01*
X150980000Y-102432514D01*
X150982514Y-102430000D01*
X151477486Y-102430000D01*
X151480000Y-102432514D01*
X151482514Y-102430000D01*
X151977486Y-102430000D01*
X151980000Y-102432514D01*
X151982514Y-102430000D01*
X152477486Y-102430000D01*
X152480000Y-102432514D01*
X152482514Y-102430000D01*
X152977486Y-102430000D01*
X152980000Y-102432514D01*
X152982514Y-102430000D01*
X153477486Y-102430000D01*
X153480000Y-102432514D01*
X153482514Y-102430000D01*
X153977486Y-102430000D01*
X153980000Y-102432514D01*
X153982514Y-102430000D01*
X154477486Y-102430000D01*
X154480000Y-102432514D01*
X154482514Y-102430000D01*
X154977486Y-102430000D01*
X154980000Y-102432514D01*
X154982514Y-102430000D01*
X155477486Y-102430000D01*
X155480000Y-102432514D01*
X155482514Y-102430000D01*
X155977486Y-102430000D01*
X155980000Y-102432514D01*
X155982514Y-102430000D01*
X156477486Y-102430000D01*
X156480000Y-102432514D01*
X156482514Y-102430000D01*
X156977486Y-102430000D01*
X156980000Y-102432514D01*
X156982514Y-102430000D01*
X157477486Y-102430000D01*
X157480000Y-102432514D01*
X157482514Y-102430000D01*
X157480000Y-102427486D01*
X157477486Y-102430000D01*
X156982514Y-102430000D01*
X156980000Y-102427486D01*
X156977486Y-102430000D01*
X156482514Y-102430000D01*
X156480000Y-102427486D01*
X156477486Y-102430000D01*
X155982514Y-102430000D01*
X155980000Y-102427486D01*
X155977486Y-102430000D01*
X155482514Y-102430000D01*
X155480000Y-102427486D01*
X155477486Y-102430000D01*
X154982514Y-102430000D01*
X154980000Y-102427486D01*
X154977486Y-102430000D01*
X154482514Y-102430000D01*
X154480000Y-102427486D01*
X154477486Y-102430000D01*
X153982514Y-102430000D01*
X153980000Y-102427486D01*
X153977486Y-102430000D01*
X153482514Y-102430000D01*
X153480000Y-102427486D01*
X153477486Y-102430000D01*
X152982514Y-102430000D01*
X152980000Y-102427486D01*
X152977486Y-102430000D01*
X152482514Y-102430000D01*
X152480000Y-102427486D01*
X152477486Y-102430000D01*
X151982514Y-102430000D01*
X151980000Y-102427486D01*
X151977486Y-102430000D01*
X151482514Y-102430000D01*
X151480000Y-102427486D01*
X151477486Y-102430000D01*
X150982514Y-102430000D01*
X150980000Y-102427486D01*
X150977486Y-102430000D01*
X150482514Y-102430000D01*
X150480000Y-102427486D01*
X150477486Y-102430000D01*
X149982514Y-102430000D01*
X149980000Y-102427486D01*
X149977486Y-102430000D01*
X149482514Y-102430000D01*
X149480000Y-102427486D01*
X149477486Y-102430000D01*
X149230000Y-102430000D01*
X149193938Y-102393938D01*
X149160453Y-102332615D01*
X149165437Y-102262923D01*
X149193938Y-102218576D01*
X149232514Y-102180000D01*
X149727486Y-102180000D01*
X149730000Y-102182514D01*
X149732514Y-102180000D01*
X150227486Y-102180000D01*
X150230000Y-102182514D01*
X150232514Y-102180000D01*
X150727486Y-102180000D01*
X150730000Y-102182514D01*
X150732514Y-102180000D01*
X151227486Y-102180000D01*
X151230000Y-102182514D01*
X151232514Y-102180000D01*
X151727486Y-102180000D01*
X151730000Y-102182514D01*
X151732514Y-102180000D01*
X152227486Y-102180000D01*
X152230000Y-102182514D01*
X152232514Y-102180000D01*
X152727486Y-102180000D01*
X152730000Y-102182514D01*
X152732514Y-102180000D01*
X153227486Y-102180000D01*
X153230000Y-102182514D01*
X153232514Y-102180000D01*
X153727486Y-102180000D01*
X153730000Y-102182514D01*
X153732514Y-102180000D01*
X154227486Y-102180000D01*
X154230000Y-102182514D01*
X154232514Y-102180000D01*
X154727486Y-102180000D01*
X154730000Y-102182514D01*
X154732514Y-102180000D01*
X155227486Y-102180000D01*
X155230000Y-102182514D01*
X155232514Y-102180000D01*
X155727486Y-102180000D01*
X155730000Y-102182514D01*
X155732514Y-102180000D01*
X156227486Y-102180000D01*
X156230000Y-102182514D01*
X156232514Y-102180000D01*
X156727486Y-102180000D01*
X156730000Y-102182514D01*
X156732514Y-102180000D01*
X157227486Y-102180000D01*
X157230000Y-102182514D01*
X157232514Y-102180000D01*
X157727486Y-102180000D01*
X157766062Y-102218576D01*
X157770400Y-102226521D01*
X157777648Y-102231947D01*
X157786882Y-102256706D01*
X157799547Y-102279899D01*
X157798901Y-102288928D01*
X157802065Y-102297411D01*
X157796448Y-102323231D01*
X157794563Y-102349591D01*
X157788744Y-102358644D01*
X157787213Y-102365684D01*
X157766062Y-102393938D01*
X157730000Y-102430000D01*
X157766062Y-102466062D01*
X157799547Y-102527385D01*
X157794563Y-102597077D01*
X157766062Y-102641424D01*
X157727486Y-102680000D01*
X157730000Y-102682514D01*
X157982514Y-102430000D01*
X157730000Y-102177486D01*
X157727486Y-102180000D01*
X157232514Y-102180000D01*
X157230000Y-102177486D01*
X157227486Y-102180000D01*
X156732514Y-102180000D01*
X156730000Y-102177486D01*
X156727486Y-102180000D01*
X156232514Y-102180000D01*
X156230000Y-102177486D01*
X156227486Y-102180000D01*
X155732514Y-102180000D01*
X155730000Y-102177486D01*
X155727486Y-102180000D01*
X155232514Y-102180000D01*
X155230000Y-102177486D01*
X155227486Y-102180000D01*
X154732514Y-102180000D01*
X154730000Y-102177486D01*
X154727486Y-102180000D01*
X154232514Y-102180000D01*
X154230000Y-102177486D01*
X154227486Y-102180000D01*
X153732514Y-102180000D01*
X153730000Y-102177486D01*
X153727486Y-102180000D01*
X153232514Y-102180000D01*
X153230000Y-102177486D01*
X153227486Y-102180000D01*
X152732514Y-102180000D01*
X152730000Y-102177486D01*
X152727486Y-102180000D01*
X152232514Y-102180000D01*
X152230000Y-102177486D01*
X152227486Y-102180000D01*
X151732514Y-102180000D01*
X151730000Y-102177486D01*
X151727486Y-102180000D01*
X151232514Y-102180000D01*
X151230000Y-102177486D01*
X151227486Y-102180000D01*
X150732514Y-102180000D01*
X150730000Y-102177486D01*
X150727486Y-102180000D01*
X150232514Y-102180000D01*
X150230000Y-102177486D01*
X150227486Y-102180000D01*
X149732514Y-102180000D01*
X149730000Y-102177486D01*
X149727486Y-102180000D01*
X149232514Y-102180000D01*
X149230000Y-102177486D01*
X148977486Y-102430000D01*
X148730000Y-102430000D01*
X148693938Y-102393938D01*
X148660453Y-102332615D01*
X148665437Y-102262923D01*
X148693938Y-102218576D01*
X148982514Y-101930000D01*
X149477486Y-101930000D01*
X149480000Y-101932514D01*
X149482514Y-101930000D01*
X149977486Y-101930000D01*
X149980000Y-101932514D01*
X149982514Y-101930000D01*
X150477486Y-101930000D01*
X150480000Y-101932514D01*
X150482514Y-101930000D01*
X150977486Y-101930000D01*
X150980000Y-101932514D01*
X150982514Y-101930000D01*
X151477486Y-101930000D01*
X151480000Y-101932514D01*
X151482514Y-101930000D01*
X151977486Y-101930000D01*
X151980000Y-101932514D01*
X151982514Y-101930000D01*
X152477486Y-101930000D01*
X152480000Y-101932514D01*
X152482514Y-101930000D01*
X152977486Y-101930000D01*
X152980000Y-101932514D01*
X152982514Y-101930000D01*
X153477486Y-101930000D01*
X153480000Y-101932514D01*
X153482514Y-101930000D01*
X153977486Y-101930000D01*
X153980000Y-101932514D01*
X153982514Y-101930000D01*
X154477486Y-101930000D01*
X154480000Y-101932514D01*
X154482514Y-101930000D01*
X154977486Y-101930000D01*
X154980000Y-101932514D01*
X154982514Y-101930000D01*
X155477486Y-101930000D01*
X155480000Y-101932514D01*
X155482514Y-101930000D01*
X155977486Y-101930000D01*
X155980000Y-101932514D01*
X155982514Y-101930000D01*
X156477486Y-101930000D01*
X156480000Y-101932514D01*
X156482514Y-101930000D01*
X156977486Y-101930000D01*
X156980000Y-101932514D01*
X156982514Y-101930000D01*
X157477486Y-101930000D01*
X157480000Y-101932514D01*
X157482514Y-101930000D01*
X157977486Y-101930000D01*
X158266062Y-102218576D01*
X158270400Y-102226521D01*
X158277648Y-102231947D01*
X158286882Y-102256706D01*
X158299547Y-102279899D01*
X158298901Y-102288928D01*
X158302065Y-102297411D01*
X158296448Y-102323231D01*
X158294563Y-102349591D01*
X158288744Y-102358644D01*
X158287213Y-102365684D01*
X158266062Y-102393938D01*
X158230000Y-102430000D01*
X158266062Y-102466062D01*
X158299547Y-102527385D01*
X158294563Y-102597077D01*
X158266062Y-102641424D01*
X157977486Y-102930000D01*
X157980000Y-102932514D01*
X158482514Y-102430000D01*
X157980000Y-101927486D01*
X157977486Y-101930000D01*
X157482514Y-101930000D01*
X157480000Y-101927486D01*
X157477486Y-101930000D01*
X156982514Y-101930000D01*
X156980000Y-101927486D01*
X156977486Y-101930000D01*
X156482514Y-101930000D01*
X156480000Y-101927486D01*
X156477486Y-101930000D01*
X155982514Y-101930000D01*
X155980000Y-101927486D01*
X155977486Y-101930000D01*
X155482514Y-101930000D01*
X155480000Y-101927486D01*
X155477486Y-101930000D01*
X154982514Y-101930000D01*
X154980000Y-101927486D01*
X154977486Y-101930000D01*
X154482514Y-101930000D01*
X154480000Y-101927486D01*
X154477486Y-101930000D01*
X153982514Y-101930000D01*
X153980000Y-101927486D01*
X153977486Y-101930000D01*
X153482514Y-101930000D01*
X153480000Y-101927486D01*
X153477486Y-101930000D01*
X152982514Y-101930000D01*
X152980000Y-101927486D01*
X152977486Y-101930000D01*
X152482514Y-101930000D01*
X152480000Y-101927486D01*
X152477486Y-101930000D01*
X151982514Y-101930000D01*
X151980000Y-101927486D01*
X151977486Y-101930000D01*
X151482514Y-101930000D01*
X151480000Y-101927486D01*
X151477486Y-101930000D01*
X150982514Y-101930000D01*
X150980000Y-101927486D01*
X150977486Y-101930000D01*
X150482514Y-101930000D01*
X150480000Y-101927486D01*
X150477486Y-101930000D01*
X149982514Y-101930000D01*
X149980000Y-101927486D01*
X149977486Y-101930000D01*
X149482514Y-101930000D01*
X149480000Y-101927486D01*
X149477486Y-101930000D01*
X148982514Y-101930000D01*
X148980000Y-101927486D01*
X148477486Y-102430000D01*
X147982514Y-102430000D01*
X147982514Y-102429999D01*
X147555000Y-102002485D01*
X147555000Y-102857514D01*
X147305500Y-102857514D01*
X147305500Y-100237341D01*
X147305499Y-100237333D01*
X147275390Y-100105414D01*
X147274986Y-100104575D01*
X147263305Y-100080320D01*
X147261719Y-100074399D01*
X147254094Y-100061194D01*
X147216675Y-99983493D01*
X147189716Y-99949687D01*
X147183066Y-99938167D01*
X147170544Y-99925645D01*
X147166199Y-99920196D01*
X147166198Y-99920194D01*
X147132307Y-99877697D01*
X147132305Y-99877696D01*
X147132305Y-99877695D01*
X147089798Y-99843797D01*
X147079429Y-99834530D01*
X147072080Y-99827181D01*
X147038595Y-99765858D01*
X147043579Y-99696166D01*
X147085451Y-99640233D01*
X147150915Y-99615816D01*
X147159761Y-99615500D01*
X158895522Y-99615500D01*
X158962561Y-99635185D01*
G37*
%TD.AperFunction*%
%TA.AperFunction,Conductor*%
G36*
X174737447Y-58830185D02*
G01*
X174783202Y-58882989D01*
X174794407Y-58934590D01*
X174764963Y-99075500D01*
X174764592Y-99580591D01*
X174744858Y-99647616D01*
X174692021Y-99693332D01*
X174640592Y-99704500D01*
X167637333Y-99704500D01*
X167505413Y-99734610D01*
X167490783Y-99741655D01*
X167490782Y-99741654D01*
X167480308Y-99746697D01*
X167474399Y-99748281D01*
X167461219Y-99755890D01*
X167457023Y-99757911D01*
X167457014Y-99757917D01*
X167383493Y-99793324D01*
X167356950Y-99814490D01*
X167353696Y-99816998D01*
X167347893Y-99821318D01*
X167338167Y-99826934D01*
X167331798Y-99833302D01*
X167324555Y-99838696D01*
X167299914Y-99847813D01*
X167276848Y-99860407D01*
X167267661Y-99859749D01*
X167259028Y-99862944D01*
X167233369Y-99857293D01*
X167207156Y-99855416D01*
X167199784Y-99849897D01*
X167190794Y-99847917D01*
X167172262Y-99829290D01*
X167151226Y-99813540D01*
X167148008Y-99804912D01*
X167141515Y-99798385D01*
X167135995Y-99772693D01*
X167126815Y-99748073D01*
X167126500Y-99739238D01*
X167126500Y-98382844D01*
X168695000Y-98382844D01*
X168701401Y-98442372D01*
X168701403Y-98442379D01*
X168751645Y-98577086D01*
X168751649Y-98577093D01*
X168837809Y-98692187D01*
X168837812Y-98692190D01*
X168952906Y-98778350D01*
X168952913Y-98778354D01*
X169087620Y-98828596D01*
X169087627Y-98828598D01*
X169147155Y-98834999D01*
X169147172Y-98835000D01*
X170120000Y-98835000D01*
X170120000Y-98160000D01*
X170620000Y-98160000D01*
X170620000Y-98835000D01*
X171592828Y-98835000D01*
X171592844Y-98834999D01*
X171652372Y-98828598D01*
X171652377Y-98828597D01*
X171679957Y-98818310D01*
X171749648Y-98813324D01*
X171810972Y-98846808D01*
X171837854Y-98887039D01*
X171866440Y-98956055D01*
X171943944Y-99033559D01*
X172018646Y-99064500D01*
X172045200Y-99075499D01*
X172099535Y-99075499D01*
X172099551Y-99075500D01*
X172107147Y-99075500D01*
X172192851Y-99075500D01*
X172192853Y-99075500D01*
X172275638Y-99053318D01*
X172349862Y-99010465D01*
X172410465Y-98949862D01*
X172453318Y-98875638D01*
X172459117Y-98853991D01*
X172491209Y-98798404D01*
X172953558Y-98336058D01*
X172995500Y-98234800D01*
X172995500Y-98125200D01*
X172995500Y-96659500D01*
X173015185Y-96592461D01*
X173067989Y-96546706D01*
X173119500Y-96535500D01*
X173914750Y-96535500D01*
X173914751Y-96535499D01*
X173929568Y-96532552D01*
X173973229Y-96523868D01*
X173973229Y-96523867D01*
X173973231Y-96523867D01*
X174039552Y-96479552D01*
X174083867Y-96413231D01*
X174083867Y-96413229D01*
X174083868Y-96413229D01*
X174095499Y-96354752D01*
X174095500Y-96354750D01*
X174095500Y-95465249D01*
X174095499Y-95465247D01*
X174083868Y-95406770D01*
X174083867Y-95406769D01*
X174039552Y-95340447D01*
X173973230Y-95296132D01*
X173973229Y-95296131D01*
X173914752Y-95284500D01*
X173914748Y-95284500D01*
X171525252Y-95284500D01*
X171525247Y-95284500D01*
X171466770Y-95296131D01*
X171466769Y-95296132D01*
X171400447Y-95340447D01*
X171356132Y-95406769D01*
X171356131Y-95406770D01*
X171344500Y-95465247D01*
X171344500Y-96354752D01*
X171356131Y-96413229D01*
X171356132Y-96413230D01*
X171400447Y-96479552D01*
X171466769Y-96523867D01*
X171466770Y-96523868D01*
X171525247Y-96535499D01*
X171525250Y-96535500D01*
X171525252Y-96535500D01*
X172320500Y-96535500D01*
X172387539Y-96555185D01*
X172433294Y-96607989D01*
X172444500Y-96659500D01*
X172444500Y-98014522D01*
X172435855Y-98043962D01*
X172429332Y-98073949D01*
X172425577Y-98078964D01*
X172424815Y-98081561D01*
X172408181Y-98102203D01*
X172256681Y-98253703D01*
X172195358Y-98287188D01*
X172125666Y-98282204D01*
X172069733Y-98240332D01*
X172045316Y-98174868D01*
X172045000Y-98166022D01*
X172045000Y-98160000D01*
X170620000Y-98160000D01*
X170120000Y-98160000D01*
X168695000Y-98160000D01*
X168695000Y-98382844D01*
X167126500Y-98382844D01*
X167126500Y-98299813D01*
X167126500Y-98299812D01*
X167112678Y-98266443D01*
X167084558Y-98198554D01*
X166323158Y-97437155D01*
X168695000Y-97437155D01*
X168695000Y-97660000D01*
X170120000Y-97660000D01*
X170620000Y-97660000D01*
X172045000Y-97660000D01*
X172045000Y-97437172D01*
X172044999Y-97437155D01*
X172038598Y-97377627D01*
X172038596Y-97377620D01*
X171988354Y-97242913D01*
X171988350Y-97242906D01*
X171902190Y-97127812D01*
X171902187Y-97127809D01*
X171787093Y-97041649D01*
X171787086Y-97041645D01*
X171652379Y-96991403D01*
X171652372Y-96991401D01*
X171592844Y-96985000D01*
X170620000Y-96985000D01*
X170620000Y-97660000D01*
X170120000Y-97660000D01*
X170120000Y-96985000D01*
X169147155Y-96985000D01*
X169087627Y-96991401D01*
X169087620Y-96991403D01*
X168952913Y-97041645D01*
X168952906Y-97041649D01*
X168837812Y-97127809D01*
X168837809Y-97127812D01*
X168751649Y-97242906D01*
X168751645Y-97242913D01*
X168701403Y-97377620D01*
X168701401Y-97377627D01*
X168695000Y-97437155D01*
X166323158Y-97437155D01*
X165951446Y-97065443D01*
X165850188Y-97023500D01*
X158046200Y-97023500D01*
X158046198Y-97023500D01*
X157974599Y-97053158D01*
X157944939Y-97065443D01*
X156907204Y-98103181D01*
X156845881Y-98136666D01*
X156819523Y-98139500D01*
X147727255Y-98139500D01*
X147660216Y-98119815D01*
X147639574Y-98103181D01*
X147630914Y-98094521D01*
X147630913Y-98094520D01*
X147539587Y-98041793D01*
X147437727Y-98014500D01*
X147332273Y-98014500D01*
X147230413Y-98041793D01*
X147230410Y-98041794D01*
X147139085Y-98094521D01*
X147064521Y-98169085D01*
X147011794Y-98260410D01*
X147011793Y-98260413D01*
X146984500Y-98362273D01*
X146984500Y-98467728D01*
X146995400Y-98508408D01*
X146993737Y-98578258D01*
X146954574Y-98636120D01*
X146890345Y-98663623D01*
X146875625Y-98664500D01*
X138925478Y-98664500D01*
X138858439Y-98644815D01*
X138837797Y-98628181D01*
X138603369Y-98393754D01*
X138598736Y-98386820D01*
X138594498Y-98383878D01*
X138587292Y-98369694D01*
X138576488Y-98353525D01*
X138573379Y-98346020D01*
X138565475Y-98316519D01*
X138550204Y-98290069D01*
X138547095Y-98282562D01*
X138544899Y-98262140D01*
X138537657Y-98235110D01*
X138537657Y-88157147D01*
X141074500Y-88157147D01*
X141074500Y-88242853D01*
X141095209Y-88320138D01*
X141096682Y-88325637D01*
X141096685Y-88325644D01*
X141139530Y-88399855D01*
X141139534Y-88399860D01*
X141139535Y-88399862D01*
X141200138Y-88460465D01*
X141200140Y-88460466D01*
X141200144Y-88460469D01*
X141254956Y-88492114D01*
X141274362Y-88503318D01*
X141357147Y-88525500D01*
X141357149Y-88525500D01*
X141442851Y-88525500D01*
X141442853Y-88525500D01*
X141525638Y-88503318D01*
X141528410Y-88501717D01*
X141545045Y-88492114D01*
X141607046Y-88475500D01*
X141794799Y-88475500D01*
X141794800Y-88475500D01*
X141896058Y-88433557D01*
X141973557Y-88356058D01*
X141986618Y-88342997D01*
X142047941Y-88309512D01*
X142117633Y-88314496D01*
X142173566Y-88356368D01*
X142194073Y-88398581D01*
X142203444Y-88433555D01*
X142206683Y-88445640D01*
X142206685Y-88445644D01*
X142249530Y-88519855D01*
X142249534Y-88519860D01*
X142249535Y-88519862D01*
X142310138Y-88580465D01*
X142310140Y-88580466D01*
X142310144Y-88580469D01*
X142384355Y-88623314D01*
X142384362Y-88623318D01*
X142467147Y-88645500D01*
X142467149Y-88645500D01*
X142552851Y-88645500D01*
X142552853Y-88645500D01*
X142635638Y-88623318D01*
X142709862Y-88580465D01*
X142770465Y-88519862D01*
X142795126Y-88477147D01*
X143964500Y-88477147D01*
X143964500Y-88562853D01*
X143984003Y-88635640D01*
X143986683Y-88645640D01*
X143986684Y-88645643D01*
X143997886Y-88665045D01*
X144014500Y-88727046D01*
X144014500Y-89344800D01*
X144056443Y-89446058D01*
X144056444Y-89446059D01*
X149563942Y-94953558D01*
X149563944Y-94953560D01*
X149642257Y-94985997D01*
X149665200Y-94995500D01*
X150243954Y-94995500D01*
X150305955Y-95012114D01*
X150325356Y-95023315D01*
X150325357Y-95023315D01*
X150325362Y-95023318D01*
X150408147Y-95045500D01*
X150408149Y-95045500D01*
X150493851Y-95045500D01*
X150493853Y-95045500D01*
X150576638Y-95023318D01*
X150650862Y-94980465D01*
X150711465Y-94919862D01*
X150754318Y-94845638D01*
X150776500Y-94762853D01*
X150776500Y-94677147D01*
X150754318Y-94594362D01*
X150734747Y-94560463D01*
X150711469Y-94520144D01*
X150711463Y-94520136D01*
X150650863Y-94459536D01*
X150650855Y-94459530D01*
X150576644Y-94416685D01*
X150576640Y-94416683D01*
X150576638Y-94416682D01*
X150493853Y-94394500D01*
X150408147Y-94394500D01*
X150325362Y-94416682D01*
X150325361Y-94416682D01*
X150325359Y-94416683D01*
X150325356Y-94416684D01*
X150305955Y-94427886D01*
X150243954Y-94444500D01*
X149885478Y-94444500D01*
X149818439Y-94424815D01*
X149797797Y-94408181D01*
X144601819Y-89212203D01*
X144568334Y-89150880D01*
X144565500Y-89124522D01*
X144565500Y-88727046D01*
X144582114Y-88665045D01*
X144593315Y-88645643D01*
X144593314Y-88645643D01*
X144593318Y-88645638D01*
X144615500Y-88562853D01*
X144615500Y-88477147D01*
X144612821Y-88467147D01*
X146564500Y-88467147D01*
X146564500Y-88552853D01*
X146567179Y-88562853D01*
X146586683Y-88635640D01*
X146586684Y-88635643D01*
X146597886Y-88655045D01*
X146614500Y-88717046D01*
X146614500Y-90678412D01*
X146656443Y-90779670D01*
X146656444Y-90779671D01*
X149510330Y-93633558D01*
X149510332Y-93633560D01*
X149588645Y-93665997D01*
X149611588Y-93675500D01*
X149721188Y-93675500D01*
X151192954Y-93675500D01*
X151254955Y-93692114D01*
X151274356Y-93703315D01*
X151274357Y-93703315D01*
X151274362Y-93703318D01*
X151357147Y-93725500D01*
X151357149Y-93725500D01*
X151442851Y-93725500D01*
X151442853Y-93725500D01*
X151525638Y-93703318D01*
X151599862Y-93660465D01*
X151660465Y-93599862D01*
X151703318Y-93525638D01*
X151719500Y-93465247D01*
X168994500Y-93465247D01*
X168994500Y-94354752D01*
X169006131Y-94413229D01*
X169006132Y-94413230D01*
X169050447Y-94479552D01*
X169116769Y-94523867D01*
X169116770Y-94523868D01*
X169175247Y-94535499D01*
X169175250Y-94535500D01*
X169175252Y-94535500D01*
X171564750Y-94535500D01*
X171564751Y-94535499D01*
X171579568Y-94532552D01*
X171623229Y-94523868D01*
X171623229Y-94523867D01*
X171623231Y-94523867D01*
X171689552Y-94479552D01*
X171733867Y-94413231D01*
X171733867Y-94413229D01*
X171733868Y-94413229D01*
X171745499Y-94354752D01*
X171745500Y-94354750D01*
X171745500Y-94309500D01*
X171765185Y-94242461D01*
X171817989Y-94196706D01*
X171869500Y-94185500D01*
X173544523Y-94185500D01*
X173573963Y-94194144D01*
X173603950Y-94200668D01*
X173608965Y-94204422D01*
X173611562Y-94205185D01*
X173632198Y-94221814D01*
X173758789Y-94348405D01*
X173790880Y-94403988D01*
X173796461Y-94424815D01*
X173796682Y-94425638D01*
X173796683Y-94425641D01*
X173796685Y-94425644D01*
X173839530Y-94499855D01*
X173839534Y-94499860D01*
X173839535Y-94499862D01*
X173900138Y-94560465D01*
X173900140Y-94560466D01*
X173900144Y-94560469D01*
X173974355Y-94603314D01*
X173974362Y-94603318D01*
X174057147Y-94625500D01*
X174057149Y-94625500D01*
X174142851Y-94625500D01*
X174142853Y-94625500D01*
X174225638Y-94603318D01*
X174299862Y-94560465D01*
X174360465Y-94499862D01*
X174403318Y-94425638D01*
X174425500Y-94342853D01*
X174425500Y-94257147D01*
X174403318Y-94174362D01*
X174403314Y-94174355D01*
X174360469Y-94100144D01*
X174360463Y-94100136D01*
X174299863Y-94039536D01*
X174299855Y-94039530D01*
X174225644Y-93996685D01*
X174225641Y-93996683D01*
X174225638Y-93996682D01*
X174225634Y-93996681D01*
X174225632Y-93996680D01*
X174203988Y-93990880D01*
X174148403Y-93958787D01*
X173866060Y-93676444D01*
X173866058Y-93676443D01*
X173863781Y-93675500D01*
X173806966Y-93651966D01*
X173752563Y-93608124D01*
X173730499Y-93541829D01*
X173734643Y-93505320D01*
X173750500Y-93446144D01*
X173750500Y-93353856D01*
X173726614Y-93264712D01*
X173726611Y-93264706D01*
X173680473Y-93184794D01*
X173680470Y-93184791D01*
X173680469Y-93184788D01*
X173615212Y-93119531D01*
X173615209Y-93119529D01*
X173615205Y-93119526D01*
X173535293Y-93073388D01*
X173535290Y-93073387D01*
X173535289Y-93073386D01*
X173535288Y-93073386D01*
X173446144Y-93049500D01*
X173446143Y-93049500D01*
X173196544Y-93049500D01*
X173167103Y-93040855D01*
X173137117Y-93034332D01*
X173132101Y-93030577D01*
X173129505Y-93029815D01*
X173108863Y-93013181D01*
X173106819Y-93011137D01*
X173073334Y-92949814D01*
X173070500Y-92923456D01*
X173070500Y-92659500D01*
X173090185Y-92592461D01*
X173142989Y-92546706D01*
X173194500Y-92535500D01*
X173914750Y-92535500D01*
X173914751Y-92535499D01*
X173929568Y-92532552D01*
X173973229Y-92523868D01*
X173973229Y-92523867D01*
X173973231Y-92523867D01*
X174039552Y-92479552D01*
X174083867Y-92413231D01*
X174083867Y-92413229D01*
X174083868Y-92413229D01*
X174095499Y-92354752D01*
X174095500Y-92354750D01*
X174095500Y-91465249D01*
X174095499Y-91465247D01*
X174083868Y-91406770D01*
X174083867Y-91406769D01*
X174039552Y-91340447D01*
X173973230Y-91296132D01*
X173973229Y-91296131D01*
X173914752Y-91284500D01*
X173914748Y-91284500D01*
X171525252Y-91284500D01*
X171525247Y-91284500D01*
X171466770Y-91296131D01*
X171466769Y-91296132D01*
X171400447Y-91340447D01*
X171356132Y-91406769D01*
X171356131Y-91406770D01*
X171344500Y-91465247D01*
X171344500Y-92354752D01*
X171356131Y-92413229D01*
X171356132Y-92413230D01*
X171400447Y-92479552D01*
X171466769Y-92523867D01*
X171466770Y-92523868D01*
X171525247Y-92535499D01*
X171525250Y-92535500D01*
X171525252Y-92535500D01*
X172245500Y-92535500D01*
X172312539Y-92555185D01*
X172358294Y-92607989D01*
X172369500Y-92659500D01*
X172369500Y-93166144D01*
X172374496Y-93184788D01*
X172378608Y-93200136D01*
X172393387Y-93255290D01*
X172439527Y-93335208D01*
X172439531Y-93335213D01*
X172527137Y-93422819D01*
X172560622Y-93484142D01*
X172555638Y-93553834D01*
X172513766Y-93609767D01*
X172448302Y-93634184D01*
X172439456Y-93634500D01*
X171869500Y-93634500D01*
X171802461Y-93614815D01*
X171756706Y-93562011D01*
X171745500Y-93510500D01*
X171745500Y-93465249D01*
X171745499Y-93465247D01*
X171733868Y-93406770D01*
X171733867Y-93406769D01*
X171689552Y-93340447D01*
X171623230Y-93296132D01*
X171623229Y-93296131D01*
X171564752Y-93284500D01*
X171564748Y-93284500D01*
X169175252Y-93284500D01*
X169175247Y-93284500D01*
X169116770Y-93296131D01*
X169116769Y-93296132D01*
X169050447Y-93340447D01*
X169006132Y-93406769D01*
X169006131Y-93406770D01*
X168994500Y-93465247D01*
X151719500Y-93465247D01*
X151725500Y-93442853D01*
X151725500Y-93357147D01*
X151703318Y-93274362D01*
X151692306Y-93255288D01*
X151660469Y-93200144D01*
X151660463Y-93200136D01*
X151599863Y-93139536D01*
X151599855Y-93139530D01*
X151525644Y-93096685D01*
X151525640Y-93096683D01*
X151525638Y-93096682D01*
X151442853Y-93074500D01*
X151357147Y-93074500D01*
X151274362Y-93096682D01*
X151274361Y-93096682D01*
X151274359Y-93096683D01*
X151274356Y-93096684D01*
X151254955Y-93107886D01*
X151192954Y-93124500D01*
X149831866Y-93124500D01*
X149764827Y-93104815D01*
X149744185Y-93088181D01*
X147201819Y-90545815D01*
X147168334Y-90484492D01*
X147165500Y-90458134D01*
X147165500Y-88717046D01*
X147182114Y-88655045D01*
X147193315Y-88635643D01*
X147193314Y-88635643D01*
X147193318Y-88635638D01*
X147215500Y-88552853D01*
X147215500Y-88467147D01*
X147193318Y-88384362D01*
X147169436Y-88342997D01*
X147150469Y-88310144D01*
X147150463Y-88310136D01*
X147089863Y-88249536D01*
X147089855Y-88249530D01*
X147015644Y-88206685D01*
X147015640Y-88206683D01*
X147015638Y-88206682D01*
X146932853Y-88184500D01*
X146847147Y-88184500D01*
X146764362Y-88206682D01*
X146764355Y-88206685D01*
X146690144Y-88249530D01*
X146690136Y-88249536D01*
X146629536Y-88310136D01*
X146629530Y-88310144D01*
X146586685Y-88384355D01*
X146586682Y-88384362D01*
X146564500Y-88467147D01*
X144612821Y-88467147D01*
X144593318Y-88394362D01*
X144587545Y-88384362D01*
X144550469Y-88320144D01*
X144550463Y-88320136D01*
X144489863Y-88259536D01*
X144489855Y-88259530D01*
X144415644Y-88216685D01*
X144415640Y-88216683D01*
X144415638Y-88216682D01*
X144332853Y-88194500D01*
X144247147Y-88194500D01*
X144164362Y-88216682D01*
X144164355Y-88216685D01*
X144090144Y-88259530D01*
X144090136Y-88259536D01*
X144029536Y-88320136D01*
X144029530Y-88320144D01*
X143986685Y-88394355D01*
X143986682Y-88394362D01*
X143964500Y-88477147D01*
X142795126Y-88477147D01*
X142813318Y-88445638D01*
X142819117Y-88423995D01*
X142851210Y-88368403D01*
X144317797Y-86901819D01*
X144379120Y-86868334D01*
X144405478Y-86865500D01*
X146364455Y-86865500D01*
X146431494Y-86885185D01*
X146477249Y-86937989D01*
X146487193Y-87007147D01*
X146458168Y-87070703D01*
X146452149Y-87077167D01*
X146359140Y-87170177D01*
X146333459Y-87189882D01*
X146264791Y-87229527D01*
X146264790Y-87229528D01*
X146057772Y-87436545D01*
X146002190Y-87468636D01*
X145990417Y-87471790D01*
X145990413Y-87471792D01*
X145899084Y-87524522D01*
X145824521Y-87599085D01*
X145771794Y-87690410D01*
X145771793Y-87690413D01*
X145744500Y-87792273D01*
X145744500Y-87897727D01*
X145760040Y-87955721D01*
X145771793Y-87999586D01*
X145771794Y-87999589D01*
X145773349Y-88002282D01*
X145824520Y-88090913D01*
X145899087Y-88165480D01*
X145990413Y-88218207D01*
X146092273Y-88245500D01*
X146092275Y-88245500D01*
X146197725Y-88245500D01*
X146197727Y-88245500D01*
X146299587Y-88218207D01*
X146390913Y-88165480D01*
X146465480Y-88090913D01*
X146518207Y-87999587D01*
X146521360Y-87987817D01*
X146529377Y-87973929D01*
X146532304Y-87960479D01*
X146553452Y-87932228D01*
X146635859Y-87849821D01*
X146661534Y-87830120D01*
X146730212Y-87790470D01*
X147998703Y-86521978D01*
X148060023Y-86488495D01*
X148129714Y-86493479D01*
X148185648Y-86535350D01*
X148206156Y-86577567D01*
X148226793Y-86654588D01*
X148226794Y-86654589D01*
X148279520Y-86745913D01*
X148354087Y-86820480D01*
X148445413Y-86873207D01*
X148547273Y-86900500D01*
X148547275Y-86900500D01*
X148652725Y-86900500D01*
X148652727Y-86900500D01*
X148754587Y-86873207D01*
X148765142Y-86867112D01*
X148827142Y-86850500D01*
X150346142Y-86850500D01*
X150346144Y-86850500D01*
X150435288Y-86826614D01*
X150445912Y-86820480D01*
X150515212Y-86780470D01*
X152380469Y-84915212D01*
X152426614Y-84835288D01*
X152440372Y-84783942D01*
X152450500Y-84746144D01*
X152450500Y-77396544D01*
X152470185Y-77329505D01*
X152486819Y-77308863D01*
X154208863Y-75586819D01*
X154270186Y-75553334D01*
X154296544Y-75550500D01*
X171203456Y-75550500D01*
X171270495Y-75570185D01*
X171291137Y-75586819D01*
X173323181Y-77618862D01*
X173356666Y-77680185D01*
X173359500Y-77706543D01*
X173359500Y-87762857D01*
X173342888Y-87824855D01*
X173336795Y-87835408D01*
X173336793Y-87835413D01*
X173309500Y-87937273D01*
X173309500Y-88042727D01*
X173322412Y-88090913D01*
X173336793Y-88144586D01*
X173336794Y-88144589D01*
X173348854Y-88165478D01*
X173389520Y-88235913D01*
X173464087Y-88310480D01*
X173555413Y-88363207D01*
X173657273Y-88390500D01*
X173657275Y-88390500D01*
X173762725Y-88390500D01*
X173762727Y-88390500D01*
X173864587Y-88363207D01*
X173955913Y-88310480D01*
X174030480Y-88235913D01*
X174083207Y-88144587D01*
X174110500Y-88042727D01*
X174110500Y-87937273D01*
X174083207Y-87835413D01*
X174080150Y-87830118D01*
X174077112Y-87824855D01*
X174060500Y-87762857D01*
X174060500Y-77463858D01*
X174060500Y-77463856D01*
X174036614Y-77374712D01*
X174036611Y-77374706D01*
X173990473Y-77294794D01*
X173990470Y-77294791D01*
X173990469Y-77294788D01*
X173925212Y-77229531D01*
X171615212Y-74919530D01*
X171615211Y-74919529D01*
X171615208Y-74919527D01*
X171535290Y-74873387D01*
X171535289Y-74873386D01*
X171535288Y-74873386D01*
X171446144Y-74849500D01*
X154053856Y-74849500D01*
X153964712Y-74873386D01*
X153964709Y-74873387D01*
X153884791Y-74919527D01*
X153884786Y-74919531D01*
X151819529Y-76984788D01*
X151807010Y-77006472D01*
X151801719Y-77015638D01*
X151801717Y-77015642D01*
X151773386Y-77064711D01*
X151749500Y-77153856D01*
X151749500Y-83325427D01*
X151729815Y-83392466D01*
X151677011Y-83438221D01*
X151607853Y-83448165D01*
X151544297Y-83419140D01*
X151518113Y-83387427D01*
X151477624Y-83317298D01*
X151477620Y-83317293D01*
X151417020Y-83256693D01*
X151417012Y-83256687D01*
X151342801Y-83213842D01*
X151342797Y-83213840D01*
X151342795Y-83213839D01*
X151260010Y-83191657D01*
X151174304Y-83191657D01*
X151091519Y-83213839D01*
X151091512Y-83213842D01*
X151017301Y-83256687D01*
X151017293Y-83256693D01*
X150956693Y-83317293D01*
X150956689Y-83317298D01*
X150913840Y-83391515D01*
X150913838Y-83391519D01*
X150908038Y-83413166D01*
X150900021Y-83427050D01*
X150897097Y-83440495D01*
X150875946Y-83468749D01*
X150756518Y-83588180D01*
X150695196Y-83621666D01*
X150668836Y-83624500D01*
X148555199Y-83624500D01*
X148483596Y-83654159D01*
X148457849Y-83664825D01*
X148453940Y-83666444D01*
X146402204Y-85718181D01*
X146340881Y-85751666D01*
X146314523Y-85754500D01*
X143855198Y-85754500D01*
X143783599Y-85784158D01*
X143753939Y-85796443D01*
X141674108Y-87876276D01*
X141612785Y-87909761D01*
X141543093Y-87904777D01*
X141527898Y-87897618D01*
X141525640Y-87896683D01*
X141525639Y-87896682D01*
X141525638Y-87896682D01*
X141442853Y-87874500D01*
X141357147Y-87874500D01*
X141274362Y-87896682D01*
X141274355Y-87896685D01*
X141200144Y-87939530D01*
X141200136Y-87939536D01*
X141139536Y-88000136D01*
X141139530Y-88000144D01*
X141096685Y-88074355D01*
X141096682Y-88074362D01*
X141074500Y-88157147D01*
X138537657Y-88157147D01*
X138537657Y-85213320D01*
X138557342Y-85146281D01*
X138573976Y-85125639D01*
X139752819Y-83946796D01*
X139814142Y-83913311D01*
X139883834Y-83918295D01*
X139939767Y-83960167D01*
X139964184Y-84025631D01*
X139964500Y-84034477D01*
X139964500Y-85712953D01*
X139947888Y-85774951D01*
X139936684Y-85794357D01*
X139936682Y-85794362D01*
X139914500Y-85877147D01*
X139914500Y-85962852D01*
X139936682Y-86045637D01*
X139936685Y-86045644D01*
X139979530Y-86119855D01*
X139979534Y-86119860D01*
X139979535Y-86119862D01*
X140040138Y-86180465D01*
X140040140Y-86180466D01*
X140040144Y-86180469D01*
X140114355Y-86223314D01*
X140114362Y-86223318D01*
X140197147Y-86245500D01*
X140197149Y-86245500D01*
X140282851Y-86245500D01*
X140282853Y-86245500D01*
X140365638Y-86223318D01*
X140439862Y-86180465D01*
X140500465Y-86119862D01*
X140543318Y-86045638D01*
X140565500Y-85962853D01*
X140565500Y-85877147D01*
X140543318Y-85794362D01*
X140537427Y-85784158D01*
X140532112Y-85774951D01*
X140515500Y-85712953D01*
X140515500Y-83731864D01*
X140535185Y-83664825D01*
X140551814Y-83644188D01*
X142675438Y-81520564D01*
X142736757Y-81487082D01*
X142806449Y-81492066D01*
X142862382Y-81533938D01*
X142884732Y-81584057D01*
X142919119Y-81756932D01*
X142919121Y-81756940D01*
X142995858Y-81942201D01*
X143107267Y-82108936D01*
X143107270Y-82108940D01*
X143249059Y-82250729D01*
X143249063Y-82250732D01*
X143415798Y-82362141D01*
X143601059Y-82438878D01*
X143601067Y-82438880D01*
X143797731Y-82477999D01*
X143797735Y-82478000D01*
X144180000Y-82478000D01*
X144180000Y-81760000D01*
X144680000Y-81760000D01*
X144680000Y-82478000D01*
X145062265Y-82478000D01*
X145062268Y-82477999D01*
X145258932Y-82438880D01*
X145258940Y-82438878D01*
X145353047Y-82399898D01*
X145422516Y-82392429D01*
X145484996Y-82423704D01*
X145520648Y-82483793D01*
X145524500Y-82514459D01*
X145524500Y-84800784D01*
X145504815Y-84867823D01*
X145466449Y-84904407D01*
X145466587Y-84904587D01*
X145464915Y-84905869D01*
X145462504Y-84908168D01*
X145460138Y-84909535D01*
X145460135Y-84909537D01*
X145399536Y-84970136D01*
X145399530Y-84970144D01*
X145356685Y-85044355D01*
X145356682Y-85044362D01*
X145334500Y-85127147D01*
X145334500Y-85212853D01*
X145355287Y-85290429D01*
X145356682Y-85295637D01*
X145356685Y-85295644D01*
X145399530Y-85369855D01*
X145399534Y-85369860D01*
X145399535Y-85369862D01*
X145460138Y-85430465D01*
X145460140Y-85430466D01*
X145460144Y-85430469D01*
X145525149Y-85467999D01*
X145534362Y-85473318D01*
X145617147Y-85495500D01*
X145617149Y-85495500D01*
X145702851Y-85495500D01*
X145702853Y-85495500D01*
X145785638Y-85473318D01*
X145859862Y-85430465D01*
X145920465Y-85369862D01*
X145940561Y-85335055D01*
X145963317Y-85295640D01*
X145964556Y-85291017D01*
X145965456Y-85287658D01*
X145997553Y-85232062D01*
X146033558Y-85196058D01*
X146075500Y-85094800D01*
X146075500Y-84985200D01*
X146075500Y-81750543D01*
X146081738Y-81729297D01*
X146083318Y-81707209D01*
X146091390Y-81696425D01*
X146095185Y-81683504D01*
X146111918Y-81669004D01*
X146125190Y-81651276D01*
X146137810Y-81646568D01*
X146147989Y-81637749D01*
X146169906Y-81634597D01*
X146190654Y-81626859D01*
X146203814Y-81629721D01*
X146217147Y-81627805D01*
X146237290Y-81637004D01*
X146258927Y-81641711D01*
X146276652Y-81654979D01*
X146280703Y-81656830D01*
X146287181Y-81662862D01*
X146441544Y-81817225D01*
X146473637Y-81872810D01*
X146476793Y-81884587D01*
X146529520Y-81975913D01*
X146604087Y-82050480D01*
X146695413Y-82103207D01*
X146797273Y-82130500D01*
X146797275Y-82130500D01*
X146902725Y-82130500D01*
X146902727Y-82130500D01*
X147004587Y-82103207D01*
X147095913Y-82050480D01*
X147170480Y-81975913D01*
X147223207Y-81884587D01*
X147250500Y-81782727D01*
X147250500Y-81677273D01*
X147223207Y-81575413D01*
X147170480Y-81484087D01*
X147095913Y-81409520D01*
X147004587Y-81356793D01*
X147002778Y-81356308D01*
X146992810Y-81353637D01*
X146937225Y-81321544D01*
X146612819Y-80997137D01*
X146579334Y-80935814D01*
X146576500Y-80909456D01*
X146576500Y-78875774D01*
X146596185Y-78808735D01*
X146612819Y-78788093D01*
X149544093Y-75856819D01*
X149605416Y-75823334D01*
X149631774Y-75820500D01*
X150852858Y-75820500D01*
X150914857Y-75837112D01*
X150925413Y-75843207D01*
X151027273Y-75870500D01*
X151027275Y-75870500D01*
X151132725Y-75870500D01*
X151132727Y-75870500D01*
X151234587Y-75843207D01*
X151245990Y-75836623D01*
X151291804Y-75821071D01*
X151296133Y-75820500D01*
X151296143Y-75820500D01*
X151385287Y-75796614D01*
X151465211Y-75750470D01*
X159727226Y-67488453D01*
X159782816Y-67456360D01*
X159794586Y-67453207D01*
X159885912Y-67400480D01*
X159960479Y-67325913D01*
X160013206Y-67234587D01*
X160019275Y-67211933D01*
X160055639Y-67152274D01*
X160118485Y-67121744D01*
X160187861Y-67130038D01*
X160226731Y-67156346D01*
X161678181Y-68607796D01*
X161711666Y-68669119D01*
X161714500Y-68695477D01*
X161714500Y-72632953D01*
X161697888Y-72694951D01*
X161686684Y-72714357D01*
X161686682Y-72714362D01*
X161664500Y-72797147D01*
X161664500Y-72882853D01*
X161686264Y-72964076D01*
X161686682Y-72965637D01*
X161686685Y-72965644D01*
X161729530Y-73039855D01*
X161729534Y-73039860D01*
X161729535Y-73039862D01*
X161790138Y-73100465D01*
X161790140Y-73100466D01*
X161790144Y-73100469D01*
X161859481Y-73140500D01*
X161864362Y-73143318D01*
X161947147Y-73165500D01*
X161947149Y-73165500D01*
X162032851Y-73165500D01*
X162032853Y-73165500D01*
X162115638Y-73143318D01*
X162189862Y-73100465D01*
X162250465Y-73039862D01*
X162279392Y-72989757D01*
X162329957Y-72941543D01*
X162398563Y-72928318D01*
X162463429Y-72954285D01*
X162474460Y-72964076D01*
X162608944Y-73098560D01*
X162687257Y-73130997D01*
X162710200Y-73140500D01*
X162819800Y-73140500D01*
X171242954Y-73140500D01*
X171304955Y-73157114D01*
X171324356Y-73168315D01*
X171324357Y-73168315D01*
X171324362Y-73168318D01*
X171407147Y-73190500D01*
X171407149Y-73190500D01*
X171492851Y-73190500D01*
X171492853Y-73190500D01*
X171575638Y-73168318D01*
X171649862Y-73125465D01*
X171710465Y-73064862D01*
X171753318Y-72990638D01*
X171775500Y-72907853D01*
X171775500Y-72822147D01*
X171753318Y-72739362D01*
X171753314Y-72739355D01*
X171710469Y-72665144D01*
X171710463Y-72665136D01*
X171649863Y-72604536D01*
X171649855Y-72604530D01*
X171575644Y-72561685D01*
X171575640Y-72561683D01*
X171575638Y-72561682D01*
X171492853Y-72539500D01*
X171407147Y-72539500D01*
X171324362Y-72561682D01*
X171324361Y-72561682D01*
X171324359Y-72561683D01*
X171324356Y-72561684D01*
X171304955Y-72572886D01*
X171242954Y-72589500D01*
X162930478Y-72589500D01*
X162863439Y-72569815D01*
X162842797Y-72553181D01*
X162652819Y-72363203D01*
X162619334Y-72301880D01*
X162616500Y-72275522D01*
X162616500Y-68329813D01*
X162616499Y-68329809D01*
X162583996Y-68251341D01*
X162574557Y-68228554D01*
X162574557Y-68228553D01*
X160222446Y-65876443D01*
X160222444Y-65876442D01*
X160121188Y-65834500D01*
X158589114Y-65834500D01*
X158479514Y-65834500D01*
X158479512Y-65834500D01*
X158479510Y-65834501D01*
X158378258Y-65876439D01*
X157728753Y-66525944D01*
X157721822Y-66530575D01*
X157718879Y-66534814D01*
X157704688Y-66542023D01*
X157688526Y-66552823D01*
X157681007Y-66555937D01*
X157651519Y-66563839D01*
X157625077Y-66579105D01*
X157617565Y-66582217D01*
X157597145Y-66584412D01*
X157570111Y-66591657D01*
X156884429Y-66591657D01*
X156812830Y-66621315D01*
X156783170Y-66633600D01*
X155530686Y-67886087D01*
X155453186Y-67963586D01*
X155453184Y-67963588D01*
X155411246Y-68064840D01*
X155411245Y-68064845D01*
X155411245Y-68174442D01*
X155411246Y-68174447D01*
X155453184Y-68275699D01*
X155489181Y-68311696D01*
X155503884Y-68338623D01*
X155520477Y-68364442D01*
X155521368Y-68370642D01*
X155522666Y-68373019D01*
X155525500Y-68399377D01*
X155525500Y-68400621D01*
X155505815Y-68467660D01*
X155489231Y-68488252D01*
X155488353Y-68489131D01*
X155468523Y-68499973D01*
X155453011Y-68513415D01*
X155440704Y-68515184D01*
X155427049Y-68522651D01*
X155400622Y-68525500D01*
X155399377Y-68525500D01*
X155389379Y-68522564D01*
X155383853Y-68523359D01*
X155369026Y-68516588D01*
X155332338Y-68505815D01*
X155311696Y-68489181D01*
X155275699Y-68453184D01*
X155174447Y-68411246D01*
X155174445Y-68411245D01*
X155174444Y-68411245D01*
X155064844Y-68411245D01*
X155064842Y-68411245D01*
X155064840Y-68411246D01*
X154963588Y-68453184D01*
X154753184Y-68663588D01*
X154711246Y-68764840D01*
X154711245Y-68764845D01*
X154711245Y-68874442D01*
X154711246Y-68874448D01*
X154716060Y-68886070D01*
X154717686Y-68894247D01*
X154720477Y-68898589D01*
X154725500Y-68933524D01*
X154725500Y-69000621D01*
X154705815Y-69067660D01*
X154689231Y-69088252D01*
X154688353Y-69089131D01*
X154668523Y-69099973D01*
X154653011Y-69113415D01*
X154640704Y-69115184D01*
X154627049Y-69122651D01*
X154600622Y-69125500D01*
X154533526Y-69125500D01*
X154486073Y-69116061D01*
X154474445Y-69111244D01*
X154474444Y-69111244D01*
X154364844Y-69111244D01*
X154364843Y-69111244D01*
X154263584Y-69153188D01*
X146277181Y-77139592D01*
X146257744Y-77150204D01*
X146241011Y-77164705D01*
X146227679Y-77166621D01*
X146215858Y-77173077D01*
X146193771Y-77171497D01*
X146171853Y-77174649D01*
X146159601Y-77169053D01*
X146146166Y-77168093D01*
X146128439Y-77154822D01*
X146108297Y-77145624D01*
X146101014Y-77134292D01*
X146090233Y-77126221D01*
X146082495Y-77105475D01*
X146070523Y-77086846D01*
X146067371Y-77064927D01*
X146065816Y-77060757D01*
X146065500Y-77051911D01*
X146065500Y-76857046D01*
X146082114Y-76795045D01*
X146093315Y-76775643D01*
X146093314Y-76775643D01*
X146093318Y-76775638D01*
X146115500Y-76692853D01*
X146115500Y-76607147D01*
X146093318Y-76524362D01*
X146091989Y-76522061D01*
X146083296Y-76507002D01*
X146066825Y-76439102D01*
X146089678Y-76373075D01*
X146102998Y-76357328D01*
X146140465Y-76319862D01*
X146183318Y-76245638D01*
X146205500Y-76162853D01*
X146205500Y-76077147D01*
X146183318Y-75994362D01*
X146183314Y-75994355D01*
X146140469Y-75920144D01*
X146140463Y-75920136D01*
X146079863Y-75859536D01*
X146079855Y-75859530D01*
X146005644Y-75816685D01*
X146005640Y-75816683D01*
X146005638Y-75816682D01*
X145922853Y-75794500D01*
X145837147Y-75794500D01*
X145754362Y-75816682D01*
X145754361Y-75816682D01*
X145754359Y-75816683D01*
X145754356Y-75816684D01*
X145734955Y-75827886D01*
X145672954Y-75844500D01*
X143405198Y-75844500D01*
X143333599Y-75874158D01*
X143303939Y-75886443D01*
X143303938Y-75886444D01*
X142641596Y-76548787D01*
X142586012Y-76580880D01*
X142564365Y-76586680D01*
X142564355Y-76586685D01*
X142490144Y-76629530D01*
X142490136Y-76629536D01*
X142429536Y-76690136D01*
X142429530Y-76690144D01*
X142386685Y-76764355D01*
X142386682Y-76764362D01*
X142364500Y-76847147D01*
X142364500Y-76932853D01*
X142372282Y-76961897D01*
X142386683Y-77015642D01*
X142397886Y-77035045D01*
X142414500Y-77097046D01*
X142414500Y-79944522D01*
X142394815Y-80011561D01*
X142378181Y-80032203D01*
X141064534Y-81345849D01*
X141003211Y-81379334D01*
X140933519Y-81374350D01*
X140877586Y-81332478D01*
X140855235Y-81282358D01*
X140829649Y-81153725D01*
X140750499Y-80962641D01*
X140750494Y-80962631D01*
X140635589Y-80790664D01*
X140635586Y-80790660D01*
X140489339Y-80644413D01*
X140489335Y-80644410D01*
X140317368Y-80529505D01*
X140317358Y-80529500D01*
X140126274Y-80450350D01*
X140126266Y-80450348D01*
X139923420Y-80410000D01*
X139320000Y-80410000D01*
X139320000Y-81160000D01*
X138820000Y-81160000D01*
X138820000Y-80410000D01*
X138216579Y-80410000D01*
X138013733Y-80450348D01*
X138013725Y-80450350D01*
X137822641Y-80529500D01*
X137822631Y-80529505D01*
X137650664Y-80644410D01*
X137650660Y-80644413D01*
X137504413Y-80790660D01*
X137504410Y-80790664D01*
X137407602Y-80935548D01*
X137353990Y-80980353D01*
X137284665Y-80989060D01*
X137221637Y-80958906D01*
X137184918Y-80899462D01*
X137180500Y-80866657D01*
X137180500Y-73413342D01*
X137200185Y-73346303D01*
X137252989Y-73300548D01*
X137322147Y-73290604D01*
X137385703Y-73319629D01*
X137407602Y-73344451D01*
X137504410Y-73489336D01*
X137650660Y-73635586D01*
X137650664Y-73635589D01*
X137822631Y-73750494D01*
X137822641Y-73750499D01*
X138013725Y-73829649D01*
X138013733Y-73829651D01*
X138216579Y-73869999D01*
X138216583Y-73870000D01*
X138820000Y-73870000D01*
X138820000Y-73120000D01*
X139320000Y-73120000D01*
X139320000Y-73870000D01*
X139923417Y-73870000D01*
X139923420Y-73869999D01*
X140126266Y-73829651D01*
X140126274Y-73829649D01*
X140317358Y-73750499D01*
X140317368Y-73750494D01*
X140489335Y-73635589D01*
X140489339Y-73635586D01*
X140635586Y-73489339D01*
X140635589Y-73489335D01*
X140750494Y-73317368D01*
X140750499Y-73317358D01*
X140829648Y-73126276D01*
X140829651Y-73126266D01*
X140840844Y-73070000D01*
X139986988Y-73070000D01*
X140004205Y-73060060D01*
X140060060Y-73004205D01*
X140099556Y-72935796D01*
X140120000Y-72859496D01*
X140120000Y-72780504D01*
X140099556Y-72704204D01*
X140060060Y-72635795D01*
X140004205Y-72579940D01*
X139986988Y-72570000D01*
X140840844Y-72570000D01*
X140840843Y-72569999D01*
X142909783Y-72569999D01*
X142909784Y-72570000D01*
X143763012Y-72570000D01*
X143745795Y-72579940D01*
X143689940Y-72635795D01*
X143650444Y-72704204D01*
X143630000Y-72780504D01*
X143630000Y-72859496D01*
X143650444Y-72935796D01*
X143689940Y-73004205D01*
X143745795Y-73060060D01*
X143763012Y-73070000D01*
X142909783Y-73070000D01*
X142919119Y-73116932D01*
X142919121Y-73116940D01*
X142995858Y-73302201D01*
X143107267Y-73468936D01*
X143107270Y-73468940D01*
X143249059Y-73610729D01*
X143249063Y-73610732D01*
X143415798Y-73722141D01*
X143601059Y-73798878D01*
X143601067Y-73798880D01*
X143797731Y-73837999D01*
X143797735Y-73838000D01*
X144180000Y-73838000D01*
X144180000Y-73120000D01*
X144680000Y-73120000D01*
X144680000Y-73838000D01*
X145062265Y-73838000D01*
X145062268Y-73837999D01*
X145258932Y-73798880D01*
X145258940Y-73798878D01*
X145444201Y-73722141D01*
X145610936Y-73610732D01*
X145610940Y-73610729D01*
X145752729Y-73468940D01*
X145752732Y-73468936D01*
X145864141Y-73302201D01*
X145940878Y-73116940D01*
X145940880Y-73116932D01*
X145950216Y-73070000D01*
X145096988Y-73070000D01*
X145114205Y-73060060D01*
X145170060Y-73004205D01*
X145209556Y-72935796D01*
X145230000Y-72859496D01*
X145230000Y-72780504D01*
X145209556Y-72704204D01*
X145170060Y-72635795D01*
X145114205Y-72579940D01*
X145096988Y-72570000D01*
X145950216Y-72570000D01*
X145950216Y-72569999D01*
X145940880Y-72523067D01*
X145940878Y-72523059D01*
X145864141Y-72337798D01*
X145752732Y-72171063D01*
X145752729Y-72171059D01*
X145610940Y-72029270D01*
X145610936Y-72029267D01*
X145444201Y-71917858D01*
X145258940Y-71841121D01*
X145258932Y-71841119D01*
X145062268Y-71802000D01*
X144680000Y-71802000D01*
X144680000Y-72520000D01*
X144180000Y-72520000D01*
X144180000Y-71802000D01*
X143797731Y-71802000D01*
X143601067Y-71841119D01*
X143601059Y-71841121D01*
X143415798Y-71917858D01*
X143249063Y-72029267D01*
X143249059Y-72029270D01*
X143107270Y-72171059D01*
X143107267Y-72171063D01*
X142995858Y-72337798D01*
X142919121Y-72523059D01*
X142919119Y-72523067D01*
X142909783Y-72569999D01*
X140840843Y-72569999D01*
X140829651Y-72513733D01*
X140829648Y-72513723D01*
X140750499Y-72322641D01*
X140750494Y-72322631D01*
X140635589Y-72150664D01*
X140635586Y-72150660D01*
X140489339Y-72004413D01*
X140489335Y-72004410D01*
X140317368Y-71889505D01*
X140317358Y-71889500D01*
X140126274Y-71810350D01*
X140126266Y-71810348D01*
X139923420Y-71770000D01*
X139320000Y-71770000D01*
X139320000Y-72520000D01*
X138820000Y-72520000D01*
X138820000Y-71770000D01*
X138216579Y-71770000D01*
X138013733Y-71810348D01*
X138013725Y-71810350D01*
X137822641Y-71889500D01*
X137822631Y-71889505D01*
X137650664Y-72004410D01*
X137650660Y-72004413D01*
X137504413Y-72150660D01*
X137504410Y-72150664D01*
X137407602Y-72295548D01*
X137353990Y-72340353D01*
X137284665Y-72349060D01*
X137221637Y-72318906D01*
X137184918Y-72259462D01*
X137180500Y-72226657D01*
X137180500Y-61674038D01*
X155299500Y-61674038D01*
X155299500Y-61925961D01*
X155338910Y-62174785D01*
X155416760Y-62414383D01*
X155531132Y-62638848D01*
X155679201Y-62842649D01*
X155679205Y-62842654D01*
X155857345Y-63020794D01*
X155857350Y-63020798D01*
X156035117Y-63149952D01*
X156061155Y-63168870D01*
X156204184Y-63241747D01*
X156285616Y-63283239D01*
X156285618Y-63283239D01*
X156285621Y-63283241D01*
X156525215Y-63361090D01*
X156774038Y-63400500D01*
X156774039Y-63400500D01*
X157025961Y-63400500D01*
X157025962Y-63400500D01*
X157274785Y-63361090D01*
X157514379Y-63283241D01*
X157738845Y-63168870D01*
X157942656Y-63020793D01*
X158120793Y-62842656D01*
X158268870Y-62638845D01*
X158383241Y-62414379D01*
X158461090Y-62174785D01*
X158500500Y-61925962D01*
X158500500Y-61674038D01*
X158461090Y-61425215D01*
X158383241Y-61185621D01*
X158383239Y-61185618D01*
X158383239Y-61185616D01*
X158341747Y-61104184D01*
X158268870Y-60961155D01*
X158249952Y-60935117D01*
X158120798Y-60757350D01*
X158120794Y-60757345D01*
X157942654Y-60579205D01*
X157942649Y-60579201D01*
X157738848Y-60431132D01*
X157738847Y-60431131D01*
X157738845Y-60431130D01*
X157668747Y-60395413D01*
X157514383Y-60316760D01*
X157274785Y-60238910D01*
X157025962Y-60199500D01*
X156774038Y-60199500D01*
X156649626Y-60219205D01*
X156525214Y-60238910D01*
X156285616Y-60316760D01*
X156061151Y-60431132D01*
X155857350Y-60579201D01*
X155857345Y-60579205D01*
X155679205Y-60757345D01*
X155679201Y-60757350D01*
X155531132Y-60961151D01*
X155416760Y-61185616D01*
X155338910Y-61425214D01*
X155299500Y-61674038D01*
X137180500Y-61674038D01*
X137180500Y-58934500D01*
X137200185Y-58867461D01*
X137252989Y-58821706D01*
X137304500Y-58810500D01*
X174670408Y-58810500D01*
X174737447Y-58830185D01*
G37*
%TD.AperFunction*%
%TA.AperFunction,Conductor*%
G36*
X139320000Y-82510000D02*
G01*
X139601023Y-82510000D01*
X139668062Y-82529685D01*
X139713817Y-82582489D01*
X139723761Y-82651647D01*
X139694736Y-82715203D01*
X139688704Y-82721681D01*
X137626444Y-84783940D01*
X137584500Y-84885199D01*
X137584500Y-99166180D01*
X137580275Y-99198272D01*
X137564500Y-99257145D01*
X137564500Y-99257147D01*
X137564500Y-99342853D01*
X137572283Y-99371897D01*
X137586682Y-99425637D01*
X137586685Y-99425644D01*
X137629532Y-99499858D01*
X137633488Y-99505014D01*
X137658682Y-99570183D01*
X137644644Y-99638628D01*
X137595830Y-99688617D01*
X137535112Y-99704500D01*
X137304500Y-99704500D01*
X137237461Y-99684815D01*
X137191706Y-99632011D01*
X137180500Y-99580500D01*
X137180500Y-82053342D01*
X137200185Y-81986303D01*
X137252989Y-81940548D01*
X137322147Y-81930604D01*
X137385703Y-81959629D01*
X137407602Y-81984451D01*
X137504410Y-82129336D01*
X137650660Y-82275586D01*
X137650664Y-82275589D01*
X137822631Y-82390494D01*
X137822641Y-82390499D01*
X138013725Y-82469649D01*
X138013733Y-82469651D01*
X138216579Y-82509999D01*
X138216583Y-82510000D01*
X138820000Y-82510000D01*
X138820000Y-81760000D01*
X139320000Y-81760000D01*
X139320000Y-82510000D01*
G37*
%TD.AperFunction*%
%TA.AperFunction,Conductor*%
G36*
X145443834Y-78854682D02*
G01*
X145499767Y-78896554D01*
X145524184Y-78962018D01*
X145524500Y-78970864D01*
X145524500Y-80405540D01*
X145504815Y-80472579D01*
X145452011Y-80518334D01*
X145382853Y-80528278D01*
X145353048Y-80520101D01*
X145258944Y-80481122D01*
X145258932Y-80481119D01*
X145062268Y-80442000D01*
X144680000Y-80442000D01*
X144680000Y-81160000D01*
X144180000Y-81160000D01*
X144180000Y-80442000D01*
X144053364Y-80442000D01*
X143986325Y-80422315D01*
X143940570Y-80369511D01*
X143930626Y-80300353D01*
X143959651Y-80236797D01*
X143965669Y-80230333D01*
X145312821Y-78883181D01*
X145374142Y-78849698D01*
X145443834Y-78854682D01*
G37*
%TD.AperFunction*%
%TD*%
M02*
