%TF.GenerationSoftware,KiCad,Pcbnew,9.0.1-9.0.1-0~ubuntu22.04.1*%
%TF.CreationDate,2025-05-12T10:46:38+05:30*%
%TF.ProjectId,RFID_pico,52464944-5f70-4696-936f-2e6b69636164,rev?*%
%TF.SameCoordinates,Original*%
%TF.FileFunction,Copper,L2,Inr*%
%TF.FilePolarity,Positive*%
%FSLAX46Y46*%
G04 Gerber Fmt 4.6, Leading zero omitted, Abs format (unit mm)*
G04 Created by KiCad (PCBNEW 9.0.1-9.0.1-0~ubuntu22.04.1) date 2025-05-12 10:46:38*
%MOMM*%
%LPD*%
G01*
G04 APERTURE LIST*
%TA.AperFunction,ComponentPad*%
%ADD10O,2.100000X1.036000*%
%TD*%
%TA.AperFunction,ComponentPad*%
%ADD11O,2.600000X1.100000*%
%TD*%
%TA.AperFunction,ViaPad*%
%ADD12C,0.250000*%
%TD*%
%TA.AperFunction,ViaPad*%
%ADD13C,0.400000*%
%TD*%
%TA.AperFunction,Conductor*%
%ADD14C,0.150000*%
%TD*%
G04 APERTURE END LIST*
D10*
%TO.N,GND*%
%TO.C,J1*%
X144430000Y-72820000D03*
X144430000Y-81460000D03*
D11*
X139070000Y-72820000D03*
X139070000Y-81460000D03*
%TD*%
D12*
%TO.N,GND*%
X148100000Y-77500000D03*
X147700000Y-77900000D03*
X148600000Y-77800000D03*
X154600000Y-65000000D03*
X154600000Y-64400000D03*
X153800000Y-65000000D03*
X153800000Y-64400000D03*
X153800000Y-63000000D03*
X153600000Y-62400000D03*
X153800000Y-63700000D03*
X152000000Y-65100000D03*
X152000000Y-63100000D03*
X151400000Y-63100000D03*
X151400000Y-64400000D03*
X152000000Y-63800000D03*
X152000000Y-64400000D03*
X151400000Y-65100000D03*
X151400000Y-63800000D03*
X153200000Y-65100000D03*
X153200000Y-63100000D03*
X152600000Y-63100000D03*
X152600000Y-64400000D03*
X153000000Y-62400000D03*
X153200000Y-63800000D03*
X152400000Y-62400000D03*
X153200000Y-64400000D03*
X152600000Y-65100000D03*
X152600000Y-63800000D03*
X154200000Y-59800000D03*
X153600000Y-59800000D03*
X153600000Y-61100000D03*
X154200000Y-59100000D03*
X153600000Y-59100000D03*
X153600000Y-61800000D03*
X153600000Y-60500000D03*
X152700000Y-66300000D03*
X152100000Y-65700000D03*
X151400000Y-65700000D03*
X152700000Y-65700000D03*
X173900000Y-59300000D03*
X173900000Y-60700000D03*
X173900000Y-60000000D03*
X174500000Y-60000000D03*
X174500000Y-60700000D03*
X174500000Y-59300000D03*
X173900000Y-61400000D03*
X173900000Y-62800000D03*
X173900000Y-62100000D03*
X174500000Y-62100000D03*
X174500000Y-62800000D03*
X174500000Y-61400000D03*
X173900000Y-63500000D03*
X173900000Y-64900000D03*
X173900000Y-64200000D03*
X174500000Y-64200000D03*
X174500000Y-64900000D03*
X174500000Y-63500000D03*
X173600000Y-65700000D03*
X173600000Y-67100000D03*
X173600000Y-66400000D03*
X174200000Y-66400000D03*
X174200000Y-67100000D03*
X174200000Y-65700000D03*
X173600000Y-67800000D03*
X173600000Y-69200000D03*
X173600000Y-68500000D03*
X174200000Y-68500000D03*
X174200000Y-69200000D03*
X174200000Y-67800000D03*
X173000000Y-69900000D03*
X173000000Y-71300000D03*
X173000000Y-70600000D03*
X173600000Y-70600000D03*
X173600000Y-71300000D03*
X173600000Y-69900000D03*
X171800000Y-69900000D03*
X171800000Y-71300000D03*
X171800000Y-70600000D03*
X172400000Y-70600000D03*
X172400000Y-71300000D03*
X172400000Y-69900000D03*
X172400000Y-67800000D03*
X172400000Y-69200000D03*
X172400000Y-68500000D03*
X173000000Y-68500000D03*
X173000000Y-69200000D03*
X173000000Y-67800000D03*
X172400000Y-65800000D03*
X172400000Y-67200000D03*
X172400000Y-66500000D03*
X173000000Y-66500000D03*
X173000000Y-67200000D03*
X173000000Y-65800000D03*
X159900000Y-64800000D03*
X158500000Y-64800000D03*
X159200000Y-64800000D03*
X159200000Y-65400000D03*
X158500000Y-65400000D03*
X159900000Y-65400000D03*
X160600000Y-65400000D03*
X161200000Y-66100000D03*
X161200000Y-65400000D03*
X160500000Y-63300000D03*
X160500000Y-64700000D03*
X160500000Y-64000000D03*
X161100000Y-64000000D03*
X161100000Y-64700000D03*
X161100000Y-63300000D03*
X160500000Y-61200000D03*
X160500000Y-62600000D03*
X160500000Y-61900000D03*
X161100000Y-61900000D03*
X161100000Y-62600000D03*
X161100000Y-61200000D03*
X160500000Y-59100000D03*
X160500000Y-60500000D03*
X160500000Y-59800000D03*
X161100000Y-59800000D03*
X161100000Y-60500000D03*
X161100000Y-59100000D03*
X154600000Y-69000000D03*
X154600000Y-68400000D03*
X155400000Y-68400000D03*
X153300000Y-67700000D03*
X153200000Y-69000000D03*
X153200000Y-68400000D03*
X153900000Y-68400000D03*
X153900000Y-69000000D03*
X152400000Y-69000000D03*
X151600000Y-69000000D03*
X151600000Y-68400000D03*
X152400000Y-68400000D03*
X150800000Y-68400000D03*
X152400000Y-61100000D03*
X152400000Y-61800000D03*
X153000000Y-61800000D03*
X153000000Y-61100000D03*
X152400000Y-59100000D03*
X152400000Y-60500000D03*
X152400000Y-59800000D03*
X153000000Y-59800000D03*
X153000000Y-60500000D03*
X153000000Y-59100000D03*
X152100000Y-66300000D03*
X152100000Y-67700000D03*
X152100000Y-67000000D03*
X152700000Y-67000000D03*
X152700000Y-67700000D03*
X150800000Y-66300000D03*
X150800000Y-67700000D03*
X150800000Y-67000000D03*
X151400000Y-67000000D03*
X151400000Y-67700000D03*
X151400000Y-66300000D03*
X137500000Y-59400000D03*
X137500000Y-60800000D03*
X137500000Y-60100000D03*
X138100000Y-60100000D03*
X138100000Y-60800000D03*
X138100000Y-59400000D03*
X137500000Y-61500000D03*
X137500000Y-62900000D03*
X137500000Y-62200000D03*
X138100000Y-62200000D03*
X138100000Y-62900000D03*
X138100000Y-61500000D03*
X137700000Y-63700000D03*
X137700000Y-65100000D03*
X137700000Y-64400000D03*
X138300000Y-64400000D03*
X138300000Y-65100000D03*
X138300000Y-63700000D03*
X137700000Y-65800000D03*
X137700000Y-67200000D03*
X137700000Y-66500000D03*
X138300000Y-66500000D03*
X138300000Y-67200000D03*
X138300000Y-65800000D03*
X138100000Y-67900000D03*
X138100000Y-69300000D03*
X138100000Y-68600000D03*
X138700000Y-68600000D03*
X138700000Y-69300000D03*
X138700000Y-67900000D03*
X138100000Y-69900000D03*
X138100000Y-71300000D03*
X138100000Y-70600000D03*
X138700000Y-70600000D03*
X138700000Y-71300000D03*
X138700000Y-69900000D03*
X139400000Y-69900000D03*
X139400000Y-71300000D03*
X139400000Y-70600000D03*
X140000000Y-70600000D03*
X140000000Y-71300000D03*
X140000000Y-69900000D03*
X139400000Y-67900000D03*
X139400000Y-69300000D03*
X139400000Y-68600000D03*
X140000000Y-68600000D03*
X140000000Y-69300000D03*
X140000000Y-67900000D03*
X165800000Y-63600000D03*
X165800000Y-62900000D03*
X166400000Y-62900000D03*
X166400000Y-63600000D03*
X165800000Y-64300000D03*
X165800000Y-65700000D03*
X165800000Y-65000000D03*
X166400000Y-65000000D03*
X166400000Y-65700000D03*
X166400000Y-64300000D03*
X165800000Y-66400000D03*
X165800000Y-67800000D03*
X165800000Y-67100000D03*
X166400000Y-67100000D03*
X166400000Y-67800000D03*
X166400000Y-66400000D03*
X169100000Y-68500000D03*
X169100000Y-69900000D03*
X169100000Y-69200000D03*
X169700000Y-69200000D03*
X169700000Y-69900000D03*
X169700000Y-68500000D03*
X165200000Y-68500000D03*
X165200000Y-69900000D03*
X165200000Y-69200000D03*
X165800000Y-69200000D03*
X165800000Y-69900000D03*
X165800000Y-68500000D03*
X166500000Y-68500000D03*
X166500000Y-69900000D03*
X166500000Y-69200000D03*
X167100000Y-69200000D03*
X167100000Y-69900000D03*
X167100000Y-68500000D03*
X167100000Y-59400000D03*
X167700000Y-59400000D03*
X167800000Y-68500000D03*
X167100000Y-65700000D03*
X167100000Y-67100000D03*
X167100000Y-66400000D03*
X167800000Y-60800000D03*
X168400000Y-61500000D03*
X167100000Y-60800000D03*
X167800000Y-67100000D03*
X167800000Y-65000000D03*
X167100000Y-67800000D03*
X167100000Y-65000000D03*
X167100000Y-64300000D03*
X167800000Y-69900000D03*
X168400000Y-62900000D03*
X167800000Y-61500000D03*
X167800000Y-66400000D03*
X167800000Y-69200000D03*
X168400000Y-66400000D03*
X168400000Y-64300000D03*
X168400000Y-69200000D03*
X167800000Y-62200000D03*
X167800000Y-64300000D03*
X168400000Y-62200000D03*
X167100000Y-60100000D03*
X168400000Y-59400000D03*
X167800000Y-62900000D03*
X167100000Y-62900000D03*
X167100000Y-62200000D03*
X167800000Y-60100000D03*
X167100000Y-61500000D03*
X168400000Y-65700000D03*
X168400000Y-67800000D03*
X167800000Y-67800000D03*
X167100000Y-63600000D03*
X167800000Y-63600000D03*
X168400000Y-69900000D03*
X168400000Y-68500000D03*
X168400000Y-67100000D03*
X168400000Y-60800000D03*
X168400000Y-65000000D03*
X168400000Y-63600000D03*
X167800000Y-65700000D03*
X168400000Y-60100000D03*
X148900000Y-69200000D03*
X148900000Y-69900000D03*
X148100000Y-69900000D03*
X148100000Y-69200000D03*
X148100000Y-68500000D03*
X148100000Y-67800000D03*
X148100000Y-67100000D03*
X148100000Y-66400000D03*
X147400000Y-66400000D03*
X147400000Y-67100000D03*
X147400000Y-67800000D03*
X147400000Y-68500000D03*
X147400000Y-69200000D03*
X147400000Y-69900000D03*
X144700000Y-67100000D03*
X144700000Y-66400000D03*
X144700000Y-65700000D03*
X144700000Y-65000000D03*
X143900000Y-65000000D03*
X143900000Y-65700000D03*
X143900000Y-66400000D03*
X143900000Y-67100000D03*
X143900000Y-67800000D03*
X144600000Y-67800000D03*
X145400000Y-67800000D03*
X145400000Y-67100000D03*
X145400000Y-66400000D03*
X145400000Y-65700000D03*
X145400000Y-65000000D03*
X145400000Y-64300000D03*
X144700000Y-64300000D03*
X144000000Y-64300000D03*
X143300000Y-64300000D03*
X143300000Y-65000000D03*
X143300000Y-65700000D03*
X143300000Y-66400000D03*
X143300000Y-67100000D03*
X143300000Y-67800000D03*
X143900000Y-68500000D03*
X144600000Y-68500000D03*
X145300000Y-68500000D03*
X142700000Y-68600000D03*
X143200000Y-69200000D03*
X143900000Y-69200000D03*
X144600000Y-69200000D03*
X145300000Y-69200000D03*
X146100000Y-69200000D03*
X146100000Y-68500000D03*
X146100000Y-67800000D03*
X146100000Y-67100000D03*
X146100000Y-66400000D03*
X146100000Y-65700000D03*
X146100000Y-65000000D03*
X146100000Y-64300000D03*
X146100000Y-63600000D03*
X146100000Y-62900000D03*
X145400000Y-62900000D03*
X145400000Y-63600000D03*
X144700000Y-63600000D03*
X144700000Y-62900000D03*
X144700000Y-62200000D03*
X145400000Y-62200000D03*
X146100000Y-62200000D03*
X146100000Y-61500000D03*
X145400000Y-61500000D03*
X144700000Y-61500000D03*
X144700000Y-60800000D03*
X145400000Y-60800000D03*
X146100000Y-60800000D03*
X146100000Y-60100000D03*
X145400000Y-60100000D03*
X144700000Y-60100000D03*
X144000000Y-60100000D03*
X144000000Y-60800000D03*
X144000000Y-61500000D03*
X144000000Y-62200000D03*
X144000000Y-62900000D03*
X144000000Y-63600000D03*
X143300000Y-63600000D03*
X142600000Y-63600000D03*
X142600000Y-64300000D03*
X142600000Y-65000000D03*
X142600000Y-65700000D03*
X142600000Y-66400000D03*
X142600000Y-67100000D03*
X142600000Y-67800000D03*
X141900000Y-67800000D03*
X141900000Y-68500000D03*
X142000000Y-69200000D03*
X142500000Y-69700000D03*
X143200000Y-69900000D03*
X143900000Y-69900000D03*
X144600000Y-69900000D03*
X145300000Y-69900000D03*
X146000000Y-69900000D03*
X146700000Y-69900000D03*
X146700000Y-69200000D03*
X146700000Y-68500000D03*
X146700000Y-67800000D03*
X146700000Y-67100000D03*
X146700000Y-66400000D03*
X146700000Y-65700000D03*
X146700000Y-65000000D03*
X146700000Y-64300000D03*
X146700000Y-63600000D03*
X146700000Y-62900000D03*
X146700000Y-62200000D03*
X146700000Y-61500000D03*
X146700000Y-60800000D03*
X146700000Y-60100000D03*
X146700000Y-59400000D03*
X146000000Y-59400000D03*
X145300000Y-59400000D03*
X144600000Y-59400000D03*
X143900000Y-59400000D03*
%TO.N,/TXD*%
X146890000Y-88510000D03*
X174100000Y-94300000D03*
X151400000Y-93400000D03*
%TO.N,/RXD*%
X150451000Y-94720000D03*
X172150000Y-98750000D03*
X144290000Y-88520000D03*
%TO.N,GND*%
X166800000Y-97500000D03*
X168500000Y-96500000D03*
X158200000Y-100200000D03*
X157800000Y-100200000D03*
X167700000Y-96500000D03*
X157400000Y-99800000D03*
X166200000Y-96500000D03*
X157800000Y-99800000D03*
X157800000Y-100600000D03*
X157400000Y-100600000D03*
X165700000Y-96500000D03*
X157000000Y-100600000D03*
X164200000Y-96500000D03*
X168100000Y-97500000D03*
X168100000Y-96500000D03*
X168100000Y-97000000D03*
X167700000Y-97500000D03*
X167300000Y-97000000D03*
X158600000Y-99800000D03*
X163700000Y-96500000D03*
X166800000Y-97000000D03*
X166200000Y-97000000D03*
X167300000Y-97500000D03*
X164700000Y-96500000D03*
X167700000Y-97000000D03*
X165200000Y-96500000D03*
X157400000Y-100200000D03*
X157000000Y-100200000D03*
X157000000Y-99800000D03*
X167300000Y-96500000D03*
X168500000Y-97000000D03*
X168500000Y-97500000D03*
X166800000Y-96500000D03*
X158200000Y-99800000D03*
D13*
%TO.N,2.7V*%
X146850000Y-81730000D03*
X151080000Y-75470000D03*
X159639999Y-67080000D03*
D12*
%TO.N,/MXC2*%
X145660000Y-85170000D03*
X158640000Y-66740000D03*
X161990000Y-72840000D03*
%TO.N,/MXC1*%
X157777157Y-66867157D03*
X140240000Y-85920000D03*
X171450000Y-72865000D03*
%TO.N,/GPIO1*%
X162300000Y-101200000D03*
X151217157Y-83517157D03*
X141400000Y-88200000D03*
%TO.N,/GPIO2*%
X142510000Y-88320000D03*
X163000000Y-100200000D03*
X151000000Y-84300000D03*
D13*
%TO.N,VIN*%
X146145000Y-87845000D03*
D12*
X173400000Y-93400000D03*
D13*
X149225000Y-84800000D03*
D12*
%TO.N,/GPIO3*%
X158700000Y-97700000D03*
X163500000Y-100100000D03*
X150600000Y-84954789D03*
%TO.N,/GPIO4*%
X158000000Y-98300000D03*
X164000000Y-99740000D03*
X150103000Y-85400000D03*
D13*
%TO.N,/3.3V*%
X148600000Y-86500000D03*
X173710000Y-87990000D03*
%TO.N,/RX_LED*%
X153700000Y-101100000D03*
D12*
%TO.N,USB_M*%
X145880000Y-76120000D03*
X137890000Y-99300000D03*
X164480000Y-99340000D03*
X142690000Y-76890000D03*
%TO.N,USB_P*%
X165480000Y-99300000D03*
X138262157Y-98442157D03*
X145790000Y-76650000D03*
D13*
%TO.N,/TX_LED*%
X147385000Y-98415000D03*
%TD*%
D14*
%TO.N,/RXD*%
X150451000Y-97851000D02*
X150451000Y-94720000D01*
X172150000Y-98750000D02*
X172100000Y-98800000D01*
X151400000Y-98800000D02*
X150451000Y-97851000D01*
X172100000Y-98800000D02*
X151400000Y-98800000D01*
%TD*%
M02*
