%TF.GenerationSoftware,KiCad,Pcbnew,9.0.1-9.0.1-0~ubuntu22.04.1*%
%TF.CreationDate,2025-05-12T10:46:56+05:30*%
%TF.ProjectId,RFID_pico,52464944-5f70-4696-936f-2e6b69636164,rev?*%
%TF.SameCoordinates,Original*%
%TF.FileFunction,Legend,Bot*%
%TF.FilePolarity,Positive*%
%FSLAX46Y46*%
G04 Gerber Fmt 4.6, Leading zero omitted, Abs format (unit mm)*
G04 Created by KiCad (PCBNEW 9.0.1-9.0.1-0~ubuntu22.04.1) date 2025-05-12 10:46:56*
%MOMM*%
%LPD*%
G01*
G04 APERTURE LIST*
%ADD10C,0.125000*%
%ADD11C,0.120000*%
G04 APERTURE END LIST*
D10*
X171060621Y-91607309D02*
X171298716Y-91607309D01*
X171298716Y-91607309D02*
X171322525Y-91845404D01*
X171322525Y-91845404D02*
X171298716Y-91821595D01*
X171298716Y-91821595D02*
X171251097Y-91797785D01*
X171251097Y-91797785D02*
X171132049Y-91797785D01*
X171132049Y-91797785D02*
X171084430Y-91821595D01*
X171084430Y-91821595D02*
X171060621Y-91845404D01*
X171060621Y-91845404D02*
X171036811Y-91893023D01*
X171036811Y-91893023D02*
X171036811Y-92012071D01*
X171036811Y-92012071D02*
X171060621Y-92059690D01*
X171060621Y-92059690D02*
X171084430Y-92083500D01*
X171084430Y-92083500D02*
X171132049Y-92107309D01*
X171132049Y-92107309D02*
X171251097Y-92107309D01*
X171251097Y-92107309D02*
X171298716Y-92083500D01*
X171298716Y-92083500D02*
X171322525Y-92059690D01*
X170893954Y-91607309D02*
X170727288Y-92107309D01*
X170727288Y-92107309D02*
X170560621Y-91607309D01*
X168770144Y-93632309D02*
X168484430Y-93632309D01*
X168627287Y-94132309D02*
X168627287Y-93632309D01*
X168365383Y-94132309D02*
X168103478Y-93798976D01*
X168365383Y-93798976D02*
X168103478Y-94132309D01*
X168636811Y-97756119D02*
X168684430Y-97732309D01*
X168684430Y-97732309D02*
X168755859Y-97732309D01*
X168755859Y-97732309D02*
X168827287Y-97756119D01*
X168827287Y-97756119D02*
X168874906Y-97803738D01*
X168874906Y-97803738D02*
X168898716Y-97851357D01*
X168898716Y-97851357D02*
X168922525Y-97946595D01*
X168922525Y-97946595D02*
X168922525Y-98018023D01*
X168922525Y-98018023D02*
X168898716Y-98113261D01*
X168898716Y-98113261D02*
X168874906Y-98160880D01*
X168874906Y-98160880D02*
X168827287Y-98208500D01*
X168827287Y-98208500D02*
X168755859Y-98232309D01*
X168755859Y-98232309D02*
X168708240Y-98232309D01*
X168708240Y-98232309D02*
X168636811Y-98208500D01*
X168636811Y-98208500D02*
X168613002Y-98184690D01*
X168613002Y-98184690D02*
X168613002Y-98018023D01*
X168613002Y-98018023D02*
X168708240Y-98018023D01*
X168398716Y-98232309D02*
X168398716Y-97732309D01*
X168398716Y-97732309D02*
X168113002Y-98232309D01*
X168113002Y-98232309D02*
X168113002Y-97732309D01*
X167874906Y-98232309D02*
X167874906Y-97732309D01*
X167874906Y-97732309D02*
X167755858Y-97732309D01*
X167755858Y-97732309D02*
X167684430Y-97756119D01*
X167684430Y-97756119D02*
X167636811Y-97803738D01*
X167636811Y-97803738D02*
X167613001Y-97851357D01*
X167613001Y-97851357D02*
X167589192Y-97946595D01*
X167589192Y-97946595D02*
X167589192Y-98018023D01*
X167589192Y-98018023D02*
X167613001Y-98113261D01*
X167613001Y-98113261D02*
X167636811Y-98160880D01*
X167636811Y-98160880D02*
X167684430Y-98208500D01*
X167684430Y-98208500D02*
X167755858Y-98232309D01*
X167755858Y-98232309D02*
X167874906Y-98232309D01*
X171113002Y-96132309D02*
X171279668Y-95894214D01*
X171398716Y-96132309D02*
X171398716Y-95632309D01*
X171398716Y-95632309D02*
X171208240Y-95632309D01*
X171208240Y-95632309D02*
X171160621Y-95656119D01*
X171160621Y-95656119D02*
X171136811Y-95679928D01*
X171136811Y-95679928D02*
X171113002Y-95727547D01*
X171113002Y-95727547D02*
X171113002Y-95798976D01*
X171113002Y-95798976D02*
X171136811Y-95846595D01*
X171136811Y-95846595D02*
X171160621Y-95870404D01*
X171160621Y-95870404D02*
X171208240Y-95894214D01*
X171208240Y-95894214D02*
X171398716Y-95894214D01*
X170946335Y-96132309D02*
X170684430Y-95798976D01*
X170946335Y-95798976D02*
X170684430Y-96132309D01*
D11*
%TO.C,J3*%
X170435000Y-91175000D02*
X170435000Y-93175000D01*
X170435000Y-94645000D02*
X170435000Y-97175000D01*
X170435000Y-98645000D02*
X170435000Y-99020000D01*
X172655000Y-90800000D02*
X170435000Y-90800000D01*
X172655000Y-90800000D02*
X172655000Y-91175000D01*
X172655000Y-91175000D02*
X173835000Y-91175000D01*
X172655000Y-92645000D02*
X172655000Y-95175000D01*
X172655000Y-96645000D02*
X172655000Y-99020000D01*
X172655000Y-99020000D02*
X170435000Y-99020000D01*
%TD*%
M02*
