%TF.GenerationSoftware,KiCad,Pcbnew,9.0.1-9.0.1-0~ubuntu22.04.1*%
%TF.CreationDate,2025-05-12T10:46:47+05:30*%
%TF.ProjectId,RFID_pico,52464944-5f70-4696-936f-2e6b69636164,rev?*%
%TF.SameCoordinates,Original*%
%TF.FileFunction,Paste,Top*%
%TF.FilePolarity,Positive*%
%FSLAX46Y46*%
G04 Gerber Fmt 4.6, Leading zero omitted, Abs format (unit mm)*
G04 Created by KiCad (PCBNEW 9.0.1-9.0.1-0~ubuntu22.04.1) date 2025-05-12 10:46:47*
%MOMM*%
%LPD*%
G01*
G04 APERTURE LIST*
G04 Aperture macros list*
%AMRoundRect*
0 Rectangle with rounded corners*
0 $1 Rounding radius*
0 $2 $3 $4 $5 $6 $7 $8 $9 X,Y pos of 4 corners*
0 Add a 4 corners polygon primitive as box body*
4,1,4,$2,$3,$4,$5,$6,$7,$8,$9,$2,$3,0*
0 Add four circle primitives for the rounded corners*
1,1,$1+$1,$2,$3*
1,1,$1+$1,$4,$5*
1,1,$1+$1,$6,$7*
1,1,$1+$1,$8,$9*
0 Add four rect primitives between the rounded corners*
20,1,$1+$1,$2,$3,$4,$5,0*
20,1,$1+$1,$4,$5,$6,$7,0*
20,1,$1+$1,$6,$7,$8,$9,0*
20,1,$1+$1,$8,$9,$2,$3,0*%
G04 Aperture macros list end*
%ADD10RoundRect,0.140000X0.170000X-0.140000X0.170000X0.140000X-0.170000X0.140000X-0.170000X-0.140000X0*%
%ADD11RoundRect,0.160000X0.160000X-0.197500X0.160000X0.197500X-0.160000X0.197500X-0.160000X-0.197500X0*%
%ADD12R,1.000000X1.050000*%
%ADD13R,1.050000X2.200000*%
%ADD14RoundRect,0.237500X0.287500X0.237500X-0.287500X0.237500X-0.287500X-0.237500X0.287500X-0.237500X0*%
%ADD15RoundRect,0.140000X-0.170000X0.140000X-0.170000X-0.140000X0.170000X-0.140000X0.170000X0.140000X0*%
%ADD16RoundRect,0.048750X0.146250X-0.436250X0.146250X0.436250X-0.146250X0.436250X-0.146250X-0.436250X0*%
%ADD17RoundRect,0.147500X0.172500X-0.147500X0.172500X0.147500X-0.172500X0.147500X-0.172500X-0.147500X0*%
%ADD18RoundRect,0.250000X-0.337500X-0.475000X0.337500X-0.475000X0.337500X0.475000X-0.337500X0.475000X0*%
%ADD19R,0.800000X0.800000*%
%ADD20R,0.700000X0.298000*%
%ADD21R,0.700000X0.998000*%
%ADD22RoundRect,0.147500X-0.172500X0.147500X-0.172500X-0.147500X0.172500X-0.147500X0.172500X0.147500X0*%
%ADD23RoundRect,0.073750X0.531250X0.221250X-0.531250X0.221250X-0.531250X-0.221250X0.531250X-0.221250X0*%
%ADD24RoundRect,0.237500X0.237500X-0.287500X0.237500X0.287500X-0.237500X0.287500X-0.237500X-0.287500X0*%
%ADD25RoundRect,0.212500X-0.752500X-0.212500X0.752500X-0.212500X0.752500X0.212500X-0.752500X0.212500X0*%
%ADD26RoundRect,0.212500X-0.212500X0.752500X-0.212500X-0.752500X0.212500X-0.752500X0.212500X0.752500X0*%
%ADD27RoundRect,0.225000X-0.225000X0.225000X-0.225000X-0.225000X0.225000X-0.225000X0.225000X0.225000X0*%
%ADD28R,2.925000X5.575000*%
%ADD29R,8.120000X4.275000*%
%ADD30R,4.500000X4.500000*%
%ADD31RoundRect,0.155000X-0.212500X-0.155000X0.212500X-0.155000X0.212500X0.155000X-0.212500X0.155000X0*%
%ADD32R,0.400000X1.500000*%
%ADD33R,0.228600X0.736600*%
%ADD34R,0.736600X0.228600*%
%ADD35R,1.752600X1.752600*%
%ADD36RoundRect,0.140000X0.140000X0.170000X-0.140000X0.170000X-0.140000X-0.170000X0.140000X-0.170000X0*%
%ADD37RoundRect,0.237500X-0.300000X-0.237500X0.300000X-0.237500X0.300000X0.237500X-0.300000X0.237500X0*%
%ADD38RoundRect,0.147500X0.147500X0.172500X-0.147500X0.172500X-0.147500X-0.172500X0.147500X-0.172500X0*%
%ADD39RoundRect,0.140000X-0.140000X-0.170000X0.140000X-0.170000X0.140000X0.170000X-0.140000X0.170000X0*%
G04 APERTURE END LIST*
D10*
%TO.C,C9*%
X147515778Y-79391912D03*
X147515778Y-78431912D03*
%TD*%
D11*
%TO.C,R3*%
X149750000Y-89277500D03*
X149750000Y-88082500D03*
%TD*%
%TO.C,R4*%
X150870000Y-89287500D03*
X150870000Y-88092500D03*
%TD*%
D12*
%TO.C,J8*%
X140870000Y-62095000D03*
D13*
X139395000Y-60570000D03*
X142345000Y-60570000D03*
%TD*%
D14*
%TO.C,R7*%
X140135000Y-87320000D03*
X138385000Y-87320000D03*
%TD*%
D15*
%TO.C,C8*%
X148605778Y-78431912D03*
X148605778Y-79391912D03*
%TD*%
D11*
%TO.C,R2*%
X148600000Y-89277500D03*
X148600000Y-88082500D03*
%TD*%
D10*
%TO.C,C4*%
X164050000Y-66730000D03*
X164050000Y-65770000D03*
%TD*%
D16*
%TO.C,IC1*%
X141850000Y-87280000D03*
X142500000Y-87280000D03*
X143150000Y-87280000D03*
X143150000Y-85320000D03*
X141850000Y-85320000D03*
%TD*%
D17*
%TO.C,L8*%
X172580000Y-64577500D03*
X172580000Y-63607500D03*
%TD*%
D18*
%TO.C,C11*%
X146932500Y-75300000D03*
X149007500Y-75300000D03*
%TD*%
D19*
%TO.C,D4*%
X155810000Y-98620000D03*
X155810000Y-100120000D03*
%TD*%
D20*
%TO.C,J1*%
X144840000Y-74140000D03*
X144840000Y-74640000D03*
X144840000Y-75140000D03*
X144840000Y-75640000D03*
X144840000Y-76140000D03*
X144840000Y-76640000D03*
X144840000Y-77640000D03*
X144840000Y-78140000D03*
X144840000Y-78640000D03*
X144840000Y-79140000D03*
X144840000Y-79640000D03*
X144840000Y-80140000D03*
D21*
X143540000Y-80240000D03*
D20*
X143540000Y-79390000D03*
X143540000Y-78890000D03*
X143540000Y-78390000D03*
X143540000Y-77890000D03*
X143540000Y-77390000D03*
X143540000Y-76890000D03*
X143540000Y-76390000D03*
X143540000Y-75890000D03*
X143540000Y-75390000D03*
X143540000Y-74890000D03*
D21*
X143540000Y-74040000D03*
%TD*%
D22*
%TO.C,R9*%
X138110000Y-84955000D03*
X138110000Y-85925000D03*
%TD*%
D23*
%TO.C,U3*%
X150380778Y-82621912D03*
X150380778Y-81671912D03*
X150380778Y-80721912D03*
X147870778Y-80721912D03*
X147870778Y-82621912D03*
%TD*%
D17*
%TO.C,L4*%
X148575000Y-64905000D03*
X148575000Y-63935000D03*
%TD*%
D24*
%TO.C,R6*%
X144800000Y-87175000D03*
X144800000Y-85425000D03*
%TD*%
D19*
%TO.C,D5*%
X154360000Y-98610000D03*
X154360000Y-100110000D03*
%TD*%
D25*
%TO.C,U2*%
X153157500Y-78472500D03*
X153157500Y-79722500D03*
X153157500Y-80972500D03*
X153157500Y-82222500D03*
X153157500Y-83472500D03*
X153157500Y-84722500D03*
X153157500Y-85972500D03*
X153157500Y-87222500D03*
X153157500Y-88472500D03*
X153157500Y-89722500D03*
X153157500Y-90972500D03*
X153157500Y-92222500D03*
X153157500Y-93472500D03*
X153157500Y-94722500D03*
X153157500Y-95972500D03*
X171157500Y-95972500D03*
X171157500Y-94722500D03*
X171157500Y-93472500D03*
X171157500Y-92222500D03*
X171157500Y-90972500D03*
X171157500Y-89722500D03*
X171157500Y-88472500D03*
X171157500Y-87222500D03*
X171157500Y-85972500D03*
X171157500Y-84722500D03*
X171157500Y-83472500D03*
X171157500Y-82222500D03*
X171157500Y-80972500D03*
X171157500Y-79722500D03*
X171157500Y-78472500D03*
D26*
X168407500Y-76222500D03*
X167157500Y-76222500D03*
X165907500Y-76222500D03*
X164657500Y-76222500D03*
X163407500Y-76222500D03*
X162157500Y-76222500D03*
X160907500Y-76222500D03*
D27*
X159657500Y-76222500D03*
D26*
X158407500Y-76222500D03*
X157157500Y-76222500D03*
X155907500Y-76222500D03*
D28*
X156595000Y-80660000D03*
D29*
X159467500Y-80010000D03*
D30*
X165157500Y-84922500D03*
%TD*%
D10*
%TO.C,C7*%
X150755778Y-79371912D03*
X150755778Y-78411912D03*
%TD*%
D31*
%TO.C,C10*%
X139792500Y-98880000D03*
X140927500Y-98880000D03*
%TD*%
D10*
%TO.C,C5*%
X171380000Y-66572500D03*
X171380000Y-65612500D03*
%TD*%
D17*
%TO.C,L3*%
X149700000Y-64880000D03*
X149700000Y-63910000D03*
%TD*%
%TO.C,L7*%
X171380000Y-64577500D03*
X171380000Y-63607500D03*
%TD*%
D12*
%TO.C,J4*%
X164050000Y-62055000D03*
D13*
X162575000Y-60530000D03*
X165525000Y-60530000D03*
%TD*%
D12*
%TO.C,J6*%
X149650000Y-62125000D03*
D13*
X148175000Y-60600000D03*
X151125000Y-60600000D03*
%TD*%
D22*
%TO.C,R1*%
X149705778Y-78416912D03*
X149705778Y-79386912D03*
%TD*%
D17*
%TO.C,L1*%
X140860000Y-64755000D03*
X140860000Y-63785000D03*
%TD*%
D32*
%TO.C,U4*%
X146890000Y-89930000D03*
X146240000Y-89930000D03*
X145590000Y-89930000D03*
X144940000Y-89930000D03*
X144290000Y-89930000D03*
X143640000Y-89930000D03*
X142990000Y-89930000D03*
X142340000Y-89930000D03*
X141690000Y-89930000D03*
X141040000Y-89930000D03*
X140390000Y-89930000D03*
X139740000Y-89930000D03*
X139090000Y-89930000D03*
X138440000Y-89930000D03*
X138440000Y-97180000D03*
X139090000Y-97180000D03*
X139740000Y-97180000D03*
X140390000Y-97180000D03*
X141040000Y-97180000D03*
X141690000Y-97180000D03*
X142340000Y-97180000D03*
X142990000Y-97180000D03*
X143640000Y-97180000D03*
X144290000Y-97180000D03*
X144940000Y-97180000D03*
X145590000Y-97180000D03*
X146240000Y-97180000D03*
X146890000Y-97180000D03*
%TD*%
D17*
%TO.C,L5*%
X164050000Y-64630000D03*
X164050000Y-63660000D03*
%TD*%
D33*
%TO.C,U1*%
X160140000Y-68619000D03*
X159639999Y-68619000D03*
X159139999Y-68619000D03*
X158639998Y-68619000D03*
D34*
X157929499Y-69329499D03*
X157929499Y-69829500D03*
X157929499Y-70329500D03*
X157929499Y-70829501D03*
D33*
X158639998Y-71540000D03*
X159139999Y-71540000D03*
X159639999Y-71540000D03*
X160140000Y-71540000D03*
D34*
X160850499Y-70829501D03*
X160850499Y-70329500D03*
X160850499Y-69829500D03*
X160850499Y-69329499D03*
D35*
X159389999Y-70079500D03*
%TD*%
D17*
%TO.C,L6*%
X162850000Y-64615000D03*
X162850000Y-63645000D03*
%TD*%
D36*
%TO.C,C13*%
X142660000Y-83630000D03*
X141700000Y-83630000D03*
%TD*%
D37*
%TO.C,C6*%
X154537500Y-66800000D03*
X156262500Y-66800000D03*
%TD*%
D19*
%TO.C,D6*%
X152900000Y-98630000D03*
X152900000Y-100130000D03*
%TD*%
D10*
%TO.C,C1*%
X159660000Y-74000000D03*
X159660000Y-73040000D03*
%TD*%
D38*
%TO.C,R8*%
X147245000Y-85170000D03*
X146275000Y-85170000D03*
%TD*%
D14*
%TO.C,F1*%
X148605000Y-72790000D03*
X146855000Y-72790000D03*
%TD*%
D17*
%TO.C,L2*%
X139560000Y-64755000D03*
X139560000Y-63785000D03*
%TD*%
D10*
%TO.C,C14*%
X139350000Y-85920000D03*
X139350000Y-84960000D03*
%TD*%
D39*
%TO.C,C15*%
X146270000Y-86410000D03*
X147230000Y-86410000D03*
%TD*%
D10*
%TO.C,C2*%
X140860000Y-66850000D03*
X140860000Y-65890000D03*
%TD*%
%TO.C,C3*%
X149720000Y-67050000D03*
X149720000Y-66090000D03*
%TD*%
D12*
%TO.C,J5*%
X171380000Y-62017500D03*
D13*
X169905000Y-60492500D03*
X172855000Y-60492500D03*
%TD*%
M02*
