%TF.GenerationSoftware,KiCad,Pcbnew,9.0.1-9.0.1-0~ubuntu22.04.1*%
%TF.CreationDate,2025-05-12T10:46:59+05:30*%
%TF.ProjectId,RFID_pico,52464944-5f70-4696-936f-2e6b69636164,rev?*%
%TF.SameCoordinates,Original*%
%TF.FileFunction,Soldermask,Top*%
%TF.FilePolarity,Negative*%
%FSLAX46Y46*%
G04 Gerber Fmt 4.6, Leading zero omitted, Abs format (unit mm)*
G04 Created by KiCad (PCBNEW 9.0.1-9.0.1-0~ubuntu22.04.1) date 2025-05-12 10:46:59*
%MOMM*%
%LPD*%
G01*
G04 APERTURE LIST*
G04 Aperture macros list*
%AMRoundRect*
0 Rectangle with rounded corners*
0 $1 Rounding radius*
0 $2 $3 $4 $5 $6 $7 $8 $9 X,Y pos of 4 corners*
0 Add a 4 corners polygon primitive as box body*
4,1,4,$2,$3,$4,$5,$6,$7,$8,$9,$2,$3,0*
0 Add four circle primitives for the rounded corners*
1,1,$1+$1,$2,$3*
1,1,$1+$1,$4,$5*
1,1,$1+$1,$6,$7*
1,1,$1+$1,$8,$9*
0 Add four rect primitives between the rounded corners*
20,1,$1+$1,$2,$3,$4,$5,0*
20,1,$1+$1,$4,$5,$6,$7,0*
20,1,$1+$1,$6,$7,$8,$9,0*
20,1,$1+$1,$8,$9,$2,$3,0*%
%AMFreePoly0*
4,1,23,0.500000,-0.750000,0.000000,-0.750000,0.000000,-0.745722,-0.065263,-0.745722,-0.191342,-0.711940,-0.304381,-0.646677,-0.396677,-0.554381,-0.461940,-0.441342,-0.495722,-0.315263,-0.495722,-0.250000,-0.500000,-0.250000,-0.500000,0.250000,-0.495722,0.250000,-0.495722,0.315263,-0.461940,0.441342,-0.396677,0.554381,-0.304381,0.646677,-0.191342,0.711940,-0.065263,0.745722,0.000000,0.745722,
0.000000,0.750000,0.500000,0.750000,0.500000,-0.750000,0.500000,-0.750000,$1*%
%AMFreePoly1*
4,1,23,0.000000,0.745722,0.065263,0.745722,0.191342,0.711940,0.304381,0.646677,0.396677,0.554381,0.461940,0.441342,0.495722,0.315263,0.495722,0.250000,0.500000,0.250000,0.500000,-0.250000,0.495722,-0.250000,0.495722,-0.315263,0.461940,-0.441342,0.396677,-0.554381,0.304381,-0.646677,0.191342,-0.711940,0.065263,-0.745722,0.000000,-0.745722,0.000000,-0.750000,-0.500000,-0.750000,
-0.500000,0.750000,0.000000,0.750000,0.000000,0.745722,0.000000,0.745722,$1*%
G04 Aperture macros list end*
%ADD10C,0.010000*%
%ADD11C,2.700000*%
%ADD12RoundRect,0.140000X0.170000X-0.140000X0.170000X0.140000X-0.170000X0.140000X-0.170000X-0.140000X0*%
%ADD13RoundRect,0.160000X0.160000X-0.197500X0.160000X0.197500X-0.160000X0.197500X-0.160000X-0.197500X0*%
%ADD14RoundRect,0.102000X0.500000X-0.525000X0.500000X0.525000X-0.500000X0.525000X-0.500000X-0.525000X0*%
%ADD15RoundRect,0.102000X0.525000X-1.100000X0.525000X1.100000X-0.525000X1.100000X-0.525000X-1.100000X0*%
%ADD16RoundRect,0.237500X0.287500X0.237500X-0.287500X0.237500X-0.287500X-0.237500X0.287500X-0.237500X0*%
%ADD17R,1.000000X1.000000*%
%ADD18RoundRect,0.140000X-0.170000X0.140000X-0.170000X-0.140000X0.170000X-0.140000X0.170000X0.140000X0*%
%ADD19RoundRect,0.074250X0.222750X-0.512750X0.222750X0.512750X-0.222750X0.512750X-0.222750X-0.512750X0*%
%ADD20FreePoly0,0.000000*%
%ADD21FreePoly1,0.000000*%
%ADD22R,0.350000X1.450000*%
%ADD23RoundRect,0.147500X0.172500X-0.147500X0.172500X0.147500X-0.172500X0.147500X-0.172500X-0.147500X0*%
%ADD24RoundRect,0.250000X-0.337500X-0.475000X0.337500X-0.475000X0.337500X0.475000X-0.337500X0.475000X0*%
%ADD25RoundRect,0.102000X0.400000X-0.400000X0.400000X0.400000X-0.400000X0.400000X-0.400000X-0.400000X0*%
%ADD26O,2.252400X1.188400*%
%ADD27O,2.752400X1.252400*%
%ADD28RoundRect,0.147500X-0.172500X0.147500X-0.172500X-0.147500X0.172500X-0.147500X0.172500X0.147500X0*%
%ADD29RoundRect,0.099250X0.607750X0.297750X-0.607750X0.297750X-0.607750X-0.297750X0.607750X-0.297750X0*%
%ADD30FreePoly0,180.000000*%
%ADD31FreePoly1,180.000000*%
%ADD32RoundRect,0.237500X0.237500X-0.287500X0.237500X0.287500X-0.237500X0.287500X-0.237500X-0.287500X0*%
%ADD33RoundRect,0.212500X-0.752500X-0.212500X0.752500X-0.212500X0.752500X0.212500X-0.752500X0.212500X0*%
%ADD34RoundRect,0.212500X-0.212500X0.752500X-0.212500X-0.752500X0.212500X-0.752500X0.212500X0.752500X0*%
%ADD35RoundRect,0.225000X-0.225000X0.225000X-0.225000X-0.225000X0.225000X-0.225000X0.225000X0.225000X0*%
%ADD36R,2.925000X5.575000*%
%ADD37R,8.120000X4.275000*%
%ADD38R,4.500000X4.500000*%
%ADD39RoundRect,0.155000X-0.212500X-0.155000X0.212500X-0.155000X0.212500X0.155000X-0.212500X0.155000X0*%
%ADD40RoundRect,0.102000X0.200000X0.750000X-0.200000X0.750000X-0.200000X-0.750000X0.200000X-0.750000X0*%
%ADD41R,0.228600X0.736600*%
%ADD42R,0.736600X0.228600*%
%ADD43R,1.752600X1.752600*%
%ADD44RoundRect,0.140000X0.140000X0.170000X-0.140000X0.170000X-0.140000X-0.170000X0.140000X-0.170000X0*%
%ADD45RoundRect,0.237500X-0.300000X-0.237500X0.300000X-0.237500X0.300000X0.237500X-0.300000X0.237500X0*%
%ADD46RoundRect,0.147500X0.147500X0.172500X-0.147500X0.172500X-0.147500X-0.172500X0.147500X-0.172500X0*%
%ADD47RoundRect,0.140000X-0.140000X-0.170000X0.140000X-0.170000X0.140000X0.170000X-0.140000X0.170000X0*%
G04 APERTURE END LIST*
D10*
%TO.C,J1*%
X143953500Y-74602500D02*
X143126500Y-74602500D01*
X143126500Y-73477500D01*
X143953500Y-73477500D01*
X143953500Y-74602500D01*
G36*
X143953500Y-74602500D02*
G01*
X143126500Y-74602500D01*
X143126500Y-73477500D01*
X143953500Y-73477500D01*
X143953500Y-74602500D01*
G37*
X143953500Y-75102500D02*
X143126500Y-75102500D01*
X143126500Y-74677500D01*
X143953500Y-74677500D01*
X143953500Y-75102500D01*
G36*
X143953500Y-75102500D02*
G01*
X143126500Y-75102500D01*
X143126500Y-74677500D01*
X143953500Y-74677500D01*
X143953500Y-75102500D01*
G37*
X143953500Y-75602500D02*
X143126500Y-75602500D01*
X143126500Y-75177500D01*
X143953500Y-75177500D01*
X143953500Y-75602500D01*
G36*
X143953500Y-75602500D02*
G01*
X143126500Y-75602500D01*
X143126500Y-75177500D01*
X143953500Y-75177500D01*
X143953500Y-75602500D01*
G37*
X143953500Y-76102500D02*
X143126500Y-76102500D01*
X143126500Y-75677500D01*
X143953500Y-75677500D01*
X143953500Y-76102500D01*
G36*
X143953500Y-76102500D02*
G01*
X143126500Y-76102500D01*
X143126500Y-75677500D01*
X143953500Y-75677500D01*
X143953500Y-76102500D01*
G37*
X143953500Y-76602500D02*
X143126500Y-76602500D01*
X143126500Y-76177500D01*
X143953500Y-76177500D01*
X143953500Y-76602500D01*
G36*
X143953500Y-76602500D02*
G01*
X143126500Y-76602500D01*
X143126500Y-76177500D01*
X143953500Y-76177500D01*
X143953500Y-76602500D01*
G37*
X143953500Y-77102500D02*
X143126500Y-77102500D01*
X143126500Y-76677500D01*
X143953500Y-76677500D01*
X143953500Y-77102500D01*
G36*
X143953500Y-77102500D02*
G01*
X143126500Y-77102500D01*
X143126500Y-76677500D01*
X143953500Y-76677500D01*
X143953500Y-77102500D01*
G37*
X143953500Y-77602500D02*
X143126500Y-77602500D01*
X143126500Y-77177500D01*
X143953500Y-77177500D01*
X143953500Y-77602500D01*
G36*
X143953500Y-77602500D02*
G01*
X143126500Y-77602500D01*
X143126500Y-77177500D01*
X143953500Y-77177500D01*
X143953500Y-77602500D01*
G37*
X143953500Y-78102500D02*
X143126500Y-78102500D01*
X143126500Y-77677500D01*
X143953500Y-77677500D01*
X143953500Y-78102500D01*
G36*
X143953500Y-78102500D02*
G01*
X143126500Y-78102500D01*
X143126500Y-77677500D01*
X143953500Y-77677500D01*
X143953500Y-78102500D01*
G37*
X143953500Y-78602500D02*
X143126500Y-78602500D01*
X143126500Y-78177500D01*
X143953500Y-78177500D01*
X143953500Y-78602500D01*
G36*
X143953500Y-78602500D02*
G01*
X143126500Y-78602500D01*
X143126500Y-78177500D01*
X143953500Y-78177500D01*
X143953500Y-78602500D01*
G37*
X143953500Y-79102500D02*
X143126500Y-79102500D01*
X143126500Y-78677500D01*
X143953500Y-78677500D01*
X143953500Y-79102500D01*
G36*
X143953500Y-79102500D02*
G01*
X143126500Y-79102500D01*
X143126500Y-78677500D01*
X143953500Y-78677500D01*
X143953500Y-79102500D01*
G37*
X143953500Y-79602500D02*
X143126500Y-79602500D01*
X143126500Y-79177500D01*
X143953500Y-79177500D01*
X143953500Y-79602500D01*
G36*
X143953500Y-79602500D02*
G01*
X143126500Y-79602500D01*
X143126500Y-79177500D01*
X143953500Y-79177500D01*
X143953500Y-79602500D01*
G37*
X143953500Y-80802500D02*
X143126500Y-80802500D01*
X143126500Y-79677500D01*
X143953500Y-79677500D01*
X143953500Y-80802500D01*
G36*
X143953500Y-80802500D02*
G01*
X143126500Y-80802500D01*
X143126500Y-79677500D01*
X143953500Y-79677500D01*
X143953500Y-80802500D01*
G37*
X145253500Y-74352500D02*
X144426500Y-74352500D01*
X144426500Y-73927500D01*
X145253500Y-73927500D01*
X145253500Y-74352500D01*
G36*
X145253500Y-74352500D02*
G01*
X144426500Y-74352500D01*
X144426500Y-73927500D01*
X145253500Y-73927500D01*
X145253500Y-74352500D01*
G37*
X145253500Y-74852500D02*
X144426500Y-74852500D01*
X144426500Y-74427500D01*
X145253500Y-74427500D01*
X145253500Y-74852500D01*
G36*
X145253500Y-74852500D02*
G01*
X144426500Y-74852500D01*
X144426500Y-74427500D01*
X145253500Y-74427500D01*
X145253500Y-74852500D01*
G37*
X145253500Y-75352500D02*
X144426500Y-75352500D01*
X144426500Y-74927500D01*
X145253500Y-74927500D01*
X145253500Y-75352500D01*
G36*
X145253500Y-75352500D02*
G01*
X144426500Y-75352500D01*
X144426500Y-74927500D01*
X145253500Y-74927500D01*
X145253500Y-75352500D01*
G37*
X145253500Y-75852500D02*
X144426500Y-75852500D01*
X144426500Y-75427500D01*
X145253500Y-75427500D01*
X145253500Y-75852500D01*
G36*
X145253500Y-75852500D02*
G01*
X144426500Y-75852500D01*
X144426500Y-75427500D01*
X145253500Y-75427500D01*
X145253500Y-75852500D01*
G37*
X145253500Y-76352500D02*
X144426500Y-76352500D01*
X144426500Y-75927500D01*
X145253500Y-75927500D01*
X145253500Y-76352500D01*
G36*
X145253500Y-76352500D02*
G01*
X144426500Y-76352500D01*
X144426500Y-75927500D01*
X145253500Y-75927500D01*
X145253500Y-76352500D01*
G37*
X145253500Y-76852500D02*
X144426500Y-76852500D01*
X144426500Y-76427500D01*
X145253500Y-76427500D01*
X145253500Y-76852500D01*
G36*
X145253500Y-76852500D02*
G01*
X144426500Y-76852500D01*
X144426500Y-76427500D01*
X145253500Y-76427500D01*
X145253500Y-76852500D01*
G37*
X145253500Y-77852500D02*
X144426500Y-77852500D01*
X144426500Y-77427500D01*
X145253500Y-77427500D01*
X145253500Y-77852500D01*
G36*
X145253500Y-77852500D02*
G01*
X144426500Y-77852500D01*
X144426500Y-77427500D01*
X145253500Y-77427500D01*
X145253500Y-77852500D01*
G37*
X145253500Y-78352500D02*
X144426500Y-78352500D01*
X144426500Y-77927500D01*
X145253500Y-77927500D01*
X145253500Y-78352500D01*
G36*
X145253500Y-78352500D02*
G01*
X144426500Y-78352500D01*
X144426500Y-77927500D01*
X145253500Y-77927500D01*
X145253500Y-78352500D01*
G37*
X145253500Y-78852500D02*
X144426500Y-78852500D01*
X144426500Y-78427500D01*
X145253500Y-78427500D01*
X145253500Y-78852500D01*
G36*
X145253500Y-78852500D02*
G01*
X144426500Y-78852500D01*
X144426500Y-78427500D01*
X145253500Y-78427500D01*
X145253500Y-78852500D01*
G37*
X145253500Y-79352500D02*
X144426500Y-79352500D01*
X144426500Y-78927500D01*
X145253500Y-78927500D01*
X145253500Y-79352500D01*
G36*
X145253500Y-79352500D02*
G01*
X144426500Y-79352500D01*
X144426500Y-78927500D01*
X145253500Y-78927500D01*
X145253500Y-79352500D01*
G37*
X145253500Y-79852500D02*
X144426500Y-79852500D01*
X144426500Y-79427500D01*
X145253500Y-79427500D01*
X145253500Y-79852500D01*
G36*
X145253500Y-79852500D02*
G01*
X144426500Y-79852500D01*
X144426500Y-79427500D01*
X145253500Y-79427500D01*
X145253500Y-79852500D01*
G37*
X145253500Y-80352500D02*
X144426500Y-80352500D01*
X144426500Y-79927500D01*
X145253500Y-79927500D01*
X145253500Y-80352500D01*
G36*
X145253500Y-80352500D02*
G01*
X144426500Y-80352500D01*
X144426500Y-79927500D01*
X145253500Y-79927500D01*
X145253500Y-80352500D01*
G37*
%TD*%
D11*
%TO.C,REF\u002A\u002A*%
X156900000Y-61800000D03*
%TD*%
D12*
%TO.C,C9*%
X147515778Y-79391912D03*
X147515778Y-78431912D03*
%TD*%
D13*
%TO.C,R3*%
X149750000Y-89277500D03*
X149750000Y-88082500D03*
%TD*%
%TO.C,R4*%
X150870000Y-89287500D03*
X150870000Y-88092500D03*
%TD*%
D14*
%TO.C,J8*%
X140870000Y-62095000D03*
D15*
X139395000Y-60570000D03*
X142345000Y-60570000D03*
%TD*%
D16*
%TO.C,R7*%
X140135000Y-87320000D03*
X138385000Y-87320000D03*
%TD*%
D17*
%TO.C,TP3*%
X173710000Y-89740000D03*
%TD*%
D18*
%TO.C,C8*%
X148605778Y-78431912D03*
X148605778Y-79391912D03*
%TD*%
D13*
%TO.C,R2*%
X148600000Y-89277500D03*
X148600000Y-88082500D03*
%TD*%
D17*
%TO.C,TP2*%
X173400000Y-98400000D03*
%TD*%
D12*
%TO.C,C4*%
X164050000Y-66730000D03*
X164050000Y-65770000D03*
%TD*%
D19*
%TO.C,IC1*%
X141850000Y-87280000D03*
X142500000Y-87280000D03*
X143150000Y-87280000D03*
X143150000Y-85320000D03*
X141850000Y-85320000D03*
%TD*%
D20*
%TO.C,MXC2*%
X164690000Y-72840000D03*
D21*
X165990000Y-72840000D03*
%TD*%
D22*
%TO.C,J7*%
X166480000Y-102430000D03*
X165980000Y-102430000D03*
X165480000Y-102430000D03*
X164980000Y-102430000D03*
X164480000Y-102430000D03*
X163980000Y-102430000D03*
X163480000Y-102430000D03*
X162980000Y-102430000D03*
X162480000Y-102430000D03*
X161980000Y-102430000D03*
X161480000Y-102430000D03*
X160980000Y-102430000D03*
X158480000Y-102430000D03*
X157980000Y-102430000D03*
X157480000Y-102430000D03*
X156980000Y-102430000D03*
X156480000Y-102430000D03*
X155980000Y-102430000D03*
X155480000Y-102430000D03*
X154980000Y-102430000D03*
X154480000Y-102430000D03*
X153980000Y-102430000D03*
X153480000Y-102430000D03*
X152980000Y-102430000D03*
X152480000Y-102430000D03*
X151980000Y-102430000D03*
X151480000Y-102430000D03*
X150980000Y-102430000D03*
X150480000Y-102430000D03*
X149980000Y-102430000D03*
X149480000Y-102430000D03*
X148980000Y-102430000D03*
X148480000Y-102430000D03*
X147980000Y-102430000D03*
%TD*%
D23*
%TO.C,L8*%
X172580000Y-64577500D03*
X172580000Y-63607500D03*
%TD*%
D24*
%TO.C,C11*%
X146932500Y-75300000D03*
X149007500Y-75300000D03*
%TD*%
D25*
%TO.C,D4*%
X155810000Y-98620000D03*
X155810000Y-100120000D03*
%TD*%
D17*
%TO.C,TP1*%
X151080000Y-73040000D03*
%TD*%
D26*
%TO.C,J1*%
X144430000Y-72820000D03*
X144430000Y-81460000D03*
D27*
X139070000Y-72820000D03*
X139070000Y-81460000D03*
%TD*%
D28*
%TO.C,R9*%
X138110000Y-84955000D03*
X138110000Y-85925000D03*
%TD*%
D29*
%TO.C,U3*%
X150380778Y-82621912D03*
X150380778Y-81671912D03*
X150380778Y-80721912D03*
X147870778Y-80721912D03*
X147870778Y-82621912D03*
%TD*%
D23*
%TO.C,L4*%
X148575000Y-64905000D03*
X148575000Y-63935000D03*
%TD*%
D30*
%TO.C,MXC1*%
X170070000Y-72810000D03*
D31*
X168770000Y-72810000D03*
%TD*%
D32*
%TO.C,R6*%
X144800000Y-87175000D03*
X144800000Y-85425000D03*
%TD*%
D25*
%TO.C,D5*%
X154360000Y-98610000D03*
X154360000Y-100110000D03*
%TD*%
D33*
%TO.C,U2*%
X153157500Y-78472500D03*
X153157500Y-79722500D03*
X153157500Y-80972500D03*
X153157500Y-82222500D03*
X153157500Y-83472500D03*
X153157500Y-84722500D03*
X153157500Y-85972500D03*
X153157500Y-87222500D03*
X153157500Y-88472500D03*
X153157500Y-89722500D03*
X153157500Y-90972500D03*
X153157500Y-92222500D03*
X153157500Y-93472500D03*
X153157500Y-94722500D03*
X153157500Y-95972500D03*
X171157500Y-95972500D03*
X171157500Y-94722500D03*
X171157500Y-93472500D03*
X171157500Y-92222500D03*
X171157500Y-90972500D03*
X171157500Y-89722500D03*
X171157500Y-88472500D03*
X171157500Y-87222500D03*
X171157500Y-85972500D03*
X171157500Y-84722500D03*
X171157500Y-83472500D03*
X171157500Y-82222500D03*
X171157500Y-80972500D03*
X171157500Y-79722500D03*
X171157500Y-78472500D03*
D34*
X168407500Y-76222500D03*
X167157500Y-76222500D03*
X165907500Y-76222500D03*
X164657500Y-76222500D03*
X163407500Y-76222500D03*
X162157500Y-76222500D03*
X160907500Y-76222500D03*
D35*
X159657500Y-76222500D03*
D34*
X158407500Y-76222500D03*
X157157500Y-76222500D03*
X155907500Y-76222500D03*
D36*
X156595000Y-80660000D03*
D37*
X159467500Y-80010000D03*
D38*
X165157500Y-84922500D03*
%TD*%
D12*
%TO.C,C7*%
X150755778Y-79371912D03*
X150755778Y-78411912D03*
%TD*%
D39*
%TO.C,C10*%
X139792500Y-98880000D03*
X140927500Y-98880000D03*
%TD*%
D12*
%TO.C,C5*%
X171380000Y-66572500D03*
X171380000Y-65612500D03*
%TD*%
D23*
%TO.C,L3*%
X149700000Y-64880000D03*
X149700000Y-63910000D03*
%TD*%
%TO.C,L7*%
X171380000Y-64577500D03*
X171380000Y-63607500D03*
%TD*%
D14*
%TO.C,J4*%
X164050000Y-62055000D03*
D15*
X162575000Y-60530000D03*
X165525000Y-60530000D03*
%TD*%
D14*
%TO.C,J6*%
X149650000Y-62125000D03*
D15*
X148175000Y-60600000D03*
X151125000Y-60600000D03*
%TD*%
D28*
%TO.C,R1*%
X149705778Y-78416912D03*
X149705778Y-79386912D03*
%TD*%
D23*
%TO.C,L1*%
X140860000Y-64755000D03*
X140860000Y-63785000D03*
%TD*%
D40*
%TO.C,U4*%
X146890000Y-89930000D03*
X146240000Y-89930000D03*
X145590000Y-89930000D03*
X144940000Y-89930000D03*
X144290000Y-89930000D03*
X143640000Y-89930000D03*
X142990000Y-89930000D03*
X142340000Y-89930000D03*
X141690000Y-89930000D03*
X141040000Y-89930000D03*
X140390000Y-89930000D03*
X139740000Y-89930000D03*
X139090000Y-89930000D03*
X138440000Y-89930000D03*
X138440000Y-97180000D03*
X139090000Y-97180000D03*
X139740000Y-97180000D03*
X140390000Y-97180000D03*
X141040000Y-97180000D03*
X141690000Y-97180000D03*
X142340000Y-97180000D03*
X142990000Y-97180000D03*
X143640000Y-97180000D03*
X144290000Y-97180000D03*
X144940000Y-97180000D03*
X145590000Y-97180000D03*
X146240000Y-97180000D03*
X146890000Y-97180000D03*
%TD*%
D23*
%TO.C,L5*%
X164050000Y-64630000D03*
X164050000Y-63660000D03*
%TD*%
D41*
%TO.C,U1*%
X160140000Y-68619000D03*
X159639999Y-68619000D03*
X159139999Y-68619000D03*
X158639998Y-68619000D03*
D42*
X157929499Y-69329499D03*
X157929499Y-69829500D03*
X157929499Y-70329500D03*
X157929499Y-70829501D03*
D41*
X158639998Y-71540000D03*
X159139999Y-71540000D03*
X159639999Y-71540000D03*
X160140000Y-71540000D03*
D42*
X160850499Y-70829501D03*
X160850499Y-70329500D03*
X160850499Y-69829500D03*
X160850499Y-69329499D03*
D43*
X159389999Y-70079500D03*
%TD*%
D23*
%TO.C,L6*%
X162850000Y-64615000D03*
X162850000Y-63645000D03*
%TD*%
D44*
%TO.C,C13*%
X142660000Y-83630000D03*
X141700000Y-83630000D03*
%TD*%
D45*
%TO.C,C6*%
X154537500Y-66800000D03*
X156262500Y-66800000D03*
%TD*%
D25*
%TO.C,D6*%
X152900000Y-98630000D03*
X152900000Y-100130000D03*
%TD*%
D12*
%TO.C,C1*%
X159660000Y-74000000D03*
X159660000Y-73040000D03*
%TD*%
D46*
%TO.C,R8*%
X147245000Y-85170000D03*
X146275000Y-85170000D03*
%TD*%
D16*
%TO.C,F1*%
X148605000Y-72790000D03*
X146855000Y-72790000D03*
%TD*%
D23*
%TO.C,L2*%
X139560000Y-64755000D03*
X139560000Y-63785000D03*
%TD*%
D12*
%TO.C,C14*%
X139350000Y-85920000D03*
X139350000Y-84960000D03*
%TD*%
D47*
%TO.C,C15*%
X146270000Y-86410000D03*
X147230000Y-86410000D03*
%TD*%
D12*
%TO.C,C2*%
X140860000Y-66850000D03*
X140860000Y-65890000D03*
%TD*%
%TO.C,C3*%
X149720000Y-67050000D03*
X149720000Y-66090000D03*
%TD*%
D14*
%TO.C,J5*%
X171380000Y-62017500D03*
D15*
X169905000Y-60492500D03*
X172855000Y-60492500D03*
%TD*%
M02*
